<svg width="56" height="34" viewBox="0 0 56 34" fill="none" xmlns="http://www.w3.org/2000/svg">
<path fill-rule="evenodd" clip-rule="evenodd" d="M8.75 0.083374C6.56196 0.083374 4.46354 0.847211 2.91637 2.20685C1.36919 3.56649 0.5 5.41055 0.5 7.33337V26.6667C0.5 28.5895 1.36919 30.4336 2.91637 31.7932C4.46354 33.1529 6.56196 33.9167 8.75 33.9167H36.25C38.438 33.9167 40.5365 33.1529 42.0836 31.7932C43.6308 30.4336 44.5 28.5895 44.5 26.6667V22.8339L50.8057 28.3753C51.1903 28.7132 51.6803 28.9432 52.2137 29.0364C52.747 29.1297 53.2999 29.0818 53.8023 28.8989C54.3047 28.7161 54.7342 28.4064 55.0364 28.0091C55.3385 27.6117 55.4999 27.1446 55.5 26.6667V7.33337C55.4999 6.85548 55.3385 6.38834 55.0364 5.99102C54.7342 5.59369 54.3047 5.28402 53.8023 5.10115C53.2999 4.91828 52.747 4.87042 52.2137 4.96363C51.6803 5.05683 51.1903 5.28692 50.8057 5.62479L44.5 11.1662V7.33337C44.5 5.41055 43.6308 3.56649 42.0836 2.20685C40.5365 0.847211 38.438 0.083374 36.25 0.083374H8.75Z" fill="#333333"/>
</svg>
