<svg width="390" height="844" viewBox="0 0 390 844" fill="none" xmlns="http://www.w3.org/2000/svg">
<g clip-path="url(#clip0_771_73)">
<rect width="390" height="844" fill="white"/>
<g filter="url(#filter0_d_771_73)">
<rect x="1" y="15" width="390" height="64" fill="white"/>
</g>
<path d="M72.4811 46.782L71.7071 47.934C69.9611 47.286 68.5751 45.954 67.8551 44.298C67.1891 46.188 65.7491 47.664 63.8591 48.384L63.0851 47.214C65.5331 46.332 67.0991 44.136 67.0991 41.67V40.014H68.5751V41.796C68.5751 43.974 70.1591 45.99 72.4811 46.782ZM70.5551 54.162C72.9311 54.162 74.3891 53.496 74.3891 52.38C74.3891 51.246 72.9311 50.58 70.5551 50.58C68.1611 50.58 66.7031 51.246 66.7031 52.38C66.7031 53.496 68.1611 54.162 70.5551 54.162ZM70.5551 49.428C73.8311 49.428 75.8651 50.49 75.8651 52.38C75.8651 54.252 73.8311 55.314 70.5551 55.314C67.2611 55.314 65.2271 54.252 65.2271 52.38C65.2271 50.49 67.2611 49.428 70.5551 49.428ZM75.6851 43.362H78.0791V44.586H75.6851V48.978H74.2091V39.204H75.6851V43.362ZM89.0037 44.28V40.896H84.9897V44.28H89.0037ZM83.5137 44.28V40.896H81.0837V39.708H92.9277V40.896H90.4797V44.28H92.8557V45.468H81.1377V44.28H83.5137ZM91.0917 53.928V51.246H82.9557V53.928H91.0917ZM94.3137 48.186H87.7617V50.076H92.5317V55.116H81.5157V50.076H86.2857V48.186H79.7157V46.998H94.3137V48.186ZM111.201 47.07L110.481 48.24C108.627 47.592 107.151 46.26 106.413 44.568C105.729 46.404 104.235 47.844 102.327 48.546L101.553 47.394C104.001 46.53 105.639 44.424 105.639 42.156V41.508H101.949V40.32H110.805V41.508H107.151V42.156C107.151 44.316 108.825 46.278 111.201 47.07ZM103.785 50.994V49.806H114.585V55.332H113.109V50.994H103.785ZM113.109 39.186H114.585V48.96H113.109V39.186ZM127.417 46.692L126.679 47.862C124.879 47.196 123.493 45.864 122.773 44.208C122.089 46.062 120.613 47.52 118.723 48.24L117.949 47.07C120.343 46.224 122.017 44.082 122.017 41.778V41.364H118.417V40.158H127.039V41.364H123.493V41.778C123.493 43.848 125.077 45.864 127.417 46.692ZM129.721 53.91V51.876H122.305V53.91H129.721ZM129.721 50.724V48.726H131.179V55.116H120.847V48.726H122.305V50.724H129.721ZM129.703 39.204H131.179V47.952H129.703V44.316H126.517V43.11H129.703V39.204ZM152.423 44.136V45.324H141.353V39.834H152.315V41.022H142.829V44.136H152.423ZM146.807 54.162C149.327 54.162 150.839 53.532 150.839 52.398C150.839 51.264 149.345 50.634 146.807 50.634C144.269 50.634 142.775 51.264 142.775 52.398C142.775 53.532 144.269 54.162 146.807 54.162ZM146.807 49.482C150.245 49.482 152.333 50.526 152.333 52.398C152.333 54.27 150.245 55.314 146.807 55.314C143.369 55.314 141.281 54.27 141.281 52.398C141.281 50.526 143.369 49.482 146.807 49.482ZM139.517 46.872H154.133V48.096H139.517V46.872ZM157.695 51.714V50.508H168.927V55.188H167.451V51.714H157.695ZM164.139 48.06H170.709V49.266H156.057V48.06H162.645V46.368H157.947V42.426H167.379V40.752H157.911V39.6H168.837V43.524H159.405V45.216H169.179V46.368H164.139V48.06ZM177.368 50.508C178.844 50.508 179.906 49.464 179.906 48.024C179.906 46.566 178.844 45.522 177.368 45.522C175.91 45.522 174.848 46.566 174.848 48.024C174.848 49.464 175.91 50.508 177.368 50.508ZM177.368 44.298C179.672 44.298 181.31 45.846 181.31 48.024C181.31 50.22 179.672 51.732 177.368 51.732C175.1 51.732 173.462 50.22 173.462 48.024C173.462 45.846 175.1 44.298 177.368 44.298ZM178.088 39.384V41.778H182.066V42.966H172.544V41.778H176.612V39.384H178.088ZM187.718 45.828V47.07H185.072V55.332H183.596V39.204H185.072V45.828H187.718ZM190.146 40.932H197.706C197.706 45.594 195.564 49.698 190.2 52.326L189.408 51.12C193.746 49.05 195.906 45.954 196.212 42.12H190.146V40.932ZM200.964 39.186H202.44V55.332H200.964V39.186Z" fill="black"/>
<circle cx="33" cy="47" r="21.5" fill="white" stroke="#F1F1F5"/>
<path d="M35.75 40.5833C35.6293 40.5826 35.5097 40.6057 35.3981 40.6513C35.2864 40.697 35.1848 40.7642 35.0991 40.8491L29.5991 46.3491C29.4284 46.5209 29.3326 46.7532 29.3326 46.9954C29.3326 47.2376 29.4284 47.4699 29.5991 47.6416L35.0991 53.1416C35.2745 53.2918 35.5001 53.3703 35.7308 53.3614C35.9615 53.3525 36.1803 53.2568 36.3436 53.0936C36.5068 52.9303 36.6025 52.7115 36.6114 52.4808C36.6203 52.2501 36.5418 52.0245 36.3916 51.8491L31.5425 47L36.3916 42.1508C36.5204 42.0231 36.6083 41.8602 36.6444 41.6825C36.6805 41.5049 36.6632 41.3205 36.5945 41.1527C36.5258 40.9849 36.4089 40.8413 36.2586 40.7399C36.1083 40.6386 35.9313 40.5841 35.75 40.5833V40.5833Z" fill="#06161C"/>
<rect x="21.75" y="417.75" width="341.5" height="154.5" rx="7.25" fill="white" stroke="#BCC6BF" stroke-width="1.5"/>
<path d="M21.1848 395.315H22.2198V396.695C22.2198 399.305 20.7498 401.465 18.4848 402.35L17.8248 401.345C19.8648 400.595 21.1848 398.765 21.1848 396.695V395.315ZM21.4098 395.315H22.4298V396.785C22.4298 398.615 23.7798 400.31 25.7298 400.985L25.0698 401.96C22.8948 401.15 21.4098 399.14 21.4098 396.785V395.315ZM27.1698 394.61H28.4148V402.83H27.1698V394.61ZM28.0698 398.105H30.4248V399.155H28.0698V398.105ZM24.0948 403.205C26.8698 403.205 28.5498 404.12 28.5498 405.68C28.5498 407.24 26.8698 408.14 24.0948 408.14C21.3198 408.14 19.6398 407.24 19.6398 405.68C19.6398 404.12 21.3198 403.205 24.0948 403.205ZM24.0948 404.195C22.0848 404.195 20.8548 404.735 20.8548 405.68C20.8548 406.625 22.0848 407.165 24.0948 407.165C26.1048 407.165 27.3348 406.625 27.3348 405.68C27.3348 404.735 26.1048 404.195 24.0948 404.195ZM37.0387 401.81H38.2687V404.15H37.0387V401.81ZM31.5187 401.15H43.7737V402.17H31.5187V401.15ZM32.6587 395.03H42.6187V396.05H32.6587V395.03ZM32.7187 398.885H42.5587V399.905H32.7187V398.885ZM34.7137 395.48H35.9587V399.545H34.7137V395.48ZM39.3337 395.48H40.5637V399.545H39.3337V395.48ZM33.0187 403.745H42.2737V407.99H33.0187V403.745ZM41.0587 404.735H34.2487V406.985H41.0587V404.735ZM52.1275 397.055H55.5925V398.09H52.1275V397.055ZM55.0675 394.61H56.3125V401.6H55.0675V394.61ZM47.5825 402.305H56.3125V405.545H48.8425V407.6H47.6275V404.615H55.0825V403.295H47.5825V402.305ZM47.6275 407H56.8225V407.99H47.6275V407ZM48.5425 395.03H49.5625V396.305C49.5625 398.81 48.0625 400.835 45.7975 401.645L45.1525 400.655C47.1925 399.965 48.5425 398.27 48.5425 396.305V395.03ZM48.7525 395.03H49.7575V396.305C49.7575 398.075 51.1225 399.71 53.0875 400.355L52.4425 401.33C50.2525 400.55 48.7525 398.6 48.7525 396.305V395.03ZM65.2663 396.8H69.1813V397.82H65.2663V396.8ZM65.2663 399.5H69.2113V400.505H65.2663V399.5ZM68.7013 394.61H69.9463V402.635H68.7013V394.61ZM59.4163 395.63H65.6113V401.66H59.4163V395.63ZM64.3813 396.635H60.6313V400.67H64.3813V396.635ZM65.4913 403.025C68.2813 403.025 70.0063 403.97 70.0063 405.59C70.0063 407.21 68.2813 408.14 65.4913 408.14C62.6863 408.14 60.9613 407.21 60.9613 405.59C60.9613 403.97 62.6863 403.025 65.4913 403.025ZM65.4913 404.015C63.4513 404.015 62.2063 404.6 62.2063 405.59C62.2063 406.58 63.4513 407.165 65.4913 407.165C67.5313 407.165 68.7763 406.58 68.7763 405.59C68.7763 404.6 67.5313 404.015 65.4913 404.015Z" fill="black"/>
<path d="M36.766 435.094H37.732V436.382C37.732 438.818 36.36 440.834 34.246 441.66L33.63 440.722C35.534 440.022 36.766 438.314 36.766 436.382V435.094ZM36.976 435.094H37.928V436.466C37.928 438.174 39.188 439.756 41.008 440.386L40.392 441.296C38.362 440.54 36.976 438.664 36.976 436.466V435.094ZM42.352 434.436H43.514V442.108H42.352V434.436ZM43.192 437.698H45.39V438.678H43.192V437.698ZM39.482 442.458C42.072 442.458 43.64 443.312 43.64 444.768C43.64 446.224 42.072 447.064 39.482 447.064C36.892 447.064 35.324 446.224 35.324 444.768C35.324 443.312 36.892 442.458 39.482 442.458ZM39.482 443.382C37.606 443.382 36.458 443.886 36.458 444.768C36.458 445.65 37.606 446.154 39.482 446.154C41.358 446.154 42.506 445.65 42.506 444.768C42.506 443.886 41.358 443.382 39.482 443.382ZM52.0169 441.156H53.1649V443.34H52.0169V441.156ZM46.8649 440.54H58.3029V441.492H46.8649V440.54ZM47.9289 434.828H57.2249V435.78H47.9289V434.828ZM47.9849 438.426H57.1689V439.378H47.9849V438.426ZM49.8469 435.248H51.0089V439.042H49.8469V435.248ZM54.1589 435.248H55.3069V439.042H54.1589V435.248ZM48.2649 442.962H56.9029V446.924H48.2649V442.962ZM55.7689 443.886H49.4129V445.986H55.7689V443.886ZM70.5862 436.718H73.8202V437.684H70.5862V436.718ZM73.3302 434.436H74.4922V440.96H73.3302V434.436ZM66.3442 441.618H74.4922V444.642H67.5202V446.56H66.3862V443.774H73.3442V442.542H66.3442V441.618ZM66.3862 446H74.9682V446.924H66.3862V446ZM67.2402 434.828H68.1922V436.018C68.1922 438.356 66.7922 440.246 64.6782 441.002L64.0762 440.078C65.9802 439.434 67.2402 437.852 67.2402 436.018V434.828ZM67.4362 434.828H68.3742V436.018C68.3742 437.67 69.6482 439.196 71.4822 439.798L70.8802 440.708C68.8362 439.98 67.4362 438.16 67.4362 436.018V434.828ZM83.3031 436.48H86.9571V437.432H83.3031V436.48ZM83.3031 439H86.9851V439.938H83.3031V439ZM86.5091 434.436H87.6711V441.926H86.5091V434.436ZM77.8431 435.388H83.6251V441.016H77.8431V435.388ZM82.4771 436.326H78.9771V440.092H82.4771V436.326ZM83.5131 442.29C86.1171 442.29 87.7271 443.172 87.7271 444.684C87.7271 446.196 86.1171 447.064 83.5131 447.064C80.8951 447.064 79.2851 446.196 79.2851 444.684C79.2851 443.172 80.8951 442.29 83.5131 442.29ZM83.5131 443.214C81.6091 443.214 80.4471 443.76 80.4471 444.684C80.4471 445.608 81.6091 446.154 83.5131 446.154C85.4171 446.154 86.5791 445.608 86.5791 444.684C86.5791 443.76 85.4171 443.214 83.5131 443.214ZM96.16 434.646C98.946 434.646 100.612 435.43 100.612 436.844C100.612 438.258 98.946 439.042 96.16 439.042C93.36 439.042 91.708 438.258 91.708 436.844C91.708 435.43 93.36 434.646 96.16 434.646ZM96.16 435.528C94.088 435.528 92.898 436.004 92.898 436.844C92.898 437.684 94.088 438.16 96.16 438.16C98.218 438.16 99.408 437.684 99.408 436.844C99.408 436.004 98.218 435.528 96.16 435.528ZM90.434 439.882H101.872V440.82H90.434V439.882ZM91.82 441.898H100.416V444.754H92.996V446.294H91.848V443.914H99.268V442.794H91.82V441.898ZM91.848 446.042H100.794V446.952H91.848V446.042ZM116.857 434.436H118.033V441.226H116.857V434.436ZM109.871 441.856H111.019V443.396H116.885V441.856H118.033V446.924H109.871V441.856ZM111.019 444.32V445.986H116.885V444.32H111.019ZM111.243 435.038C113.161 435.038 114.533 436.228 114.533 437.95C114.533 439.686 113.161 440.876 111.243 440.876C109.325 440.876 107.939 439.686 107.939 437.95C107.939 436.228 109.325 435.038 111.243 435.038ZM111.243 436.004C109.983 436.004 109.073 436.802 109.073 437.95C109.073 439.098 109.983 439.896 111.243 439.896C112.503 439.896 113.413 439.098 113.413 437.95C113.413 436.802 112.503 436.004 111.243 436.004ZM121.356 440.708H122.266C124.758 440.708 125.99 440.666 127.502 440.4L127.628 441.338C126.06 441.618 124.8 441.66 122.266 441.66H121.356V440.708ZM121.328 435.192H126.788V438.79H122.504V441.282H121.356V437.88H125.64V436.144H121.328V435.192ZM130.078 434.45H131.24V442.22H130.078V434.45ZM127.628 436.312H130.344V437.264H127.628V436.312ZM127.628 438.93H130.344V439.882H127.628V438.93ZM122.77 442.906H131.24V447.12H130.078V443.858H122.77V442.906ZM133.989 436.592H140.261V437.544H133.989V436.592ZM137.125 438.384C138.707 438.384 139.855 439.574 139.855 441.282C139.855 442.976 138.707 444.166 137.125 444.166C135.557 444.166 134.409 442.976 134.409 441.282C134.409 439.574 135.557 438.384 137.125 438.384ZM137.125 439.378C136.159 439.378 135.459 440.162 135.459 441.282C135.459 442.402 136.159 443.186 137.125 443.186C138.105 443.186 138.819 442.402 138.819 441.282C138.819 440.162 138.105 439.378 137.125 439.378ZM143.607 434.436H144.727V447.092H143.607V434.436ZM141.591 439.756H143.985V440.722H141.591V439.756ZM140.905 434.716H141.997V446.476H140.905V434.716ZM136.565 434.8H137.713V437.18H136.565V434.8ZM152.264 435.682H153.272V436.214C153.272 438.482 150.864 440.148 148.316 440.582L147.868 439.658C150.094 439.336 152.264 437.88 152.264 436.214V435.682ZM152.558 435.682H153.552V436.214C153.552 437.88 155.736 439.336 157.948 439.658L157.514 440.582C154.952 440.148 152.558 438.482 152.558 436.214V435.682ZM152.306 442.262H153.454V447.092H152.306V442.262ZM147.196 441.646H158.634V442.598H147.196V441.646ZM148.26 435.22H157.528V436.158H148.26V435.22ZM165.359 438.958H167.781V439.924H165.359V438.958ZM162.993 435.626H163.903V438.034C163.903 440.68 162.797 443.242 160.949 444.376L160.221 443.494C161.957 442.472 162.993 440.204 162.993 438.034V435.626ZM163.217 435.626H164.113V437.992C164.113 440.022 165.065 442.178 166.731 443.186L166.059 444.096C164.239 442.976 163.217 440.456 163.217 437.992V435.626ZM170.007 434.436H171.127V447.092H170.007V434.436ZM167.445 434.702H168.537V446.462H167.445V434.702ZM176.354 440.946H177.502V444.74H176.354V440.946ZM181.03 440.946H182.192V444.74H181.03V440.946ZM173.554 444.516H185.02V445.482H173.554V444.516ZM179.266 435.234C181.94 435.234 183.858 436.508 183.858 438.496C183.858 440.47 181.94 441.744 179.266 441.744C176.578 441.744 174.66 440.47 174.66 438.496C174.66 436.508 176.578 435.234 179.266 435.234ZM179.266 436.158C177.236 436.158 175.78 437.082 175.78 438.496C175.78 439.896 177.236 440.82 179.266 440.82C181.296 440.82 182.738 439.896 182.738 438.496C182.738 437.082 181.296 436.158 179.266 436.158ZM187.517 446.084C187.274 446.084 187.069 446 186.901 445.832C186.733 445.664 186.649 445.459 186.649 445.216C186.649 444.973 186.733 444.768 186.901 444.6C187.069 444.432 187.274 444.348 187.517 444.348C187.75 444.348 187.946 444.432 188.105 444.6C188.273 444.768 188.357 444.973 188.357 445.216C188.357 445.459 188.273 445.664 188.105 445.832C187.946 446 187.75 446.084 187.517 446.084Z" fill="#BCC6BF"/>
<path d="M303.868 554.834C303.868 553.229 304.129 551.978 304.652 551.082C305.175 550.177 306.089 549.724 307.396 549.724C308.693 549.724 309.603 550.177 310.126 551.082C310.649 551.978 310.91 553.229 310.91 554.834C310.91 556.467 310.649 557.737 310.126 558.642C309.603 559.547 308.693 560 307.396 560C306.089 560 305.175 559.547 304.652 558.642C304.129 557.737 303.868 556.467 303.868 554.834ZM309.65 554.834C309.65 554.022 309.594 553.336 309.482 552.776C309.379 552.207 309.16 551.749 308.824 551.404C308.497 551.059 308.021 550.886 307.396 550.886C306.761 550.886 306.276 551.059 305.94 551.404C305.613 551.749 305.394 552.207 305.282 552.776C305.179 553.336 305.128 554.022 305.128 554.834C305.128 555.674 305.179 556.379 305.282 556.948C305.394 557.517 305.613 557.975 305.94 558.32C306.276 558.665 306.761 558.838 307.396 558.838C308.021 558.838 308.497 558.665 308.824 558.32C309.16 557.975 309.379 557.517 309.482 556.948C309.594 556.379 309.65 555.674 309.65 554.834ZM317.929 546.812L314.093 562.38H312.833L316.655 546.812H317.929ZM319.581 551.04V549.878H322.213V560H320.925V551.04H319.581ZM324.702 554.834C324.702 553.229 324.963 551.978 325.486 551.082C326.008 550.177 326.923 549.724 328.23 549.724C329.527 549.724 330.437 550.177 330.96 551.082C331.482 551.978 331.744 553.229 331.744 554.834C331.744 556.467 331.482 557.737 330.96 558.642C330.437 559.547 329.527 560 328.23 560C326.923 560 326.008 559.547 325.486 558.642C324.963 557.737 324.702 556.467 324.702 554.834ZM330.484 554.834C330.484 554.022 330.428 553.336 330.316 552.776C330.213 552.207 329.994 551.749 329.658 551.404C329.331 551.059 328.855 550.886 328.23 550.886C327.595 550.886 327.11 551.059 326.774 551.404C326.447 551.749 326.228 552.207 326.116 552.776C326.013 553.336 325.962 554.022 325.962 554.834C325.962 555.674 326.013 556.379 326.116 556.948C326.228 557.517 326.447 557.975 326.774 558.32C327.11 558.665 327.595 558.838 328.23 558.838C328.855 558.838 329.331 558.665 329.658 558.32C329.994 557.975 330.213 557.517 330.316 556.948C330.428 556.379 330.484 555.674 330.484 554.834ZM333.793 554.834C333.793 553.229 334.054 551.978 334.577 551.082C335.099 550.177 336.014 549.724 337.321 549.724C338.618 549.724 339.528 550.177 340.051 551.082C340.573 551.978 340.835 553.229 340.835 554.834C340.835 556.467 340.573 557.737 340.051 558.642C339.528 559.547 338.618 560 337.321 560C336.014 560 335.099 559.547 334.577 558.642C334.054 557.737 333.793 556.467 333.793 554.834ZM339.575 554.834C339.575 554.022 339.519 553.336 339.407 552.776C339.304 552.207 339.085 551.749 338.749 551.404C338.422 551.059 337.946 550.886 337.321 550.886C336.686 550.886 336.201 551.059 335.865 551.404C335.538 551.749 335.319 552.207 335.207 552.776C335.104 553.336 335.053 554.022 335.053 554.834C335.053 555.674 335.104 556.379 335.207 556.948C335.319 557.517 335.538 557.975 335.865 558.32C336.201 558.665 336.686 558.838 337.321 558.838C337.946 558.838 338.422 558.665 338.749 558.32C339.085 557.975 339.304 557.517 339.407 556.948C339.519 556.379 339.575 555.674 339.575 554.834ZM342.884 554.834C342.884 553.229 343.145 551.978 343.668 551.082C344.19 550.177 345.105 549.724 346.412 549.724C347.709 549.724 348.619 550.177 349.142 551.082C349.664 551.978 349.926 553.229 349.926 554.834C349.926 556.467 349.664 557.737 349.142 558.642C348.619 559.547 347.709 560 346.412 560C345.105 560 344.19 559.547 343.668 558.642C343.145 557.737 342.884 556.467 342.884 554.834ZM348.666 554.834C348.666 554.022 348.61 553.336 348.498 552.776C348.395 552.207 348.176 551.749 347.84 551.404C347.513 551.059 347.037 550.886 346.412 550.886C345.777 550.886 345.292 551.059 344.956 551.404C344.629 551.749 344.41 552.207 344.298 552.776C344.195 553.336 344.144 554.022 344.144 554.834C344.144 555.674 344.195 556.379 344.298 556.948C344.41 557.517 344.629 557.975 344.956 558.32C345.292 558.665 345.777 558.838 346.412 558.838C347.037 558.838 347.513 558.665 347.84 558.32C348.176 557.975 348.395 557.517 348.498 556.948C348.61 556.379 348.666 555.674 348.666 554.834Z" fill="#CCCCCC"/>
<path d="M23.6598 110.02H24.8748C24.8748 113.935 23.5548 117.535 18.6948 119.95L18.0198 118.99C22.3098 116.875 23.6598 113.845 23.6598 110.155V110.02ZM18.7548 110.02H24.3948V111.025H18.7548V110.02ZM23.4648 113.38V114.34L18.2748 114.85L18.0798 113.74L23.4648 113.38ZM27.0648 108.595H28.3248V122.17H27.0648V108.595ZM27.9798 114.1H30.4848V115.135H27.9798V114.1ZM37.1587 113.74H39.7087V114.775H37.1587V113.74ZM32.0287 117.895H32.8987C34.9837 117.895 36.2287 117.85 37.7287 117.55L37.8487 118.57C36.3037 118.87 35.0137 118.915 32.8987 118.915H32.0287V117.895ZM32.0287 110.245H37.0537V111.25H33.2137V118.24H32.0287V110.245ZM32.8537 113.905H36.4387V114.895H32.8537V113.905ZM41.8387 108.61H43.0387V122.17H41.8387V108.61ZM39.1087 108.925H40.2937V121.48H39.1087V108.925ZM46.4575 109.96H55.1875V110.995H46.4575V109.96ZM45.1675 119.245H57.4225V120.28H45.1675V119.245ZM49.9225 114.4H51.1675V119.755H49.9225V114.4ZM54.7225 109.96H55.9525V111.31C55.9525 112.99 55.9525 114.85 55.4575 117.595L54.2125 117.43C54.7225 114.835 54.7225 112.93 54.7225 111.31V109.96ZM68.6713 108.595H69.9163V122.185H68.6713V108.595ZM59.5813 117.88H60.7063C62.9713 117.88 64.9963 117.79 67.3963 117.4L67.5313 118.42C65.0713 118.825 63.0313 118.915 60.7063 118.915H59.5813V117.88ZM59.5513 109.87H65.8213V114.715H60.8263V118.27H59.5813V113.695H64.5613V110.89H59.5513V109.87Z" fill="black"/>
<rect x="20.75" y="134.75" width="341.5" height="50.5" rx="7.25" fill="white" stroke="#BCC6BF" stroke-width="1.5"/>
<path d="M40.076 154.752H41.21C41.21 158.406 39.978 161.766 35.442 164.02L34.812 163.124C38.816 161.15 40.076 158.322 40.076 154.878V154.752ZM35.498 154.752H40.762V155.69H35.498V154.752ZM39.894 157.888V158.784L35.05 159.26L34.868 158.224L39.894 157.888ZM43.254 153.422H44.43V166.092H43.254V153.422ZM44.108 158.56H46.446V159.526H44.108V158.56ZM53.1289 158.224H55.5089V159.19H53.1289V158.224ZM48.3409 162.102H49.1529C51.0989 162.102 52.2609 162.06 53.6609 161.78L53.7729 162.732C52.3309 163.012 51.1269 163.054 49.1529 163.054H48.3409V162.102ZM48.3409 154.962H53.0309V155.9H49.4469V162.424H48.3409V154.962ZM49.1109 158.378H52.4569V159.302H49.1109V158.378ZM57.4969 153.436H58.6169V166.092H57.4969V153.436ZM54.9489 153.73H56.0549V165.448H54.9489V153.73ZM62.2618 154.696H70.4098V155.662H62.2618V154.696ZM61.0578 163.362H72.4958V164.328H61.0578V163.362ZM65.4958 158.84H66.6578V163.838H65.4958V158.84ZM69.9758 154.696H71.1238V155.956C71.1238 157.524 71.1238 159.26 70.6618 161.822L69.4998 161.668C69.9758 159.246 69.9758 157.468 69.9758 155.956V154.696ZM83.4487 153.422H84.6107V166.106H83.4487V153.422ZM74.9647 162.088H76.0147C78.1287 162.088 80.0187 162.004 82.2587 161.64L82.3847 162.592C80.0887 162.97 78.1847 163.054 76.0147 163.054H74.9647V162.088ZM74.9367 154.612H80.7887V159.134H76.1267V162.452H74.9647V158.182H79.6127V155.564H74.9367V154.612ZM87.4016 159.316H98.8816V160.198H87.4016V159.316ZM88.7596 161.22H97.4396V163.922H89.9496V165.406H88.8016V163.124H96.3056V162.046H88.7596V161.22ZM88.8016 165.098H97.8456V165.938H88.8016V165.098ZM88.8576 153.8H97.3976V156.432H90.0336V157.804H88.8856V155.648H96.2636V154.626H88.8576V153.8ZM88.8856 157.524H97.6356V158.364H88.8856V157.524ZM111.109 156.418H114.301V157.384H111.109V156.418ZM107.791 154.206H108.729V155.76C108.729 158.21 107.357 160.254 105.243 161.108L104.641 160.184C106.517 159.484 107.791 157.692 107.791 155.76V154.206ZM108.015 154.206H108.953V155.802C108.953 157.566 110.185 159.232 112.019 159.904L111.389 160.8C109.373 160.016 108.015 158.056 108.015 155.802V154.206ZM113.867 153.45H115.029V162.914H113.867V153.45ZM106.895 164.86H115.337V165.812H106.895V164.86ZM106.895 161.864H108.057V165.308H106.895V161.864ZM118.338 159.484H119.15C121.138 159.484 122.314 159.442 123.728 159.162L123.84 160.114C122.384 160.394 121.18 160.45 119.15 160.45H118.338V159.484ZM118.338 154.36H123.238V155.312H119.458V160.002H118.338V154.36ZM119.108 156.88H123.084V157.79H119.108V156.88ZM127.354 153.436H128.46V161.108H127.354V153.436ZM125.31 156.74H127.704V157.692H125.31V156.74ZM124.568 153.674H125.66V161.038H124.568V153.674ZM119.976 161.78H128.46V166.092H127.312V162.732H119.976V161.78ZM130.957 155.592H137.229V156.544H130.957V155.592ZM134.093 157.384C135.675 157.384 136.823 158.574 136.823 160.282C136.823 161.976 135.675 163.166 134.093 163.166C132.525 163.166 131.377 161.976 131.377 160.282C131.377 158.574 132.525 157.384 134.093 157.384ZM134.093 158.378C133.127 158.378 132.427 159.162 132.427 160.282C132.427 161.402 133.127 162.186 134.093 162.186C135.073 162.186 135.787 161.402 135.787 160.282C135.787 159.162 135.073 158.378 134.093 158.378ZM140.575 153.436H141.695V166.092H140.575V153.436ZM138.559 158.756H140.953V159.722H138.559V158.756ZM137.873 153.716H138.965V165.476H137.873V153.716ZM133.533 153.8H134.681V156.18H133.533V153.8ZM149.232 154.682H150.24V155.214C150.24 157.482 147.832 159.148 145.284 159.582L144.836 158.658C147.062 158.336 149.232 156.88 149.232 155.214V154.682ZM149.526 154.682H150.52V155.214C150.52 156.88 152.704 158.336 154.916 158.658L154.482 159.582C151.92 159.148 149.526 157.482 149.526 155.214V154.682ZM149.274 161.262H150.422V166.092H149.274V161.262ZM144.164 160.646H155.602V161.598H144.164V160.646ZM145.228 154.22H154.496V155.158H145.228V154.22ZM162.327 157.958H164.749V158.924H162.327V157.958ZM159.961 154.626H160.871V157.034C160.871 159.68 159.765 162.242 157.917 163.376L157.189 162.494C158.925 161.472 159.961 159.204 159.961 157.034V154.626ZM160.185 154.626H161.081V156.992C161.081 159.022 162.033 161.178 163.699 162.186L163.027 163.096C161.207 161.976 160.185 159.456 160.185 156.992V154.626ZM166.975 153.436H168.095V166.092H166.975V153.436ZM164.413 153.702H165.505V165.462H164.413V153.702ZM173.321 159.946H174.469V163.74H173.321V159.946ZM177.997 159.946H179.159V163.74H177.997V159.946ZM170.521 163.516H181.987V164.482H170.521V163.516ZM176.233 154.234C178.907 154.234 180.825 155.508 180.825 157.496C180.825 159.47 178.907 160.744 176.233 160.744C173.545 160.744 171.627 159.47 171.627 157.496C171.627 155.508 173.545 154.234 176.233 154.234ZM176.233 155.158C174.203 155.158 172.747 156.082 172.747 157.496C172.747 158.896 174.203 159.82 176.233 159.82C178.263 159.82 179.705 158.896 179.705 157.496C179.705 156.082 178.263 155.158 176.233 155.158ZM184.484 165.084C184.242 165.084 184.036 165 183.868 164.832C183.7 164.664 183.616 164.459 183.616 164.216C183.616 163.973 183.7 163.768 183.868 163.6C184.036 163.432 184.242 163.348 184.484 163.348C184.718 163.348 184.914 163.432 185.072 163.6C185.24 163.768 185.324 163.973 185.324 164.216C185.324 164.459 185.24 164.664 185.072 164.832C184.914 165 184.718 165.084 184.484 165.084Z" fill="#CCCCCC"/>
<path d="M337 168L328.34 153H345.66L337 168Z" fill="black"/>
<path d="M27.1987 204.595H28.4587V218.17H27.1987V204.595ZM28.1137 210.1H30.6187V211.135H28.1137V210.1ZM23.7337 206.065H24.9487C24.9487 209.92 23.1787 213.4 18.7987 215.605L18.1087 214.645C21.8587 212.74 23.7337 209.845 23.7337 206.26V206.065ZM18.7387 206.065H24.3787V207.085H18.7387V206.065ZM37.4425 205.525H38.7475C38.7475 208.975 36.3025 211.435 32.3575 212.515L31.8625 211.54C35.3425 210.58 37.4425 208.585 37.4425 206.065V205.525ZM32.5525 205.525H38.2075V206.53H32.5525V205.525ZM33.7675 213.31H42.8125V218.14H41.5675V214.315H33.7675V213.31ZM41.5675 204.61H42.8125V212.695H41.5675V204.61ZM38.1925 207.025H41.8225V208.045H38.1925V207.025ZM38.0575 209.905H41.7325V210.925H38.0575V209.905Z" fill="black"/>
<rect x="20.75" y="230.75" width="341.5" height="50.5" rx="7.25" fill="white" stroke="#BCC6BF" stroke-width="1.5"/>
<path d="M43.254 249.422H44.43V262.092H43.254V249.422ZM44.108 254.56H46.446V255.526H44.108V254.56ZM40.02 250.794H41.154C41.154 254.392 39.502 257.64 35.414 259.698L34.77 258.802C38.27 257.024 40.02 254.322 40.02 250.976V250.794ZM35.358 250.794H40.622V251.746H35.358V250.794ZM53.2689 250.29H54.4869C54.4869 253.51 52.2049 255.806 48.5229 256.814L48.0609 255.904C51.3089 255.008 53.2689 253.146 53.2689 250.794V250.29ZM48.7049 250.29H53.9829V251.228H48.7049V250.29ZM49.8389 257.556H58.2809V262.064H57.1189V258.494H49.8389V257.556ZM57.1189 249.436H58.2809V256.982H57.1189V249.436ZM53.9689 251.69H57.3569V252.642H53.9689V251.69ZM53.8429 254.378H57.2729V255.33H53.8429V254.378ZM66.7698 249.646C69.5558 249.646 71.2218 250.43 71.2218 251.844C71.2218 253.258 69.5558 254.042 66.7698 254.042C63.9698 254.042 62.3178 253.258 62.3178 251.844C62.3178 250.43 63.9698 249.646 66.7698 249.646ZM66.7698 250.528C64.6978 250.528 63.5078 251.004 63.5078 251.844C63.5078 252.684 64.6978 253.16 66.7698 253.16C68.8278 253.16 70.0178 252.684 70.0178 251.844C70.0178 251.004 68.8278 250.528 66.7698 250.528ZM61.0438 254.882H72.4818V255.82H61.0438V254.882ZM62.4298 256.898H71.0258V259.754H63.6058V261.294H62.4578V258.914H69.8778V257.794H62.4298V256.898ZM62.4578 261.042H71.4038V261.952H62.4578V261.042ZM78.2551 255.19H89.7351V256.156H78.2551V255.19ZM83.3931 255.624H84.5271V257.556H83.3931V255.624ZM83.3651 258.144H84.3591V258.536C84.3591 260.468 82.1191 261.742 79.4731 262.05L79.0951 261.154C81.3771 260.916 83.3651 259.88 83.3651 258.536V258.144ZM83.5611 258.144H84.5551V258.536C84.5551 259.922 86.5291 260.93 88.8251 261.154L88.4471 262.05C85.8151 261.742 83.5611 260.51 83.5611 258.536V258.144ZM83.3931 249.59H84.3871V250.15C84.3871 252.334 81.9371 253.888 79.3191 254.266L78.8991 253.37C81.1811 253.076 83.3931 251.746 83.3931 250.15V249.59ZM83.5751 249.59H84.5691V250.15C84.5691 251.704 86.8091 253.076 89.0491 253.37L88.6291 254.266C86.0531 253.888 83.5751 252.306 83.5751 250.15V249.59ZM94.57 251.242H95.494V253.3C95.494 255.932 93.884 258.648 91.91 259.656L91.238 258.732C93.044 257.85 94.57 255.442 94.57 253.3V251.242ZM94.78 251.242H95.704V253.3C95.704 255.302 97.132 257.556 98.966 258.424L98.308 259.348C96.306 258.354 94.78 255.806 94.78 253.3V251.242ZM91.686 250.724H98.504V251.704H91.686V250.724ZM100.002 249.436H101.178V262.092H100.002V249.436ZM100.898 254.546H103.25V255.526H100.898V254.546ZM105.145 250.57H110.955V256.436H105.145V250.57ZM109.821 251.508H106.279V255.498H109.821V251.508ZM113.279 249.422H114.441V258.704H113.279V249.422ZM114.077 253.286H116.317V254.252H114.077V253.286ZM106.559 260.86H115.015V261.812H106.559V260.86ZM106.559 257.822H107.721V261.266H106.559V257.822ZM131.036 249.436H132.212V256.226H131.036V249.436ZM124.05 256.856H125.198V258.396H131.064V256.856H132.212V261.924H124.05V256.856ZM125.198 259.32V260.986H131.064V259.32H125.198ZM125.422 250.038C127.34 250.038 128.712 251.228 128.712 252.95C128.712 254.686 127.34 255.876 125.422 255.876C123.504 255.876 122.118 254.686 122.118 252.95C122.118 251.228 123.504 250.038 125.422 250.038ZM125.422 251.004C124.162 251.004 123.252 251.802 123.252 252.95C123.252 254.098 124.162 254.896 125.422 254.896C126.682 254.896 127.592 254.098 127.592 252.95C127.592 251.802 126.682 251.004 125.422 251.004ZM135.535 255.708H136.445C138.937 255.708 140.169 255.666 141.681 255.4L141.807 256.338C140.239 256.618 138.979 256.66 136.445 256.66H135.535V255.708ZM135.507 250.192H140.967V253.79H136.683V256.282H135.535V252.88H139.819V251.144H135.507V250.192ZM144.257 249.45H145.419V257.22H144.257V249.45ZM141.807 251.312H144.523V252.264H141.807V251.312ZM141.807 253.93H144.523V254.882H141.807V253.93ZM136.949 257.906H145.419V262.12H144.257V258.858H136.949V257.906ZM148.168 251.592H154.44V252.544H148.168V251.592ZM151.304 253.384C152.886 253.384 154.034 254.574 154.034 256.282C154.034 257.976 152.886 259.166 151.304 259.166C149.736 259.166 148.588 257.976 148.588 256.282C148.588 254.574 149.736 253.384 151.304 253.384ZM151.304 254.378C150.338 254.378 149.638 255.162 149.638 256.282C149.638 257.402 150.338 258.186 151.304 258.186C152.284 258.186 152.998 257.402 152.998 256.282C152.998 255.162 152.284 254.378 151.304 254.378ZM157.786 249.436H158.906V262.092H157.786V249.436ZM155.77 254.756H158.164V255.722H155.77V254.756ZM155.084 249.716H156.176V261.476H155.084V249.716ZM150.744 249.8H151.892V252.18H150.744V249.8ZM166.443 250.682H167.451V251.214C167.451 253.482 165.043 255.148 162.495 255.582L162.047 254.658C164.273 254.336 166.443 252.88 166.443 251.214V250.682ZM166.737 250.682H167.731V251.214C167.731 252.88 169.915 254.336 172.127 254.658L171.693 255.582C169.131 255.148 166.737 253.482 166.737 251.214V250.682ZM166.485 257.262H167.633V262.092H166.485V257.262ZM161.375 256.646H172.813V257.598H161.375V256.646ZM162.439 250.22H171.707V251.158H162.439V250.22ZM179.538 253.958H181.96V254.924H179.538V253.958ZM177.172 250.626H178.082V253.034C178.082 255.68 176.976 258.242 175.128 259.376L174.4 258.494C176.136 257.472 177.172 255.204 177.172 253.034V250.626ZM177.396 250.626H178.292V252.992C178.292 255.022 179.244 257.178 180.91 258.186L180.238 259.096C178.418 257.976 177.396 255.456 177.396 252.992V250.626ZM184.186 249.436H185.306V262.092H184.186V249.436ZM181.624 249.702H182.716V261.462H181.624V249.702ZM190.533 255.946H191.681V259.74H190.533V255.946ZM195.209 255.946H196.371V259.74H195.209V255.946ZM187.733 259.516H199.199V260.482H187.733V259.516ZM193.445 250.234C196.119 250.234 198.037 251.508 198.037 253.496C198.037 255.47 196.119 256.744 193.445 256.744C190.757 256.744 188.839 255.47 188.839 253.496C188.839 251.508 190.757 250.234 193.445 250.234ZM193.445 251.158C191.415 251.158 189.959 252.082 189.959 253.496C189.959 254.896 191.415 255.82 193.445 255.82C195.475 255.82 196.917 254.896 196.917 253.496C196.917 252.082 195.475 251.158 193.445 251.158ZM201.696 261.084C201.453 261.084 201.248 261 201.08 260.832C200.912 260.664 200.828 260.459 200.828 260.216C200.828 259.973 200.912 259.768 201.08 259.6C201.248 259.432 201.453 259.348 201.696 259.348C201.929 259.348 202.125 259.432 202.284 259.6C202.452 259.768 202.536 259.973 202.536 260.216C202.536 260.459 202.452 260.664 202.284 260.832C202.125 261 201.929 261.084 201.696 261.084Z" fill="#BCC6BF"/>
<path d="M332.82 263L329.52 248.58H331.22L333.16 258.44L333.62 261.32H333.72L334.28 258.44L336.18 249.48H337.94L339.9 258.44L340.46 261.32H340.54L341.04 258.44L342.92 248.58H344.5L341.36 263H339.6L337.74 254.66L337.06 250.86H336.98L336.32 254.66L334.5 263H332.82ZM328.8 256.14V255.3L330.48 255.2H345.18V256.14H328.8Z" fill="black"/>
<path d="M30.3416 300.61H31.5416V314.17H30.3416V300.61ZM28.1516 306.055H30.7466V307.075H28.1516V306.055ZM24.6416 302.35H25.8416C25.8416 305.845 24.6416 309.085 20.7716 311.26L20.0366 310.375C23.4416 308.47 24.6416 305.725 24.6416 302.59V302.35ZM20.5616 302.35H25.0616V303.385H20.5616V302.35ZM27.3266 300.97H28.5116V313.51H27.3266V300.97ZM42.9704 300.61H44.2154V308.665H42.9704V300.61ZM43.8554 304.135H46.2104V305.17H43.8554V304.135ZM39.8804 308.95C42.6254 308.95 44.3354 309.925 44.3354 311.56C44.3354 313.195 42.6254 314.155 39.8804 314.155C37.1354 314.155 35.4254 313.195 35.4254 311.56C35.4254 309.925 37.1354 308.95 39.8804 308.95ZM39.8804 309.97C37.8704 309.97 36.6404 310.54 36.6404 311.56C36.6404 312.55 37.8704 313.135 39.8804 313.135C41.8904 313.135 43.1204 312.55 43.1204 311.56C43.1204 310.54 41.8904 309.97 39.8804 309.97ZM34.2854 306.58H35.3354C38.1404 306.58 39.7154 306.49 41.5304 306.115L41.6804 307.135C39.8054 307.51 38.2004 307.6 35.3354 307.6H34.2854V306.58ZM34.2854 301.645H40.2704V302.665H35.5154V307.24H34.2854V301.645ZM56.848 301.09H57.943V301.84C57.943 304.435 55.303 306.295 52.483 306.775L51.988 305.77C54.463 305.395 56.848 303.775 56.848 301.84V301.09ZM57.073 301.09H58.153V301.84C58.153 303.73 60.568 305.395 63.013 305.77L62.518 306.775C59.728 306.295 57.073 304.405 57.073 301.84V301.09ZM56.848 309.01H58.078V314.17H56.848V309.01ZM51.373 308.245H63.628V309.28H51.373V308.245ZM75.1468 302.725H77.5318V303.76H75.1468V302.725ZM75.1468 305.575H77.5318V306.61H75.1468V305.575ZM74.2768 300.61H75.5218V308.815H74.2768V300.61ZM65.5918 307H66.6568C69.1168 307 70.8718 306.925 72.9868 306.55L73.0918 307.585C70.9468 307.945 69.1618 308.035 66.6568 308.035H65.5918V307ZM65.5618 301.45H71.6668V305.14H66.8068V307.66H65.5918V304.165H70.4368V302.47H65.5618V301.45ZM71.1868 309.22C73.9618 309.22 75.6418 310.12 75.6418 311.68C75.6418 313.255 73.9618 314.155 71.1868 314.155C68.4268 314.155 66.7318 313.255 66.7318 311.68C66.7318 310.12 68.4268 309.22 71.1868 309.22ZM71.1868 310.195C69.1618 310.195 67.9468 310.735 67.9468 311.68C67.9468 312.64 69.1618 313.18 71.1868 313.18C73.2118 313.18 74.4418 312.64 74.4418 311.68C74.4418 310.735 73.2118 310.195 71.1868 310.195ZM89.1444 306.88H94.0194V307.9H89.1444V306.88ZM82.6944 311.41H94.9794V312.445H82.6944V311.41ZM88.1844 308.56H89.4144V311.905H88.1844V308.56ZM89.1444 301.87H93.8844V302.89H90.3894V307.42H89.1444V301.87ZM83.7444 301.885H88.3344V302.905H84.9894V307.36H83.7444V301.885ZM83.7444 306.85H84.4944C85.8144 306.85 87.0444 306.805 88.4544 306.475L88.5744 307.525C87.1044 307.84 85.8594 307.9 84.4944 307.9H83.7444V306.85ZM97.9782 304.675H107.188V305.695H97.9782V304.675ZM96.3132 307.51H108.613V308.53H96.3132V307.51ZM97.9782 301.105H99.2082V305.185H97.9782V301.105ZM97.8882 312.82H107.263V313.84H97.8882V312.82ZM97.8882 309.88H99.1182V313.09H97.8882V309.88ZM119.506 307.39H120.751V309.76H119.506V307.39ZM114.001 306.955H126.256V307.96H114.001V306.955ZM120.121 309.385C123.031 309.385 124.771 310.24 124.771 311.77C124.771 313.285 123.031 314.14 120.121 314.14C117.211 314.14 115.471 313.285 115.471 311.77C115.471 310.24 117.211 309.385 120.121 309.385ZM120.121 310.345C118.006 310.345 116.731 310.855 116.731 311.77C116.731 312.67 118.006 313.18 120.121 313.18C122.251 313.18 123.511 312.67 123.511 311.77C123.511 310.855 122.251 310.345 120.121 310.345ZM119.326 301.72H120.436V302.125C120.436 304.315 117.946 305.785 115.141 306.13L114.691 305.14C117.121 304.885 119.326 303.67 119.326 302.125V301.72ZM119.851 301.72H120.946V302.125C120.946 303.67 123.151 304.885 125.581 305.14L125.131 306.13C122.326 305.785 119.851 304.315 119.851 302.125V301.72ZM115.126 301.225H125.161V302.23H115.126V301.225ZM137.79 302.725H140.175V303.76H137.79V302.725ZM137.79 305.575H140.175V306.61H137.79V305.575ZM136.92 300.61H138.165V308.815H136.92V300.61ZM128.235 307H129.3C131.76 307 133.515 306.925 135.63 306.55L135.735 307.585C133.59 307.945 131.805 308.035 129.3 308.035H128.235V307ZM128.205 301.45H134.31V305.14H129.45V307.66H128.235V304.165H133.08V302.47H128.205V301.45ZM133.83 309.22C136.605 309.22 138.285 310.12 138.285 311.68C138.285 313.255 136.605 314.155 133.83 314.155C131.07 314.155 129.375 313.255 129.375 311.68C129.375 310.12 131.07 309.22 133.83 309.22ZM133.83 310.195C131.805 310.195 130.59 310.735 130.59 311.68C130.59 312.64 131.805 313.18 133.83 313.18C135.855 313.18 137.085 312.64 137.085 311.68C137.085 310.735 135.855 310.195 133.83 310.195Z" fill="black"/>
<rect x="19.75" y="324.75" width="341.5" height="50.5" rx="7.25" fill="white" stroke="#BCC6BF" stroke-width="1.5"/>
<path d="M43.304 343.436H44.424V356.092H43.304V343.436ZM41.26 348.518H43.682V349.47H41.26V348.518ZM37.984 345.06H39.104C39.104 348.322 37.984 351.346 34.372 353.376L33.686 352.55C36.864 350.772 37.984 348.21 37.984 345.284V345.06ZM34.176 345.06H38.376V346.026H34.176V345.06ZM40.49 343.772H41.596V355.476H40.49V343.772ZM55.5449 343.436H56.7069V350.954H55.5449V343.436ZM56.3709 346.726H58.5689V347.692H56.3709V346.726ZM52.6609 351.22C55.2229 351.22 56.8189 352.13 56.8189 353.656C56.8189 355.182 55.2229 356.078 52.6609 356.078C50.0989 356.078 48.5029 355.182 48.5029 353.656C48.5029 352.13 50.0989 351.22 52.6609 351.22ZM52.6609 352.172C50.7849 352.172 49.6369 352.704 49.6369 353.656C49.6369 354.58 50.7849 355.126 52.6609 355.126C54.5369 355.126 55.6849 354.58 55.6849 353.656C55.6849 352.704 54.5369 352.172 52.6609 352.172ZM47.4389 349.008H48.4189C51.0369 349.008 52.5069 348.924 54.2009 348.574L54.3409 349.526C52.5909 349.876 51.0929 349.96 48.4189 349.96H47.4389V349.008ZM47.4389 344.402H53.0249V345.354H48.5869V349.624H47.4389V344.402ZM69.2002 343.884H70.2222V344.584C70.2222 347.006 67.7582 348.742 65.1262 349.19L64.6642 348.252C66.9742 347.902 69.2002 346.39 69.2002 344.584V343.884ZM69.4102 343.884H70.4182V344.584C70.4182 346.348 72.6722 347.902 74.9542 348.252L74.4922 349.19C71.8882 348.742 69.4102 346.978 69.4102 344.584V343.884ZM69.2002 351.276H70.3482V356.092H69.2002V351.276ZM64.0902 350.562H75.5282V351.528H64.0902V350.562ZM86.7331 345.41H88.9591V346.376H86.7331V345.41ZM86.7331 348.07H88.9591V349.036H86.7331V348.07ZM85.9211 343.436H87.0831V351.094H85.9211V343.436ZM77.8151 349.4H78.8091C81.1051 349.4 82.7431 349.33 84.7171 348.98L84.8151 349.946C82.8131 350.282 81.1471 350.366 78.8091 350.366H77.8151V349.4ZM77.7871 344.22H83.4851V347.664H78.9491V350.016H77.8151V346.754H82.3371V345.172H77.7871V344.22ZM83.0371 351.472C85.6271 351.472 87.1951 352.312 87.1951 353.768C87.1951 355.238 85.6271 356.078 83.0371 356.078C80.4611 356.078 78.8791 355.238 78.8791 353.768C78.8791 352.312 80.4611 351.472 83.0371 351.472ZM83.0371 352.382C81.1471 352.382 80.0131 352.886 80.0131 353.768C80.0131 354.664 81.1471 355.168 83.0371 355.168C84.9271 355.168 86.0751 354.664 86.0751 353.768C86.0751 352.886 84.9271 352.382 83.0371 352.382ZM100.5 349.288H105.05V350.24H100.5V349.288ZM94.4805 353.516H105.946V354.482H94.4805V353.516ZM99.6045 350.856H100.752V353.978H99.6045V350.856ZM100.5 344.612H104.924V345.564H101.662V349.792H100.5V344.612ZM95.4605 344.626H99.7445V345.578H96.6225V349.736H95.4605V344.626ZM95.4605 349.26H96.1605C97.3925 349.26 98.5405 349.218 99.8565 348.91L99.9685 349.89C98.5965 350.184 97.4345 350.24 96.1605 350.24H95.4605V349.26ZM109.199 347.23H117.795V348.182H109.199V347.23ZM107.645 349.876H119.125V350.828H107.645V349.876ZM109.199 343.898H110.347V347.706H109.199V343.898ZM109.115 354.832H117.865V355.784H109.115V354.832ZM109.115 352.088H110.263V355.084H109.115V352.088ZM129.995 349.764H131.157V351.976H129.995V349.764ZM124.857 349.358H136.295V350.296H124.857V349.358ZM130.569 351.626C133.285 351.626 134.909 352.424 134.909 353.852C134.909 355.266 133.285 356.064 130.569 356.064C127.853 356.064 126.229 355.266 126.229 353.852C126.229 352.424 127.853 351.626 130.569 351.626ZM130.569 352.522C128.595 352.522 127.405 352.998 127.405 353.852C127.405 354.692 128.595 355.168 130.569 355.168C132.557 355.168 133.733 354.692 133.733 353.852C133.733 352.998 132.557 352.522 130.569 352.522ZM129.827 344.472H130.863V344.85C130.863 346.894 128.539 348.266 125.921 348.588L125.501 347.664C127.769 347.426 129.827 346.292 129.827 344.85V344.472ZM130.317 344.472H131.339V344.85C131.339 346.292 133.397 347.426 135.665 347.664L135.245 348.588C132.627 348.266 130.317 346.894 130.317 344.85V344.472ZM125.907 344.01H135.273V344.948H125.907V344.01ZM147.514 345.41H149.74V346.376H147.514V345.41ZM147.514 348.07H149.74V349.036H147.514V348.07ZM146.702 343.436H147.864V351.094H146.702V343.436ZM138.596 349.4H139.59C141.886 349.4 143.524 349.33 145.498 348.98L145.596 349.946C143.594 350.282 141.928 350.366 139.59 350.366H138.596V349.4ZM138.568 344.22H144.266V347.664H139.73V350.016H138.596V346.754H143.118V345.172H138.568V344.22ZM143.818 351.472C146.408 351.472 147.976 352.312 147.976 353.768C147.976 355.238 146.408 356.078 143.818 356.078C141.242 356.078 139.66 355.238 139.66 353.768C139.66 352.312 141.242 351.472 143.818 351.472ZM143.818 352.382C141.928 352.382 140.794 352.886 140.794 353.768C140.794 354.664 141.928 355.168 143.818 355.168C145.708 355.168 146.856 354.664 146.856 353.768C146.856 352.886 145.708 352.382 143.818 352.382ZM156.941 343.646C159.727 343.646 161.393 344.43 161.393 345.844C161.393 347.258 159.727 348.042 156.941 348.042C154.141 348.042 152.489 347.258 152.489 345.844C152.489 344.43 154.141 343.646 156.941 343.646ZM156.941 344.528C154.869 344.528 153.679 345.004 153.679 345.844C153.679 346.684 154.869 347.16 156.941 347.16C158.999 347.16 160.189 346.684 160.189 345.844C160.189 345.004 158.999 344.528 156.941 344.528ZM151.215 348.882H162.653V349.82H151.215V348.882ZM152.601 350.898H161.197V353.754H153.777V355.294H152.629V352.914H160.049V351.794H152.601V350.898ZM152.629 355.042H161.575V355.952H152.629V355.042ZM177.092 343.422H178.254V352.592H177.092V343.422ZM177.904 347.188H180.13V348.154H177.904V347.188ZM169.014 349.4H169.994C172.598 349.4 174.068 349.33 175.762 348.98L175.888 349.918C174.152 350.282 172.654 350.366 169.994 350.366H169.014V349.4ZM169.014 344.514H174.6V345.48H170.162V349.918H169.014V344.514ZM170.372 354.86H178.828V355.812H170.372V354.86ZM170.372 351.682H171.534V355.294H170.372V351.682ZM185.749 344.024C187.639 344.024 188.983 345.074 188.983 346.628C188.983 348.168 187.639 349.246 185.749 349.246C183.873 349.246 182.529 348.168 182.529 346.628C182.529 345.074 183.873 344.024 185.749 344.024ZM185.749 344.99C184.517 344.99 183.635 345.662 183.635 346.628C183.635 347.608 184.517 348.266 185.749 348.266C186.981 348.266 187.863 347.608 187.863 346.628C187.863 345.662 186.981 344.99 185.749 344.99ZM185.231 350.646H186.393V355.7H185.231V350.646ZM190.831 343.436H191.979V356.106H190.831V343.436ZM181.745 351.276L181.591 350.296C183.943 350.296 187.149 350.268 189.935 349.848L190.019 350.716C187.163 351.234 184.055 351.276 181.745 351.276ZM197.99 349.82H199.152V352.844H197.99V349.82ZM198.564 344.248C200.51 344.248 201.91 345.466 201.91 347.23C201.91 348.994 200.51 350.212 198.564 350.212C196.618 350.212 195.218 348.994 195.218 347.23C195.218 345.466 196.618 344.248 198.564 344.248ZM198.564 345.242C197.276 345.242 196.352 346.054 196.352 347.23C196.352 348.406 197.276 349.218 198.564 349.218C199.852 349.218 200.776 348.406 200.776 347.23C200.776 346.054 199.852 345.242 198.564 345.242ZM203.352 343.436H204.514V356.092H203.352V343.436ZM204.178 348.644H206.516V349.624H204.178V348.644ZM194.812 353.362L194.644 352.396C196.926 352.382 199.978 352.368 202.554 352.018L202.652 352.886C199.978 353.334 197.024 353.362 194.812 353.362ZM220.661 343.436H221.823V351.052H220.661V343.436ZM221.501 346.796H223.699V347.762H221.501V346.796ZM213.871 351.766H221.823V355.924H213.871V351.766ZM220.689 352.704H215.005V354.986H220.689V352.704ZM212.037 344.766H219.513V345.718H212.037V344.766ZM215.775 346.334C217.581 346.334 218.799 347.23 218.799 348.602C218.799 349.974 217.581 350.842 215.775 350.842C213.955 350.842 212.737 349.974 212.737 348.602C212.737 347.23 213.955 346.334 215.775 346.334ZM215.775 347.23C214.613 347.23 213.843 347.762 213.843 348.602C213.843 349.428 214.613 349.96 215.775 349.96C216.909 349.96 217.693 349.428 217.693 348.602C217.693 347.762 216.909 347.23 215.775 347.23ZM215.187 343.324H216.349V345.256H215.187V343.324ZM227.302 344.948H228.282C228.282 347.664 227.918 350.646 226.112 353.11L225.202 352.578C226.938 350.324 227.302 347.678 227.302 345.032V344.948ZM225.468 344.948H227.876V345.914H225.468V344.948ZM230.088 344.948H231.082C231.082 347.622 230.914 351.178 228.926 353.922L228.002 353.39C229.934 350.87 230.088 347.58 230.088 345.046V344.948ZM228.702 344.948H230.704V345.914H228.702V344.948ZM234.862 343.436H235.982V356.092H234.862V343.436ZM230.494 348.406H232.762V349.358H230.494V348.406ZM232.524 343.758H233.616V355.448H232.524V343.758ZM251.597 343.436H252.773V350.226H251.597V343.436ZM244.611 350.856H245.759V352.396H251.625V350.856H252.773V355.924H244.611V350.856ZM245.759 353.32V354.986H251.625V353.32H245.759ZM245.983 344.038C247.901 344.038 249.273 345.228 249.273 346.95C249.273 348.686 247.901 349.876 245.983 349.876C244.065 349.876 242.679 348.686 242.679 346.95C242.679 345.228 244.065 344.038 245.983 344.038ZM245.983 345.004C244.723 345.004 243.813 345.802 243.813 346.95C243.813 348.098 244.723 348.896 245.983 348.896C247.243 348.896 248.153 348.098 248.153 346.95C248.153 345.802 247.243 345.004 245.983 345.004ZM256.096 349.708H257.006C259.498 349.708 260.73 349.666 262.242 349.4L262.368 350.338C260.8 350.618 259.54 350.66 257.006 350.66H256.096V349.708ZM256.068 344.192H261.528V347.79H257.244V350.282H256.096V346.88H260.38V345.144H256.068V344.192ZM264.818 343.45H265.98V351.22H264.818V343.45ZM262.368 345.312H265.084V346.264H262.368V345.312ZM262.368 347.93H265.084V348.882H262.368V347.93ZM257.51 351.906H265.98V356.12H264.818V352.858H257.51V351.906ZM268.729 345.592H275.001V346.544H268.729V345.592ZM271.865 347.384C273.447 347.384 274.595 348.574 274.595 350.282C274.595 351.976 273.447 353.166 271.865 353.166C270.297 353.166 269.149 351.976 269.149 350.282C269.149 348.574 270.297 347.384 271.865 347.384ZM271.865 348.378C270.899 348.378 270.199 349.162 270.199 350.282C270.199 351.402 270.899 352.186 271.865 352.186C272.845 352.186 273.559 351.402 273.559 350.282C273.559 349.162 272.845 348.378 271.865 348.378ZM278.347 343.436H279.467V356.092H278.347V343.436ZM276.331 348.756H278.725V349.722H276.331V348.756ZM275.645 343.716H276.737V355.476H275.645V343.716ZM271.305 343.8H272.453V346.18H271.305V343.8ZM287.004 344.682H288.012V345.214C288.012 347.482 285.604 349.148 283.056 349.582L282.608 348.658C284.834 348.336 287.004 346.88 287.004 345.214V344.682ZM287.298 344.682H288.292V345.214C288.292 346.88 290.476 348.336 292.688 348.658L292.254 349.582C289.692 349.148 287.298 347.482 287.298 345.214V344.682ZM287.046 351.262H288.194V356.092H287.046V351.262ZM281.936 350.646H293.374V351.598H281.936V350.646ZM283 344.22H292.268V345.158H283V344.22ZM300.099 347.958H302.521V348.924H300.099V347.958ZM297.733 344.626H298.643V347.034C298.643 349.68 297.537 352.242 295.689 353.376L294.961 352.494C296.697 351.472 297.733 349.204 297.733 347.034V344.626ZM297.957 344.626H298.853V346.992C298.853 349.022 299.805 351.178 301.471 352.186L300.799 353.096C298.979 351.976 297.957 349.456 297.957 346.992V344.626ZM304.747 343.436H305.867V356.092H304.747V343.436ZM302.185 343.702H303.277V355.462H302.185V343.702ZM311.094 349.946H312.242V353.74H311.094V349.946ZM315.77 349.946H316.932V353.74H315.77V349.946ZM308.294 353.516H319.76V354.482H308.294V353.516ZM314.006 344.234C316.68 344.234 318.598 345.508 318.598 347.496C318.598 349.47 316.68 350.744 314.006 350.744C311.318 350.744 309.4 349.47 309.4 347.496C309.4 345.508 311.318 344.234 314.006 344.234ZM314.006 345.158C311.976 345.158 310.52 346.082 310.52 347.496C310.52 348.896 311.976 349.82 314.006 349.82C316.036 349.82 317.478 348.896 317.478 347.496C317.478 346.082 316.036 345.158 314.006 345.158ZM322.257 355.084C322.014 355.084 321.809 355 321.641 354.832C321.473 354.664 321.389 354.459 321.389 354.216C321.389 353.973 321.473 353.768 321.641 353.6C321.809 353.432 322.014 353.348 322.257 353.348C322.49 353.348 322.686 353.432 322.845 353.6C323.013 353.768 323.097 353.973 323.097 354.216C323.097 354.459 323.013 354.664 322.845 354.832C322.686 355 322.49 355.084 322.257 355.084Z" fill="#BCC6BF"/>
<g style="mix-blend-mode:multiply" opacity="0.9">
<path d="M1 -40H391V619H1V-40Z" fill="#333333"/>
</g>
<g style="mix-blend-mode:multiply" opacity="0.8">
<path d="M1 724H391V1105H1V724Z" fill="#333333"/>
</g>
<path d="M136.279 55.288L134.537 57.914C131.885 57.082 130.065 55.366 128.973 53.234C127.907 55.574 125.983 57.446 123.201 58.356L121.459 55.678C125.359 54.43 127.127 51.388 127.179 48.424H122.369V45.72H135.395V48.424H130.663C130.715 51.232 132.483 54.04 136.279 55.288ZM124.943 62.516V59.786H141.245V68.262H137.787V62.516H124.943ZM137.787 44.29H141.245V58.72H137.787V44.29ZM159.703 54.69L158.039 57.368C155.413 56.51 153.619 54.794 152.605 52.662C151.539 55.002 149.667 56.9 146.885 57.836L145.143 55.132C148.861 53.884 150.603 50.998 150.759 48.112H146.079V45.382H158.949V48.112H154.321C154.477 50.764 156.141 53.494 159.703 54.69ZM161.887 65.22V63.166H152.813V65.22H161.887ZM161.887 60.54V58.356H165.293V67.95H149.433V58.356H152.813V60.54H161.887ZM161.861 44.29H165.293V57.394H161.861V52.428H158.247V49.646H161.861V44.29ZM194.423 50.868V53.572H177.861V44.94H194.293V47.67H181.267V50.868H194.423ZM185.973 65.636C189.171 65.636 190.809 65.09 190.809 63.842C190.809 62.594 189.171 62.022 185.973 62.022C182.775 62.022 181.137 62.594 181.137 63.842C181.137 65.09 182.775 65.636 185.973 65.636ZM185.973 59.422C191.147 59.422 194.293 61.008 194.293 63.842C194.293 66.65 191.147 68.236 185.973 68.236C180.799 68.236 177.679 66.65 177.679 63.842C177.679 61.008 180.799 59.422 185.973 59.422ZM175.235 55.236H196.893V58.044H175.235V55.236ZM201.519 63.894V61.19H218.315V68.158H214.883V63.894H201.519ZM211.685 57.108H220.811V59.838H199.127V57.108H208.253V55.392H201.831V48.814H214.779V47.358H201.779V44.758H218.159V51.232H205.211V52.792H218.653V55.392H211.685V57.108ZM229.961 60.54C231.573 60.54 232.743 59.448 232.743 57.602C232.743 55.808 231.573 54.69 229.961 54.69C228.349 54.69 227.153 55.808 227.153 57.628C227.153 59.448 228.349 60.54 229.961 60.54ZM229.961 51.908C233.419 51.908 235.993 54.274 235.993 57.602C235.993 60.982 233.419 63.348 229.961 63.348C226.477 63.348 223.877 60.982 223.877 57.602C223.877 54.274 226.477 51.908 229.961 51.908ZM231.651 44.706V47.826H236.851V50.556H222.915V47.826H228.219V44.706H231.651ZM245.275 53.65V56.484H241.843V68.236H238.411V44.29H241.843V53.65H245.275ZM248.289 46.76H259.781C259.781 54.092 257.311 60.072 248.809 64.18L247.015 61.476C253.125 58.538 255.777 54.794 256.271 49.49H248.289V46.76ZM263.447 44.264H266.905V68.21H263.447V44.264Z" fill="white"/>
<rect x="19" y="637" width="354" height="70" rx="15" fill="#1DAB45"/>
<path d="M133.121 661.112H135.737V663.08C135.737 667.496 133.817 671.384 129.593 672.848L127.889 670.328C131.609 669.08 133.121 666.104 133.121 663.08V661.112ZM133.769 661.112H136.361V663.392C136.361 666.056 137.849 668.648 141.329 669.728L139.673 672.2C135.665 670.856 133.769 667.4 133.769 663.392V661.112ZM142.553 659.912H145.745V673.04H142.553V659.912ZM144.857 665.048H148.697V667.688H144.857V665.048ZM138.497 673.544C143.105 673.544 146.009 675.152 146.009 677.84C146.009 680.552 143.105 682.136 138.497 682.136C133.865 682.136 130.961 680.552 130.961 677.84C130.961 675.152 133.865 673.544 138.497 673.544ZM138.497 676.016C135.665 676.016 134.129 676.616 134.129 677.84C134.129 679.088 135.665 679.664 138.497 679.664C141.329 679.664 142.841 679.088 142.841 677.84C142.841 676.616 141.329 676.016 138.497 676.016ZM158.775 672.128H161.967V675.512H158.775V672.128ZM150.327 670.304H170.415V672.824H150.327V670.304ZM152.079 660.512H168.639V663.056H152.079V660.512ZM152.247 666.392H168.471V668.936H152.247V666.392ZM154.911 661.448H158.103V668.048H154.911V661.448ZM162.615 661.448H165.807V668.048H162.615V661.448ZM152.655 674.672H168.015V681.896H152.655V674.672ZM164.895 677.144H155.799V679.376H164.895V677.144ZM178.382 670.064H198.494V672.656H178.382V670.064ZM180.806 666.008H196.214V668.528H180.806V666.008ZM180.806 660.512H196.094V663.056H183.974V667.256H180.806V660.512ZM188.366 673.976C193.166 673.976 196.07 675.44 196.07 678.056C196.07 680.672 193.166 682.136 188.366 682.136C183.566 682.136 180.638 680.672 180.638 678.056C180.638 675.44 183.566 673.976 188.366 673.976ZM188.366 676.376C185.39 676.376 183.878 676.928 183.878 678.056C183.878 679.208 185.39 679.712 188.366 679.712C191.342 679.712 192.854 679.208 192.854 678.056C192.854 676.928 191.342 676.376 188.366 676.376ZM200.437 671.816H220.573V674.36H200.437V671.816ZM202.909 660.344H218.125V666.368H206.101V668.768H202.933V664.112H214.981V662.768H202.909V660.344ZM202.933 667.808H218.557V670.232H202.933V667.808ZM208.909 668.984H212.101V673.208H208.909V668.984ZM202.669 675.608H218.269V682.064H215.077V678.128H202.669V675.608ZM236.771 659.912H239.939V682.136H236.771V659.912ZM239.219 668.576H243.155V671.24H239.219V668.576ZM222.419 663.2H235.355V665.744H222.419V663.2ZM228.923 666.992C232.163 666.992 234.563 669.2 234.563 672.296C234.563 675.392 232.163 677.6 228.923 677.6C225.683 677.6 223.283 675.392 223.283 672.296C223.283 669.2 225.683 666.992 228.923 666.992ZM228.923 669.584C227.411 669.584 226.331 670.592 226.331 672.296C226.331 674 227.411 675.008 228.923 675.008C230.435 675.008 231.515 674 231.515 672.296C231.515 670.592 230.435 669.584 228.923 669.584ZM227.315 660.272H230.507V664.16H227.315V660.272ZM259.905 659.912H263.121V682.136H259.905V659.912ZM253.353 662.216H256.521C256.521 669.008 254.217 674.576 246.321 678.392L244.665 675.848C251.049 672.776 253.353 668.744 253.353 662.792V662.216ZM245.841 662.216H254.865V664.736H245.841V662.216Z" fill="white"/>
<path d="M117.315 549.2H120.855V544.56H122.515V555.24H120.855V550.54H117.315V549.2ZM118.315 553.28L117.495 554.56C115.495 553.84 113.955 552.36 113.175 550.52C112.415 552.6 110.755 554.28 108.655 555.08L107.795 553.78C110.475 552.8 112.315 550.38 112.315 547.8V547.18H108.315V545.86H117.895V547.18H113.955V547.8C113.955 550.1 115.715 552.36 118.315 553.28ZM116.595 561.2C119.295 561.2 120.935 560.44 120.935 559.14C120.935 557.84 119.295 557.06 116.595 557.06C113.895 557.06 112.255 557.84 112.255 559.14C112.255 560.44 113.895 561.2 116.595 561.2ZM116.595 555.8C120.275 555.8 122.575 557.02 122.575 559.14C122.575 561.26 120.275 562.48 116.595 562.48C112.915 562.48 110.615 561.26 110.615 559.14C110.615 557.02 112.915 555.8 116.595 555.8ZM129.509 550.36V553.66H138.669V550.36H129.509ZM134.909 558.84H142.229V560.18H125.969V558.84H133.249V554.98H127.889V545.82H129.509V549.02H138.669V545.82H140.269V554.98H134.909V558.84ZM156.762 547.68V546.22H146.242V545.06H158.382V548.8H147.902V550.34H158.702V551.52H146.282V547.68H156.762ZM147.802 559.4V561.06H159.002V562.24H146.182V558.26H156.822V556.76H146.142V555.58H158.442V559.4H147.802ZM144.202 552.88H160.462V554.12H144.202V552.88ZM171.063 547.34V553.16H180.243V547.34H171.063ZM176.503 558.82H183.823V560.18H167.563V558.82H174.843V554.46H169.483V546.04H181.843V554.46H176.503V558.82ZM200.017 551.22V552.54H188.017V545.6H199.797V546.94H189.697V551.22H200.017ZM202.057 554.88V556.22H194.697V562.4H193.057V556.22H185.797V554.88H202.057ZM222.238 544.56H223.878V554.18H222.238V544.56ZM212.318 555.06H213.938V557.26H222.258V555.06H223.878V562.24H212.318V555.06ZM213.938 558.54V560.92H222.258V558.54H213.938ZM214.238 545.4C216.958 545.4 218.938 547.08 218.938 549.52C218.938 552 216.958 553.66 214.238 553.66C211.538 553.66 209.578 552 209.578 549.52C209.578 547.08 211.538 545.4 214.238 545.4ZM214.238 546.76C212.458 546.76 211.178 547.9 211.178 549.52C211.178 551.16 212.458 552.3 214.238 552.3C216.058 552.3 217.338 551.16 217.338 549.52C217.338 547.9 216.058 546.76 214.238 546.76ZM236.872 553L237.032 554.32C234.832 554.7 233.012 554.76 229.432 554.76H228.152V549.44H234.232V546.96H228.092V545.62H235.832V550.7H229.752V553.42C233.072 553.42 234.792 553.34 236.872 553ZM230.152 557.88V556.54H242.172V562.5H240.512V557.88H230.152ZM240.512 544.56H242.172V555.58H240.512V552.26H237.012V550.94H240.512V548.54H237.012V547.2H240.512V544.56ZM256.265 546.74V548.06H245.685V546.74H250.145V544.54H251.785V546.74H256.265ZM248.245 552.38C248.245 553.64 249.345 554.44 250.965 554.44C252.585 554.44 253.705 553.64 253.705 552.38C253.705 551.14 252.585 550.34 250.965 550.34C249.345 550.34 248.245 551.14 248.245 552.38ZM255.265 552.38C255.265 554.4 253.505 555.72 250.965 555.72C248.425 555.72 246.685 554.4 246.685 552.38C246.685 550.38 248.425 549.06 250.965 549.06C253.505 549.06 255.265 550.38 255.265 552.38ZM250.025 556.94V560.74H260.345V562.08H248.385V556.94H250.025ZM259.545 550.46H262.185V551.84H259.545V558H257.905V544.54H259.545V550.46ZM284.246 546.6V547.92H269.826V546.6H276.266V544.44H277.926V546.6H284.246ZM281.206 551.94C281.206 550.84 279.726 550.2 277.106 550.2C274.486 550.2 272.966 550.84 272.966 551.94C272.966 553.04 274.486 553.68 277.106 553.68C279.726 553.68 281.206 553.04 281.206 551.94ZM271.266 551.94C271.266 550.02 273.446 548.94 277.106 548.94C280.726 548.94 282.906 550.02 282.906 551.94C282.906 553.86 280.726 554.92 277.106 554.92C273.446 554.92 271.266 553.86 271.266 551.94ZM285.246 556.18V557.52H277.926V562.5H276.266V557.52H268.986V556.18H285.246ZM22.5871 592.98C24.3071 592.98 25.5271 591.1 25.5271 588.18C25.5271 585.28 24.3071 583.4 22.5871 583.4C20.8471 583.4 19.6271 585.28 19.6271 588.18C19.6271 591.1 20.8471 592.98 22.5871 592.98ZM22.5871 581.92C25.2271 581.92 27.0871 584.36 27.0871 588.18C27.0871 592 25.2271 594.44 22.5871 594.44C19.9471 594.44 18.0671 592 18.0671 588.18C18.0671 584.36 19.9471 581.92 22.5871 581.92ZM34.5671 587.7V589.08H31.6071V598.48H29.9671V580.56H31.6071V587.7H34.5671ZM38.2206 588.8V592.82C40.2606 592.8 42.1406 592.72 44.4206 592.32L44.5406 593.68C42.0606 594.1 40.0406 594.18 37.8206 594.18H36.6406V587.46H41.7206V583.84H36.5806V582.5H43.3206V588.8H38.2206ZM49.7006 580.54H51.2806V598.46H49.7006V588.96H47.1606V597.56H45.6206V580.94H47.1606V587.62H49.7006V580.54ZM66.742 592.64V587.92H61.742V592.64H66.742ZM72.542 580.54H74.182V598.52H72.542V588.52H68.342V593.98H60.122V581.96H61.742V586.62H66.742V581.96H68.342V587.2H72.542V580.54ZM91.9354 587.52V588.8H79.7554V581.2H91.8354V582.48H81.3954V584.36H91.3554V585.6H81.3954V587.52H91.9354ZM81.3554 593.1V596.74H92.1554V598.08H79.7154V593.1H81.3554ZM77.6154 590.48H93.8354V591.8H77.6154V590.48ZM103.969 582.08C101.029 582.08 99.3488 582.76 99.3488 583.96C99.3488 585.16 101.029 585.84 103.969 585.84C106.909 585.84 108.589 585.16 108.589 583.96C108.589 582.76 106.909 582.08 103.969 582.08ZM103.969 587.06C100.029 587.06 97.6688 585.98 97.6688 583.96C97.6688 581.94 100.029 580.84 103.969 580.84C107.909 580.84 110.269 581.94 110.269 583.96C110.269 585.98 107.909 587.06 103.969 587.06ZM99.4688 595.18V597H110.549V598.28H97.8688V593.98H108.389V592.38H97.8088V591.14H110.009V595.18H99.4688ZM95.8488 588.28H112.089V589.6H95.8488V588.28ZM133.63 586.56V587.9H121.31V581.46H122.97V586.56H133.63ZM135.51 590.6V591.94H128.13V598.48H126.49V591.94H119.21V590.6H135.51ZM150.124 586.02V583.24H139.444V581.92H151.724V587.34H141.104V590.26H152.144V591.6H139.484V586.02H150.124ZM137.444 594.86H153.744V596.22H137.444V594.86ZM163.097 589.18V583.42H158.137V589.18H163.097ZM168.817 585.04H164.697V587.54H168.817V585.04ZM164.697 588.88V590.48H156.517V582.12H164.697V583.7H168.817V580.56H170.477V593.64H168.817V588.88H164.697ZM160.577 596.74H170.897V598.08H158.937V592.48H160.577V596.74ZM189.419 588.98L188.559 590.26C186.619 589.54 185.079 588.06 184.279 586.22C183.539 588.32 181.939 589.96 179.839 590.76L178.979 589.46C181.699 588.48 183.439 586.04 183.439 583.3V581.46H185.079V583.44C185.079 585.86 186.839 588.1 189.419 588.98ZM187.279 597.18C189.919 597.18 191.539 596.44 191.539 595.2C191.539 593.94 189.919 593.2 187.279 593.2C184.619 593.2 182.999 593.94 182.999 595.2C182.999 596.44 184.619 597.18 187.279 597.18ZM187.279 591.92C190.919 591.92 193.179 593.1 193.179 595.2C193.179 597.28 190.919 598.46 187.279 598.46C183.619 598.46 181.359 597.28 181.359 595.2C181.359 593.1 183.619 591.92 187.279 591.92ZM192.979 585.18H195.639V586.54H192.979V591.42H191.339V580.56H192.979V585.18ZM207.612 586.2V582.44H203.152V586.2H207.612ZM201.512 586.2V582.44H198.812V581.12H211.972V582.44H209.252V586.2H211.892V587.52H198.872V586.2H201.512ZM209.932 596.92V593.94H200.892V596.92H209.932ZM213.512 590.54H206.232V592.64H211.532V598.24H199.292V592.64H204.592V590.54H197.292V589.22H213.512V590.54ZM234.993 586.04V587.36H222.693V581.26H234.873V582.58H224.333V586.04H234.993ZM228.753 597.18C231.553 597.18 233.233 596.48 233.233 595.22C233.233 593.96 231.573 593.26 228.753 593.26C225.933 593.26 224.273 593.96 224.273 595.22C224.273 596.48 225.933 597.18 228.753 597.18ZM228.753 591.98C232.573 591.98 234.893 593.14 234.893 595.22C234.893 597.3 232.573 598.46 228.753 598.46C224.933 598.46 222.613 597.3 222.613 595.22C222.613 593.14 224.933 591.98 228.753 591.98ZM220.653 589.08H236.893V590.44H220.653V589.08ZM240.687 594.46V593.12H253.167V598.32H251.527V594.46H240.687ZM247.847 590.4H255.147V591.74H238.867V590.4H246.187V588.52H240.967V584.14H251.447V582.28H240.927V581H253.067V585.36H242.587V587.24H253.447V588.52H247.847V590.4ZM270.16 580.54H271.8V598.52H270.16V580.54ZM262.34 581.92C265 581.92 266.9 584.36 266.9 588.18C266.9 592 265 594.44 262.34 594.44C259.68 594.44 257.78 592 257.78 588.18C257.78 584.36 259.68 581.92 262.34 581.92ZM262.34 583.4C260.58 583.4 259.34 585.28 259.34 588.18C259.34 591.1 260.58 592.98 262.34 592.98C264.08 592.98 265.32 591.1 265.32 588.18C265.32 585.28 264.08 583.4 262.34 583.4ZM283.022 584.9C283.022 586.28 284.202 587.18 285.922 587.18C287.602 587.18 288.802 586.28 288.802 584.9C288.802 583.54 287.602 582.62 285.922 582.62C284.202 582.62 283.022 583.54 283.022 584.9ZM291.642 589.68L291.742 590.88C288.002 591.56 283.742 591.62 280.682 591.62L280.462 590.28C281.842 590.28 283.442 590.26 285.122 590.2V588.4C282.942 588.14 281.502 586.82 281.502 584.9C281.502 582.8 283.302 581.38 285.922 581.38C288.522 581.38 290.342 582.8 290.342 584.9C290.342 586.8 288.902 588.12 286.762 588.38V590.14C288.422 590.04 290.082 589.92 291.642 589.68ZM284.682 593.12V596.72H295.022V598.06H283.042V593.12H284.682ZM294.382 586.62H297.002V587.98H294.382V594.28H292.742V580.56H294.382V586.62ZM304.875 591.52V594.92H308.975V591.52H304.875ZM310.595 594.92H314.995V596.26H298.695V594.92H303.255V591.52H300.735V585.98H311.375V583.2H300.695V581.86H312.975V587.3H302.355V590.18H313.395V591.52H310.595V594.92ZM328.569 588.52L328.669 589.7C324.769 590.36 320.469 590.42 317.249 590.44L317.009 589.12C318.509 589.12 320.269 589.12 322.069 589.04V587.12H318.629V581.44H327.069V582.78H320.249V585.78H327.249V587.12H323.709V588.98C325.369 588.88 327.009 588.76 328.569 588.52ZM330.049 596.92V594.84H321.549V596.92H330.049ZM330.049 593.56V591.68H331.669V598.24H319.909V591.68H321.549V593.56H330.049ZM330.029 580.56H331.669V590.88H330.029V580.56ZM337.942 582.28V592.44C340.642 592.44 343.422 592.2 346.402 591.6L346.582 593C343.462 593.64 340.642 593.84 337.782 593.84H336.302V582.28H337.942ZM348.242 580.54H349.882V598.46H348.242V580.54ZM355.815 583.62V592.64C358.995 592.64 361.295 592.5 363.895 592.04L364.075 593.4C361.335 593.92 358.975 594.04 355.595 594.04H354.175V582.26H362.515V583.62H355.815ZM370.175 587.62V588.98H367.215V598.52H365.575V580.54H367.215V587.62H370.175ZM373.416 597.135C373.027 597.135 372.693 596.998 372.414 596.723C372.135 596.444 371.995 596.107 371.995 595.714C371.995 595.326 372.135 594.995 372.414 594.72C372.693 594.441 373.027 594.301 373.416 594.301C373.804 594.301 374.138 594.441 374.417 594.72C374.696 594.995 374.836 595.326 374.836 595.714C374.836 595.975 374.77 596.214 374.637 596.432C374.509 596.645 374.339 596.815 374.126 596.943C373.913 597.071 373.676 597.135 373.416 597.135Z" fill="white"/>
</g>
<defs>
<filter id="filter0_d_771_73" x="-3" y="15" width="398" height="72" filterUnits="userSpaceOnUse" color-interpolation-filters="sRGB">
<feFlood flood-opacity="0" result="BackgroundImageFix"/>
<feColorMatrix in="SourceAlpha" type="matrix" values="0 0 0 0 0 0 0 0 0 0 0 0 0 0 0 0 0 0 127 0" result="hardAlpha"/>
<feOffset dy="4"/>
<feGaussianBlur stdDeviation="2"/>
<feComposite in2="hardAlpha" operator="out"/>
<feColorMatrix type="matrix" values="0 0 0 0 0 0 0 0 0 0 0 0 0 0 0 0 0 0 0.08 0"/>
<feBlend mode="normal" in2="BackgroundImageFix" result="effect1_dropShadow_771_73"/>
<feBlend mode="normal" in="SourceGraphic" in2="effect1_dropShadow_771_73" result="shape"/>
</filter>
<clipPath id="clip0_771_73">
<rect width="390" height="844" fill="white"/>
</clipPath>
</defs>
</svg>
