<svg width="390" height="844" viewBox="0 0 390 844" fill="none" xmlns="http://www.w3.org/2000/svg">
<g clip-path="url(#clip0_171_735)">
<rect width="390" height="844" fill="white"/>
<path d="M140.353 105.752L138.697 108.2C136.369 107.432 134.761 105.944 133.825 104.072C132.865 106.232 131.161 107.936 128.641 108.824L126.985 106.328C130.681 105.104 132.169 102.152 132.169 99.152V97.16H135.385V99.416C135.385 102.08 136.873 104.672 140.353 105.752ZM137.497 115.616C140.305 115.616 141.817 115.04 141.817 113.792C141.817 112.568 140.305 111.992 137.497 111.992C134.665 111.992 133.153 112.568 133.153 113.792C133.153 115.04 134.665 115.616 137.497 115.616ZM137.497 109.544C142.081 109.544 144.961 111.128 144.961 113.792C144.961 116.48 142.081 118.064 137.497 118.064C132.889 118.064 130.009 116.48 130.009 113.792C130.009 111.128 132.889 109.544 137.497 109.544ZM144.721 101.096H147.649V103.712H144.721V109.04H141.553V95.984H144.721V101.096ZM161.639 102.416V99.08H157.103V102.416H161.639ZM153.959 102.416V99.08H151.151V96.56H167.591V99.08H164.783V102.416H167.423V104.936H151.295V102.416H153.959ZM163.871 115.328V113.096H154.823V115.328H163.871ZM169.367 108.824H160.967V110.624H166.991V117.8H151.727V110.624H157.799V108.824H149.399V106.304H169.367V108.824ZM195.166 102.032V104.528H179.878V96.56H195.046V99.08H183.022V102.032H195.166ZM187.366 115.664C190.318 115.664 191.83 115.16 191.83 114.008C191.83 112.856 190.318 112.328 187.366 112.328C184.414 112.328 182.902 112.856 182.902 114.008C182.902 115.16 184.414 115.664 187.366 115.664ZM187.366 109.928C192.142 109.928 195.046 111.392 195.046 114.008C195.046 116.6 192.142 118.064 187.366 118.064C182.59 118.064 179.71 116.6 179.71 114.008C179.71 111.392 182.59 109.928 187.366 109.928ZM177.454 106.064H197.446V108.656H177.454V106.064ZM201.717 114.056V111.56H217.221V117.992H214.053V114.056H201.717ZM211.101 107.792H219.525V110.312H199.509V107.792H207.933V106.208H202.005V100.136H213.957V98.792H201.957V96.392H217.077V102.368H205.125V103.808H217.533V106.208H211.101V107.792ZM227.971 110.96C229.459 110.96 230.539 109.952 230.539 108.248C230.539 106.592 229.459 105.56 227.971 105.56C226.483 105.56 225.379 106.592 225.379 108.272C225.379 109.952 226.483 110.96 227.971 110.96ZM227.971 102.992C231.163 102.992 233.539 105.176 233.539 108.248C233.539 111.368 231.163 113.552 227.971 113.552C224.755 113.552 222.355 111.368 222.355 108.248C222.355 105.176 224.755 102.992 227.971 102.992ZM229.531 96.344V99.224H234.331V101.744H221.467V99.224H226.363V96.344H229.531ZM242.107 104.6V107.216H238.939V118.064H235.771V95.96H238.939V104.6H242.107ZM244.889 98.24H255.497C255.497 105.008 253.217 110.528 245.369 114.32L243.713 111.824C249.353 109.112 251.801 105.656 252.257 100.76H244.889V98.24ZM258.881 95.936H262.073V118.04H258.881V95.936Z" fill="white"/>
<path d="M28.5 162C28.5 154.544 34.5442 148.5 42 148.5H348C355.456 148.5 361.5 154.544 361.5 162V681C361.5 688.456 355.456 694.5 348 694.5H42C34.5442 694.5 28.5 688.456 28.5 681V162Z" fill="white" stroke="#1DAB45" stroke-width="3"/>
<g filter="url(#filter0_d_171_735)">
<rect y="13" width="390" height="64" fill="white"/>
</g>
<path d="M75.2072 37.978H76.4492V39.634C76.4492 42.766 74.6852 45.358 71.9672 46.42L71.1752 45.214C73.6232 44.314 75.2072 42.118 75.2072 39.634V37.978ZM75.4772 37.978H76.7012V39.742C76.7012 41.938 78.3212 43.972 80.6612 44.782L79.8692 45.952C77.2592 44.98 75.4772 42.568 75.4772 39.742V37.978ZM82.3892 37.132H83.8832V46.996H82.3892V37.132ZM83.4692 41.326H86.2952V42.586H83.4692V41.326ZM78.6992 47.446C82.0292 47.446 84.0452 48.544 84.0452 50.416C84.0452 52.288 82.0292 53.368 78.6992 53.368C75.3692 53.368 73.3532 52.288 73.3532 50.416C73.3532 48.544 75.3692 47.446 78.6992 47.446ZM78.6992 48.634C76.2872 48.634 74.8112 49.282 74.8112 50.416C74.8112 51.55 76.2872 52.198 78.6992 52.198C81.1112 52.198 82.5872 51.55 82.5872 50.416C82.5872 49.282 81.1112 48.634 78.6992 48.634ZM94.4298 45.772H95.9058V48.58H94.4298V45.772ZM87.8058 44.98H102.512V46.204H87.8058V44.98ZM89.1738 37.636H101.126V38.86H89.1738V37.636ZM89.2458 42.262H101.054V43.486H89.2458V42.262ZM91.6398 38.176H93.1338V43.054H91.6398V38.176ZM97.1838 38.176H98.6598V43.054H97.1838V38.176ZM89.6058 48.094H100.712V53.188H89.6058V48.094ZM99.2538 49.282H91.0818V51.982H99.2538V49.282ZM109.445 45.142H124.151V46.366H109.445V45.142ZM116.051 42.532H117.527V45.646H116.051V42.532ZM111.299 42.064H122.441V43.288H111.299V42.064ZM111.299 37.87H122.315V39.076H112.775V42.784H111.299V37.87ZM116.771 47.536C120.245 47.536 122.351 48.598 122.351 50.452C122.351 52.342 120.245 53.386 116.771 53.386C113.297 53.386 111.191 52.342 111.191 50.452C111.191 48.598 113.297 47.536 116.771 47.536ZM116.771 48.688C114.233 48.688 112.703 49.336 112.703 50.452C112.703 51.586 114.233 52.216 116.771 52.216C119.327 52.216 120.839 51.586 120.839 50.452C120.839 49.336 119.327 48.688 116.771 48.688ZM133.402 39.472H138.37V40.696H133.402V39.472ZM133.402 43.216H138.37V44.458H133.402V43.216ZM130.432 38.086C132.826 38.086 134.626 39.706 134.626 41.956C134.626 44.224 132.826 45.826 130.432 45.826C128.02 45.826 126.238 44.224 126.238 41.956C126.238 39.706 128.02 38.086 130.432 38.086ZM130.432 39.364C128.848 39.364 127.678 40.426 127.678 41.956C127.678 43.486 128.848 44.548 130.432 44.548C132.016 44.548 133.204 43.486 133.204 41.956C133.204 40.426 132.016 39.364 130.432 39.364ZM137.884 37.132H139.378V46.762H137.884V37.132ZM134.032 47.14C137.38 47.14 139.45 48.292 139.45 50.254C139.45 52.234 137.38 53.368 134.032 53.368C130.666 53.368 128.596 52.234 128.596 50.254C128.596 48.292 130.666 47.14 134.032 47.14ZM134.032 48.328C131.566 48.328 130.072 49.048 130.072 50.254C130.072 51.478 131.566 52.198 134.032 52.198C136.48 52.198 137.974 51.478 137.974 50.254C137.974 49.048 136.48 48.328 134.032 48.328ZM146.504 37.978H147.746V39.634C147.746 42.766 145.982 45.358 143.264 46.42L142.472 45.214C144.92 44.314 146.504 42.118 146.504 39.634V37.978ZM146.774 37.978H147.998V39.742C147.998 41.938 149.618 43.972 151.958 44.782L151.166 45.952C148.556 44.98 146.774 42.568 146.774 39.742V37.978ZM153.686 37.132H155.18V46.996H153.686V37.132ZM154.766 41.326H157.592V42.586H154.766V41.326ZM149.996 47.446C153.326 47.446 155.342 48.544 155.342 50.416C155.342 52.288 153.326 53.368 149.996 53.368C146.666 53.368 144.65 52.288 144.65 50.416C144.65 48.544 146.666 47.446 149.996 47.446ZM149.996 48.634C147.584 48.634 146.108 49.282 146.108 50.416C146.108 51.55 147.584 52.198 149.996 52.198C152.408 52.198 153.884 51.55 153.884 50.416C153.884 49.282 152.408 48.634 149.996 48.634ZM166.465 38.158C169.849 38.158 172.369 39.958 172.369 42.658C172.369 45.376 169.849 47.158 166.465 47.158C163.081 47.158 160.543 45.376 160.543 42.658C160.543 39.958 163.081 38.158 166.465 38.158ZM166.465 39.382C163.891 39.382 161.983 40.696 161.983 42.658C161.983 44.602 163.891 45.934 166.465 45.934C169.039 45.934 170.947 44.602 170.947 42.658C170.947 40.696 169.039 39.382 166.465 39.382ZM159.121 50.002H173.863V51.262H159.121V50.002ZM175.679 50.164H190.421V51.406H175.679V50.164ZM182.267 46.672H183.761V50.686H182.267V46.672ZM177.461 38.338H188.603V43.27H178.991V46.528H177.515V42.064H187.127V39.544H177.461V38.338ZM177.515 45.898H188.981V47.122H177.515V45.898ZM197.3 44.872H212.006V46.114H197.3V44.872ZM199.154 42.118H210.296V43.324H199.154V42.118ZM199.154 37.78H210.17V39.004H200.63V42.694H199.154V37.78ZM204.626 47.518C208.1 47.518 210.206 48.58 210.206 50.452C210.206 52.324 208.1 53.368 204.626 53.368C201.152 53.368 199.046 52.324 199.046 50.452C199.046 48.58 201.152 47.518 204.626 47.518ZM204.626 48.67C202.088 48.67 200.558 49.318 200.558 50.452C200.558 51.568 202.088 52.198 204.626 52.198C207.182 52.198 208.694 51.568 208.694 50.452C208.694 49.318 207.182 48.67 204.626 48.67ZM213.841 46.078H228.601V47.302H213.841V46.078ZM215.713 37.546H226.693V41.488H217.225V43.684H215.749V40.39H225.235V38.716H215.713V37.546ZM215.749 43.198H227.053V44.368H215.749V43.198ZM220.465 43.81H221.959V46.69H220.465V43.81ZM215.479 48.544H226.801V53.26H225.307V49.768H215.479V48.544ZM241.434 37.132H242.928V53.404H241.434V37.132ZM242.568 43.81H245.592V45.07H242.568V43.81ZM230.328 39.724H239.922V40.948H230.328V39.724ZM235.188 42.298C237.492 42.298 239.148 43.846 239.148 46.042C239.148 48.238 237.492 49.786 235.188 49.786C232.902 49.786 231.228 48.238 231.228 46.042C231.228 43.846 232.902 42.298 235.188 42.298ZM235.188 43.54C233.712 43.54 232.65 44.566 232.65 46.042C232.65 47.5 233.712 48.544 235.188 48.544C236.664 48.544 237.726 47.5 237.726 46.042C237.726 44.566 236.664 43.54 235.188 43.54ZM234.414 37.33H235.908V40.282H234.414V37.33ZM258.82 37.132H260.314V53.404H258.82V37.132ZM254.05 38.878H255.526C255.526 43.594 253.402 47.716 247.966 50.38L247.174 49.174C251.872 46.906 254.05 43.45 254.05 39.13V38.878ZM247.912 38.878H254.698V40.102H247.912V38.878Z" fill="black"/>
<circle cx="32" cy="45" r="21.5" fill="white" stroke="#F1F1F5"/>
<path d="M34.75 38.5833C34.6294 38.5826 34.5098 38.6057 34.3981 38.6513C34.2864 38.697 34.1849 38.7642 34.0992 38.8491L28.5992 44.3491C28.4285 44.5209 28.3326 44.7532 28.3326 44.9954C28.3326 45.2376 28.4285 45.4699 28.5992 45.6416L34.0992 51.1416C34.2746 51.2918 34.5001 51.3703 34.7308 51.3614C34.9615 51.3525 35.1804 51.2568 35.3436 51.0936C35.5069 50.9303 35.6025 50.7115 35.6114 50.4808C35.6203 50.2501 35.5419 50.0245 35.3917 49.8491L30.5425 45L35.3917 40.1508C35.5204 40.0231 35.6084 39.8602 35.6445 39.6825C35.6806 39.5049 35.6632 39.3205 35.5945 39.1527C35.5258 38.9849 35.409 38.8413 35.2586 38.7399C35.1083 38.6386 34.9313 38.5841 34.75 38.5833Z" fill="#06161C"/>
<path d="M64.8 191.816H71.376V194.36H64.8V191.816ZM64.8 196.736H71.376V199.304H64.8V196.736ZM61.104 190.088C64.416 190.088 66.96 192.392 66.96 195.536C66.96 198.68 64.416 200.984 61.104 200.984C57.768 200.984 55.224 198.68 55.224 195.536C55.224 192.392 57.768 190.088 61.104 190.088ZM61.104 192.8C59.472 192.8 58.272 193.784 58.272 195.536C58.272 197.264 59.472 198.296 61.104 198.296C62.736 198.296 63.936 197.264 63.936 195.536C63.936 193.784 62.736 192.8 61.104 192.8ZM70.368 188.912H73.56V201.92H70.368V188.912ZM66.024 202.376C70.704 202.376 73.632 204.008 73.632 206.768C73.632 209.528 70.704 211.136 66.024 211.136C61.344 211.136 58.416 209.528 58.416 206.768C58.416 204.008 61.344 202.376 66.024 202.376ZM66.024 204.848C63.12 204.848 61.56 205.472 61.56 206.768C61.56 208.064 63.12 208.688 66.024 208.688C68.952 208.688 70.488 208.064 70.488 206.768C70.488 205.472 68.952 204.848 66.024 204.848ZM82.2101 190.112H84.8261V192.08C84.8261 196.496 82.9061 200.384 78.6821 201.848L76.9781 199.328C80.6981 198.08 82.2101 195.104 82.2101 192.08V190.112ZM82.8581 190.112H85.4501V192.392C85.4501 195.056 86.9381 197.648 90.4181 198.728L88.7621 201.2C84.7541 199.856 82.8581 196.4 82.8581 192.392V190.112ZM91.6421 188.912H94.8341V202.04H91.6421V188.912ZM93.9461 194.048H97.7861V196.688H93.9461V194.048ZM87.5861 202.544C92.1941 202.544 95.0981 204.152 95.0981 206.84C95.0981 209.552 92.1941 211.136 87.5861 211.136C82.9541 211.136 80.0501 209.552 80.0501 206.84C80.0501 204.152 82.9541 202.544 87.5861 202.544ZM87.5861 205.016C84.7541 205.016 83.2181 205.616 83.2181 206.84C83.2181 208.088 84.7541 208.664 87.5861 208.664C90.4181 208.664 91.9301 208.088 91.9301 206.84C91.9301 205.616 90.4181 205.016 87.5861 205.016ZM109.772 189.224C114.836 189.224 117.812 190.568 117.812 193.016C117.812 195.464 114.836 196.808 109.772 196.808C104.684 196.808 101.732 195.464 101.732 193.016C101.732 190.568 104.684 189.224 109.772 189.224ZM109.772 191.552C106.556 191.552 105.044 192.032 105.044 193.016C105.044 194.048 106.556 194.48 109.772 194.48C112.988 194.48 114.5 194.048 114.5 193.016C114.5 192.032 112.988 191.552 109.772 191.552ZM99.7162 197.84H119.804V200.36H99.7162V197.84ZM102.02 201.608H117.38V207.32H105.188V209.288H102.044V205.112H114.236V203.984H102.02V201.608ZM102.044 208.592H117.956V210.992H102.044V208.592ZM138.832 193.64H143.992V196.208H138.832V193.64ZM132.568 190.28H135.136V192.68C135.136 197.216 133.24 201.08 129.04 202.616L127.36 200.12C131.032 198.896 132.568 195.824 132.568 192.68V190.28ZM133.264 190.28H135.808V192.704C135.808 195.56 137.272 198.416 140.776 199.616L139.072 202.064C135.088 200.624 133.264 196.904 133.264 192.704V190.28ZM142.888 188.936H146.08V205.328H142.888V188.936ZM131.368 208.208H146.56V210.752H131.368V208.208ZM131.368 203.672H134.584V209.624H131.368V203.672ZM150.602 199.04H152.138C155.354 199.04 157.418 198.992 159.866 198.584L160.154 201.128C157.61 201.56 155.45 201.632 152.138 201.632H150.602V199.04ZM150.602 190.4H159.362V192.944H153.674V200.456H150.602V190.4ZM152.762 194.744H159.122V197.144H152.762V194.744ZM165.77 188.912H168.794V202.472H165.77V188.912ZM163.106 194.36H166.634V196.904H163.106V194.36ZM161.018 189.32H163.994V202.328H161.018V189.32ZM153.53 203.432H168.794V211.136H165.626V205.976H153.53V203.432ZM172.213 192.248H182.845V194.792H172.213V192.248ZM177.565 195.776C180.397 195.776 182.437 197.96 182.437 201.08C182.437 204.176 180.397 206.36 177.565 206.36C174.757 206.36 172.693 204.176 172.693 201.08C172.693 197.96 174.757 195.776 177.565 195.776ZM177.565 198.44C176.365 198.44 175.525 199.4 175.525 201.08C175.525 202.76 176.365 203.696 177.565 203.696C178.765 203.696 179.629 202.76 179.629 201.08C179.629 199.4 178.765 198.44 177.565 198.44ZM188.293 188.912H191.341V211.136H188.293V188.912ZM185.629 197.936H189.301V200.504H185.629V197.936ZM183.637 189.32H186.613V210.2H183.637V189.32ZM176.005 189.512H179.149V193.856H176.005V189.512ZM202.847 191.384H205.607V192.032C205.607 195.944 202.415 199.136 196.775 199.904L195.599 197.408C200.495 196.808 202.847 194.312 202.847 192.032V191.384ZM203.759 191.384H206.519V192.032C206.519 194.312 208.871 196.808 213.767 197.408L212.615 199.904C206.951 199.136 203.759 195.944 203.759 192.032V191.384ZM203.015 203H206.183V211.16H203.015V203ZM194.639 201.176H214.727V203.72H194.639V201.176ZM196.415 190.04H212.903V192.56H196.415V190.04ZM225.753 196.376H229.425V198.968H225.753V196.376ZM221.001 190.832H223.449V194.576C223.449 199.616 222.057 204.536 218.505 206.72L216.585 204.32C219.849 202.304 221.001 198.344 221.001 194.576V190.832ZM221.697 190.832H224.097V194.432C224.097 198.056 225.033 201.752 228.057 203.72L226.329 206.216C222.801 204.032 221.697 199.232 221.697 194.432V190.832ZM233.049 188.912H236.097V211.136H233.049V188.912ZM228.537 189.248H231.513V210.128H228.537V189.248ZM243.811 200.192H246.979V206.432H243.811V200.192ZM251.875 200.192H255.067V206.432H251.875V200.192ZM239.395 205.976H259.507V208.568H239.395V205.976ZM249.427 189.992C254.203 189.992 257.731 192.344 257.731 195.968C257.731 199.592 254.203 201.92 249.427 201.92C244.627 201.92 241.123 199.592 241.123 195.968C241.123 192.344 244.627 189.992 249.427 189.992ZM249.427 192.488C246.331 192.488 244.267 193.76 244.267 195.968C244.267 198.152 246.331 199.448 249.427 199.448C252.523 199.448 254.587 198.152 254.587 195.968C254.587 193.76 252.523 192.488 249.427 192.488ZM267.677 191.552L267.197 203.048H263.717L263.237 191.552H267.677ZM265.517 209.192C264.797 209.192 264.205 208.984 263.741 208.568C263.293 208.136 263.069 207.608 263.069 206.984C263.069 206.344 263.293 205.808 263.741 205.376C264.205 204.944 264.797 204.728 265.517 204.728C266.221 204.728 266.797 204.944 267.245 205.376C267.709 205.808 267.941 206.344 267.941 206.984C267.941 207.608 267.709 208.136 267.245 208.568C266.797 208.984 266.221 209.192 265.517 209.192ZM214.698 250.408H206.922V254.512C207.258 254.096 207.738 253.76 208.362 253.504C208.986 253.232 209.65 253.096 210.354 253.096C211.634 253.096 212.682 253.376 213.498 253.936C214.314 254.496 214.906 255.216 215.274 256.096C215.642 256.96 215.826 257.888 215.826 258.88C215.826 260.72 215.298 262.2 214.242 263.32C213.202 264.44 211.714 265 209.778 265C207.954 265 206.498 264.544 205.41 263.632C204.322 262.72 203.706 261.528 203.562 260.056H206.826C206.97 260.696 207.29 261.208 207.786 261.592C208.298 261.976 208.946 262.168 209.73 262.168C210.674 262.168 211.386 261.872 211.866 261.28C212.346 260.688 212.586 259.904 212.586 258.928C212.586 257.936 212.338 257.184 211.842 256.672C211.362 256.144 210.65 255.88 209.706 255.88C209.034 255.88 208.474 256.048 208.026 256.384C207.578 256.72 207.258 257.168 207.066 257.728H203.85V247.456H214.698V250.408ZM218.371 256.288H238.483V258.808H218.371V256.288ZM227.083 257.632H230.299V262.312H227.083V257.632ZM220.699 264.208H236.275V266.752H220.699V264.208ZM220.699 260.632H223.867V265.288H220.699V260.632ZM220.939 245.608H224.083V247.888H232.747V245.608H235.915V254.752H220.939V245.608ZM224.083 250.288V252.256H232.747V250.288H224.083Z" fill="#23AA49"/>
<path d="M65.064 248.296H71.688V249.928H65.064V248.296ZM65.064 253.288H71.688V254.944H65.064V253.288ZM61.104 246.448C64.296 246.448 66.696 248.608 66.696 251.608C66.696 254.632 64.296 256.768 61.104 256.768C57.888 256.768 55.512 254.632 55.512 251.608C55.512 248.608 57.888 246.448 61.104 246.448ZM61.104 248.152C58.992 248.152 57.432 249.568 57.432 251.608C57.432 253.648 58.992 255.064 61.104 255.064C63.216 255.064 64.8 253.648 64.8 251.608C64.8 249.568 63.216 248.152 61.104 248.152ZM71.04 245.176H73.032V258.016H71.04V245.176ZM65.904 258.52C70.368 258.52 73.128 260.056 73.128 262.672C73.128 265.312 70.368 266.824 65.904 266.824C61.416 266.824 58.656 265.312 58.656 262.672C58.656 260.056 61.416 258.52 65.904 258.52ZM65.904 260.104C62.616 260.104 60.624 261.064 60.624 262.672C60.624 264.304 62.616 265.264 65.904 265.264C69.168 265.264 71.16 264.304 71.16 262.672C71.16 261.064 69.168 260.104 65.904 260.104ZM82.8341 246.304H84.4901V248.512C84.4901 252.688 82.1381 256.144 78.5141 257.56L77.4581 255.952C80.7221 254.752 82.8341 251.824 82.8341 248.512V246.304ZM83.1941 246.304H84.8261V248.656C84.8261 251.584 86.9861 254.296 90.1061 255.376L89.0501 256.936C85.5701 255.64 83.1941 252.424 83.1941 248.656V246.304ZM92.4101 245.176H94.4021V258.328H92.4101V245.176ZM93.8501 250.768H97.6181V252.448H93.8501V250.768ZM87.4901 258.928C91.9301 258.928 94.6181 260.392 94.6181 262.888C94.6181 265.384 91.9301 266.824 87.4901 266.824C83.0501 266.824 80.3621 265.384 80.3621 262.888C80.3621 260.392 83.0501 258.928 87.4901 258.928ZM87.4901 260.512C84.2741 260.512 82.3061 261.376 82.3061 262.888C82.3061 264.4 84.2741 265.264 87.4901 265.264C90.7061 265.264 92.6741 264.4 92.6741 262.888C92.6741 261.376 90.7061 260.512 87.4901 260.512ZM106.988 246.736C110.372 246.736 112.796 248.824 112.796 251.848C112.796 254.896 110.372 256.984 106.988 256.984C103.604 256.984 101.156 254.896 101.156 251.848C101.156 248.824 103.604 246.736 106.988 246.736ZM106.988 248.464C104.732 248.464 103.1 249.832 103.1 251.848C103.1 253.864 104.732 255.256 106.988 255.256C109.22 255.256 110.852 253.864 110.852 251.848C110.852 249.832 109.22 248.464 106.988 248.464ZM115.628 245.152H117.62V266.896H115.628V245.152ZM100.34 262.144L100.052 260.488C104.012 260.488 109.484 260.464 114.212 259.72L114.38 261.184C109.508 262.12 104.204 262.144 100.34 262.144ZM144.801 245.176H146.817V256.24H144.801V245.176ZM138.177 246.232H140.361C140.361 251.776 136.497 255.208 130.113 256.696L129.393 255.064C135.105 253.816 138.177 251.008 138.177 247.24V246.232ZM130.473 246.232H139.521V247.864H130.473V246.232ZM132.777 257.296H146.817V262.576H134.793V265.864H132.825V261.088H144.825V258.88H132.777V257.296ZM132.825 265.072H147.537V266.656H132.825V265.072ZM167.155 245.152H169.147V266.896H167.155V245.152ZM157.699 246.832C160.915 246.832 163.219 249.784 163.219 254.392C163.219 259.024 160.915 261.976 157.699 261.976C154.507 261.976 152.203 259.024 152.203 254.392C152.203 249.784 154.507 246.832 157.699 246.832ZM157.699 248.632C155.587 248.632 154.099 250.888 154.099 254.392C154.099 257.92 155.587 260.224 157.699 260.224C159.835 260.224 161.299 257.92 161.299 254.392C161.299 250.888 159.835 248.632 157.699 248.632ZM176.429 251.68H191.165V253.312H176.429V251.68ZM173.765 256.216H193.445V257.848H173.765V256.216ZM176.429 245.968H178.397V252.496H176.429V245.968ZM176.285 264.712H191.285V266.344H176.285V264.712ZM176.285 260.008H178.253V265.144H176.285V260.008ZM264.152 245.176H266.072V266.872H264.152V245.176ZM260.504 254.008H264.68V255.64H260.504V254.008ZM259.232 245.656H261.104V265.768H259.232V245.656ZM248.72 247.792H250.712V260.32H248.72V247.792ZM248.72 259.528H250.112C252.344 259.528 254.84 259.384 257.672 258.832L257.888 260.56C254.936 261.136 252.44 261.256 250.112 261.256H248.72V259.528ZM270.066 262.552H289.722V264.208H270.066V262.552ZM278.85 257.896H280.842V263.248H278.85V257.896ZM272.442 246.784H287.298V253.36H274.482V257.704H272.514V251.752H285.33V248.392H272.442V246.784ZM272.514 256.864H287.802V258.496H272.514V256.864ZM315.63 245.176H317.55V266.872H315.63V245.176ZM307.734 252.952H311.886V254.608H307.734V252.952ZM311.286 245.68H313.158V265.768H311.286V245.68ZM303.558 248.536H305.094V251.296C305.094 256.048 303.27 260.536 300.078 262.552L298.854 261.064C301.878 259.24 303.558 255.28 303.558 251.296V248.536ZM303.966 248.536H305.502V251.296C305.502 255.064 307.134 258.832 310.11 260.56L308.886 262.024C305.718 260.104 303.966 255.832 303.966 251.296V248.536ZM299.454 247.696H309.366V249.352H299.454V247.696ZM70.032 273.2H72.024V289.472H70.032V273.2ZM71.4 280.304H75.24V281.984H71.4V280.304ZM55.248 275.816H68.064V277.424H55.248V275.816ZM61.656 278.624C64.728 278.624 66.84 280.232 66.84 282.68C66.84 285.104 64.728 286.712 61.656 286.712C58.56 286.712 56.448 285.104 56.448 282.68C56.448 280.232 58.56 278.624 61.656 278.624ZM61.656 280.184C59.688 280.184 58.344 281.168 58.344 282.68C58.344 284.168 59.688 285.152 61.656 285.152C63.6 285.152 64.944 284.168 64.944 282.68C64.944 281.168 63.6 280.184 61.656 280.184ZM60.648 273.176H62.64V276.656H60.648V273.176ZM58.512 292.76H73.008V294.392H58.512V292.76ZM58.512 288.176H60.504V293.456H58.512V288.176ZM83.7461 280.52H85.7621V284.12H83.7461V280.52ZM93.3701 273.176H95.3621V285.68H93.3701V273.176ZM77.9381 285.152L77.6501 283.544C81.6101 283.544 87.0101 283.496 91.5941 282.824L91.7381 284.24C87.0101 285.08 81.8021 285.152 77.9381 285.152ZM79.5941 279.512H90.0101V281.12H79.5941V279.512ZM79.5941 274.256H89.8181V275.888H81.5861V280.136H79.5941V274.256ZM81.1301 286.64H83.1221V288.92H93.3941V286.64H95.3621V294.584H81.1301V286.64ZM83.1221 290.48V292.976H93.3941V290.48H83.1221ZM115.724 273.176H117.716V294.872H115.724V273.176ZM101.324 275.288H103.292V288.728H101.324V275.288ZM101.324 287.552H103.1C106.388 287.552 109.82 287.312 113.492 286.544L113.732 288.248C109.964 289.016 106.532 289.28 103.1 289.28H101.324V287.552ZM136.998 273.152H139.014V294.896H136.998V273.152ZM138.534 281.72H142.566V283.4H138.534V281.72ZM123.246 287.816H124.95C128.958 287.816 131.766 287.672 135.006 287.072L135.222 288.752C131.886 289.376 129.03 289.496 124.95 289.496H123.246V287.816ZM123.246 275.264H133.326V276.896H125.214V288.56H123.246V275.264ZM146.056 293.144C145.64 293.144 145.288 293 145 292.712C144.712 292.424 144.568 292.072 144.568 291.656C144.568 291.24 144.712 290.888 145 290.6C145.288 290.312 145.64 290.168 146.056 290.168C146.456 290.168 146.792 290.312 147.064 290.6C147.352 290.888 147.496 291.24 147.496 291.656C147.496 292.072 147.352 292.424 147.064 292.712C146.792 293 146.456 293.144 146.056 293.144ZM65.064 332.296H71.688V333.928H65.064V332.296ZM65.064 337.288H71.688V338.944H65.064V337.288ZM61.104 330.448C64.296 330.448 66.696 332.608 66.696 335.608C66.696 338.632 64.296 340.768 61.104 340.768C57.888 340.768 55.512 338.632 55.512 335.608C55.512 332.608 57.888 330.448 61.104 330.448ZM61.104 332.152C58.992 332.152 57.432 333.568 57.432 335.608C57.432 337.648 58.992 339.064 61.104 339.064C63.216 339.064 64.8 337.648 64.8 335.608C64.8 333.568 63.216 332.152 61.104 332.152ZM71.04 329.176H73.032V342.016H71.04V329.176ZM65.904 342.52C70.368 342.52 73.128 344.056 73.128 346.672C73.128 349.312 70.368 350.824 65.904 350.824C61.416 350.824 58.656 349.312 58.656 346.672C58.656 344.056 61.416 342.52 65.904 342.52ZM65.904 344.104C62.616 344.104 60.624 345.064 60.624 346.672C60.624 348.304 62.616 349.264 65.904 349.264C69.168 349.264 71.16 348.304 71.16 346.672C71.16 345.064 69.168 344.104 65.904 344.104ZM82.8341 330.304H84.4901V332.512C84.4901 336.688 82.1381 340.144 78.5141 341.56L77.4581 339.952C80.7221 338.752 82.8341 335.824 82.8341 332.512V330.304ZM83.1941 330.304H84.8261V332.656C84.8261 335.584 86.9861 338.296 90.1061 339.376L89.0501 340.936C85.5701 339.64 83.1941 336.424 83.1941 332.656V330.304ZM92.4101 329.176H94.4021V342.328H92.4101V329.176ZM93.8501 334.768H97.6181V336.448H93.8501V334.768ZM87.4901 342.928C91.9301 342.928 94.6181 344.392 94.6181 346.888C94.6181 349.384 91.9301 350.824 87.4901 350.824C83.0501 350.824 80.3621 349.384 80.3621 346.888C80.3621 344.392 83.0501 342.928 87.4901 342.928ZM87.4901 344.512C84.2741 344.512 82.3061 345.376 82.3061 346.888C82.3061 348.4 84.2741 349.264 87.4901 349.264C90.7061 349.264 92.6741 348.4 92.6741 346.888C92.6741 345.376 90.7061 344.512 87.4901 344.512ZM106.631 340.048H126.311V341.68H106.631V340.048ZM115.439 336.76H117.407V340.792H115.439V336.76ZM115.415 329.512H117.143V330.472C117.143 334.384 112.991 337.168 108.575 337.888L107.807 336.304C111.695 335.776 115.415 333.376 115.415 330.472V329.512ZM115.727 329.512H117.431V330.472C117.431 333.376 121.175 335.776 125.039 336.304L124.295 337.888C119.903 337.144 115.727 334.384 115.727 330.472V329.512ZM108.815 343.792H123.815V350.872H121.823V345.4H108.815V343.792ZM137.817 337.6H141.921V339.256H137.817V337.6ZM145.545 329.176H147.465V350.872H145.545V329.176ZM141.249 329.632H143.145V349.792H141.249V329.632ZM133.905 330.976C136.713 330.976 138.537 333.88 138.537 338.536C138.537 343.192 136.713 346.096 133.905 346.096C131.097 346.096 129.297 343.192 129.297 338.536C129.297 333.88 131.097 330.976 133.905 330.976ZM133.905 332.824C132.201 332.824 131.121 335.032 131.121 338.536C131.121 342.04 132.201 344.248 133.905 344.248C135.633 344.248 136.713 342.04 136.713 338.536C136.713 335.032 135.633 332.824 133.905 332.824ZM69.864 357.152H71.88V378.896H69.864V357.152ZM71.4 365.72H75.432V367.4H71.4V365.72ZM56.112 371.816H57.816C61.824 371.816 64.632 371.672 67.872 371.072L68.088 372.752C64.752 373.376 61.896 373.496 57.816 373.496H56.112V371.816ZM56.112 359.264H66.192V360.896H58.08V372.56H56.112V359.264ZM87.3701 357.656C92.0501 357.656 95.0021 359.192 95.0021 361.76C95.0021 364.328 92.0501 365.84 87.3701 365.84C82.6661 365.84 79.7381 364.328 79.7381 361.76C79.7381 359.192 82.6661 357.656 87.3701 357.656ZM87.3701 359.24C83.9141 359.24 81.7781 360.152 81.7781 361.76C81.7781 363.344 83.9141 364.28 87.3701 364.28C90.8021 364.28 92.9621 363.344 92.9621 361.76C92.9621 360.152 90.8021 359.24 87.3701 359.24ZM79.9541 371.432H94.7621V378.584H79.9541V371.432ZM92.8181 373.04H81.9221V376.976H92.8181V373.04ZM77.5541 367.712H97.1621V369.32H77.5541V367.712ZM118.223 362.792H123.119V364.448H118.223V362.792ZM122.495 357.176H124.487V370.112H122.495V357.176ZM117.359 370.76C121.823 370.76 124.583 372.272 124.583 374.816C124.583 377.384 121.823 378.848 117.359 378.848C112.871 378.848 110.111 377.384 110.111 374.816C110.111 372.272 112.871 370.76 117.359 370.76ZM117.359 372.32C114.095 372.32 112.103 373.232 112.103 374.816C112.103 376.376 114.095 377.288 117.359 377.288C120.623 377.288 122.615 376.376 122.615 374.816C122.615 373.232 120.623 372.32 117.359 372.32ZM112.175 359.36H113.807V361.112C113.807 365.12 111.359 368.552 107.759 369.896L106.727 368.312C109.943 367.136 112.175 364.232 112.175 361.112V359.36ZM112.559 359.36H114.167V361.112C114.167 363.92 116.279 366.608 119.423 367.712L118.415 369.296C114.887 368.024 112.559 364.76 112.559 361.112V359.36ZM107.327 358.76H118.919V360.392H107.327V358.76ZM129.033 374.456H148.689V376.112H129.033V374.456ZM137.817 369.272H139.809V374.936H137.817V369.272ZM131.337 358.712H133.305V362.576H144.369V358.712H146.337V369.8H131.337V358.712ZM133.305 364.184V368.168H144.369V364.184H133.305ZM166.075 357.152H168.091V378.872H166.075V357.152ZM167.539 365.96H171.547V367.616H167.539V365.96ZM160.531 359.504H162.475C162.475 365.672 159.643 371.24 152.635 374.768L151.531 373.232C157.531 370.184 160.531 365.552 160.531 359.816V359.504ZM152.539 359.504H161.563V361.136H152.539V359.504ZM180.487 374.528H200.143V376.184H180.487V374.528ZM189.247 368.912H191.239V375.272H189.247V368.912ZM182.191 359.24H198.295V360.872H182.191V359.24ZM182.239 367.976H198.271V369.584H182.239V367.976ZM185.575 360.56H187.567V368.264H185.575V360.56ZM192.967 360.56H194.935V368.264H192.967V360.56ZM217.698 357.176H219.69V370.232H217.698V357.176ZM219.138 362.936H222.906V364.592H219.138V362.936ZM206.058 371.456H219.69V378.584H206.058V371.456ZM217.746 373.064H208.002V376.976H217.746V373.064ZM202.914 359.456H215.73V361.088H202.914V359.456ZM209.322 362.144C212.418 362.144 214.506 363.68 214.506 366.032C214.506 368.384 212.418 369.872 209.322 369.872C206.202 369.872 204.114 368.384 204.114 366.032C204.114 363.68 206.202 362.144 209.322 362.144ZM209.322 363.68C207.33 363.68 206.01 364.592 206.01 366.032C206.01 367.448 207.33 368.36 209.322 368.36C211.266 368.36 212.61 367.448 212.61 366.032C212.61 364.592 211.266 363.68 209.322 363.68ZM208.314 356.984H210.306V360.296H208.314V356.984ZM226.948 366.512H238.06V368.144H226.948V366.512ZM231.388 367.808H233.404V372.8H231.388V367.808ZM226.948 359.216H237.94V360.848H228.94V367.088H226.948V359.216ZM240.916 357.152H242.908V378.896H240.916V357.152ZM225.628 374.192L225.34 372.536C229.588 372.512 234.916 372.464 239.5 371.912L239.668 373.4C234.916 374.12 229.732 374.216 225.628 374.192ZM253.142 370.4H254.702V371.648C254.702 374.528 252.926 377.408 249.806 378.608L248.798 377.12C251.534 376.112 253.142 373.76 253.142 371.648V370.4ZM253.598 370.4H255.086V371.648C255.086 373.856 256.358 376.232 258.974 377.288L258.134 378.8C254.99 377.576 253.598 374.552 253.598 371.648V370.4ZM261.182 370.4H262.646V371.648C262.646 374.216 261.23 377.48 258.134 378.8L257.27 377.288C259.862 376.088 261.182 373.544 261.182 371.648V370.4ZM261.566 370.4H263.126V371.648C263.126 373.928 264.71 376.184 267.494 377.12L266.462 378.608C263.318 377.456 261.566 374.672 261.566 371.648V370.4ZM258.278 362.6H264.014V364.256H258.278V362.6ZM253.526 358.4C256.718 358.4 259.094 360.488 259.094 363.488C259.094 366.464 256.718 368.552 253.526 368.552C250.334 368.552 247.982 366.464 247.982 363.488C247.982 360.488 250.334 358.4 253.526 358.4ZM253.526 360.056C251.414 360.056 249.878 361.496 249.878 363.488C249.878 365.48 251.414 366.896 253.526 366.896C255.614 366.896 257.174 365.48 257.174 363.488C257.174 361.496 255.614 360.056 253.526 360.056ZM263.462 357.176H265.454V369.536H263.462V357.176ZM286.128 365.816H290.136V367.496H286.128V365.816ZM284.664 357.152H286.68V378.872H284.664V357.152ZM270.84 359.288H272.832V372.728H270.84V359.288ZM270.84 371.696H272.568C275.784 371.696 279.072 371.48 282.648 370.736L282.888 372.392C279.192 373.16 275.856 373.376 272.568 373.376H270.84V371.696ZM297.178 368.336H299.146V374.84H297.178V368.336ZM305.194 368.336H307.186V374.84H305.194V368.336ZM292.378 374.456H312.034V376.112H292.378V374.456ZM302.17 358.544C306.754 358.544 310.042 360.728 310.042 364.136C310.042 367.52 306.754 369.704 302.17 369.704C297.562 369.704 294.274 367.52 294.274 364.136C294.274 360.728 297.562 358.544 302.17 358.544ZM302.17 360.128C298.69 360.128 296.194 361.712 296.194 364.136C296.194 366.536 298.69 368.12 302.17 368.12C305.65 368.12 308.122 366.536 308.122 364.136C308.122 361.712 305.65 360.128 302.17 360.128ZM319.676 360.056C321.26 360.056 322.54 360.504 323.516 361.4C324.492 362.296 324.98 363.496 324.98 365C324.98 366.68 324.46 367.928 323.42 368.744C322.38 369.544 320.972 369.944 319.196 369.944L319.124 372.224H317.228L317.132 368.432H317.828C319.412 368.432 320.652 368.192 321.548 367.712C322.444 367.232 322.892 366.328 322.892 365C322.892 364.04 322.604 363.28 322.028 362.72C321.452 362.16 320.676 361.88 319.7 361.88C318.708 361.88 317.924 362.152 317.348 362.696C316.788 363.224 316.508 363.952 316.508 364.88H314.444C314.444 363.92 314.66 363.08 315.092 362.36C315.524 361.624 316.132 361.056 316.916 360.656C317.716 360.256 318.636 360.056 319.676 360.056ZM318.164 377.144C317.748 377.144 317.396 377 317.108 376.712C316.82 376.424 316.676 376.072 316.676 375.656C316.676 375.24 316.82 374.888 317.108 374.6C317.396 374.312 317.748 374.168 318.164 374.168C318.564 374.168 318.9 374.312 319.172 374.6C319.46 374.888 319.604 375.24 319.604 375.656C319.604 376.072 319.46 376.424 319.172 376.712C318.9 377 318.564 377.144 318.164 377.144Z" fill="black"/>
<path d="M71.9883 428.608C71.3323 428.608 70.7243 428.448 70.1643 428.128C69.6203 427.808 69.1883 427.376 68.8683 426.832C68.5483 426.272 68.3883 425.664 68.3883 425.008C68.3883 424.336 68.5483 423.728 68.8683 423.184C69.1883 422.624 69.6203 422.184 70.1643 421.864C70.7243 421.544 71.3323 421.384 71.9883 421.384C72.6603 421.384 73.2683 421.544 73.8123 421.864C74.3723 422.184 74.8123 422.624 75.1323 423.184C75.4523 423.728 75.6123 424.336 75.6123 425.008C75.6123 425.664 75.4523 426.272 75.1323 426.832C74.8123 427.376 74.3723 427.808 73.8123 428.128C73.2683 428.448 72.6603 428.608 71.9883 428.608ZM95.832 414.112H98.448V416.08C98.448 420.496 96.528 424.384 92.304 425.848L90.6 423.328C94.32 422.08 95.832 419.104 95.832 416.08V414.112ZM96.48 414.112H99.072V416.392C99.072 419.056 100.56 421.648 104.04 422.728L102.384 425.2C98.376 423.856 96.48 420.4 96.48 416.392V414.112ZM105.264 412.912H108.456V426.04H105.264V412.912ZM107.568 418.048H111.408V420.688H107.568V418.048ZM101.208 426.544C105.816 426.544 108.72 428.152 108.72 430.84C108.72 433.552 105.816 435.136 101.208 435.136C96.576 435.136 93.672 433.552 93.672 430.84C93.672 428.152 96.576 426.544 101.208 426.544ZM101.208 429.016C98.376 429.016 96.84 429.616 96.84 430.84C96.84 432.088 98.376 432.664 101.208 432.664C104.04 432.664 105.552 432.088 105.552 430.84C105.552 429.616 104.04 429.016 101.208 429.016ZM121.786 425.128H124.978V428.512H121.786V425.128ZM113.338 423.304H133.426V425.824H113.338V423.304ZM115.09 413.512H131.65V416.056H115.09V413.512ZM115.258 419.392H131.482V421.936H115.258V419.392ZM117.922 414.448H121.114V421.048H117.922V414.448ZM125.626 414.448H128.818V421.048H125.626V414.448ZM115.666 427.672H131.026V434.896H115.666V427.672ZM127.906 430.144H118.81V432.376H127.906V430.144ZM146.622 424.024H149.838V428.704H146.622V424.024ZM148.254 414.208C151.758 414.208 154.374 416.488 154.374 419.68C154.374 422.872 151.758 425.152 148.254 425.152C144.774 425.152 142.11 422.872 142.11 419.68C142.11 416.488 144.774 414.208 148.254 414.208ZM148.254 416.944C146.55 416.944 145.254 417.928 145.254 419.68C145.254 421.408 146.55 422.44 148.254 422.44C149.958 422.44 151.254 421.408 151.254 419.68C151.254 417.928 149.958 416.944 148.254 416.944ZM156.462 412.888H159.654V435.184H156.462V412.888ZM141.582 430.72L141.198 428.152C145.11 428.152 150.558 428.104 155.238 427.408L155.478 429.712C150.654 430.672 145.422 430.72 141.582 430.72ZM164.464 414.52H173.968V417.088H164.464V414.52ZM167.2 419.704H170.368V425.272H167.2V419.704ZM172.72 414.52H175.864V415.912C175.864 417.472 175.864 419.68 175.336 422.44L172.24 422.104C172.72 419.368 172.72 417.448 172.72 415.912V414.52ZM178.024 412.912H181.24V429.544H178.024V412.912ZM179.968 419.68H183.88V422.296H179.968V419.68ZM166.408 432.208H181.936V434.752H166.408V432.208ZM166.408 428.056H169.6V433H166.408V428.056ZM163.456 426.568L163.168 424.048C167.008 424.048 172.36 423.976 176.824 423.352L177.016 425.608C172.432 426.472 167.272 426.568 163.456 426.568ZM71.9883 484.608C71.3323 484.608 70.7243 484.448 70.1643 484.128C69.6203 483.808 69.1883 483.376 68.8683 482.832C68.5483 482.272 68.3883 481.664 68.3883 481.008C68.3883 480.336 68.5483 479.728 68.8683 479.184C69.1883 478.624 69.6203 478.184 70.1643 477.864C70.7243 477.544 71.3323 477.384 71.9883 477.384C72.6603 477.384 73.2683 477.544 73.8123 477.864C74.3723 478.184 74.8123 478.624 75.1323 479.184C75.4523 479.728 75.6123 480.336 75.6123 481.008C75.6123 481.664 75.4523 482.272 75.1323 482.832C74.8123 483.376 74.3723 483.808 73.8123 484.128C73.2683 484.448 72.6603 484.608 71.9883 484.608ZM95.832 470.112H98.448V472.08C98.448 476.496 96.528 480.384 92.304 481.848L90.6 479.328C94.32 478.08 95.832 475.104 95.832 472.08V470.112ZM96.48 470.112H99.072V472.392C99.072 475.056 100.56 477.648 104.04 478.728L102.384 481.2C98.376 479.856 96.48 476.4 96.48 472.392V470.112ZM105.264 468.912H108.456V482.04H105.264V468.912ZM107.568 474.048H111.408V476.688H107.568V474.048ZM101.208 482.544C105.816 482.544 108.72 484.152 108.72 486.84C108.72 489.552 105.816 491.136 101.208 491.136C96.576 491.136 93.672 489.552 93.672 486.84C93.672 484.152 96.576 482.544 101.208 482.544ZM101.208 485.016C98.376 485.016 96.84 485.616 96.84 486.84C96.84 488.088 98.376 488.664 101.208 488.664C104.04 488.664 105.552 488.088 105.552 486.84C105.552 485.616 104.04 485.016 101.208 485.016ZM121.786 481.128H124.978V484.512H121.786V481.128ZM113.338 479.304H133.426V481.824H113.338V479.304ZM115.09 469.512H131.65V472.056H115.09V469.512ZM115.258 475.392H131.482V477.936H115.258V475.392ZM117.922 470.448H121.114V477.048H117.922V470.448ZM125.626 470.448H128.818V477.048H125.626V470.448ZM115.666 483.672H131.026V490.896H115.666V483.672ZM127.906 486.144H118.81V488.376H127.906V486.144ZM146.468 472.128H152.132V474.648H146.468V472.128ZM146.468 476.568H152.228V479.112H146.468V476.568ZM151.124 468.912H154.316V481.92H151.124V468.912ZM136.628 470.52H147.14V480.72H136.628V470.52ZM143.996 473.04H139.772V478.224H143.996V473.04ZM146.78 482.496C151.484 482.496 154.388 484.104 154.388 486.816C154.388 489.552 151.484 491.136 146.78 491.136C142.076 491.136 139.172 489.552 139.172 486.816C139.172 484.104 142.076 482.496 146.78 482.496ZM146.78 484.944C143.9 484.944 142.364 485.544 142.364 486.816C142.364 488.088 143.9 488.712 146.78 488.712C149.684 488.712 151.22 488.088 151.22 486.816C151.22 485.544 149.684 484.944 146.78 484.944ZM71.9883 540.608C71.3323 540.608 70.7243 540.448 70.1643 540.128C69.6203 539.808 69.1883 539.376 68.8683 538.832C68.5483 538.272 68.3883 537.664 68.3883 537.008C68.3883 536.336 68.5483 535.728 68.8683 535.184C69.1883 534.624 69.6203 534.184 70.1643 533.864C70.7243 533.544 71.3323 533.384 71.9883 533.384C72.6603 533.384 73.2683 533.544 73.8123 533.864C74.3723 534.184 74.8123 534.624 75.1323 535.184C75.4523 535.728 75.6123 536.336 75.6123 537.008C75.6123 537.664 75.4523 538.272 75.1323 538.832C74.8123 539.376 74.3723 539.808 73.8123 540.128C73.2683 540.448 72.6603 540.608 71.9883 540.608ZM105.168 524.888H108.384V547.112H105.168V524.888ZM107.544 533.384H111.456V536H107.544V533.384ZM99.336 527.192H102.456C102.456 533.864 99.912 539.576 92.52 543.296L90.744 540.872C96.576 537.848 99.336 533.768 99.336 527.744V527.192ZM91.968 527.192H100.968V529.76H91.968V527.192ZM121.786 526.304H125.122C125.122 532.28 121.426 536.336 114.778 538.088L113.578 535.592C119.026 534.176 121.786 531.296 121.786 527.888V526.304ZM114.826 526.304H123.85V528.848H114.826V526.304ZM116.794 539.048H131.938V547.064H128.746V541.544H116.794V539.048ZM128.746 524.912H131.938V538.112H128.746V524.912ZM124.066 528.488H129.274V531.008H124.066V528.488ZM123.85 533.216H129.082V535.76H123.85V533.216ZM71.9883 596.608C71.3323 596.608 70.7243 596.448 70.1643 596.128C69.6203 595.808 69.1883 595.376 68.8683 594.832C68.5483 594.272 68.3883 593.664 68.3883 593.008C68.3883 592.336 68.5483 591.728 68.8683 591.184C69.1883 590.624 69.6203 590.184 70.1643 589.864C70.7243 589.544 71.3323 589.384 71.9883 589.384C72.6603 589.384 73.2683 589.544 73.8123 589.864C74.3723 590.184 74.8123 590.624 75.1323 591.184C75.4523 591.728 75.6123 592.336 75.6123 593.008C75.6123 593.664 75.4523 594.272 75.1323 594.832C74.8123 595.376 74.3723 595.808 73.8123 596.128C73.2683 596.448 72.6603 596.608 71.9883 596.608ZM106.944 580.912H109.992V603.136H106.944V580.912ZM104.136 589.288H107.808V591.832H104.136V589.288ZM97.512 583.624H100.56C100.56 589.888 98.736 594.952 92.52 598.576L90.672 596.368C95.736 593.368 97.512 589.624 97.512 584.296V583.624ZM91.8 583.624H98.448V586.192H91.8V583.624ZM102.024 581.488H105V602.176H102.024V581.488ZM127.666 580.912H130.882V593.728H127.666V580.912ZM129.946 586.168H133.786V588.76H129.946V586.168ZM123.586 594.136C128.146 594.136 131.098 595.84 131.098 598.648C131.098 601.48 128.146 603.16 123.586 603.16C119.002 603.16 116.05 601.48 116.05 598.648C116.05 595.84 119.002 594.136 123.586 594.136ZM123.586 596.68C120.754 596.68 119.194 597.304 119.194 598.648C119.194 599.968 120.754 600.616 123.586 600.616C126.394 600.616 127.954 599.968 127.954 598.648C127.954 597.304 126.394 596.68 123.586 596.68ZM114.106 590.032H115.954C120.85 590.032 123.274 589.912 125.938 589.336L126.25 591.88C123.538 592.48 120.97 592.576 115.954 592.576H114.106V590.032ZM114.106 582.4H124.042V584.944H117.274V591.76H114.106V582.4ZM149.478 581.56H152.286V582.592C152.286 586.864 148.926 590.488 143.094 591.352L141.846 588.784C146.958 588.112 149.478 585.208 149.478 582.592V581.56ZM150.078 581.56H152.862V582.592C152.862 585.184 155.406 588.112 160.494 588.784L159.27 591.352C153.438 590.488 150.078 586.864 150.078 582.592V581.56ZM149.502 595H152.67V603.136H149.502V595ZM141.126 592.984H161.214V595.576H141.126V592.984ZM180.064 583.888H183.928V586.504H180.064V583.888ZM180.064 588.568H183.928V591.184H180.064V588.568ZM177.784 580.912H180.976V594.304H177.784V580.912ZM164.272 590.8H166.144C170.512 590.8 173.2 590.704 176.272 590.128L176.56 592.672C173.44 593.272 170.632 593.392 166.144 593.392H164.272V590.8ZM164.248 582.232H174.4V588.904H167.44V592.36H164.272V586.528H171.256V584.752H164.248V582.232ZM173.68 594.688C178.312 594.688 181.192 596.272 181.192 598.936C181.192 601.6 178.312 603.136 173.68 603.136C169.048 603.136 166.144 601.6 166.144 598.936C166.144 596.272 169.048 594.688 173.68 594.688ZM173.68 597.136C170.8 597.136 169.288 597.712 169.288 598.936C169.288 600.16 170.8 600.736 173.68 600.736C176.56 600.736 178.072 600.16 178.072 598.936C178.072 597.712 176.56 597.136 173.68 597.136ZM201.996 590.416H209.988V592.96H201.996V590.416ZM191.268 597.976H211.38V600.592H191.268V597.976ZM199.668 593.896H202.836V599.152H199.668V593.896ZM201.996 582.712H209.868V585.28H205.188V591.712H201.996V582.712ZM192.78 582.736H200.628V585.28H195.972V591.496H192.78V582.736ZM192.78 590.344H194.196C196.764 590.344 198.612 590.272 200.772 589.84L200.988 592.456C198.78 592.888 196.86 592.96 194.196 592.96H192.78V590.344ZM216.119 586.912H231.527V589.432H216.119V586.912ZM213.623 591.736H233.759V594.28H213.623V591.736ZM216.119 581.704H219.287V588.16H216.119V581.704ZM215.903 600.112H231.647V602.656H215.903V600.112ZM215.903 596.056H219.095V600.784H215.903V596.056ZM249.835 592.072H253.027V595.984H249.835V592.072ZM241.387 591.016H261.475V593.536H241.387V591.016ZM251.395 595.12C256.195 595.12 259.099 596.56 259.099 599.128C259.099 601.696 256.195 603.136 251.395 603.136C246.571 603.136 243.667 601.696 243.667 599.128C243.667 596.56 246.571 595.12 251.395 595.12ZM251.395 597.52C248.419 597.52 246.907 598.024 246.907 599.128C246.907 600.208 248.419 600.736 251.395 600.736C254.371 600.736 255.883 600.208 255.883 599.128C255.883 598.024 254.371 597.52 251.395 597.52ZM249.235 583H252.067V583.552C252.067 586.888 249.067 589.624 243.331 590.152L242.227 587.656C247.099 587.248 249.235 585.28 249.235 583.552V583ZM250.795 583H253.627V583.552C253.627 585.304 255.739 587.248 260.635 587.656L259.531 590.152C253.819 589.624 250.795 586.912 250.795 583.552V583ZM243.211 581.824H259.675V584.344H243.211V581.824ZM280.349 583.888H284.213V586.504H280.349V583.888ZM280.349 588.568H284.213V591.184H280.349V588.568ZM278.069 580.912H281.261V594.304H278.069V580.912ZM264.557 590.8H266.429C270.797 590.8 273.485 590.704 276.557 590.128L276.845 592.672C273.725 593.272 270.917 593.392 266.429 593.392H264.557V590.8ZM264.533 582.232H274.685V588.904H267.725V592.36H264.557V586.528H271.541V584.752H264.533V582.232ZM273.965 594.688C278.597 594.688 281.477 596.272 281.477 598.936C281.477 601.6 278.597 603.136 273.965 603.136C269.333 603.136 266.429 601.6 266.429 598.936C266.429 596.272 269.333 594.688 273.965 594.688ZM273.965 597.136C271.085 597.136 269.573 597.712 269.573 598.936C269.573 600.16 271.085 600.736 273.965 600.736C276.845 600.736 278.357 600.16 278.357 598.936C278.357 597.712 276.845 597.136 273.965 597.136ZM71.9883 652.608C71.3323 652.608 70.7243 652.448 70.1643 652.128C69.6203 651.808 69.1883 651.376 68.8683 650.832C68.5483 650.272 68.3883 649.664 68.3883 649.008C68.3883 648.336 68.5483 647.728 68.8683 647.184C69.1883 646.624 69.6203 646.184 70.1643 645.864C70.7243 645.544 71.3323 645.384 71.9883 645.384C72.6603 645.384 73.2683 645.544 73.8123 645.864C74.3723 646.184 74.8123 646.624 75.1323 647.184C75.4523 647.728 75.6123 648.336 75.6123 649.008C75.6123 649.664 75.4523 650.272 75.1323 650.832C74.8123 651.376 74.3723 651.808 73.8123 652.128C73.2683 652.448 72.6603 652.608 71.9883 652.608ZM95.832 638.112H98.448V640.08C98.448 644.496 96.528 648.384 92.304 649.848L90.6 647.328C94.32 646.08 95.832 643.104 95.832 640.08V638.112ZM96.48 638.112H99.072V640.392C99.072 643.056 100.56 645.648 104.04 646.728L102.384 649.2C98.376 647.856 96.48 644.4 96.48 640.392V638.112ZM105.264 636.912H108.456V650.04H105.264V636.912ZM107.568 642.048H111.408V644.688H107.568V642.048ZM101.208 650.544C105.816 650.544 108.72 652.152 108.72 654.84C108.72 657.552 105.816 659.136 101.208 659.136C96.576 659.136 93.672 657.552 93.672 654.84C93.672 652.152 96.576 650.544 101.208 650.544ZM101.208 653.016C98.376 653.016 96.84 653.616 96.84 654.84C96.84 656.088 98.376 656.664 101.208 656.664C104.04 656.664 105.552 656.088 105.552 654.84C105.552 653.616 104.04 653.016 101.208 653.016ZM121.786 649.128H124.978V652.512H121.786V649.128ZM113.338 647.304H133.426V649.824H113.338V647.304ZM115.09 637.512H131.65V640.056H115.09V637.512ZM115.258 643.392H131.482V645.936H115.258V643.392ZM117.922 638.448H121.114V645.048H117.922V638.448ZM125.626 638.448H128.818V645.048H125.626V638.448ZM115.666 651.672H131.026V658.896H115.666V651.672ZM127.906 654.144H118.81V656.376H127.906V654.144ZM152.454 640.152H157.926V642.696H152.454V640.152ZM156.51 636.912H159.702V648.192H156.51V636.912ZM145.014 649.128H159.702V655.104H148.206V657.888H145.062V652.8H156.534V651.576H145.014V649.128ZM145.062 656.424H160.326V658.896H145.062V656.424ZM146.19 637.632H148.782V639.216C148.782 643.416 146.814 647.04 142.566 648.384L140.934 645.864C144.63 644.76 146.19 642.048 146.19 639.216V637.632ZM146.814 637.632H149.406V639.216C149.406 641.856 150.894 644.424 154.398 645.48L152.766 647.952C148.71 646.632 146.814 643.2 146.814 639.216V637.632ZM174.232 640.128H179.896V642.648H174.232V640.128ZM174.232 644.568H179.992V647.112H174.232V644.568ZM178.888 636.912H182.08V649.92H178.888V636.912ZM164.392 638.52H174.904V648.72H164.392V638.52ZM171.76 641.04H167.536V646.224H171.76V641.04ZM174.544 650.496C179.248 650.496 182.152 652.104 182.152 654.816C182.152 657.552 179.248 659.136 174.544 659.136C169.84 659.136 166.936 657.552 166.936 654.816C166.936 652.104 169.84 650.496 174.544 650.496ZM174.544 652.944C171.664 652.944 170.128 653.544 170.128 654.816C170.128 656.088 171.664 656.712 174.544 656.712C177.448 656.712 178.984 656.088 178.984 654.816C178.984 653.544 177.448 652.944 174.544 652.944Z" fill="#728879"/>
<mask id="mask0_171_735" style="mask-type:luminance" maskUnits="userSpaceOnUse" x="167" y="130" width="55" height="55">
<path d="M194.5 182.083C197.729 182.088 200.927 181.454 203.91 180.218C206.893 178.982 209.603 177.169 211.883 174.883C214.169 172.603 215.982 169.893 217.218 166.91C218.454 163.927 219.087 160.729 219.083 157.5C219.087 154.271 218.453 151.073 217.218 148.09C215.982 145.107 214.169 142.397 211.883 140.117C209.603 137.831 206.893 136.018 203.91 134.782C200.927 133.547 197.729 132.913 194.5 132.917C191.271 132.913 188.073 133.547 185.09 134.782C182.107 136.018 179.397 137.831 177.117 140.117C174.831 142.397 173.018 145.107 171.782 148.09C170.547 151.073 169.913 154.271 169.917 157.5C169.912 160.729 170.546 163.927 171.782 166.91C173.018 169.893 174.831 172.603 177.117 174.883C179.397 177.169 182.107 178.982 185.09 180.218C188.073 181.454 191.271 182.088 194.5 182.083Z" fill="white" stroke="white" stroke-width="4" stroke-linejoin="round"/>
<path d="M184.667 157.5L192.042 164.875L206.792 150.125" stroke="black" stroke-width="4" stroke-linecap="round" stroke-linejoin="round"/>
</mask>
<g mask="url(#mask0_171_735)">
<path d="M165 128H224V187H165V128Z" fill="#23AA49"/>
</g>
<rect x="18" y="730" width="354" height="70" rx="15" fill="#BCC6BF"/>
<path d="M116.234 763.352H136.346V765.896H116.234V763.352ZM124.706 760.016H127.874V764.336H124.706V760.016ZM118.658 759.008H134.066V761.528H118.658V759.008ZM118.658 753.872H133.946V756.368H121.826V760.616H118.658V753.872ZM126.218 767C131.018 767 133.922 768.464 133.922 771.08C133.922 773.696 131.018 775.16 126.218 775.16C121.418 775.16 118.49 773.696 118.49 771.08C118.49 768.464 121.418 767 126.218 767ZM126.218 769.4C123.242 769.4 121.73 769.952 121.73 771.08C121.73 772.232 123.242 772.736 126.218 772.736C129.194 772.736 130.706 772.232 130.706 771.08C130.706 769.952 129.194 769.4 126.218 769.4ZM148.128 755.816H154.704V758.36H148.128V755.816ZM148.128 760.736H154.704V763.304H148.128V760.736ZM144.432 754.088C147.744 754.088 150.288 756.392 150.288 759.536C150.288 762.68 147.744 764.984 144.432 764.984C141.096 764.984 138.552 762.68 138.552 759.536C138.552 756.392 141.096 754.088 144.432 754.088ZM144.432 756.8C142.8 756.8 141.6 757.784 141.6 759.536C141.6 761.264 142.8 762.296 144.432 762.296C146.064 762.296 147.264 761.264 147.264 759.536C147.264 757.784 146.064 756.8 144.432 756.8ZM153.696 752.912H156.888V765.92H153.696V752.912ZM149.352 766.376C154.032 766.376 156.96 768.008 156.96 770.768C156.96 773.528 154.032 775.136 149.352 775.136C144.672 775.136 141.744 773.528 141.744 770.768C141.744 768.008 144.672 766.376 149.352 766.376ZM149.352 768.848C146.448 768.848 144.888 769.472 144.888 770.768C144.888 772.064 146.448 772.688 149.352 772.688C152.28 772.688 153.816 772.064 153.816 770.768C153.816 769.472 152.28 768.848 149.352 768.848ZM165.238 754.112H167.854V756.08C167.854 760.496 165.934 764.384 161.71 765.848L160.006 763.328C163.726 762.08 165.238 759.104 165.238 756.08V754.112ZM165.886 754.112H168.478V756.392C168.478 759.056 169.966 761.648 173.446 762.728L171.79 765.2C167.782 763.856 165.886 760.4 165.886 756.392V754.112ZM174.67 752.912H177.862V766.04H174.67V752.912ZM176.974 758.048H180.814V760.688H176.974V758.048ZM170.614 766.544C175.222 766.544 178.126 768.152 178.126 770.84C178.126 773.552 175.222 775.136 170.614 775.136C165.982 775.136 163.078 773.552 163.078 770.84C163.078 768.152 165.982 766.544 170.614 766.544ZM170.614 769.016C167.782 769.016 166.246 769.616 166.246 770.84C166.246 772.088 167.782 772.664 170.614 772.664C173.446 772.664 174.958 772.088 174.958 770.84C174.958 769.616 173.446 769.016 170.614 769.016ZM199.75 757.64H204.91V760.208H199.75V757.64ZM193.486 754.28H196.054V756.68C196.054 761.216 194.158 765.08 189.958 766.616L188.278 764.12C191.95 762.896 193.486 759.824 193.486 756.68V754.28ZM194.182 754.28H196.726V756.704C196.726 759.56 198.19 762.416 201.694 763.616L199.99 766.064C196.006 764.624 194.182 760.904 194.182 756.704V754.28ZM203.806 752.936H206.998V769.328H203.806V752.936ZM192.286 772.208H207.478V774.752H192.286V772.208ZM192.286 767.672H195.502V773.624H192.286V767.672ZM211.22 763.04H212.756C215.972 763.04 218.036 762.992 220.484 762.584L220.772 765.128C218.228 765.56 216.068 765.632 212.756 765.632H211.22V763.04ZM211.22 754.4H219.98V756.944H214.292V764.456H211.22V754.4ZM213.38 758.744H219.74V761.144H213.38V758.744ZM226.388 752.912H229.412V766.472H226.388V752.912ZM223.724 758.36H227.252V760.904H223.724V758.36ZM221.636 753.32H224.612V766.328H221.636V753.32ZM214.148 767.432H229.412V775.136H226.244V769.976H214.148V767.432ZM246.81 752.912H249.978V775.136H246.81V752.912ZM249.258 761.576H253.194V764.24H249.258V761.576ZM232.458 756.2H245.394V758.744H232.458V756.2ZM238.962 759.992C242.202 759.992 244.602 762.2 244.602 765.296C244.602 768.392 242.202 770.6 238.962 770.6C235.722 770.6 233.322 768.392 233.322 765.296C233.322 762.2 235.722 759.992 238.962 759.992ZM238.962 762.584C237.45 762.584 236.37 763.592 236.37 765.296C236.37 767 237.45 768.008 238.962 768.008C240.474 768.008 241.554 767 241.554 765.296C241.554 763.592 240.474 762.584 238.962 762.584ZM237.354 753.272H240.546V757.16H237.354V753.272ZM269.944 752.912H273.16V775.136H269.944V752.912ZM263.392 755.216H266.56C266.56 762.008 264.256 767.576 256.36 771.392L254.704 768.848C261.088 765.776 263.392 761.744 263.392 755.792V755.216ZM255.88 755.216H264.904V757.736H255.88V755.216Z" fill="white"/>
<g style="mix-blend-mode:multiply" opacity="0.9">
<path d="M0 2H390V184H0V2Z" fill="#333333"/>
</g>
<g style="mix-blend-mode:multiply" opacity="0.9">
<path d="M0 686H390V844H0V686Z" fill="#333333"/>
</g>
<path d="M96.2424 58.662C99.4404 58.662 101.078 58.116 101.078 56.868C101.078 55.62 99.4404 55.048 96.2424 55.048C93.0444 55.048 91.4064 55.62 91.4064 56.868C91.4064 58.116 93.0444 58.662 96.2424 58.662ZM96.2424 52.448C101.416 52.448 104.562 54.034 104.562 56.868C104.562 59.676 101.416 61.262 96.2424 61.262C91.0684 61.262 87.9484 59.676 87.9484 56.868C87.9484 54.034 91.0684 52.448 96.2424 52.448ZM98.0364 48.548H107.162V51.278H85.5044V48.548H94.6044V46.572H88.1304V38.304H104.562V41.034H91.5364V43.842H104.692V46.572H98.0364V48.548ZM112.958 44.44C112.958 46.286 114.232 47.404 116 47.404C117.768 47.404 119.068 46.286 119.068 44.44C119.068 42.568 117.768 41.476 116 41.476C114.232 41.476 112.958 42.568 112.958 44.44ZM125.984 43.14H122.188C122.266 43.556 122.318 43.972 122.318 44.44C122.318 44.882 122.266 45.298 122.162 45.74H125.984V43.14ZM125.984 48.47H120.654C119.51 49.614 117.872 50.29 116 50.29C112.464 50.29 109.708 47.82 109.708 44.44C109.708 41.034 112.464 38.564 116 38.564C117.924 38.564 119.562 39.266 120.706 40.41H125.984V37.29H129.416V51.33H125.984V48.47ZM121.304 58.61C124.45 58.61 126.14 57.934 126.14 56.53C126.14 55.126 124.45 54.45 121.304 54.45C118.158 54.45 116.494 55.126 116.494 56.53C116.494 57.934 118.158 58.61 121.304 58.61ZM121.304 51.798C126.374 51.798 129.52 53.54 129.52 56.53C129.52 59.494 126.374 61.236 121.304 61.236C116.26 61.236 113.114 59.494 113.114 56.53C113.114 53.54 116.26 51.798 121.304 51.798ZM147.432 47.898L145.638 50.55C143.116 49.718 141.374 48.106 140.36 46.078C139.32 48.418 137.474 50.264 134.744 51.226L132.95 48.522C136.954 47.196 138.566 43.998 138.566 40.748V38.59H142.05V41.034C142.05 43.92 143.662 46.728 147.432 47.898ZM144.338 58.584C147.38 58.584 149.018 57.96 149.018 56.608C149.018 55.282 147.38 54.658 144.338 54.658C141.27 54.658 139.632 55.282 139.632 56.608C139.632 57.96 141.27 58.584 144.338 58.584ZM144.338 52.006C149.304 52.006 152.424 53.722 152.424 56.608C152.424 59.52 149.304 61.236 144.338 61.236C139.346 61.236 136.226 59.52 136.226 56.608C136.226 53.722 139.346 52.006 144.338 52.006ZM152.164 42.854H155.336V45.688H152.164V51.46H148.732V37.316H152.164V42.854ZM168.048 38.486C173.092 38.486 176.992 41.242 176.992 45.428C176.992 49.588 173.092 52.344 168.048 52.344C163.03 52.344 159.13 49.588 159.13 45.428C159.13 41.242 163.03 38.486 168.048 38.486ZM168.048 41.294C164.798 41.294 162.484 42.828 162.484 45.428C162.484 47.976 164.798 49.536 168.048 49.536C171.324 49.536 173.638 47.976 173.638 45.428C173.638 42.828 171.324 41.294 168.048 41.294ZM157.232 55.568H178.916V58.376H157.232V55.568ZM193.682 55.802H202.834V58.61H181.15V55.802H190.25V52.24H183.646V44.128H197.01V41.554H183.62V38.824H200.39V46.806H187.052V49.484H200.936V52.24H193.682V55.802ZM230.3 43.868V46.572H213.738V37.94H230.17V40.67H217.144V43.868H230.3ZM221.85 58.636C225.048 58.636 226.686 58.09 226.686 56.842C226.686 55.594 225.048 55.022 221.85 55.022C218.652 55.022 217.014 55.594 217.014 56.842C217.014 58.09 218.652 58.636 221.85 58.636ZM221.85 52.422C227.024 52.422 230.17 54.008 230.17 56.842C230.17 59.65 227.024 61.236 221.85 61.236C216.676 61.236 213.556 59.65 213.556 56.842C213.556 54.008 216.676 52.422 221.85 52.422ZM211.112 48.236H232.77V51.044H211.112V48.236ZM237.396 56.894V54.19H254.192V61.158H250.76V56.894H237.396ZM247.562 50.108H256.688V52.838H235.004V50.108H244.13V48.392H237.708V41.814H250.656V40.358H237.656V37.758H254.036V44.232H241.088V45.792H254.53V48.392H247.562V50.108ZM265.838 53.54C267.45 53.54 268.62 52.448 268.62 50.602C268.62 48.808 267.45 47.69 265.838 47.69C264.226 47.69 263.03 48.808 263.03 50.628C263.03 52.448 264.226 53.54 265.838 53.54ZM265.838 44.908C269.296 44.908 271.87 47.274 271.87 50.602C271.87 53.982 269.296 56.348 265.838 56.348C262.354 56.348 259.754 53.982 259.754 50.602C259.754 47.274 262.354 44.908 265.838 44.908ZM267.528 37.706V40.826H272.728V43.556H258.792V40.826H264.096V37.706H267.528ZM281.152 46.65V49.484H277.72V61.236H274.288V37.29H277.72V46.65H281.152ZM284.166 39.76H295.658C295.658 47.092 293.188 53.072 284.686 57.18L282.892 54.476C289.002 51.538 291.654 47.794 292.148 42.49H284.166V39.76ZM299.324 37.264H302.782V61.21H299.324V37.264Z" fill="white"/>
<path d="M125.52 102.8C125.52 104.22 126.5 105.08 127.86 105.08C129.22 105.08 130.22 104.22 130.22 102.8C130.22 101.36 129.22 100.52 127.86 100.52C126.5 100.52 125.52 101.36 125.52 102.8ZM135.54 101.8H132.62C132.68 102.12 132.72 102.44 132.72 102.8C132.72 103.14 132.68 103.46 132.6 103.8H135.54V101.8ZM135.54 105.9H131.44C130.56 106.78 129.3 107.3 127.86 107.3C125.14 107.3 123.02 105.4 123.02 102.8C123.02 100.18 125.14 98.28 127.86 98.28C129.34 98.28 130.6 98.82 131.48 99.7H135.54V97.3H138.18V108.1H135.54V105.9ZM131.94 113.7C134.36 113.7 135.66 113.18 135.66 112.1C135.66 111.02 134.36 110.5 131.94 110.5C129.52 110.5 128.24 111.02 128.24 112.1C128.24 113.18 129.52 113.7 131.94 113.7ZM131.94 108.46C135.84 108.46 138.26 109.8 138.26 112.1C138.26 114.38 135.84 115.72 131.94 115.72C128.06 115.72 125.64 114.38 125.64 112.1C125.64 109.8 128.06 108.46 131.94 108.46ZM151.873 105.46L150.493 107.5C148.553 106.86 147.213 105.62 146.433 104.06C145.633 105.86 144.213 107.28 142.113 108.02L140.733 105.94C143.813 104.92 145.053 102.46 145.053 99.96V98.3H147.733V100.18C147.733 102.4 148.973 104.56 151.873 105.46ZM149.493 113.68C151.833 113.68 153.093 113.2 153.093 112.16C153.093 111.14 151.833 110.66 149.493 110.66C147.133 110.66 145.873 111.14 145.873 112.16C145.873 113.2 147.133 113.68 149.493 113.68ZM149.493 108.62C153.313 108.62 155.713 109.94 155.713 112.16C155.713 114.4 153.313 115.72 149.493 115.72C145.653 115.72 143.253 114.4 143.253 112.16C143.253 109.94 145.653 108.62 149.493 108.62ZM155.513 101.58H157.953V103.76H155.513V108.2H152.873V97.32H155.513V101.58ZM167.547 99.08C164.607 99.08 162.927 99.76 162.927 100.96C162.927 102.16 164.607 102.84 167.547 102.84C170.487 102.84 172.167 102.16 172.167 100.96C172.167 99.76 170.487 99.08 167.547 99.08ZM167.547 104.06C163.607 104.06 161.247 102.98 161.247 100.96C161.247 98.94 163.607 97.84 167.547 97.84C171.487 97.84 173.847 98.94 173.847 100.96C173.847 102.98 171.487 104.06 167.547 104.06ZM163.047 112.18V114H174.127V115.28H161.447V110.98H171.967V109.38H161.387V108.14H173.587V112.18H163.047ZM159.427 105.28H175.667V106.6H159.427V105.28ZM186.348 103.36V106.66H195.508V103.36H186.348ZM191.748 111.84H199.068V113.18H182.808V111.84H190.088V107.98H184.728V98.82H186.348V102.02H195.508V98.82H197.108V107.98H191.748V111.84ZM203.561 99.72V109.4C205.281 109.38 207.181 109.26 209.321 108.84L209.481 110.26C207.061 110.72 205.001 110.82 203.061 110.82H201.921V99.72H203.561ZM214.681 97.54H216.261V115.46H214.681V106.2H212.141V114.56H210.601V97.94H212.141V104.84H214.681V97.54ZM220.875 106.26L220.255 104.96C223.375 104.5 226.475 102.44 226.475 100.08V99.98H220.815V98.66H233.915V99.98H228.295V100.08C228.295 102.44 231.395 104.5 234.555 104.96L233.915 106.26C231.135 105.78 228.475 104.28 227.395 102.16C226.295 104.28 223.655 105.78 220.875 106.26ZM235.495 107.76L235.515 109.1H228.175V115.48H226.535V109.1H219.295V107.76H235.495ZM243.868 99.1V102.32C243.868 105.6 246.008 108.9 248.668 110.1L247.688 111.42C245.648 110.42 243.928 108.3 243.068 105.74C242.248 108.44 240.528 110.68 238.428 111.76L237.428 110.42C240.068 109.16 242.248 105.72 242.248 102.32V99.1H243.868ZM250.548 97.54H252.188V115.52H250.548V97.54ZM263.142 106.18V100.42H258.182V106.18H263.142ZM268.862 102.04H264.742V104.54H268.862V102.04ZM264.742 105.88V107.48H256.562V99.12H264.742V100.7H268.862V97.56H270.522V110.64H268.862V105.88H264.742ZM260.622 113.74H270.942V115.08H258.982V109.48H260.622V113.74ZM87.624 136.72V138.8C87.624 141.78 89.724 145.04 92.324 146.28L91.344 147.56C89.344 146.54 87.624 144.4 86.804 141.92C86.024 144.56 84.284 146.86 82.244 147.94L81.284 146.64C83.844 145.38 85.984 141.98 85.984 138.8V136.72H81.924V135.38H91.704V136.72H87.624ZM94.564 133.54H96.204V151.5H94.564V141.4H90.684V140.06H94.564V133.54ZM111.037 135.96V137.28H100.137V135.96H104.777V133.72H106.417V135.96H111.037ZM108.337 141.64C108.337 140.38 107.217 139.56 105.597 139.56C103.997 139.56 102.877 140.38 102.877 141.64C102.877 142.9 103.997 143.74 105.597 143.74C107.217 143.74 108.337 142.9 108.337 141.64ZM101.317 141.64C101.317 139.62 103.077 138.28 105.597 138.28C108.117 138.28 109.877 139.62 109.877 141.64C109.877 143.68 108.117 145 105.597 145C103.077 145 101.317 143.68 101.317 141.64ZM99.9974 147.96L99.7574 146.58C103.157 146.58 107.617 146.56 111.497 146.04L111.617 147.26C107.617 147.94 103.297 147.96 99.9974 147.96ZM112.637 133.56H114.277V151.48H112.637V133.56ZM118.851 135.46H127.051C127.051 140.56 124.711 145.18 118.911 148.08L118.011 146.8C122.591 144.5 125.051 141.06 125.431 136.82H118.851V135.46ZM134.571 140.82V142.18H131.691V151.48H130.051V133.54H131.691V140.82H134.571ZM152.532 141.76L151.192 143.78C149.152 143.14 147.752 141.82 146.912 140.18C146.092 141.98 144.612 143.42 142.472 144.12L141.132 142.06C144.132 141.1 145.492 138.76 145.532 136.48H141.832V134.4H151.852V136.48H148.212C148.252 138.64 149.612 140.8 152.532 141.76ZM143.812 147.32V145.22H156.352V151.74H153.692V147.32H143.812ZM153.692 133.3H156.352V144.4H153.692V133.3ZM170.386 141.3L169.106 143.36C167.086 142.7 165.706 141.38 164.926 139.74C164.106 141.54 162.666 143 160.526 143.72L159.186 141.64C162.046 140.68 163.386 138.46 163.506 136.24H159.906V134.14H169.806V136.24H166.246C166.366 138.28 167.646 140.38 170.386 141.3ZM172.066 149.4V147.82H165.086V149.4H172.066ZM172.066 145.8V144.12H174.686V151.5H162.486V144.12H165.086V145.8H172.066ZM172.046 133.3H174.686V143.38H172.046V139.56H169.266V137.42H172.046V133.3ZM196.523 139.04V140.36H184.223V134.26H196.403V135.58H185.863V139.04H196.523ZM190.283 150.18C193.083 150.18 194.763 149.48 194.763 148.22C194.763 146.96 193.103 146.26 190.283 146.26C187.463 146.26 185.803 146.96 185.803 148.22C185.803 149.48 187.463 150.18 190.283 150.18ZM190.283 144.98C194.103 144.98 196.423 146.14 196.423 148.22C196.423 150.3 194.103 151.46 190.283 151.46C186.463 151.46 184.143 150.3 184.143 148.22C184.143 146.14 186.463 144.98 190.283 144.98ZM182.183 142.08H198.423V143.44H182.183V142.08ZM202.216 147.46V146.12H214.696V151.32H213.056V147.46H202.216ZM209.376 143.4H216.676V144.74H200.396V143.4H207.716V141.52H202.496V137.14H212.976V135.28H202.456V134H214.596V138.36H204.116V140.24H214.976V141.52H209.376V143.4ZM223.09 145.96C224.47 145.96 225.47 144.82 225.47 143.22C225.47 141.66 224.47 140.52 223.09 140.52C221.69 140.52 220.71 141.66 220.71 143.22C220.71 144.82 221.69 145.96 223.09 145.96ZM223.09 139.14C225.31 139.14 226.93 140.82 226.93 143.22C226.93 145.66 225.31 147.32 223.09 147.32C220.87 147.32 219.25 145.66 219.25 143.22C219.25 140.82 220.87 139.14 223.09 139.14ZM223.89 134.06V136.6H227.53V137.94H218.63V136.6H222.27V134.06H223.89ZM232.27 133.52H233.85V151.46H232.27V142.44H229.97V150.6H228.43V133.94H229.97V141.1H232.27V133.52ZM251.263 142.14V143.48H238.943V135.18H251.083V136.54H240.563V142.14H251.263ZM236.863 147.7H253.143V149.06H236.863V147.7ZM266.017 141.12L266.197 142.44C263.257 142.92 260.817 143.02 257.497 143.02H256.057V138H262.537V135.74H255.997V134.42H264.157V139.26H257.657V141.68C260.837 141.68 263.177 141.58 266.017 141.12ZM268.217 149.9V147.7H259.837V149.9H268.217ZM268.217 146.42V144.3H269.837V151.24H258.217V144.3H259.837V146.42H268.217ZM268.197 133.56H269.837V143.4H268.197V133.56ZM276.11 135.28V145.44C278.81 145.44 281.59 145.2 284.57 144.6L284.75 146C281.63 146.64 278.81 146.84 275.95 146.84H274.47V135.28H276.11ZM286.41 133.54H288.05V151.46H286.41V133.54ZM293.984 136.62V145.64C297.164 145.64 299.464 145.5 302.064 145.04L302.244 146.4C299.504 146.92 297.144 147.04 293.764 147.04H292.344V135.26H300.684V136.62H293.984ZM308.344 140.62V141.98H305.384V151.52H303.744V133.54H305.384V140.62H308.344ZM312.862 135.455L312.678 145.817H310.71L310.526 135.455H312.862ZM311.697 150.135C311.304 150.135 310.968 149.998 310.689 149.723C310.41 149.444 310.272 149.107 310.277 148.714C310.272 148.326 310.41 147.995 310.689 147.72C310.968 147.441 311.304 147.301 311.697 147.301C312.081 147.301 312.412 147.441 312.692 147.72C312.971 147.995 313.113 148.326 313.118 148.714C313.113 148.975 313.045 149.214 312.912 149.432C312.784 149.645 312.614 149.815 312.401 149.943C312.188 150.071 311.953 150.135 311.697 150.135Z" fill="white"/>
<path d="M62.9915 712.86C62.9915 714.54 64.3115 715.74 66.0515 715.74C67.8115 715.74 69.0915 714.54 69.0915 712.86C69.0915 711.2 67.8115 710 66.0515 710C64.3115 710 62.9915 711.2 62.9915 712.86ZM74.2715 711.46H70.4315C70.5715 711.88 70.6515 712.34 70.6515 712.86C70.6515 713.36 70.5715 713.82 70.4115 714.26H74.2715V711.46ZM74.2715 715.6H69.6715C68.8515 716.56 67.5715 717.14 66.0515 717.14C63.3915 717.14 61.4315 715.38 61.4315 712.86C61.4315 710.36 63.3915 708.62 66.0515 708.62C67.5715 708.62 68.8515 709.2 69.6715 710.12H74.2715V707.54H75.9315V718.16H74.2715V715.6ZM69.9915 724.16C72.7315 724.16 74.3715 723.36 74.3715 722.02C74.3715 720.66 72.7315 719.86 69.9915 719.86C67.2915 719.86 65.6515 720.66 65.6515 722.02C65.6515 723.36 67.2915 724.16 69.9915 724.16ZM69.9915 718.58C73.6915 718.58 75.9915 719.84 75.9915 722.02C75.9915 724.2 73.6915 725.46 69.9915 725.46C66.3115 725.46 64.0315 724.2 64.0315 722.02C64.0315 719.84 66.3115 718.58 69.9915 718.58ZM89.7449 715.98L88.8849 717.26C86.9449 716.54 85.4049 715.06 84.6049 713.22C83.8649 715.32 82.2649 716.96 80.1649 717.76L79.3049 716.46C82.0249 715.48 83.7649 713.04 83.7649 710.3V708.46H85.4049V710.44C85.4049 712.86 87.1649 715.1 89.7449 715.98ZM87.6049 724.18C90.2449 724.18 91.8649 723.44 91.8649 722.2C91.8649 720.94 90.2449 720.2 87.6049 720.2C84.9449 720.2 83.3249 720.94 83.3249 722.2C83.3249 723.44 84.9449 724.18 87.6049 724.18ZM87.6049 718.92C91.2449 718.92 93.5049 720.1 93.5049 722.2C93.5049 724.28 91.2449 725.46 87.6049 725.46C83.9449 725.46 81.6849 724.28 81.6849 722.2C81.6849 720.1 83.9449 718.92 87.6049 718.92ZM93.3049 712.18H95.9649V713.54H93.3049V718.42H91.6649V707.56H93.3049V712.18ZM101.678 720.02C103.078 720.02 103.998 718.2 103.998 715.26C103.998 712.38 103.078 710.56 101.678 710.56C100.238 710.56 99.3384 712.38 99.3384 715.26C99.3384 718.2 100.238 720.02 101.678 720.02ZM107.738 714.52V707.94H109.298V724.6H107.738V715.86H105.478C105.338 719.38 103.878 721.54 101.678 721.54C99.3384 721.54 97.8384 719.14 97.8384 715.26C97.8384 711.44 99.3384 709.04 101.678 709.04C103.838 709.04 105.278 711.14 105.478 714.52H107.738ZM111.298 707.54H112.858V725.48H111.298V707.54ZM126.86 709.74C125.1 709.74 123.86 710.68 123.86 712.08C123.86 713.48 125.1 714.42 126.86 714.42C128.6 714.42 129.84 713.48 129.84 712.08C129.84 710.68 128.6 709.74 126.86 709.74ZM126.86 715.76C124.18 715.76 122.28 714.26 122.28 712.08C122.28 709.88 124.18 708.38 126.86 708.38C129.52 708.38 131.42 709.88 131.42 712.08C131.42 714.26 129.52 715.76 126.86 715.76ZM132.76 716.64L132.9 717.86C131.2 718.16 129.46 718.36 127.76 718.46V724.92H126.12V718.56C124.34 718.64 122.64 718.66 121.16 718.66L120.94 717.28C124.28 717.28 128.82 717.24 132.76 716.64ZM134.06 707.56H135.7V725.5H134.06V707.56ZM145.033 708.86C147.833 708.86 149.833 710.56 149.833 713.08C149.833 715.58 147.833 717.3 145.033 717.3C142.253 717.3 140.233 715.58 140.233 713.08C140.233 710.56 142.253 708.86 145.033 708.86ZM145.033 710.26C143.193 710.26 141.833 711.4 141.833 713.08C141.833 714.74 143.193 715.9 145.033 715.9C146.893 715.9 148.233 714.74 148.233 713.08C148.233 711.4 146.893 710.26 145.033 710.26ZM152.193 707.54H153.833V725.52H152.193V707.54ZM139.533 721.58L139.333 720.2C142.593 720.2 147.093 720.18 151.013 719.58L151.153 720.8C147.113 721.54 142.773 721.58 139.533 721.58ZM172.155 712.2H175.695V707.56H177.355V718.24H175.695V713.54H172.155V712.2ZM173.155 716.28L172.335 717.56C170.335 716.84 168.795 715.36 168.015 713.52C167.255 715.6 165.595 717.28 163.495 718.08L162.635 716.78C165.315 715.8 167.155 713.38 167.155 710.8V710.18H163.155V708.86H172.735V710.18H168.795V710.8C168.795 713.1 170.555 715.36 173.155 716.28ZM171.435 724.2C174.135 724.2 175.775 723.44 175.775 722.14C175.775 720.84 174.135 720.06 171.435 720.06C168.735 720.06 167.095 720.84 167.095 722.14C167.095 723.44 168.735 724.2 171.435 724.2ZM171.435 718.8C175.115 718.8 177.415 720.02 177.415 722.14C177.415 724.26 175.115 725.48 171.435 725.48C167.755 725.48 165.455 724.26 165.455 722.14C165.455 720.02 167.755 718.8 171.435 718.8ZM184.348 713.36V716.66H193.508V713.36H184.348ZM189.748 721.84H197.068V723.18H180.808V721.84H188.088V717.98H182.728V708.82H184.348V712.02H193.508V708.82H195.108V717.98H189.748V721.84ZM200.001 709.46H208.201C208.201 714.56 205.861 719.18 200.061 722.08L199.161 720.8C203.741 718.5 206.201 715.06 206.581 710.82H200.001V709.46ZM215.721 714.82V716.18H212.841V725.48H211.201V707.54H212.841V714.82H215.721ZM228.263 710.58V716.46H232.723V710.58H228.263ZM231.323 721.9H238.663V723.24H222.403V721.9H229.663V717.78H223.883V716.46H226.623V710.58H223.843V709.26H237.143V710.58H234.363V716.46H237.103V717.78H231.323V721.9ZM251.276 709.44V710.76H240.696V709.44H245.156V707.38H246.796V709.44H251.276ZM243.256 714.86C243.256 716.04 244.336 716.82 245.976 716.82C247.616 716.82 248.716 716.04 248.716 714.86C248.716 713.68 247.616 712.9 245.976 712.9C244.336 712.9 243.256 713.68 243.256 714.86ZM250.276 714.86C250.276 716.8 248.536 718.04 245.976 718.04C243.416 718.04 241.696 716.8 241.696 714.86C241.696 712.9 243.416 711.66 245.976 711.66C248.536 711.66 250.276 712.9 250.276 714.86ZM244.896 720.66V723.92H252.936V720.66H244.896ZM243.296 725.24V719.36H254.556V725.24H243.296ZM257.216 712.32V713.68H254.556V718.34H252.916V707.56H254.556V712.32H257.216ZM265.61 716.62V720.12C267.33 720.04 269.07 719.94 270.67 719.74L270.81 720.94C266.89 721.54 262.59 721.62 259.19 721.62L258.99 720.24C260.53 720.24 262.23 720.24 263.97 720.18V716.62H260.31V709.22H269.39V710.58H261.93V715.28H269.47V716.62H265.61ZM271.85 707.52H273.49V725.52H271.85V707.52ZM281.983 709.92C280.263 709.92 278.983 711.1 278.983 712.74C278.983 714.4 280.263 715.6 281.983 715.6C283.743 715.6 285.023 714.4 285.023 712.74C285.023 711.1 283.743 709.92 281.983 709.92ZM290.223 713.38H286.543C286.243 715.52 284.423 716.96 281.983 716.96C279.343 716.96 277.403 715.24 277.403 712.74C277.403 710.28 279.343 708.56 281.983 708.56C284.383 708.56 286.203 709.96 286.523 712.04H290.223V707.56H291.883V717.76H290.223V713.38ZM289.923 718.46V719.52C289.923 721.38 291.243 723.26 293.543 724.04L292.723 725.26C290.983 724.6 289.703 723.38 289.103 721.86C288.543 723.32 287.463 724.7 285.803 725.42C284.083 724.74 283.003 723.42 282.463 721.92C281.823 723.36 280.603 724.6 278.923 725.26L278.103 724.04C280.363 723.2 281.703 721.26 281.703 719.52V718.46H283.283V719.52C283.283 721.12 284.103 722.84 285.783 723.82C287.483 722.74 288.323 720.92 288.323 719.52V718.46H289.923ZM297.737 710.62V719.64C300.917 719.64 303.217 719.5 305.817 719.04L305.997 720.4C303.257 720.92 300.897 721.04 297.517 721.04H296.097V709.26H304.437V710.62H297.737ZM312.097 714.62V715.98H309.137V725.52H307.497V707.54H309.137V714.62H312.097ZM320.97 716.18V710.42H316.01V716.18H320.97ZM326.69 712.04H322.57V714.54H326.69V712.04ZM322.57 715.88V717.48H314.39V709.12H322.57V710.7H326.69V707.56H328.35V720.64H326.69V715.88H322.57ZM318.45 723.74H328.77V725.08H316.81V719.48H318.45V723.74ZM119.978 745.06V747.12H109.138V745.06H113.218V743.18H115.878V745.06H119.978ZM112.558 751.02C112.558 751.92 113.378 752.4 114.558 752.4C115.738 752.4 116.558 751.92 116.558 751.02C116.558 750.12 115.738 749.64 114.558 749.64C113.378 749.64 112.558 750.12 112.558 751.02ZM119.078 751.02C119.078 752.98 117.218 754.3 114.558 754.3C111.898 754.3 110.038 752.98 110.038 751.02C110.038 749.06 111.898 747.72 114.558 747.72C117.218 747.72 119.078 749.06 119.078 751.02ZM117.638 759.76C119.958 759.76 121.198 759.34 121.198 758.46C121.198 757.56 119.958 757.16 117.638 757.16C115.318 757.16 114.078 757.56 114.078 758.46C114.078 759.34 115.318 759.76 117.638 759.76ZM117.638 755.18C121.438 755.18 123.818 756.4 123.818 758.46C123.818 760.5 121.438 761.72 117.638 761.72C113.838 761.72 111.458 760.5 111.458 758.46C111.458 756.4 113.838 755.18 117.638 755.18ZM123.638 748H126.078V750.16H123.638V754.98H120.998V743.32H123.638V748ZM129.212 757.78V755.68H142.012V761.74H139.372V757.78H129.212ZM132.012 746.08V748.46H139.312V746.08H132.012ZM136.992 752.26H144.012V754.36H127.372V752.26H134.352V750.54H129.412V744.02H141.912V750.54H136.992V752.26ZM153.925 745.5C151.265 745.5 150.005 745.88 150.005 746.7C150.005 747.56 151.265 747.92 153.925 747.92C156.605 747.92 157.865 747.56 157.865 746.7C157.865 745.88 156.605 745.5 153.925 745.5ZM153.925 749.84C149.725 749.84 147.265 748.74 147.265 746.7C147.265 744.68 149.725 743.56 153.925 743.56C158.145 743.56 160.605 744.68 160.605 746.7C160.605 748.74 158.145 749.84 153.925 749.84ZM150.145 758.56V759.6H160.705V761.58H147.525V756.74H157.625V755.76H147.505V753.82H160.225V758.56H150.145ZM145.605 750.72H162.245V752.78H145.605V750.72ZM172.762 758.42V759.52H183.742V761.5H170.162V756.54H180.522V755.54H170.122V753.56H183.142V758.42H172.762ZM182.702 750.38H184.922V752.46H168.342V750.38H180.062C180.142 749.84 180.222 749.36 180.282 748.86L170.122 749.3L169.842 747.28L180.402 747.04C180.422 746.68 180.422 746.32 180.422 745.98H170.362V743.94H183.022V745.58C183.022 747 183.022 748.52 182.702 750.38ZM197.656 751.22L197.956 753.34C195.216 753.78 192.756 753.86 189.096 753.86H187.476V748.02H193.336V746.42H187.456V744.32H195.936V749.98H190.076V751.74C193.116 751.72 195.256 751.62 197.656 751.22ZM189.276 757.54V755.44H201.836V761.76H199.176V757.54H189.276ZM199.176 743.32H201.836V754.62H199.176V743.32ZM209.409 755.96C210.789 755.96 211.789 754.82 211.789 753.22C211.789 751.66 210.789 750.52 209.409 750.52C208.009 750.52 207.029 751.66 207.029 753.22C207.029 754.82 208.009 755.96 209.409 755.96ZM209.409 749.14C211.629 749.14 213.249 750.82 213.249 753.22C213.249 755.66 211.629 757.32 209.409 757.32C207.189 757.32 205.569 755.66 205.569 753.22C205.569 750.82 207.189 749.14 209.409 749.14ZM210.209 744.06V746.6H213.849V747.94H204.949V746.6H208.589V744.06H210.209ZM218.589 743.52H220.169V761.46H218.589V752.44H216.289V760.6H214.749V743.94H216.289V751.1H218.589V743.52ZM224.803 752.26L224.183 750.96C227.303 750.5 230.403 748.44 230.403 746.08V745.98H224.743V744.66H237.843V745.98H232.223V746.08C232.223 748.44 235.323 750.5 238.483 750.96L237.843 752.26C235.063 751.78 232.403 750.28 231.323 748.16C230.223 750.28 227.583 751.78 224.803 752.26ZM239.423 753.76L239.443 755.1H232.103V761.48H230.463V755.1H223.223V753.76H239.423ZM246.756 745.24V748.6C246.756 751.48 248.096 754.52 250.456 755.96L249.516 757.24C247.816 756.2 246.616 754.3 245.976 752.12C245.336 754.5 244.036 756.52 242.256 757.62L241.236 756.4C243.696 754.96 245.176 751.74 245.176 748.66V745.24H246.756ZM251.476 749.98V743.94H253.016V760.6H251.476V751.34H248.516V749.98H251.476ZM255.116 743.54H256.676V761.48H255.116V743.54ZM265.29 753.6V757.82H270.29V753.6C269.53 753.78 268.67 753.88 267.77 753.88C266.89 753.88 266.03 753.78 265.29 753.6ZM267.77 745.96C264.89 745.96 262.83 747.28 262.83 749.28C262.83 751.28 264.89 752.6 267.77 752.6C270.65 752.6 272.73 751.28 272.73 749.28C272.73 747.28 270.65 745.96 267.77 745.96ZM271.93 757.82H275.95V759.18H259.65V757.82H263.65V752.98C262.15 752.2 261.25 750.9 261.25 749.28C261.25 746.48 263.97 744.68 267.77 744.68C271.59 744.68 274.29 746.48 274.29 749.28C274.29 750.9 273.41 752.18 271.93 752.96V757.82ZM280.948 745.455L280.763 755.817H278.796L278.611 745.455H280.948ZM279.783 760.135C279.39 760.135 279.054 759.998 278.775 759.723C278.495 759.444 278.358 759.107 278.363 758.714C278.358 758.326 278.495 757.995 278.775 757.72C279.054 757.441 279.39 757.301 279.783 757.301C280.167 757.301 280.498 757.441 280.778 757.72C281.057 757.995 281.199 758.326 281.204 758.714C281.199 758.975 281.13 759.214 280.998 759.432C280.87 759.645 280.699 759.815 280.486 759.943C280.273 760.071 280.039 760.135 279.783 760.135Z" fill="white"/>
</g>
<defs>
<filter id="filter0_d_171_735" x="-4" y="13" width="398" height="72" filterUnits="userSpaceOnUse" color-interpolation-filters="sRGB">
<feFlood flood-opacity="0" result="BackgroundImageFix"/>
<feColorMatrix in="SourceAlpha" type="matrix" values="0 0 0 0 0 0 0 0 0 0 0 0 0 0 0 0 0 0 127 0" result="hardAlpha"/>
<feOffset dy="4"/>
<feGaussianBlur stdDeviation="2"/>
<feComposite in2="hardAlpha" operator="out"/>
<feColorMatrix type="matrix" values="0 0 0 0 0 0 0 0 0 0 0 0 0 0 0 0 0 0 0.08 0"/>
<feBlend mode="normal" in2="BackgroundImageFix" result="effect1_dropShadow_171_735"/>
<feBlend mode="normal" in="SourceGraphic" in2="effect1_dropShadow_171_735" result="shape"/>
</filter>
<clipPath id="clip0_171_735">
<rect width="390" height="844" fill="white"/>
</clipPath>
</defs>
</svg>
