<svg width="390" height="844" viewBox="0 0 390 844" fill="none" xmlns="http://www.w3.org/2000/svg">
<g clip-path="url(#clip0_71_412)">
<rect width="390" height="844" fill="white"/>
<rect x="17" y="146" width="78" height="78" rx="9" fill="white" stroke="#BCC6BF" stroke-width="2"/>
<path d="M16.5541 119.78H17.5741V122.21C17.5741 125.21 15.9541 128.135 13.8091 129.275L13.0441 128.285C15.0091 127.295 16.5541 124.685 16.5541 122.21V119.78ZM16.7791 119.78H17.7841V122.21C17.7841 124.595 19.2991 127.07 21.2191 128.03L20.4541 129.02C18.3541 127.895 16.7791 125.12 16.7791 122.21V119.78ZM22.4041 118.61H23.6641V132.17H22.4041V118.61ZM23.3641 124.1H25.8841V125.15H23.3641V124.1ZM30.473 120.095H31.508V121.475C31.508 123.965 29.978 126.05 27.698 126.875L27.053 125.885C29.093 125.165 30.473 123.41 30.473 121.475V120.095ZM30.713 120.095H31.748V121.475C31.748 123.305 33.158 124.955 35.168 125.63L34.523 126.605C32.273 125.84 30.713 123.86 30.713 121.475V120.095ZM27.383 119.735H34.808V120.74H27.383V119.735ZM36.728 118.625H37.988V128.54H36.728V118.625ZM29.273 130.85H38.393V131.87H29.273V130.85ZM29.273 127.61H30.503V131.3H29.273V127.61ZM44.5605 125.06H56.8155V126.095H44.5605V125.06ZM46.1055 122.765H55.3905V123.77H46.1055V122.765ZM46.1055 119.15H55.2855V120.17H47.3355V123.245H46.1055V119.15ZM50.6655 127.265C53.5605 127.265 55.3155 128.15 55.3155 129.71C55.3155 131.27 53.5605 132.14 50.6655 132.14C47.7705 132.14 46.0155 131.27 46.0155 129.71C46.0155 128.15 47.7705 127.265 50.6655 127.265ZM50.6655 128.225C48.5505 128.225 47.2755 128.765 47.2755 129.71C47.2755 130.64 48.5505 131.165 50.6655 131.165C52.7955 131.165 54.0555 130.64 54.0555 129.71C54.0555 128.765 52.7955 128.225 50.6655 128.225ZM58.1794 126.065H70.4794V127.085H58.1794V126.065ZM59.7394 118.955H68.8894V122.24H60.9994V124.07H59.7694V121.325H67.6744V119.93H59.7394V118.955ZM59.7694 123.665H69.1894V124.64H59.7694V123.665ZM63.6994 124.175H64.9444V126.575H63.6994V124.175ZM59.5444 128.12H68.9794V132.05H67.7344V129.14H59.5444V128.12ZM81.0082 118.61H82.2532V132.17H81.0082V118.61ZM81.9532 124.175H84.4732V125.225H81.9532V124.175ZM71.7532 120.77H79.7482V121.79H71.7532V120.77ZM75.8032 122.915C77.7232 122.915 79.1032 124.205 79.1032 126.035C79.1032 127.865 77.7232 129.155 75.8032 129.155C73.8982 129.155 72.5032 127.865 72.5032 126.035C72.5032 124.205 73.8982 122.915 75.8032 122.915ZM75.8032 123.95C74.5732 123.95 73.6882 124.805 73.6882 126.035C73.6882 127.25 74.5732 128.12 75.8032 128.12C77.0332 128.12 77.9182 127.25 77.9182 126.035C77.9182 124.805 77.0332 123.95 75.8032 123.95ZM75.1582 118.775H76.4032V121.235H75.1582V118.775ZM95.332 118.61H96.577V132.17H95.332V118.61ZM91.357 120.065H92.587C92.587 123.995 90.817 127.43 86.287 129.65L85.627 128.645C89.542 126.755 91.357 123.875 91.357 120.275V120.065ZM86.242 120.065H91.897V121.085H86.242V120.065Z" fill="black"/>
<g filter="url(#filter0_d_71_412)">
<rect x="1" y="15" width="390" height="64" fill="white"/>
</g>
<path d="M67.0451 39.978H68.2871V41.634C68.2871 44.766 66.5231 47.358 63.8051 48.42L63.0131 47.214C65.4611 46.314 67.0451 44.118 67.0451 41.634V39.978ZM67.3151 39.978H68.5391V41.742C68.5391 43.938 70.1591 45.972 72.4991 46.782L71.7071 47.952C69.0971 46.98 67.3151 44.568 67.3151 41.742V39.978ZM74.2271 39.132H75.7211V48.996H74.2271V39.132ZM75.3071 43.326H78.1331V44.586H75.3071V43.326ZM70.5371 49.446C73.8671 49.446 75.8831 50.544 75.8831 52.416C75.8831 54.288 73.8671 55.368 70.5371 55.368C67.2071 55.368 65.1911 54.288 65.1911 52.416C65.1911 50.544 67.2071 49.446 70.5371 49.446ZM70.5371 50.634C68.1251 50.634 66.6491 51.282 66.6491 52.416C66.6491 53.55 68.1251 54.198 70.5371 54.198C72.9491 54.198 74.4251 53.55 74.4251 52.416C74.4251 51.282 72.9491 50.634 70.5371 50.634ZM86.2677 47.772H87.7437V50.58H86.2677V47.772ZM79.6437 46.98H94.3497V48.204H79.6437V46.98ZM81.0117 39.636H92.9637V40.86H81.0117V39.636ZM81.0837 44.262H92.8917V45.486H81.0837V44.262ZM83.4777 40.176H84.9717V45.054H83.4777V40.176ZM89.0217 40.176H90.4977V45.054H89.0217V40.176ZM81.4437 50.094H92.5497V55.188H81.4437V50.094ZM91.0917 51.282H82.9197V53.982H91.0917V51.282ZM105.603 40.806H106.845V42.102C106.845 45.09 105.009 47.592 102.273 48.564L101.499 47.394C103.947 46.53 105.603 44.406 105.603 42.102V40.806ZM105.891 40.806H107.133V42.102C107.133 44.298 108.825 46.278 111.237 47.088L110.463 48.258C107.763 47.34 105.891 44.946 105.891 42.102V40.806ZM113.109 39.132H114.621V48.978H113.109V39.132ZM103.749 49.842H114.621V55.404H113.109V51.066H103.749V49.842ZM101.895 40.266H110.805V41.472H101.895V40.266ZM126.517 43.074H130.135V44.298H126.517V43.074ZM129.721 39.132H131.215V47.97H129.721V39.132ZM120.793 48.762H122.269V50.742H129.739V48.762H131.215V55.188H120.793V48.762ZM122.269 51.948V53.964H129.739V51.948H122.269ZM121.981 40.41H123.205V41.742C123.205 44.694 121.369 47.25 118.651 48.258L117.877 47.052C120.307 46.206 121.981 44.046 121.981 41.742V40.41ZM122.269 40.41H123.475V41.724C123.475 43.83 125.059 45.864 127.417 46.692L126.661 47.862C124.015 46.908 122.269 44.46 122.269 41.724V40.41ZM118.345 40.104H127.039V41.31H118.345V40.104ZM139.463 46.872H154.169V48.114H139.463V46.872ZM141.317 44.118H152.459V45.324H141.317V44.118ZM141.317 39.78H152.333V41.004H142.793V44.694H141.317V39.78ZM146.789 49.518C150.263 49.518 152.369 50.58 152.369 52.452C152.369 54.324 150.263 55.368 146.789 55.368C143.314 55.368 141.208 54.324 141.208 52.452C141.208 50.58 143.314 49.518 146.789 49.518ZM146.789 50.67C144.251 50.67 142.721 51.318 142.721 52.452C142.721 53.568 144.251 54.198 146.789 54.198C149.345 54.198 150.857 53.568 150.857 52.452C150.857 51.318 149.345 50.67 146.789 50.67ZM156.003 48.078H170.763V49.302H156.003V48.078ZM157.875 39.546H168.855V43.488H159.387V45.684H157.911V42.39H167.397V40.716H157.875V39.546ZM157.911 45.198H169.215V46.368H157.911V45.198ZM162.627 45.81H164.121V48.69H162.627V45.81ZM157.641 50.544H168.963V55.26H167.469V51.768H157.641V50.544ZM183.596 39.132H185.09V55.404H183.596V39.132ZM184.73 45.81H187.754V47.07H184.73V45.81ZM172.49 41.724H182.084V42.948H172.49V41.724ZM177.35 44.298C179.654 44.298 181.31 45.846 181.31 48.042C181.31 50.238 179.654 51.786 177.35 51.786C175.064 51.786 173.39 50.238 173.39 48.042C173.39 45.846 175.064 44.298 177.35 44.298ZM177.35 45.54C175.874 45.54 174.812 46.566 174.812 48.042C174.812 49.5 175.874 50.544 177.35 50.544C178.826 50.544 179.888 49.5 179.888 48.042C179.888 46.566 178.826 45.54 177.35 45.54ZM176.576 39.33H178.07V42.282H176.576V39.33ZM200.982 39.132H202.476V55.404H200.982V39.132ZM196.212 40.878H197.688C197.688 45.594 195.564 49.716 190.128 52.38L189.336 51.174C194.034 48.906 196.212 45.45 196.212 41.13V40.878ZM190.074 40.878H196.86V42.102H190.074V40.878Z" fill="black"/>
<circle cx="33" cy="47" r="21.5" fill="white" stroke="#F1F1F5"/>
<path d="M35.75 40.5833C35.6294 40.5826 35.5098 40.6057 35.3981 40.6513C35.2864 40.697 35.1848 40.7642 35.0992 40.8491L29.5992 46.3491C29.4284 46.5209 29.3326 46.7532 29.3326 46.9954C29.3326 47.2376 29.4284 47.4699 29.5992 47.6416L35.0992 53.1416C35.2745 53.2918 35.5001 53.3703 35.7308 53.3614C35.9615 53.3525 36.1803 53.2568 36.3436 53.0936C36.5068 52.9303 36.6025 52.7115 36.6114 52.4808C36.6203 52.2501 36.5418 52.0245 36.3917 51.8491L31.5425 47L36.3917 42.1508C36.5204 42.0231 36.6084 41.8602 36.6445 41.6825C36.6806 41.5049 36.6632 41.3205 36.5945 41.1527C36.5258 40.9849 36.4089 40.8413 36.2586 40.7399C36.1083 40.6386 35.9313 40.5841 35.75 40.5833Z" fill="#06161C"/>
<rect x="21.75" y="657.75" width="341.5" height="154.5" rx="7.25" fill="white" stroke="#BCC6BF" stroke-width="1.5"/>
<path d="M21.1848 635.315H22.2198V636.695C22.2198 639.305 20.7498 641.465 18.4848 642.35L17.8248 641.345C19.8648 640.595 21.1848 638.765 21.1848 636.695V635.315ZM21.4098 635.315H22.4298V636.785C22.4298 638.615 23.7798 640.31 25.7298 640.985L25.0698 641.96C22.8948 641.15 21.4098 639.14 21.4098 636.785V635.315ZM27.1698 634.61H28.4148V642.83H27.1698V634.61ZM28.0698 638.105H30.4248V639.155H28.0698V638.105ZM24.0948 643.205C26.8698 643.205 28.5498 644.12 28.5498 645.68C28.5498 647.24 26.8698 648.14 24.0948 648.14C21.3198 648.14 19.6398 647.24 19.6398 645.68C19.6398 644.12 21.3198 643.205 24.0948 643.205ZM24.0948 644.195C22.0848 644.195 20.8548 644.735 20.8548 645.68C20.8548 646.625 22.0848 647.165 24.0948 647.165C26.1048 647.165 27.3348 646.625 27.3348 645.68C27.3348 644.735 26.1048 644.195 24.0948 644.195ZM37.0387 641.81H38.2687V644.15H37.0387V641.81ZM31.5187 641.15H43.7737V642.17H31.5187V641.15ZM32.6587 635.03H42.6187V636.05H32.6587V635.03ZM32.7187 638.885H42.5587V639.905H32.7187V638.885ZM34.7137 635.48H35.9587V639.545H34.7137V635.48ZM39.3337 635.48H40.5637V639.545H39.3337V635.48ZM33.0187 643.745H42.2737V647.99H33.0187V643.745ZM41.0587 644.735H34.2487V646.985H41.0587V644.735ZM52.1275 637.055H55.5925V638.09H52.1275V637.055ZM55.0675 634.61H56.3125V641.6H55.0675V634.61ZM47.5825 642.305H56.3125V645.545H48.8425V647.6H47.6275V644.615H55.0825V643.295H47.5825V642.305ZM47.6275 647H56.8225V647.99H47.6275V647ZM48.5425 635.03H49.5625V636.305C49.5625 638.81 48.0625 640.835 45.7975 641.645L45.1525 640.655C47.1925 639.965 48.5425 638.27 48.5425 636.305V635.03ZM48.7525 635.03H49.7575V636.305C49.7575 638.075 51.1225 639.71 53.0875 640.355L52.4425 641.33C50.2525 640.55 48.7525 638.6 48.7525 636.305V635.03ZM65.2663 636.8H69.1813V637.82H65.2663V636.8ZM65.2663 639.5H69.2113V640.505H65.2663V639.5ZM68.7013 634.61H69.9463V642.635H68.7013V634.61ZM59.4163 635.63H65.6113V641.66H59.4163V635.63ZM64.3813 636.635H60.6313V640.67H64.3813V636.635ZM65.4913 643.025C68.2813 643.025 70.0063 643.97 70.0063 645.59C70.0063 647.21 68.2813 648.14 65.4913 648.14C62.6863 648.14 60.9613 647.21 60.9613 645.59C60.9613 643.97 62.6863 643.025 65.4913 643.025ZM65.4913 644.015C63.4513 644.015 62.2063 644.6 62.2063 645.59C62.2063 646.58 63.4513 647.165 65.4913 647.165C67.5313 647.165 68.7763 646.58 68.7763 645.59C68.7763 644.6 67.5313 644.015 65.4913 644.015Z" fill="black"/>
<path d="M36.766 675.094H37.732V676.382C37.732 678.818 36.36 680.834 34.246 681.66L33.63 680.722C35.534 680.022 36.766 678.314 36.766 676.382V675.094ZM36.976 675.094H37.928V676.466C37.928 678.174 39.188 679.756 41.008 680.386L40.392 681.296C38.362 680.54 36.976 678.664 36.976 676.466V675.094ZM42.352 674.436H43.514V682.108H42.352V674.436ZM43.192 677.698H45.39V678.678H43.192V677.698ZM39.482 682.458C42.072 682.458 43.64 683.312 43.64 684.768C43.64 686.224 42.072 687.064 39.482 687.064C36.892 687.064 35.324 686.224 35.324 684.768C35.324 683.312 36.892 682.458 39.482 682.458ZM39.482 683.382C37.606 683.382 36.458 683.886 36.458 684.768C36.458 685.65 37.606 686.154 39.482 686.154C41.358 686.154 42.506 685.65 42.506 684.768C42.506 683.886 41.358 683.382 39.482 683.382ZM52.0169 681.156H53.1649V683.34H52.0169V681.156ZM46.8649 680.54H58.3029V681.492H46.8649V680.54ZM47.9289 674.828H57.2249V675.78H47.9289V674.828ZM47.9849 678.426H57.1689V679.378H47.9849V678.426ZM49.8469 675.248H51.0089V679.042H49.8469V675.248ZM54.1589 675.248H55.3069V679.042H54.1589V675.248ZM48.2649 682.962H56.9029V686.924H48.2649V682.962ZM55.7689 683.886H49.4129V685.986H55.7689V683.886ZM70.5862 676.718H73.8202V677.684H70.5862V676.718ZM73.3302 674.436H74.4922V680.96H73.3302V674.436ZM66.3442 681.618H74.4922V684.642H67.5202V686.56H66.3862V683.774H73.3442V682.542H66.3442V681.618ZM66.3862 686H74.9682V686.924H66.3862V686ZM67.2402 674.828H68.1922V676.018C68.1922 678.356 66.7922 680.246 64.6782 681.002L64.0762 680.078C65.9802 679.434 67.2402 677.852 67.2402 676.018V674.828ZM67.4362 674.828H68.3742V676.018C68.3742 677.67 69.6482 679.196 71.4822 679.798L70.8802 680.708C68.8362 679.98 67.4362 678.16 67.4362 676.018V674.828ZM83.3031 676.48H86.9571V677.432H83.3031V676.48ZM83.3031 679H86.9851V679.938H83.3031V679ZM86.5091 674.436H87.6711V681.926H86.5091V674.436ZM77.8431 675.388H83.6251V681.016H77.8431V675.388ZM82.4771 676.326H78.9771V680.092H82.4771V676.326ZM83.5131 682.29C86.1171 682.29 87.7271 683.172 87.7271 684.684C87.7271 686.196 86.1171 687.064 83.5131 687.064C80.8951 687.064 79.2851 686.196 79.2851 684.684C79.2851 683.172 80.8951 682.29 83.5131 682.29ZM83.5131 683.214C81.6091 683.214 80.4471 683.76 80.4471 684.684C80.4471 685.608 81.6091 686.154 83.5131 686.154C85.4171 686.154 86.5791 685.608 86.5791 684.684C86.5791 683.76 85.4171 683.214 83.5131 683.214ZM96.16 674.646C98.946 674.646 100.612 675.43 100.612 676.844C100.612 678.258 98.946 679.042 96.16 679.042C93.36 679.042 91.708 678.258 91.708 676.844C91.708 675.43 93.36 674.646 96.16 674.646ZM96.16 675.528C94.088 675.528 92.898 676.004 92.898 676.844C92.898 677.684 94.088 678.16 96.16 678.16C98.218 678.16 99.408 677.684 99.408 676.844C99.408 676.004 98.218 675.528 96.16 675.528ZM90.434 679.882H101.872V680.82H90.434V679.882ZM91.82 681.898H100.416V684.754H92.996V686.294H91.848V683.914H99.268V682.794H91.82V681.898ZM91.848 686.042H100.794V686.952H91.848V686.042ZM116.857 674.436H118.033V681.226H116.857V674.436ZM109.871 681.856H111.019V683.396H116.885V681.856H118.033V686.924H109.871V681.856ZM111.019 684.32V685.986H116.885V684.32H111.019ZM111.243 675.038C113.161 675.038 114.533 676.228 114.533 677.95C114.533 679.686 113.161 680.876 111.243 680.876C109.325 680.876 107.939 679.686 107.939 677.95C107.939 676.228 109.325 675.038 111.243 675.038ZM111.243 676.004C109.983 676.004 109.073 676.802 109.073 677.95C109.073 679.098 109.983 679.896 111.243 679.896C112.503 679.896 113.413 679.098 113.413 677.95C113.413 676.802 112.503 676.004 111.243 676.004ZM121.356 680.708H122.266C124.758 680.708 125.99 680.666 127.502 680.4L127.628 681.338C126.06 681.618 124.8 681.66 122.266 681.66H121.356V680.708ZM121.328 675.192H126.788V678.79H122.504V681.282H121.356V677.88H125.64V676.144H121.328V675.192ZM130.078 674.45H131.24V682.22H130.078V674.45ZM127.628 676.312H130.344V677.264H127.628V676.312ZM127.628 678.93H130.344V679.882H127.628V678.93ZM122.77 682.906H131.24V687.12H130.078V683.858H122.77V682.906ZM133.989 676.592H140.261V677.544H133.989V676.592ZM137.125 678.384C138.707 678.384 139.855 679.574 139.855 681.282C139.855 682.976 138.707 684.166 137.125 684.166C135.557 684.166 134.409 682.976 134.409 681.282C134.409 679.574 135.557 678.384 137.125 678.384ZM137.125 679.378C136.159 679.378 135.459 680.162 135.459 681.282C135.459 682.402 136.159 683.186 137.125 683.186C138.105 683.186 138.819 682.402 138.819 681.282C138.819 680.162 138.105 679.378 137.125 679.378ZM143.607 674.436H144.727V687.092H143.607V674.436ZM141.591 679.756H143.985V680.722H141.591V679.756ZM140.905 674.716H141.997V686.476H140.905V674.716ZM136.565 674.8H137.713V677.18H136.565V674.8ZM152.264 675.682H153.272V676.214C153.272 678.482 150.864 680.148 148.316 680.582L147.868 679.658C150.094 679.336 152.264 677.88 152.264 676.214V675.682ZM152.558 675.682H153.552V676.214C153.552 677.88 155.736 679.336 157.948 679.658L157.514 680.582C154.952 680.148 152.558 678.482 152.558 676.214V675.682ZM152.306 682.262H153.454V687.092H152.306V682.262ZM147.196 681.646H158.634V682.598H147.196V681.646ZM148.26 675.22H157.528V676.158H148.26V675.22ZM165.359 678.958H167.781V679.924H165.359V678.958ZM162.993 675.626H163.903V678.034C163.903 680.68 162.797 683.242 160.949 684.376L160.221 683.494C161.957 682.472 162.993 680.204 162.993 678.034V675.626ZM163.217 675.626H164.113V677.992C164.113 680.022 165.065 682.178 166.731 683.186L166.059 684.096C164.239 682.976 163.217 680.456 163.217 677.992V675.626ZM170.007 674.436H171.127V687.092H170.007V674.436ZM167.445 674.702H168.537V686.462H167.445V674.702ZM176.354 680.946H177.502V684.74H176.354V680.946ZM181.03 680.946H182.192V684.74H181.03V680.946ZM173.554 684.516H185.02V685.482H173.554V684.516ZM179.266 675.234C181.94 675.234 183.858 676.508 183.858 678.496C183.858 680.47 181.94 681.744 179.266 681.744C176.578 681.744 174.66 680.47 174.66 678.496C174.66 676.508 176.578 675.234 179.266 675.234ZM179.266 676.158C177.236 676.158 175.78 677.082 175.78 678.496C175.78 679.896 177.236 680.82 179.266 680.82C181.296 680.82 182.738 679.896 182.738 678.496C182.738 677.082 181.296 676.158 179.266 676.158ZM187.517 686.084C187.274 686.084 187.069 686 186.901 685.832C186.733 685.664 186.649 685.459 186.649 685.216C186.649 684.973 186.733 684.768 186.901 684.6C187.069 684.432 187.274 684.348 187.517 684.348C187.75 684.348 187.946 684.432 188.105 684.6C188.273 684.768 188.357 684.973 188.357 685.216C188.357 685.459 188.273 685.664 188.105 685.832C187.946 686 187.75 686.084 187.517 686.084Z" fill="#BCC6BF"/>
<path d="M303.868 794.834C303.868 793.229 304.129 791.978 304.652 791.082C305.175 790.177 306.089 789.724 307.396 789.724C308.693 789.724 309.603 790.177 310.126 791.082C310.649 791.978 310.91 793.229 310.91 794.834C310.91 796.467 310.649 797.737 310.126 798.642C309.603 799.547 308.693 800 307.396 800C306.089 800 305.175 799.547 304.652 798.642C304.129 797.737 303.868 796.467 303.868 794.834ZM309.65 794.834C309.65 794.022 309.594 793.336 309.482 792.776C309.379 792.207 309.16 791.749 308.824 791.404C308.497 791.059 308.021 790.886 307.396 790.886C306.761 790.886 306.276 791.059 305.94 791.404C305.613 791.749 305.394 792.207 305.282 792.776C305.179 793.336 305.128 794.022 305.128 794.834C305.128 795.674 305.179 796.379 305.282 796.948C305.394 797.517 305.613 797.975 305.94 798.32C306.276 798.665 306.761 798.838 307.396 798.838C308.021 798.838 308.497 798.665 308.824 798.32C309.16 797.975 309.379 797.517 309.482 796.948C309.594 796.379 309.65 795.674 309.65 794.834ZM317.929 786.812L314.093 802.38H312.833L316.655 786.812H317.929ZM319.581 791.04V789.878H322.213V800H320.925V791.04H319.581ZM324.702 794.834C324.702 793.229 324.963 791.978 325.486 791.082C326.008 790.177 326.923 789.724 328.23 789.724C329.527 789.724 330.437 790.177 330.96 791.082C331.482 791.978 331.744 793.229 331.744 794.834C331.744 796.467 331.482 797.737 330.96 798.642C330.437 799.547 329.527 800 328.23 800C326.923 800 326.008 799.547 325.486 798.642C324.963 797.737 324.702 796.467 324.702 794.834ZM330.484 794.834C330.484 794.022 330.428 793.336 330.316 792.776C330.213 792.207 329.994 791.749 329.658 791.404C329.331 791.059 328.855 790.886 328.23 790.886C327.595 790.886 327.11 791.059 326.774 791.404C326.447 791.749 326.228 792.207 326.116 792.776C326.013 793.336 325.962 794.022 325.962 794.834C325.962 795.674 326.013 796.379 326.116 796.948C326.228 797.517 326.447 797.975 326.774 798.32C327.11 798.665 327.595 798.838 328.23 798.838C328.855 798.838 329.331 798.665 329.658 798.32C329.994 797.975 330.213 797.517 330.316 796.948C330.428 796.379 330.484 795.674 330.484 794.834ZM333.793 794.834C333.793 793.229 334.054 791.978 334.577 791.082C335.099 790.177 336.014 789.724 337.321 789.724C338.618 789.724 339.528 790.177 340.051 791.082C340.573 791.978 340.835 793.229 340.835 794.834C340.835 796.467 340.573 797.737 340.051 798.642C339.528 799.547 338.618 800 337.321 800C336.014 800 335.099 799.547 334.577 798.642C334.054 797.737 333.793 796.467 333.793 794.834ZM339.575 794.834C339.575 794.022 339.519 793.336 339.407 792.776C339.304 792.207 339.085 791.749 338.749 791.404C338.422 791.059 337.946 790.886 337.321 790.886C336.686 790.886 336.201 791.059 335.865 791.404C335.538 791.749 335.319 792.207 335.207 792.776C335.104 793.336 335.053 794.022 335.053 794.834C335.053 795.674 335.104 796.379 335.207 796.948C335.319 797.517 335.538 797.975 335.865 798.32C336.201 798.665 336.686 798.838 337.321 798.838C337.946 798.838 338.422 798.665 338.749 798.32C339.085 797.975 339.304 797.517 339.407 796.948C339.519 796.379 339.575 795.674 339.575 794.834ZM342.884 794.834C342.884 793.229 343.145 791.978 343.668 791.082C344.19 790.177 345.105 789.724 346.412 789.724C347.709 789.724 348.619 790.177 349.142 791.082C349.664 791.978 349.926 793.229 349.926 794.834C349.926 796.467 349.664 797.737 349.142 798.642C348.619 799.547 347.709 800 346.412 800C345.105 800 344.19 799.547 343.668 798.642C343.145 797.737 342.884 796.467 342.884 794.834ZM348.666 794.834C348.666 794.022 348.61 793.336 348.498 792.776C348.395 792.207 348.176 791.749 347.84 791.404C347.513 791.059 347.037 790.886 346.412 790.886C345.777 790.886 345.292 791.059 344.956 791.404C344.629 791.749 344.41 792.207 344.298 792.776C344.195 793.336 344.144 794.022 344.144 794.834C344.144 795.674 344.195 796.379 344.298 796.948C344.41 797.517 344.629 797.975 344.956 798.32C345.292 798.665 345.777 798.838 346.412 798.838C347.037 798.838 347.513 798.665 347.84 798.32C348.176 797.975 348.395 797.517 348.498 796.948C348.61 796.379 348.666 795.674 348.666 794.834Z" fill="#CCCCCC"/>
<path d="M23.6598 350.02H24.8748C24.8748 353.935 23.5548 357.535 18.6948 359.95L18.0198 358.99C22.3098 356.875 23.6598 353.845 23.6598 350.155V350.02ZM18.7548 350.02H24.3948V351.025H18.7548V350.02ZM23.4648 353.38V354.34L18.2748 354.85L18.0798 353.74L23.4648 353.38ZM27.0648 348.595H28.3248V362.17H27.0648V348.595ZM27.9798 354.1H30.4848V355.135H27.9798V354.1ZM37.1587 353.74H39.7087V354.775H37.1587V353.74ZM32.0287 357.895H32.8987C34.9837 357.895 36.2287 357.85 37.7287 357.55L37.8487 358.57C36.3037 358.87 35.0137 358.915 32.8987 358.915H32.0287V357.895ZM32.0287 350.245H37.0537V351.25H33.2137V358.24H32.0287V350.245ZM32.8537 353.905H36.4387V354.895H32.8537V353.905ZM41.8387 348.61H43.0387V362.17H41.8387V348.61ZM39.1087 348.925H40.2937V361.48H39.1087V348.925ZM46.4575 349.96H55.1875V350.995H46.4575V349.96ZM45.1675 359.245H57.4225V360.28H45.1675V359.245ZM49.9225 354.4H51.1675V359.755H49.9225V354.4ZM54.7225 349.96H55.9525V351.31C55.9525 352.99 55.9525 354.85 55.4575 357.595L54.2125 357.43C54.7225 354.835 54.7225 352.93 54.7225 351.31V349.96ZM68.6713 348.595H69.9163V362.185H68.6713V348.595ZM59.5813 357.88H60.7063C62.9713 357.88 64.9963 357.79 67.3963 357.4L67.5313 358.42C65.0713 358.825 63.0313 358.915 60.7063 358.915H59.5813V357.88ZM59.5513 349.87H65.8213V354.715H60.8263V358.27H59.5813V353.695H64.5613V350.89H59.5513V349.87Z" fill="black"/>
<rect x="20.75" y="374.75" width="341.5" height="50.5" rx="7.25" fill="white" stroke="#BCC6BF" stroke-width="1.5"/>
<path d="M40.076 394.752H41.21C41.21 398.406 39.978 401.766 35.442 404.02L34.812 403.124C38.816 401.15 40.076 398.322 40.076 394.878V394.752ZM35.498 394.752H40.762V395.69H35.498V394.752ZM39.894 397.888V398.784L35.05 399.26L34.868 398.224L39.894 397.888ZM43.254 393.422H44.43V406.092H43.254V393.422ZM44.108 398.56H46.446V399.526H44.108V398.56ZM53.1289 398.224H55.5089V399.19H53.1289V398.224ZM48.3409 402.102H49.1529C51.0989 402.102 52.2609 402.06 53.6609 401.78L53.7729 402.732C52.3309 403.012 51.1269 403.054 49.1529 403.054H48.3409V402.102ZM48.3409 394.962H53.0309V395.9H49.4469V402.424H48.3409V394.962ZM49.1109 398.378H52.4569V399.302H49.1109V398.378ZM57.4969 393.436H58.6169V406.092H57.4969V393.436ZM54.9489 393.73H56.0549V405.448H54.9489V393.73ZM62.2618 394.696H70.4098V395.662H62.2618V394.696ZM61.0578 403.362H72.4958V404.328H61.0578V403.362ZM65.4958 398.84H66.6578V403.838H65.4958V398.84ZM69.9758 394.696H71.1238V395.956C71.1238 397.524 71.1238 399.26 70.6618 401.822L69.4998 401.668C69.9758 399.246 69.9758 397.468 69.9758 395.956V394.696ZM83.4487 393.422H84.6107V406.106H83.4487V393.422ZM74.9647 402.088H76.0147C78.1287 402.088 80.0187 402.004 82.2587 401.64L82.3847 402.592C80.0887 402.97 78.1847 403.054 76.0147 403.054H74.9647V402.088ZM74.9367 394.612H80.7887V399.134H76.1267V402.452H74.9647V398.182H79.6127V395.564H74.9367V394.612ZM87.4016 399.316H98.8816V400.198H87.4016V399.316ZM88.7596 401.22H97.4396V403.922H89.9496V405.406H88.8016V403.124H96.3056V402.046H88.7596V401.22ZM88.8016 405.098H97.8456V405.938H88.8016V405.098ZM88.8576 393.8H97.3976V396.432H90.0336V397.804H88.8856V395.648H96.2636V394.626H88.8576V393.8ZM88.8856 397.524H97.6356V398.364H88.8856V397.524ZM111.109 396.418H114.301V397.384H111.109V396.418ZM107.791 394.206H108.729V395.76C108.729 398.21 107.357 400.254 105.243 401.108L104.641 400.184C106.517 399.484 107.791 397.692 107.791 395.76V394.206ZM108.015 394.206H108.953V395.802C108.953 397.566 110.185 399.232 112.019 399.904L111.389 400.8C109.373 400.016 108.015 398.056 108.015 395.802V394.206ZM113.867 393.45H115.029V402.914H113.867V393.45ZM106.895 404.86H115.337V405.812H106.895V404.86ZM106.895 401.864H108.057V405.308H106.895V401.864ZM118.338 399.484H119.15C121.138 399.484 122.314 399.442 123.728 399.162L123.84 400.114C122.384 400.394 121.18 400.45 119.15 400.45H118.338V399.484ZM118.338 394.36H123.238V395.312H119.458V400.002H118.338V394.36ZM119.108 396.88H123.084V397.79H119.108V396.88ZM127.354 393.436H128.46V401.108H127.354V393.436ZM125.31 396.74H127.704V397.692H125.31V396.74ZM124.568 393.674H125.66V401.038H124.568V393.674ZM119.976 401.78H128.46V406.092H127.312V402.732H119.976V401.78ZM130.957 395.592H137.229V396.544H130.957V395.592ZM134.093 397.384C135.675 397.384 136.823 398.574 136.823 400.282C136.823 401.976 135.675 403.166 134.093 403.166C132.525 403.166 131.377 401.976 131.377 400.282C131.377 398.574 132.525 397.384 134.093 397.384ZM134.093 398.378C133.127 398.378 132.427 399.162 132.427 400.282C132.427 401.402 133.127 402.186 134.093 402.186C135.073 402.186 135.787 401.402 135.787 400.282C135.787 399.162 135.073 398.378 134.093 398.378ZM140.575 393.436H141.695V406.092H140.575V393.436ZM138.559 398.756H140.953V399.722H138.559V398.756ZM137.873 393.716H138.965V405.476H137.873V393.716ZM133.533 393.8H134.681V396.18H133.533V393.8ZM149.232 394.682H150.24V395.214C150.24 397.482 147.832 399.148 145.284 399.582L144.836 398.658C147.062 398.336 149.232 396.88 149.232 395.214V394.682ZM149.526 394.682H150.52V395.214C150.52 396.88 152.704 398.336 154.916 398.658L154.482 399.582C151.92 399.148 149.526 397.482 149.526 395.214V394.682ZM149.274 401.262H150.422V406.092H149.274V401.262ZM144.164 400.646H155.602V401.598H144.164V400.646ZM145.228 394.22H154.496V395.158H145.228V394.22ZM162.327 397.958H164.749V398.924H162.327V397.958ZM159.961 394.626H160.871V397.034C160.871 399.68 159.765 402.242 157.917 403.376L157.189 402.494C158.925 401.472 159.961 399.204 159.961 397.034V394.626ZM160.185 394.626H161.081V396.992C161.081 399.022 162.033 401.178 163.699 402.186L163.027 403.096C161.207 401.976 160.185 399.456 160.185 396.992V394.626ZM166.975 393.436H168.095V406.092H166.975V393.436ZM164.413 393.702H165.505V405.462H164.413V393.702ZM173.321 399.946H174.469V403.74H173.321V399.946ZM177.997 399.946H179.159V403.74H177.997V399.946ZM170.521 403.516H181.987V404.482H170.521V403.516ZM176.233 394.234C178.907 394.234 180.825 395.508 180.825 397.496C180.825 399.47 178.907 400.744 176.233 400.744C173.545 400.744 171.627 399.47 171.627 397.496C171.627 395.508 173.545 394.234 176.233 394.234ZM176.233 395.158C174.203 395.158 172.747 396.082 172.747 397.496C172.747 398.896 174.203 399.82 176.233 399.82C178.263 399.82 179.705 398.896 179.705 397.496C179.705 396.082 178.263 395.158 176.233 395.158ZM184.484 405.084C184.242 405.084 184.036 405 183.868 404.832C183.7 404.664 183.616 404.459 183.616 404.216C183.616 403.973 183.7 403.768 183.868 403.6C184.036 403.432 184.242 403.348 184.484 403.348C184.718 403.348 184.914 403.432 185.072 403.6C185.24 403.768 185.324 403.973 185.324 404.216C185.324 404.459 185.24 404.664 185.072 404.832C184.914 405 184.718 405.084 184.484 405.084Z" fill="#CCCCCC"/>
<path d="M337 408L328.34 393H345.66L337 408Z" fill="black"/>
<path d="M59.25 177C59.25 178.061 58.8022 179.078 58.0052 179.828C57.2082 180.579 56.1272 181 55 181C53.8728 181 52.7918 180.579 51.9948 179.828C51.1978 179.078 50.75 178.061 50.75 177C50.75 175.939 51.1978 174.922 51.9948 174.172C52.7918 173.421 53.8728 173 55 173C56.1272 173 57.2082 173.421 58.0052 174.172C58.8022 174.922 59.25 175.939 59.25 177ZM49.2115 166.66C49.476 166.161 49.883 165.742 50.3867 165.449C50.8904 165.155 51.471 165 52.0632 165H57.9368C58.529 165 59.1096 165.155 59.6133 165.449C60.117 165.742 60.524 166.161 60.7885 166.66L62.0316 169H63.5C64.6272 169 65.7082 169.421 66.5052 170.172C67.3022 170.922 67.75 171.939 67.75 173V183C67.75 184.061 67.3022 185.078 66.5052 185.828C65.7082 186.579 64.6272 187 63.5 187H46.5C45.3728 187 44.2918 186.579 43.4948 185.828C42.6978 185.078 42.25 184.061 42.25 183V173C42.25 171.939 42.6978 170.922 43.4948 170.172C44.2918 169.421 45.3728 169 46.5 169H47.9684L49.2115 166.66ZM61.375 177C61.375 175.409 60.7034 173.883 59.5078 172.757C58.3123 171.632 56.6908 171 55 171C53.3092 171 51.6877 171.632 50.4922 172.757C49.2966 173.883 48.625 175.409 48.625 177C48.625 178.591 49.2966 180.117 50.4922 181.243C51.6877 182.368 53.3092 183 55 183C56.6908 183 58.3123 182.368 59.5078 181.243C60.7034 180.117 61.375 178.591 61.375 177Z" fill="#333333"/>
<path d="M41.868 198.834C41.868 197.229 42.1293 195.978 42.652 195.082C43.1747 194.177 44.0893 193.724 45.396 193.724C46.6933 193.724 47.6033 194.177 48.126 195.082C48.6487 195.978 48.91 197.229 48.91 198.834C48.91 200.467 48.6487 201.737 48.126 202.642C47.6033 203.547 46.6933 204 45.396 204C44.0893 204 43.1747 203.547 42.652 202.642C42.1293 201.737 41.868 200.467 41.868 198.834ZM47.65 198.834C47.65 198.022 47.594 197.336 47.482 196.776C47.3793 196.207 47.16 195.749 46.824 195.404C46.4973 195.059 46.0213 194.886 45.396 194.886C44.7613 194.886 44.276 195.059 43.94 195.404C43.6133 195.749 43.394 196.207 43.282 196.776C43.1793 197.336 43.128 198.022 43.128 198.834C43.128 199.674 43.1793 200.379 43.282 200.948C43.394 201.517 43.6133 201.975 43.94 202.32C44.276 202.665 44.7613 202.838 45.396 202.838C46.0213 202.838 46.4973 202.665 46.824 202.32C47.16 201.975 47.3793 201.517 47.482 200.948C47.594 200.379 47.65 199.674 47.65 198.834ZM55.929 190.812L52.093 206.38H50.833L54.655 190.812H55.929ZM57.5812 195.04V193.878H60.2132V204H58.9252V195.04H57.5812ZM62.7016 198.834C62.7016 197.229 62.9629 195.978 63.4856 195.082C64.0083 194.177 64.9229 193.724 66.2296 193.724C67.5269 193.724 68.4369 194.177 68.9596 195.082C69.4823 195.978 69.7436 197.229 69.7436 198.834C69.7436 200.467 69.4823 201.737 68.9596 202.642C68.4369 203.547 67.5269 204 66.2296 204C64.9229 204 64.0083 203.547 63.4856 202.642C62.9629 201.737 62.7016 200.467 62.7016 198.834ZM68.4836 198.834C68.4836 198.022 68.4276 197.336 68.3156 196.776C68.2129 196.207 67.9936 195.749 67.6576 195.404C67.3309 195.059 66.8549 194.886 66.2296 194.886C65.5949 194.886 65.1096 195.059 64.7736 195.404C64.4469 195.749 64.2276 196.207 64.1156 196.776C64.0129 197.336 63.9616 198.022 63.9616 198.834C63.9616 199.674 64.0129 200.379 64.1156 200.948C64.2276 201.517 64.4469 201.975 64.7736 202.32C65.1096 202.665 65.5949 202.838 66.2296 202.838C66.8549 202.838 67.3309 202.665 67.6576 202.32C67.9936 201.975 68.2129 201.517 68.3156 200.948C68.4276 200.379 68.4836 199.674 68.4836 198.834Z" fill="#BCC6BF"/>
<path d="M27.1987 444.595H28.4587V458.17H27.1987V444.595ZM28.1137 450.1H30.6187V451.135H28.1137V450.1ZM23.7337 446.065H24.9487C24.9487 449.92 23.1787 453.4 18.7987 455.605L18.1087 454.645C21.8587 452.74 23.7337 449.845 23.7337 446.26V446.065ZM18.7387 446.065H24.3787V447.085H18.7387V446.065ZM37.4425 445.525H38.7475C38.7475 448.975 36.3025 451.435 32.3575 452.515L31.8625 451.54C35.3425 450.58 37.4425 448.585 37.4425 446.065V445.525ZM32.5525 445.525H38.2075V446.53H32.5525V445.525ZM33.7675 453.31H42.8125V458.14H41.5675V454.315H33.7675V453.31ZM41.5675 444.61H42.8125V452.695H41.5675V444.61ZM38.1925 447.025H41.8225V448.045H38.1925V447.025ZM38.0575 449.905H41.7325V450.925H38.0575V449.905Z" fill="black"/>
<rect x="20.75" y="470.75" width="341.5" height="50.5" rx="7.25" fill="white" stroke="#BCC6BF" stroke-width="1.5"/>
<path d="M43.254 489.422H44.43V502.092H43.254V489.422ZM44.108 494.56H46.446V495.526H44.108V494.56ZM40.02 490.794H41.154C41.154 494.392 39.502 497.64 35.414 499.698L34.77 498.802C38.27 497.024 40.02 494.322 40.02 490.976V490.794ZM35.358 490.794H40.622V491.746H35.358V490.794ZM53.2689 490.29H54.4869C54.4869 493.51 52.2049 495.806 48.5229 496.814L48.0609 495.904C51.3089 495.008 53.2689 493.146 53.2689 490.794V490.29ZM48.7049 490.29H53.9829V491.228H48.7049V490.29ZM49.8389 497.556H58.2809V502.064H57.1189V498.494H49.8389V497.556ZM57.1189 489.436H58.2809V496.982H57.1189V489.436ZM53.9689 491.69H57.3569V492.642H53.9689V491.69ZM53.8429 494.378H57.2729V495.33H53.8429V494.378ZM66.7698 489.646C69.5558 489.646 71.2218 490.43 71.2218 491.844C71.2218 493.258 69.5558 494.042 66.7698 494.042C63.9698 494.042 62.3178 493.258 62.3178 491.844C62.3178 490.43 63.9698 489.646 66.7698 489.646ZM66.7698 490.528C64.6978 490.528 63.5078 491.004 63.5078 491.844C63.5078 492.684 64.6978 493.16 66.7698 493.16C68.8278 493.16 70.0178 492.684 70.0178 491.844C70.0178 491.004 68.8278 490.528 66.7698 490.528ZM61.0438 494.882H72.4818V495.82H61.0438V494.882ZM62.4298 496.898H71.0258V499.754H63.6058V501.294H62.4578V498.914H69.8778V497.794H62.4298V496.898ZM62.4578 501.042H71.4038V501.952H62.4578V501.042ZM78.2551 495.19H89.7351V496.156H78.2551V495.19ZM83.3931 495.624H84.5271V497.556H83.3931V495.624ZM83.3651 498.144H84.3591V498.536C84.3591 500.468 82.1191 501.742 79.4731 502.05L79.0951 501.154C81.3771 500.916 83.3651 499.88 83.3651 498.536V498.144ZM83.5611 498.144H84.5551V498.536C84.5551 499.922 86.5291 500.93 88.8251 501.154L88.4471 502.05C85.8151 501.742 83.5611 500.51 83.5611 498.536V498.144ZM83.3931 489.59H84.3871V490.15C84.3871 492.334 81.9371 493.888 79.3191 494.266L78.8991 493.37C81.1811 493.076 83.3931 491.746 83.3931 490.15V489.59ZM83.5751 489.59H84.5691V490.15C84.5691 491.704 86.8091 493.076 89.0491 493.37L88.6291 494.266C86.0531 493.888 83.5751 492.306 83.5751 490.15V489.59ZM94.57 491.242H95.494V493.3C95.494 495.932 93.884 498.648 91.91 499.656L91.238 498.732C93.044 497.85 94.57 495.442 94.57 493.3V491.242ZM94.78 491.242H95.704V493.3C95.704 495.302 97.132 497.556 98.966 498.424L98.308 499.348C96.306 498.354 94.78 495.806 94.78 493.3V491.242ZM91.686 490.724H98.504V491.704H91.686V490.724ZM100.002 489.436H101.178V502.092H100.002V489.436ZM100.898 494.546H103.25V495.526H100.898V494.546ZM105.145 490.57H110.955V496.436H105.145V490.57ZM109.821 491.508H106.279V495.498H109.821V491.508ZM113.279 489.422H114.441V498.704H113.279V489.422ZM114.077 493.286H116.317V494.252H114.077V493.286ZM106.559 500.86H115.015V501.812H106.559V500.86ZM106.559 497.822H107.721V501.266H106.559V497.822ZM131.036 489.436H132.212V496.226H131.036V489.436ZM124.05 496.856H125.198V498.396H131.064V496.856H132.212V501.924H124.05V496.856ZM125.198 499.32V500.986H131.064V499.32H125.198ZM125.422 490.038C127.34 490.038 128.712 491.228 128.712 492.95C128.712 494.686 127.34 495.876 125.422 495.876C123.504 495.876 122.118 494.686 122.118 492.95C122.118 491.228 123.504 490.038 125.422 490.038ZM125.422 491.004C124.162 491.004 123.252 491.802 123.252 492.95C123.252 494.098 124.162 494.896 125.422 494.896C126.682 494.896 127.592 494.098 127.592 492.95C127.592 491.802 126.682 491.004 125.422 491.004ZM135.535 495.708H136.445C138.937 495.708 140.169 495.666 141.681 495.4L141.807 496.338C140.239 496.618 138.979 496.66 136.445 496.66H135.535V495.708ZM135.507 490.192H140.967V493.79H136.683V496.282H135.535V492.88H139.819V491.144H135.507V490.192ZM144.257 489.45H145.419V497.22H144.257V489.45ZM141.807 491.312H144.523V492.264H141.807V491.312ZM141.807 493.93H144.523V494.882H141.807V493.93ZM136.949 497.906H145.419V502.12H144.257V498.858H136.949V497.906ZM148.168 491.592H154.44V492.544H148.168V491.592ZM151.304 493.384C152.886 493.384 154.034 494.574 154.034 496.282C154.034 497.976 152.886 499.166 151.304 499.166C149.736 499.166 148.588 497.976 148.588 496.282C148.588 494.574 149.736 493.384 151.304 493.384ZM151.304 494.378C150.338 494.378 149.638 495.162 149.638 496.282C149.638 497.402 150.338 498.186 151.304 498.186C152.284 498.186 152.998 497.402 152.998 496.282C152.998 495.162 152.284 494.378 151.304 494.378ZM157.786 489.436H158.906V502.092H157.786V489.436ZM155.77 494.756H158.164V495.722H155.77V494.756ZM155.084 489.716H156.176V501.476H155.084V489.716ZM150.744 489.8H151.892V492.18H150.744V489.8ZM166.443 490.682H167.451V491.214C167.451 493.482 165.043 495.148 162.495 495.582L162.047 494.658C164.273 494.336 166.443 492.88 166.443 491.214V490.682ZM166.737 490.682H167.731V491.214C167.731 492.88 169.915 494.336 172.127 494.658L171.693 495.582C169.131 495.148 166.737 493.482 166.737 491.214V490.682ZM166.485 497.262H167.633V502.092H166.485V497.262ZM161.375 496.646H172.813V497.598H161.375V496.646ZM162.439 490.22H171.707V491.158H162.439V490.22ZM179.538 493.958H181.96V494.924H179.538V493.958ZM177.172 490.626H178.082V493.034C178.082 495.68 176.976 498.242 175.128 499.376L174.4 498.494C176.136 497.472 177.172 495.204 177.172 493.034V490.626ZM177.396 490.626H178.292V492.992C178.292 495.022 179.244 497.178 180.91 498.186L180.238 499.096C178.418 497.976 177.396 495.456 177.396 492.992V490.626ZM184.186 489.436H185.306V502.092H184.186V489.436ZM181.624 489.702H182.716V501.462H181.624V489.702ZM190.533 495.946H191.681V499.74H190.533V495.946ZM195.209 495.946H196.371V499.74H195.209V495.946ZM187.733 499.516H199.199V500.482H187.733V499.516ZM193.445 490.234C196.119 490.234 198.037 491.508 198.037 493.496C198.037 495.47 196.119 496.744 193.445 496.744C190.757 496.744 188.839 495.47 188.839 493.496C188.839 491.508 190.757 490.234 193.445 490.234ZM193.445 491.158C191.415 491.158 189.959 492.082 189.959 493.496C189.959 494.896 191.415 495.82 193.445 495.82C195.475 495.82 196.917 494.896 196.917 493.496C196.917 492.082 195.475 491.158 193.445 491.158ZM201.696 501.084C201.453 501.084 201.248 501 201.08 500.832C200.912 500.664 200.828 500.459 200.828 500.216C200.828 499.973 200.912 499.768 201.08 499.6C201.248 499.432 201.453 499.348 201.696 499.348C201.929 499.348 202.125 499.432 202.284 499.6C202.452 499.768 202.536 499.973 202.536 500.216C202.536 500.459 202.452 500.664 202.284 500.832C202.125 501 201.929 501.084 201.696 501.084Z" fill="#BCC6BF"/>
<path d="M332.82 503L329.52 488.58H331.22L333.16 498.44L333.62 501.32H333.72L334.28 498.44L336.18 489.48H337.94L339.9 498.44L340.46 501.32H340.54L341.04 498.44L342.92 488.58H344.5L341.36 503H339.6L337.74 494.66L337.06 490.86H336.98L336.32 494.66L334.5 503H332.82ZM328.8 496.14V495.3L330.48 495.2H345.18V496.14H328.8Z" fill="black"/>
<path d="M30.3416 540.61H31.5416V554.17H30.3416V540.61ZM28.1516 546.055H30.7466V547.075H28.1516V546.055ZM24.6416 542.35H25.8416C25.8416 545.845 24.6416 549.085 20.7716 551.26L20.0366 550.375C23.4416 548.47 24.6416 545.725 24.6416 542.59V542.35ZM20.5616 542.35H25.0616V543.385H20.5616V542.35ZM27.3266 540.97H28.5116V553.51H27.3266V540.97ZM42.9704 540.61H44.2154V548.665H42.9704V540.61ZM43.8554 544.135H46.2104V545.17H43.8554V544.135ZM39.8804 548.95C42.6254 548.95 44.3354 549.925 44.3354 551.56C44.3354 553.195 42.6254 554.155 39.8804 554.155C37.1354 554.155 35.4254 553.195 35.4254 551.56C35.4254 549.925 37.1354 548.95 39.8804 548.95ZM39.8804 549.97C37.8704 549.97 36.6404 550.54 36.6404 551.56C36.6404 552.55 37.8704 553.135 39.8804 553.135C41.8904 553.135 43.1204 552.55 43.1204 551.56C43.1204 550.54 41.8904 549.97 39.8804 549.97ZM34.2854 546.58H35.3354C38.1404 546.58 39.7154 546.49 41.5304 546.115L41.6804 547.135C39.8054 547.51 38.2004 547.6 35.3354 547.6H34.2854V546.58ZM34.2854 541.645H40.2704V542.665H35.5154V547.24H34.2854V541.645ZM56.848 541.09H57.943V541.84C57.943 544.435 55.303 546.295 52.483 546.775L51.988 545.77C54.463 545.395 56.848 543.775 56.848 541.84V541.09ZM57.073 541.09H58.153V541.84C58.153 543.73 60.568 545.395 63.013 545.77L62.518 546.775C59.728 546.295 57.073 544.405 57.073 541.84V541.09ZM56.848 549.01H58.078V554.17H56.848V549.01ZM51.373 548.245H63.628V549.28H51.373V548.245ZM75.1468 542.725H77.5318V543.76H75.1468V542.725ZM75.1468 545.575H77.5318V546.61H75.1468V545.575ZM74.2768 540.61H75.5218V548.815H74.2768V540.61ZM65.5918 547H66.6568C69.1168 547 70.8718 546.925 72.9868 546.55L73.0918 547.585C70.9468 547.945 69.1618 548.035 66.6568 548.035H65.5918V547ZM65.5618 541.45H71.6668V545.14H66.8068V547.66H65.5918V544.165H70.4368V542.47H65.5618V541.45ZM71.1868 549.22C73.9618 549.22 75.6418 550.12 75.6418 551.68C75.6418 553.255 73.9618 554.155 71.1868 554.155C68.4268 554.155 66.7318 553.255 66.7318 551.68C66.7318 550.12 68.4268 549.22 71.1868 549.22ZM71.1868 550.195C69.1618 550.195 67.9468 550.735 67.9468 551.68C67.9468 552.64 69.1618 553.18 71.1868 553.18C73.2118 553.18 74.4418 552.64 74.4418 551.68C74.4418 550.735 73.2118 550.195 71.1868 550.195ZM89.1444 546.88H94.0194V547.9H89.1444V546.88ZM82.6944 551.41H94.9794V552.445H82.6944V551.41ZM88.1844 548.56H89.4144V551.905H88.1844V548.56ZM89.1444 541.87H93.8844V542.89H90.3894V547.42H89.1444V541.87ZM83.7444 541.885H88.3344V542.905H84.9894V547.36H83.7444V541.885ZM83.7444 546.85H84.4944C85.8144 546.85 87.0444 546.805 88.4544 546.475L88.5744 547.525C87.1044 547.84 85.8594 547.9 84.4944 547.9H83.7444V546.85ZM97.9782 544.675H107.188V545.695H97.9782V544.675ZM96.3132 547.51H108.613V548.53H96.3132V547.51ZM97.9782 541.105H99.2082V545.185H97.9782V541.105ZM97.8882 552.82H107.263V553.84H97.8882V552.82ZM97.8882 549.88H99.1182V553.09H97.8882V549.88ZM119.506 547.39H120.751V549.76H119.506V547.39ZM114.001 546.955H126.256V547.96H114.001V546.955ZM120.121 549.385C123.031 549.385 124.771 550.24 124.771 551.77C124.771 553.285 123.031 554.14 120.121 554.14C117.211 554.14 115.471 553.285 115.471 551.77C115.471 550.24 117.211 549.385 120.121 549.385ZM120.121 550.345C118.006 550.345 116.731 550.855 116.731 551.77C116.731 552.67 118.006 553.18 120.121 553.18C122.251 553.18 123.511 552.67 123.511 551.77C123.511 550.855 122.251 550.345 120.121 550.345ZM119.326 541.72H120.436V542.125C120.436 544.315 117.946 545.785 115.141 546.13L114.691 545.14C117.121 544.885 119.326 543.67 119.326 542.125V541.72ZM119.851 541.72H120.946V542.125C120.946 543.67 123.151 544.885 125.581 545.14L125.131 546.13C122.326 545.785 119.851 544.315 119.851 542.125V541.72ZM115.126 541.225H125.161V542.23H115.126V541.225ZM137.79 542.725H140.175V543.76H137.79V542.725ZM137.79 545.575H140.175V546.61H137.79V545.575ZM136.92 540.61H138.165V548.815H136.92V540.61ZM128.235 547H129.3C131.76 547 133.515 546.925 135.63 546.55L135.735 547.585C133.59 547.945 131.805 548.035 129.3 548.035H128.235V547ZM128.205 541.45H134.31V545.14H129.45V547.66H128.235V544.165H133.08V542.47H128.205V541.45ZM133.83 549.22C136.605 549.22 138.285 550.12 138.285 551.68C138.285 553.255 136.605 554.155 133.83 554.155C131.07 554.155 129.375 553.255 129.375 551.68C129.375 550.12 131.07 549.22 133.83 549.22ZM133.83 550.195C131.805 550.195 130.59 550.735 130.59 551.68C130.59 552.64 131.805 553.18 133.83 553.18C135.855 553.18 137.085 552.64 137.085 551.68C137.085 550.735 135.855 550.195 133.83 550.195Z" fill="black"/>
<rect x="19.75" y="564.75" width="341.5" height="50.5" rx="7.25" fill="white" stroke="#BCC6BF" stroke-width="1.5"/>
<path d="M43.304 583.436H44.424V596.092H43.304V583.436ZM41.26 588.518H43.682V589.47H41.26V588.518ZM37.984 585.06H39.104C39.104 588.322 37.984 591.346 34.372 593.376L33.686 592.55C36.864 590.772 37.984 588.21 37.984 585.284V585.06ZM34.176 585.06H38.376V586.026H34.176V585.06ZM40.49 583.772H41.596V595.476H40.49V583.772ZM55.5449 583.436H56.7069V590.954H55.5449V583.436ZM56.3709 586.726H58.5689V587.692H56.3709V586.726ZM52.6609 591.22C55.2229 591.22 56.8189 592.13 56.8189 593.656C56.8189 595.182 55.2229 596.078 52.6609 596.078C50.0989 596.078 48.5029 595.182 48.5029 593.656C48.5029 592.13 50.0989 591.22 52.6609 591.22ZM52.6609 592.172C50.7849 592.172 49.6369 592.704 49.6369 593.656C49.6369 594.58 50.7849 595.126 52.6609 595.126C54.5369 595.126 55.6849 594.58 55.6849 593.656C55.6849 592.704 54.5369 592.172 52.6609 592.172ZM47.4389 589.008H48.4189C51.0369 589.008 52.5069 588.924 54.2009 588.574L54.3409 589.526C52.5909 589.876 51.0929 589.96 48.4189 589.96H47.4389V589.008ZM47.4389 584.402H53.0249V585.354H48.5869V589.624H47.4389V584.402ZM69.2002 583.884H70.2222V584.584C70.2222 587.006 67.7582 588.742 65.1262 589.19L64.6642 588.252C66.9742 587.902 69.2002 586.39 69.2002 584.584V583.884ZM69.4102 583.884H70.4182V584.584C70.4182 586.348 72.6722 587.902 74.9542 588.252L74.4922 589.19C71.8882 588.742 69.4102 586.978 69.4102 584.584V583.884ZM69.2002 591.276H70.3482V596.092H69.2002V591.276ZM64.0902 590.562H75.5282V591.528H64.0902V590.562ZM86.7331 585.41H88.9591V586.376H86.7331V585.41ZM86.7331 588.07H88.9591V589.036H86.7331V588.07ZM85.9211 583.436H87.0831V591.094H85.9211V583.436ZM77.8151 589.4H78.8091C81.1051 589.4 82.7431 589.33 84.7171 588.98L84.8151 589.946C82.8131 590.282 81.1471 590.366 78.8091 590.366H77.8151V589.4ZM77.7871 584.22H83.4851V587.664H78.9491V590.016H77.8151V586.754H82.3371V585.172H77.7871V584.22ZM83.0371 591.472C85.6271 591.472 87.1951 592.312 87.1951 593.768C87.1951 595.238 85.6271 596.078 83.0371 596.078C80.4611 596.078 78.8791 595.238 78.8791 593.768C78.8791 592.312 80.4611 591.472 83.0371 591.472ZM83.0371 592.382C81.1471 592.382 80.0131 592.886 80.0131 593.768C80.0131 594.664 81.1471 595.168 83.0371 595.168C84.9271 595.168 86.0751 594.664 86.0751 593.768C86.0751 592.886 84.9271 592.382 83.0371 592.382ZM100.5 589.288H105.05V590.24H100.5V589.288ZM94.4805 593.516H105.946V594.482H94.4805V593.516ZM99.6045 590.856H100.752V593.978H99.6045V590.856ZM100.5 584.612H104.924V585.564H101.662V589.792H100.5V584.612ZM95.4605 584.626H99.7445V585.578H96.6225V589.736H95.4605V584.626ZM95.4605 589.26H96.1605C97.3925 589.26 98.5405 589.218 99.8565 588.91L99.9685 589.89C98.5965 590.184 97.4345 590.24 96.1605 590.24H95.4605V589.26ZM109.199 587.23H117.795V588.182H109.199V587.23ZM107.645 589.876H119.125V590.828H107.645V589.876ZM109.199 583.898H110.347V587.706H109.199V583.898ZM109.115 594.832H117.865V595.784H109.115V594.832ZM109.115 592.088H110.263V595.084H109.115V592.088ZM129.995 589.764H131.157V591.976H129.995V589.764ZM124.857 589.358H136.295V590.296H124.857V589.358ZM130.569 591.626C133.285 591.626 134.909 592.424 134.909 593.852C134.909 595.266 133.285 596.064 130.569 596.064C127.853 596.064 126.229 595.266 126.229 593.852C126.229 592.424 127.853 591.626 130.569 591.626ZM130.569 592.522C128.595 592.522 127.405 592.998 127.405 593.852C127.405 594.692 128.595 595.168 130.569 595.168C132.557 595.168 133.733 594.692 133.733 593.852C133.733 592.998 132.557 592.522 130.569 592.522ZM129.827 584.472H130.863V584.85C130.863 586.894 128.539 588.266 125.921 588.588L125.501 587.664C127.769 587.426 129.827 586.292 129.827 584.85V584.472ZM130.317 584.472H131.339V584.85C131.339 586.292 133.397 587.426 135.665 587.664L135.245 588.588C132.627 588.266 130.317 586.894 130.317 584.85V584.472ZM125.907 584.01H135.273V584.948H125.907V584.01ZM147.514 585.41H149.74V586.376H147.514V585.41ZM147.514 588.07H149.74V589.036H147.514V588.07ZM146.702 583.436H147.864V591.094H146.702V583.436ZM138.596 589.4H139.59C141.886 589.4 143.524 589.33 145.498 588.98L145.596 589.946C143.594 590.282 141.928 590.366 139.59 590.366H138.596V589.4ZM138.568 584.22H144.266V587.664H139.73V590.016H138.596V586.754H143.118V585.172H138.568V584.22ZM143.818 591.472C146.408 591.472 147.976 592.312 147.976 593.768C147.976 595.238 146.408 596.078 143.818 596.078C141.242 596.078 139.66 595.238 139.66 593.768C139.66 592.312 141.242 591.472 143.818 591.472ZM143.818 592.382C141.928 592.382 140.794 592.886 140.794 593.768C140.794 594.664 141.928 595.168 143.818 595.168C145.708 595.168 146.856 594.664 146.856 593.768C146.856 592.886 145.708 592.382 143.818 592.382ZM156.941 583.646C159.727 583.646 161.393 584.43 161.393 585.844C161.393 587.258 159.727 588.042 156.941 588.042C154.141 588.042 152.489 587.258 152.489 585.844C152.489 584.43 154.141 583.646 156.941 583.646ZM156.941 584.528C154.869 584.528 153.679 585.004 153.679 585.844C153.679 586.684 154.869 587.16 156.941 587.16C158.999 587.16 160.189 586.684 160.189 585.844C160.189 585.004 158.999 584.528 156.941 584.528ZM151.215 588.882H162.653V589.82H151.215V588.882ZM152.601 590.898H161.197V593.754H153.777V595.294H152.629V592.914H160.049V591.794H152.601V590.898ZM152.629 595.042H161.575V595.952H152.629V595.042ZM177.092 583.422H178.254V592.592H177.092V583.422ZM177.904 587.188H180.13V588.154H177.904V587.188ZM169.014 589.4H169.994C172.598 589.4 174.068 589.33 175.762 588.98L175.888 589.918C174.152 590.282 172.654 590.366 169.994 590.366H169.014V589.4ZM169.014 584.514H174.6V585.48H170.162V589.918H169.014V584.514ZM170.372 594.86H178.828V595.812H170.372V594.86ZM170.372 591.682H171.534V595.294H170.372V591.682ZM185.749 584.024C187.639 584.024 188.983 585.074 188.983 586.628C188.983 588.168 187.639 589.246 185.749 589.246C183.873 589.246 182.529 588.168 182.529 586.628C182.529 585.074 183.873 584.024 185.749 584.024ZM185.749 584.99C184.517 584.99 183.635 585.662 183.635 586.628C183.635 587.608 184.517 588.266 185.749 588.266C186.981 588.266 187.863 587.608 187.863 586.628C187.863 585.662 186.981 584.99 185.749 584.99ZM185.231 590.646H186.393V595.7H185.231V590.646ZM190.831 583.436H191.979V596.106H190.831V583.436ZM181.745 591.276L181.591 590.296C183.943 590.296 187.149 590.268 189.935 589.848L190.019 590.716C187.163 591.234 184.055 591.276 181.745 591.276ZM197.99 589.82H199.152V592.844H197.99V589.82ZM198.564 584.248C200.51 584.248 201.91 585.466 201.91 587.23C201.91 588.994 200.51 590.212 198.564 590.212C196.618 590.212 195.218 588.994 195.218 587.23C195.218 585.466 196.618 584.248 198.564 584.248ZM198.564 585.242C197.276 585.242 196.352 586.054 196.352 587.23C196.352 588.406 197.276 589.218 198.564 589.218C199.852 589.218 200.776 588.406 200.776 587.23C200.776 586.054 199.852 585.242 198.564 585.242ZM203.352 583.436H204.514V596.092H203.352V583.436ZM204.178 588.644H206.516V589.624H204.178V588.644ZM194.812 593.362L194.644 592.396C196.926 592.382 199.978 592.368 202.554 592.018L202.652 592.886C199.978 593.334 197.024 593.362 194.812 593.362ZM220.661 583.436H221.823V591.052H220.661V583.436ZM221.501 586.796H223.699V587.762H221.501V586.796ZM213.871 591.766H221.823V595.924H213.871V591.766ZM220.689 592.704H215.005V594.986H220.689V592.704ZM212.037 584.766H219.513V585.718H212.037V584.766ZM215.775 586.334C217.581 586.334 218.799 587.23 218.799 588.602C218.799 589.974 217.581 590.842 215.775 590.842C213.955 590.842 212.737 589.974 212.737 588.602C212.737 587.23 213.955 586.334 215.775 586.334ZM215.775 587.23C214.613 587.23 213.843 587.762 213.843 588.602C213.843 589.428 214.613 589.96 215.775 589.96C216.909 589.96 217.693 589.428 217.693 588.602C217.693 587.762 216.909 587.23 215.775 587.23ZM215.187 583.324H216.349V585.256H215.187V583.324ZM227.302 584.948H228.282C228.282 587.664 227.918 590.646 226.112 593.11L225.202 592.578C226.938 590.324 227.302 587.678 227.302 585.032V584.948ZM225.468 584.948H227.876V585.914H225.468V584.948ZM230.088 584.948H231.082C231.082 587.622 230.914 591.178 228.926 593.922L228.002 593.39C229.934 590.87 230.088 587.58 230.088 585.046V584.948ZM228.702 584.948H230.704V585.914H228.702V584.948ZM234.862 583.436H235.982V596.092H234.862V583.436ZM230.494 588.406H232.762V589.358H230.494V588.406ZM232.524 583.758H233.616V595.448H232.524V583.758ZM251.597 583.436H252.773V590.226H251.597V583.436ZM244.611 590.856H245.759V592.396H251.625V590.856H252.773V595.924H244.611V590.856ZM245.759 593.32V594.986H251.625V593.32H245.759ZM245.983 584.038C247.901 584.038 249.273 585.228 249.273 586.95C249.273 588.686 247.901 589.876 245.983 589.876C244.065 589.876 242.679 588.686 242.679 586.95C242.679 585.228 244.065 584.038 245.983 584.038ZM245.983 585.004C244.723 585.004 243.813 585.802 243.813 586.95C243.813 588.098 244.723 588.896 245.983 588.896C247.243 588.896 248.153 588.098 248.153 586.95C248.153 585.802 247.243 585.004 245.983 585.004ZM256.096 589.708H257.006C259.498 589.708 260.73 589.666 262.242 589.4L262.368 590.338C260.8 590.618 259.54 590.66 257.006 590.66H256.096V589.708ZM256.068 584.192H261.528V587.79H257.244V590.282H256.096V586.88H260.38V585.144H256.068V584.192ZM264.818 583.45H265.98V591.22H264.818V583.45ZM262.368 585.312H265.084V586.264H262.368V585.312ZM262.368 587.93H265.084V588.882H262.368V587.93ZM257.51 591.906H265.98V596.12H264.818V592.858H257.51V591.906ZM268.729 585.592H275.001V586.544H268.729V585.592ZM271.865 587.384C273.447 587.384 274.595 588.574 274.595 590.282C274.595 591.976 273.447 593.166 271.865 593.166C270.297 593.166 269.149 591.976 269.149 590.282C269.149 588.574 270.297 587.384 271.865 587.384ZM271.865 588.378C270.899 588.378 270.199 589.162 270.199 590.282C270.199 591.402 270.899 592.186 271.865 592.186C272.845 592.186 273.559 591.402 273.559 590.282C273.559 589.162 272.845 588.378 271.865 588.378ZM278.347 583.436H279.467V596.092H278.347V583.436ZM276.331 588.756H278.725V589.722H276.331V588.756ZM275.645 583.716H276.737V595.476H275.645V583.716ZM271.305 583.8H272.453V586.18H271.305V583.8ZM287.004 584.682H288.012V585.214C288.012 587.482 285.604 589.148 283.056 589.582L282.608 588.658C284.834 588.336 287.004 586.88 287.004 585.214V584.682ZM287.298 584.682H288.292V585.214C288.292 586.88 290.476 588.336 292.688 588.658L292.254 589.582C289.692 589.148 287.298 587.482 287.298 585.214V584.682ZM287.046 591.262H288.194V596.092H287.046V591.262ZM281.936 590.646H293.374V591.598H281.936V590.646ZM283 584.22H292.268V585.158H283V584.22ZM300.099 587.958H302.521V588.924H300.099V587.958ZM297.733 584.626H298.643V587.034C298.643 589.68 297.537 592.242 295.689 593.376L294.961 592.494C296.697 591.472 297.733 589.204 297.733 587.034V584.626ZM297.957 584.626H298.853V586.992C298.853 589.022 299.805 591.178 301.471 592.186L300.799 593.096C298.979 591.976 297.957 589.456 297.957 586.992V584.626ZM304.747 583.436H305.867V596.092H304.747V583.436ZM302.185 583.702H303.277V595.462H302.185V583.702ZM311.094 589.946H312.242V593.74H311.094V589.946ZM315.77 589.946H316.932V593.74H315.77V589.946ZM308.294 593.516H319.76V594.482H308.294V593.516ZM314.006 584.234C316.68 584.234 318.598 585.508 318.598 587.496C318.598 589.47 316.68 590.744 314.006 590.744C311.318 590.744 309.4 589.47 309.4 587.496C309.4 585.508 311.318 584.234 314.006 584.234ZM314.006 585.158C311.976 585.158 310.52 586.082 310.52 587.496C310.52 588.896 311.976 589.82 314.006 589.82C316.036 589.82 317.478 588.896 317.478 587.496C317.478 586.082 316.036 585.158 314.006 585.158ZM322.257 595.084C322.014 595.084 321.809 595 321.641 594.832C321.473 594.664 321.389 594.459 321.389 594.216C321.389 593.973 321.473 593.768 321.641 593.6C321.809 593.432 322.014 593.348 322.257 593.348C322.49 593.348 322.686 593.432 322.845 593.6C323.013 593.768 323.097 593.973 323.097 594.216C323.097 594.459 323.013 594.664 322.845 594.832C322.686 595 322.49 595.084 322.257 595.084Z" fill="#BCC6BF"/>
<path d="M21.5018 252.315H22.5368V253.695C22.5368 256.305 21.0668 258.465 18.8018 259.35L18.1418 258.345C20.1818 257.595 21.5018 255.765 21.5018 253.695V252.315ZM21.7268 252.315H22.7468V253.785C22.7468 255.615 24.0968 257.31 26.0468 257.985L25.3868 258.96C23.2118 258.15 21.7268 256.14 21.7268 253.785V252.315ZM27.4868 251.61H28.7318V259.83H27.4868V251.61ZM28.3868 255.105H30.7418V256.155H28.3868V255.105ZM24.4118 260.205C27.1868 260.205 28.8668 261.12 28.8668 262.68C28.8668 264.24 27.1868 265.14 24.4118 265.14C21.6368 265.14 19.9568 264.24 19.9568 262.68C19.9568 261.12 21.6368 260.205 24.4118 260.205ZM24.4118 261.195C22.4018 261.195 21.1718 261.735 21.1718 262.68C21.1718 263.625 22.4018 264.165 24.4118 264.165C26.4218 264.165 27.6518 263.625 27.6518 262.68C27.6518 261.735 26.4218 261.195 24.4118 261.195ZM37.3556 258.81H38.5856V261.15H37.3556V258.81ZM31.8356 258.15H44.0906V259.17H31.8356V258.15ZM32.9756 252.03H42.9356V253.05H32.9756V252.03ZM33.0356 255.885H42.8756V256.905H33.0356V255.885ZM35.0306 252.48H36.2756V256.545H35.0306V252.48ZM39.6506 252.48H40.8806V256.545H39.6506V252.48ZM33.3356 260.745H42.5906V264.99H33.3356V260.745ZM41.3756 261.735H34.5656V263.985H41.3756V261.735ZM51.9494 253.8H55.8644V254.82H51.9494V253.8ZM51.9494 256.5H55.8944V257.505H51.9494V256.5ZM55.3844 251.61H56.6294V259.635H55.3844V251.61ZM46.0994 252.63H52.2944V258.66H46.0994V252.63ZM51.0644 253.635H47.3144V257.67H51.0644V253.635ZM52.1744 260.025C54.9644 260.025 56.6894 260.97 56.6894 262.59C56.6894 264.21 54.9644 265.14 52.1744 265.14C49.3694 265.14 47.6444 264.21 47.6444 262.59C47.6444 260.97 49.3694 260.025 52.1744 260.025ZM52.1744 261.015C50.1344 261.015 48.8894 261.6 48.8894 262.59C48.8894 263.58 50.1344 264.165 52.1744 264.165C54.2144 264.165 55.4594 263.58 55.4594 262.59C55.4594 261.6 54.2144 261.015 52.1744 261.015Z" fill="black"/>
<rect x="20.75" y="278.75" width="341.5" height="50.5" rx="7.25" fill="white" stroke="#23AA49" stroke-width="1.5"/>
<path d="M35.766 298.094H36.732V299.382C36.732 301.818 35.36 303.834 33.246 304.66L32.63 303.722C34.534 303.022 35.766 301.314 35.766 299.382V298.094ZM35.976 298.094H36.928V299.466C36.928 301.174 38.188 302.756 40.008 303.386L39.392 304.296C37.362 303.54 35.976 301.664 35.976 299.466V298.094ZM41.352 297.436H42.514V305.108H41.352V297.436ZM42.192 300.698H44.39V301.678H42.192V300.698ZM38.482 305.458C41.072 305.458 42.64 306.312 42.64 307.768C42.64 309.224 41.072 310.064 38.482 310.064C35.892 310.064 34.324 309.224 34.324 307.768C34.324 306.312 35.892 305.458 38.482 305.458ZM38.482 306.382C36.606 306.382 35.458 306.886 35.458 307.768C35.458 308.65 36.606 309.154 38.482 309.154C40.358 309.154 41.506 308.65 41.506 307.768C41.506 306.886 40.358 306.382 38.482 306.382ZM51.0169 304.156H52.1649V306.34H51.0169V304.156ZM45.8649 303.54H57.3029V304.492H45.8649V303.54ZM46.9289 297.828H56.2249V298.78H46.9289V297.828ZM46.9849 301.426H56.1689V302.378H46.9849V301.426ZM48.8469 298.248H50.0089V302.042H48.8469V298.248ZM53.1589 298.248H54.3069V302.042H53.1589V298.248ZM47.2649 305.962H55.9029V309.924H47.2649V305.962ZM54.7689 306.886H48.4129V308.986H54.7689V306.886ZM65.0918 299.48H68.7458V300.432H65.0918V299.48ZM65.0918 302H68.7738V302.938H65.0918V302ZM68.2978 297.436H69.4598V304.926H68.2978V297.436ZM59.6318 298.388H65.4138V304.016H59.6318V298.388ZM64.2658 299.326H60.7658V303.092H64.2658V299.326ZM65.3018 305.29C67.9058 305.29 69.5158 306.172 69.5158 307.684C69.5158 309.196 67.9058 310.064 65.3018 310.064C62.6838 310.064 61.0738 309.196 61.0738 307.684C61.0738 306.172 62.6838 305.29 65.3018 305.29ZM65.3018 306.214C63.3978 306.214 62.2358 306.76 62.2358 307.684C62.2358 308.608 63.3978 309.154 65.3018 309.154C67.2058 309.154 68.3678 308.608 68.3678 307.684C68.3678 306.76 67.2058 306.214 65.3018 306.214ZM77.9487 297.646C80.7347 297.646 82.4007 298.43 82.4007 299.844C82.4007 301.258 80.7347 302.042 77.9487 302.042C75.1487 302.042 73.4967 301.258 73.4967 299.844C73.4967 298.43 75.1487 297.646 77.9487 297.646ZM77.9487 298.528C75.8767 298.528 74.6867 299.004 74.6867 299.844C74.6867 300.684 75.8767 301.16 77.9487 301.16C80.0067 301.16 81.1967 300.684 81.1967 299.844C81.1967 299.004 80.0067 298.528 77.9487 298.528ZM72.2227 302.882H83.6607V303.82H72.2227V302.882ZM73.6087 304.898H82.2047V307.754H74.7847V309.294H73.6367V306.914H81.0567V305.794H73.6087V304.898ZM73.6367 309.042H82.5827V309.952H73.6367V309.042ZM98.646 297.436H99.822V304.226H98.646V297.436ZM91.66 304.856H92.808V306.396H98.674V304.856H99.822V309.924H91.66V304.856ZM92.808 307.32V308.986H98.674V307.32H92.808ZM93.032 298.038C94.95 298.038 96.322 299.228 96.322 300.95C96.322 302.686 94.95 303.876 93.032 303.876C91.114 303.876 89.728 302.686 89.728 300.95C89.728 299.228 91.114 298.038 93.032 298.038ZM93.032 299.004C91.772 299.004 90.862 299.802 90.862 300.95C90.862 302.098 91.772 302.896 93.032 302.896C94.292 302.896 95.202 302.098 95.202 300.95C95.202 299.802 94.292 299.004 93.032 299.004ZM103.145 303.708H104.055C106.547 303.708 107.779 303.666 109.291 303.4L109.417 304.338C107.849 304.618 106.589 304.66 104.055 304.66H103.145V303.708ZM103.117 298.192H108.577V301.79H104.293V304.282H103.145V300.88H107.429V299.144H103.117V298.192ZM111.867 297.45H113.029V305.22H111.867V297.45ZM109.417 299.312H112.133V300.264H109.417V299.312ZM109.417 301.93H112.133V302.882H109.417V301.93ZM104.559 305.906H113.029V310.12H111.867V306.858H104.559V305.906ZM124.374 297.436H125.536V310.092H124.374V297.436ZM125.256 302.63H127.608V303.61H125.256V302.63ZM115.736 299.452H123.198V300.404H115.736V299.452ZM119.516 301.454C121.308 301.454 122.596 302.658 122.596 304.366C122.596 306.074 121.308 307.278 119.516 307.278C117.738 307.278 116.436 306.074 116.436 304.366C116.436 302.658 117.738 301.454 119.516 301.454ZM119.516 302.42C118.368 302.42 117.542 303.218 117.542 304.366C117.542 305.5 118.368 306.312 119.516 306.312C120.664 306.312 121.49 305.5 121.49 304.366C121.49 303.218 120.664 302.42 119.516 302.42ZM118.914 297.59H120.076V299.886H118.914V297.59ZM133.969 301.958H136.391V302.924H133.969V301.958ZM131.603 298.626H132.513V301.034C132.513 303.68 131.407 306.242 129.559 307.376L128.831 306.494C130.567 305.472 131.603 303.204 131.603 301.034V298.626ZM131.827 298.626H132.723V300.992C132.723 303.022 133.675 305.178 135.341 306.186L134.669 307.096C132.849 305.976 131.827 303.456 131.827 300.992V298.626ZM138.617 297.436H139.737V310.092H138.617V297.436ZM136.055 297.702H137.147V309.462H136.055V297.702ZM144.964 303.946H146.112V307.74H144.964V303.946ZM149.64 303.946H150.802V307.74H149.64V303.946ZM142.164 307.516H153.63V308.482H142.164V307.516ZM147.876 298.234C150.55 298.234 152.468 299.508 152.468 301.496C152.468 303.47 150.55 304.744 147.876 304.744C145.188 304.744 143.27 303.47 143.27 301.496C143.27 299.508 145.188 298.234 147.876 298.234ZM147.876 299.158C145.846 299.158 144.39 300.082 144.39 301.496C144.39 302.896 145.846 303.82 147.876 303.82C149.906 303.82 151.348 302.896 151.348 301.496C151.348 300.082 149.906 299.158 147.876 299.158ZM156.127 309.084C155.884 309.084 155.679 309 155.511 308.832C155.343 308.664 155.259 308.459 155.259 308.216C155.259 307.973 155.343 307.768 155.511 307.6C155.679 307.432 155.884 307.348 156.127 307.348C156.36 307.348 156.556 307.432 156.715 307.6C156.883 307.768 156.967 307.973 156.967 308.216C156.967 308.459 156.883 308.664 156.715 308.832C156.556 309 156.36 309.084 156.127 309.084Z" fill="#CCCCCC"/>
<g style="mix-blend-mode:multiply" opacity="0.9">
<path d="M1 -12H391V111H1V-12Z" fill="#333333"/>
</g>
<g style="mix-blend-mode:multiply" opacity="0.9">
<path d="M1 232H391V844H1V232Z" fill="#333333"/>
</g>
<path d="M46.6813 278.46H54.8813C54.8813 283.56 52.5413 288.18 46.7413 291.08L45.8413 289.8C50.4213 287.5 52.8813 284.06 53.2613 279.82H46.6813V278.46ZM62.4013 283.82V285.18H59.5213V294.48H57.8813V276.54H59.5213V283.82H62.4013ZM74.3547 285.22L73.5747 286.5C71.5347 285.84 69.9947 284.42 69.2347 282.64C68.4747 284.68 66.8547 286.28 64.7147 287.04L63.8747 285.74C66.5747 284.8 68.3747 282.48 68.3747 279.9V279.2H64.3547V277.88H73.9747V279.2H70.0147V279.9C70.0147 282.24 71.7147 284.34 74.3547 285.22ZM72.1747 293.16C74.8147 293.16 76.4347 292.42 76.4347 291.14C76.4347 289.88 74.8147 289.14 72.1747 289.14C69.4947 289.14 67.8947 289.88 67.8947 291.14C67.8947 292.42 69.4947 293.16 72.1747 293.16ZM72.1747 287.84C75.8147 287.84 78.0747 289.06 78.0747 291.14C78.0747 293.24 75.8147 294.46 72.1747 294.46C68.4947 294.46 66.2547 293.24 66.2547 291.14C66.2547 289.06 68.4947 287.84 72.1747 287.84ZM77.8747 281.08H80.5347V282.46H77.8747V287.38H76.2347V276.56H77.8747V281.08ZM94.7161 285.12V279.42H89.7561V285.12H94.7161ZM96.3161 282.88V286.44H88.1361V278.12H96.3161V281.54H100.436V276.56H102.096V289.64H100.436V282.88H96.3161ZM92.2761 292.74H102.596V294.08H90.6161V288.44H92.2761V292.74ZM111.75 279.72V281.8C111.75 284.78 113.85 288.04 116.45 289.28L115.47 290.56C113.47 289.54 111.75 287.4 110.93 284.92C110.15 287.56 108.41 289.86 106.37 290.94L105.41 289.64C107.97 288.38 110.11 284.98 110.11 281.8V279.72H106.05V278.38H115.83V279.72H111.75ZM118.69 276.54H120.33V294.5H118.69V284.4H114.81V283.06H118.69V276.54ZM139.271 284.98L138.411 286.26C136.471 285.54 134.931 284.06 134.131 282.22C133.391 284.32 131.791 285.96 129.691 286.76L128.831 285.46C131.551 284.48 133.291 282.04 133.291 279.3V277.46H134.931V279.44C134.931 281.86 136.691 284.1 139.271 284.98ZM137.131 293.18C139.771 293.18 141.391 292.44 141.391 291.2C141.391 289.94 139.771 289.2 137.131 289.2C134.471 289.2 132.851 289.94 132.851 291.2C132.851 292.44 134.471 293.18 137.131 293.18ZM137.131 287.92C140.771 287.92 143.031 289.1 143.031 291.2C143.031 293.28 140.771 294.46 137.131 294.46C133.471 294.46 131.211 293.28 131.211 291.2C131.211 289.1 133.471 287.92 137.131 287.92ZM142.831 281.18H145.491V282.54H142.831V287.42H141.191V276.56H142.831V281.18ZM157.464 282.2V278.44H153.004V282.2H157.464ZM151.364 282.2V278.44H148.664V277.12H161.824V278.44H159.104V282.2H161.744V283.52H148.724V282.2H151.364ZM159.784 292.92V289.94H150.744V292.92H159.784ZM163.364 286.54H156.084V288.64H161.384V294.24H149.144V288.64H154.444V286.54H147.144V285.22H163.364V286.54ZM176.526 278.1V281.32C176.526 284.48 178.566 287.74 181.086 289L180.066 290.3C178.166 289.28 176.546 287.18 175.726 284.72C174.946 287.34 173.286 289.58 171.266 290.66L170.286 289.34C172.866 288.02 174.906 284.58 174.906 281.32V278.1H176.526ZM187.266 283.82V285.18H184.306V294.48H182.666V276.56H184.306V283.82H187.266ZM203.459 276.56V289.68H201.819V276.56H203.459ZM199.699 285.82L198.899 287.12C196.839 286.4 195.199 284.92 194.379 283.04C193.619 285.08 191.959 286.7 189.839 287.46L188.979 286.18C191.699 285.24 193.519 282.9 193.519 280.34V279.36H189.419V278.04H199.259V279.36H195.199V280.34C195.199 282.76 197.059 284.94 199.699 285.82ZM193.559 292.74H203.999V294.08H191.919V288.44H193.559V292.74ZM215.073 278.08C212.133 278.08 210.453 278.76 210.453 279.96C210.453 281.16 212.133 281.84 215.073 281.84C218.013 281.84 219.693 281.16 219.693 279.96C219.693 278.76 218.013 278.08 215.073 278.08ZM215.073 283.06C211.133 283.06 208.773 281.98 208.773 279.96C208.773 277.94 211.133 276.84 215.073 276.84C219.013 276.84 221.373 277.94 221.373 279.96C221.373 281.98 219.013 283.06 215.073 283.06ZM210.573 291.18V293H221.653V294.28H208.973V289.98H219.493V288.38H208.913V287.14H221.113V291.18H210.573ZM206.953 284.28H223.193V285.6H206.953V284.28ZM244.674 282.04V283.36H232.374V277.26H244.554V278.58H234.014V282.04H244.674ZM238.434 293.18C241.234 293.18 242.914 292.48 242.914 291.22C242.914 289.96 241.254 289.26 238.434 289.26C235.614 289.26 233.954 289.96 233.954 291.22C233.954 292.48 235.614 293.18 238.434 293.18ZM238.434 287.98C242.254 287.98 244.574 289.14 244.574 291.22C244.574 293.3 242.254 294.46 238.434 294.46C234.614 294.46 232.294 293.3 232.294 291.22C232.294 289.14 234.614 287.98 238.434 287.98ZM230.334 285.08H246.574V286.44H230.334V285.08ZM250.368 290.46V289.12H262.848V294.32H261.208V290.46H250.368ZM257.528 286.4H264.828V287.74H248.548V286.4H255.868V284.52H250.648V280.14H261.128V278.28H250.608V277H262.748V281.36H252.268V283.24H263.128V284.52H257.528V286.4ZM271.241 288.96C272.621 288.96 273.621 287.82 273.621 286.22C273.621 284.66 272.621 283.52 271.241 283.52C269.841 283.52 268.861 284.66 268.861 286.22C268.861 287.82 269.841 288.96 271.241 288.96ZM271.241 282.14C273.461 282.14 275.081 283.82 275.081 286.22C275.081 288.66 273.461 290.32 271.241 290.32C269.021 290.32 267.401 288.66 267.401 286.22C267.401 283.82 269.021 282.14 271.241 282.14ZM272.041 277.06V279.6H275.681V280.94H266.781V279.6H270.421V277.06H272.041ZM280.421 276.52H282.001V294.46H280.421V285.44H278.121V293.6H276.581V276.94H278.121V284.1H280.421V276.52ZM286.634 285.26L286.014 283.96C289.134 283.5 292.234 281.44 292.234 279.08V278.98H286.574V277.66H299.674V278.98H294.054V279.08C294.054 281.44 297.154 283.5 300.314 283.96L299.674 285.26C296.894 284.78 294.234 283.28 293.154 281.16C292.054 283.28 289.414 284.78 286.634 285.26ZM301.254 286.76L301.274 288.1H293.934V294.48H292.294V288.1H285.054V286.76H301.254ZM308.588 278.24V281.6C308.588 284.48 309.928 287.52 312.288 288.96L311.348 290.24C309.648 289.2 308.448 287.3 307.808 285.12C307.168 287.5 305.868 289.52 304.088 290.62L303.068 289.4C305.528 287.96 307.008 284.74 307.008 281.66V278.24H308.588ZM313.308 282.98V276.94H314.848V293.6H313.308V284.34H310.348V282.98H313.308ZM316.948 276.54H318.508V294.48H316.948V276.54ZM327.121 286.6V290.82H332.121V286.6C331.361 286.78 330.501 286.88 329.601 286.88C328.721 286.88 327.861 286.78 327.121 286.6ZM329.601 278.96C326.721 278.96 324.661 280.28 324.661 282.28C324.661 284.28 326.721 285.6 329.601 285.6C332.481 285.6 334.561 284.28 334.561 282.28C334.561 280.28 332.481 278.96 329.601 278.96ZM333.761 290.82H337.781V292.18H321.481V290.82H325.481V285.98C323.981 285.2 323.081 283.9 323.081 282.28C323.081 279.48 325.801 277.68 329.601 277.68C333.421 277.68 336.121 279.48 336.121 282.28C336.121 283.9 335.241 285.18 333.761 285.96V290.82ZM341.501 293.135C341.113 293.135 340.779 292.998 340.5 292.723C340.221 292.444 340.081 292.107 340.081 291.714C340.081 291.326 340.221 290.995 340.5 290.72C340.779 290.441 341.113 290.301 341.501 290.301C341.89 290.301 342.223 290.441 342.503 290.72C342.782 290.995 342.922 291.326 342.922 291.714C342.922 291.975 342.856 292.214 342.723 292.432C342.595 292.645 342.425 292.815 342.212 292.943C341.999 293.071 341.762 293.135 341.501 293.135ZM38.1606 314.1V317.32C38.1606 320.48 40.2006 323.74 42.7206 325L41.7006 326.3C39.8006 325.28 38.1806 323.18 37.3606 320.72C36.5806 323.34 34.9206 325.58 32.9006 326.66L31.9206 325.34C34.5006 324.02 36.5406 320.58 36.5406 317.32V314.1H38.1606ZM48.9006 319.82V321.18H45.9406V330.48H44.3006V312.56H45.9406V319.82H48.9006ZM65.0941 312.56V325.68H63.4541V312.56H65.0941ZM61.3341 321.82L60.5341 323.12C58.4741 322.4 56.8341 320.92 56.0141 319.04C55.2541 321.08 53.5941 322.7 51.4741 323.46L50.6141 322.18C53.3341 321.24 55.1541 318.9 55.1541 316.34V315.36H51.0541V314.04H60.8941V315.36H56.8341V316.34C56.8341 318.76 58.6941 320.94 61.3341 321.82ZM55.1941 328.74H65.6341V330.08H53.5541V324.44H55.1941V328.74ZM76.7075 314.48C73.8875 314.48 72.0875 315.32 72.0875 316.74C72.0875 318.16 73.8875 318.98 76.7075 318.98C79.5275 318.98 81.3275 318.16 81.3275 316.74C81.3275 315.32 79.5275 314.48 76.7075 314.48ZM76.7075 320.3C72.8675 320.3 70.4075 318.98 70.4075 316.74C70.4075 314.5 72.8675 313.16 76.7075 313.16C80.5475 313.16 83.0075 314.5 83.0075 316.74C83.0075 318.98 80.5475 320.3 76.7075 320.3ZM72.3275 324.88V328.74H83.0275V330.08H70.6875V324.88H72.3275ZM68.5875 321.98H84.8075V323.3H68.5875V321.98ZM93.3689 322.62L92.6089 321.34C95.2489 320.54 97.0689 318.56 97.1089 316.2H93.0289V314.88H97.1089V312.66H98.7489V314.88H102.889V316.2H98.7489C98.7889 318.48 100.669 320.38 103.289 321.16L102.529 322.42C100.409 321.78 98.7689 320.42 97.9489 318.64C97.1689 320.52 95.5089 321.94 93.3689 322.62ZM98.7489 322.02V325.28C100.429 325.18 102.169 325.06 103.769 324.8L103.909 326.02C99.8889 326.76 95.4889 326.78 92.2889 326.8L92.0689 325.42C93.5489 325.42 95.2889 325.42 97.1089 325.36V322.02H98.7489ZM104.949 312.54H106.589V330.5H104.949V312.54ZM112.462 316.06V324.7C114.862 324.68 116.562 324.58 118.522 324.16L118.662 325.52C116.522 325.98 114.702 326.06 112.022 326.06H110.842V314.72H117.522V316.06H112.462ZM123.862 312.54H125.442V330.48H123.862V321.08H121.322V329.58H119.782V312.94H121.322V319.74H123.862V312.54ZM139.421 314.455V329H137.22V316.656H137.134L133.654 318.929V316.827L137.284 314.455H139.421ZM148.255 329.241C147.133 329.237 146.174 328.941 145.379 328.354C144.583 327.767 143.975 326.912 143.553 325.79C143.132 324.668 142.921 323.316 142.921 321.734C142.921 320.158 143.132 318.811 143.553 317.693C143.979 316.576 144.59 315.723 145.386 315.136C146.186 314.549 147.142 314.256 148.255 314.256C149.368 314.256 150.322 314.552 151.117 315.143C151.913 315.731 152.521 316.583 152.942 317.7C153.369 318.813 153.582 320.158 153.582 321.734C153.582 323.321 153.371 324.675 152.95 325.797C152.528 326.914 151.92 327.769 151.124 328.361C150.329 328.948 149.372 329.241 148.255 329.241ZM148.255 327.345C149.24 327.345 150.009 326.865 150.563 325.903C151.122 324.942 151.401 323.553 151.401 321.734C151.401 320.527 151.273 319.507 151.018 318.673C150.767 317.835 150.405 317.201 149.931 316.77C149.462 316.334 148.904 316.116 148.255 316.116C147.275 316.116 146.505 316.599 145.947 317.565C145.388 318.531 145.106 319.921 145.102 321.734C145.102 322.946 145.227 323.972 145.478 324.81C145.734 325.643 146.096 326.275 146.565 326.706C147.033 327.132 147.597 327.345 148.255 327.345ZM165.997 321.22L165.217 322.5C163.177 321.84 161.637 320.42 160.877 318.64C160.117 320.68 158.497 322.28 156.357 323.04L155.517 321.74C158.217 320.8 160.017 318.48 160.017 315.9V315.2H155.997V313.88H165.617V315.2H161.657V315.9C161.657 318.24 163.357 320.34 165.997 321.22ZM163.817 329.16C166.457 329.16 168.077 328.42 168.077 327.14C168.077 325.88 166.457 325.14 163.817 325.14C161.137 325.14 159.537 325.88 159.537 327.14C159.537 328.42 161.137 329.16 163.817 329.16ZM163.817 323.84C167.457 323.84 169.717 325.06 169.717 327.14C169.717 329.24 167.457 330.46 163.817 330.46C160.137 330.46 157.897 329.24 157.897 327.14C157.897 325.06 160.137 323.84 163.817 323.84ZM169.517 317.08H172.177V318.46H169.517V323.38H167.877V312.56H169.517V317.08ZM174.35 314.48H179.21C179.21 318.8 178.31 323 175.05 326.44L173.77 325.52C176.43 322.76 177.47 319.44 177.65 315.84H174.35V314.48ZM179.81 314.48H184.11C184.11 318.8 183.49 323.74 180.19 327.64L178.87 326.74C181.63 323.56 182.43 319.64 182.57 315.84H179.81V314.48ZM190.59 319.94V321.3H187.93V330.48H186.29V312.54H187.93V319.94H190.59ZM198.464 315.74V318.02C198.464 321.06 200.624 324.16 203.264 325.28L202.344 326.6C200.264 325.64 198.504 323.58 197.644 321.12C196.824 323.74 195.064 326 193.024 327.04L192.064 325.72C194.644 324.5 196.824 321.12 196.824 318.02V315.74H192.664V314.38H202.684V315.74H198.464ZM205.104 312.56H206.744V330.48H205.104V312.56ZM228.545 325.96V318.12H224.625V316.76H228.545V312.56H230.205V325.96H228.545ZM225.905 321.72L225.045 322.98C223.065 322.2 221.525 320.66 220.765 318.72C220.005 320.86 218.405 322.56 216.305 323.4L215.445 322.1C218.125 321.12 219.925 318.58 219.925 315.84V313.62H221.565V315.9C221.565 318.4 223.325 320.76 225.905 321.72ZM220.305 328.74H230.625V330.08H218.665V324.48H220.305V328.74ZM242.059 320.66L242.219 321.98C240.159 322.4 238.459 322.48 235.579 322.48H234.439V313.86H241.359V315.18H236.019V317.44H241.159V318.7H236.019V321.14C238.579 321.14 240.179 321.04 242.059 320.66ZM236.739 325.68V324.36H248.799V330.48H247.159V325.68H236.739ZM247.219 312.56H248.799V323.42H247.219V318.56H244.819V323.3H243.259V312.88H244.819V317.22H247.219V312.56ZM262.532 314.18V315.44H251.952V314.18H256.412V312.36H258.052V314.18H262.532ZM254.512 319.18C254.512 320.24 255.572 320.9 257.232 320.9C258.892 320.9 259.972 320.24 259.972 319.18C259.972 318.1 258.892 317.46 257.232 317.46C255.572 317.46 254.512 318.1 254.512 319.18ZM261.532 319.18C261.532 321 259.832 322.12 257.232 322.12C254.652 322.12 252.952 321 252.952 319.18C252.952 317.36 254.652 316.24 257.232 316.24C259.832 316.24 261.532 317.36 261.532 319.18ZM256.072 327.3V329.02H266.472V330.28H254.472V326.1H264.192V324.54H254.412V323.32H265.812V327.3H256.072ZM265.812 316.8H268.472V318.16H265.812V322.4H264.172V312.48H265.812V316.8ZM290.694 319.38L290.014 320.7C287.234 320.22 284.534 318.66 283.374 316.5C282.254 318.68 279.554 320.22 276.754 320.7L276.094 319.38C279.354 318.9 282.514 316.74 282.514 314.18V313.18H284.234V314.18C284.234 316.68 287.434 318.9 290.694 319.38ZM291.474 322.64L291.494 324H284.154V330.5H282.514V324H275.274V322.64H291.474ZM313.335 312.56V322.8H311.695V312.56H313.335ZM303.695 314.96C301.915 314.96 300.635 316.14 300.635 317.78C300.635 319.44 301.915 320.6 303.695 320.6C305.475 320.6 306.795 319.44 306.795 317.78C306.795 316.14 305.475 314.96 303.695 314.96ZM303.695 321.96C300.995 321.96 299.035 320.26 299.035 317.78C299.035 315.3 300.995 313.6 303.695 313.6C306.415 313.6 308.395 315.3 308.395 317.78C308.395 320.26 306.415 321.96 303.695 321.96ZM311.335 323.58V324.54C311.335 326.4 312.655 328.24 314.935 329L314.115 330.24C312.355 329.6 311.115 328.36 310.515 326.86C309.955 328.32 308.855 329.68 307.195 330.4C305.475 329.72 304.395 328.42 303.855 326.92C303.215 328.36 301.995 329.6 300.315 330.24L299.495 329C301.755 328.2 303.095 326.26 303.095 324.54V323.58H304.675V324.54C304.675 326.12 305.495 327.82 307.155 328.8C308.875 327.74 309.735 325.94 309.735 324.54V323.58H311.335ZM321.648 324.98C323.348 324.98 324.548 323.1 324.548 320.18C324.548 317.28 323.348 315.4 321.648 315.4C319.928 315.4 318.728 317.28 318.728 320.18C318.728 323.1 319.928 324.98 321.648 324.98ZM329.988 312.54H331.628V330.52H329.988V320.72H326.088C325.928 324.24 324.148 326.44 321.648 326.44C319.028 326.44 317.168 324 317.168 320.18C317.168 316.36 319.028 313.92 321.648 313.92C324.068 313.92 325.828 316.02 326.088 319.38H329.988V312.54ZM340.702 322.6V326.82H345.702V322.6C344.942 322.78 344.082 322.88 343.182 322.88C342.302 322.88 341.442 322.78 340.702 322.6ZM343.182 314.96C340.302 314.96 338.242 316.28 338.242 318.28C338.242 320.28 340.302 321.6 343.182 321.6C346.062 321.6 348.142 320.28 348.142 318.28C348.142 316.28 346.062 314.96 343.182 314.96ZM347.342 326.82H351.362V328.18H335.062V326.82H339.062V321.98C337.562 321.2 336.662 319.9 336.662 318.28C336.662 315.48 339.382 313.68 343.182 313.68C347.002 313.68 349.702 315.48 349.702 318.28C349.702 319.9 348.822 321.18 347.342 321.96V326.82ZM355.082 329.135C354.694 329.135 354.36 328.998 354.081 328.723C353.801 328.444 353.662 328.107 353.662 327.714C353.662 327.326 353.801 326.995 354.081 326.72C354.36 326.441 354.694 326.301 355.082 326.301C355.47 326.301 355.804 326.441 356.083 326.72C356.363 326.995 356.502 327.326 356.502 327.714C356.502 327.975 356.436 328.214 356.304 328.432C356.176 328.645 356.005 328.815 355.792 328.943C355.579 329.071 355.342 329.135 355.082 329.135Z" fill="white"/>
<path d="M132.279 49.288L130.537 51.914C127.885 51.082 126.065 49.366 124.973 47.234C123.907 49.574 121.983 51.446 119.201 52.356L117.459 49.678C121.359 48.43 123.127 45.388 123.179 42.424H118.369V39.72H131.395V42.424H126.663C126.715 45.232 128.483 48.04 132.279 49.288ZM120.943 56.516V53.786H137.245V62.262H133.787V56.516H120.943ZM133.787 38.29H137.245V52.72H133.787V38.29ZM155.703 48.69L154.039 51.368C151.413 50.51 149.619 48.794 148.605 46.662C147.539 49.002 145.667 50.9 142.885 51.836L141.143 49.132C144.861 47.884 146.603 44.998 146.759 42.112H142.079V39.382H154.949V42.112H150.321C150.477 44.764 152.141 47.494 155.703 48.69ZM157.887 59.22V57.166H148.813V59.22H157.887ZM157.887 54.54V52.356H161.293V61.95H145.433V52.356H148.813V54.54H157.887ZM157.861 38.29H161.293V51.394H157.861V46.428H154.247V43.646H157.861V38.29ZM190.423 44.868V47.572H173.861V38.94H190.293V41.67H177.267V44.868H190.423ZM181.973 59.636C185.171 59.636 186.809 59.09 186.809 57.842C186.809 56.594 185.171 56.022 181.973 56.022C178.775 56.022 177.137 56.594 177.137 57.842C177.137 59.09 178.775 59.636 181.973 59.636ZM181.973 53.422C187.147 53.422 190.293 55.008 190.293 57.842C190.293 60.65 187.147 62.236 181.973 62.236C176.799 62.236 173.679 60.65 173.679 57.842C173.679 55.008 176.799 53.422 181.973 53.422ZM171.235 49.236H192.893V52.044H171.235V49.236ZM197.519 57.894V55.19H214.315V62.158H210.883V57.894H197.519ZM207.685 51.108H216.811V53.838H195.127V51.108H204.253V49.392H197.831V42.814H210.779V41.358H197.779V38.758H214.159V45.232H201.211V46.792H214.653V49.392H207.685V51.108ZM225.961 54.54C227.573 54.54 228.743 53.448 228.743 51.602C228.743 49.808 227.573 48.69 225.961 48.69C224.349 48.69 223.153 49.808 223.153 51.628C223.153 53.448 224.349 54.54 225.961 54.54ZM225.961 45.908C229.419 45.908 231.993 48.274 231.993 51.602C231.993 54.982 229.419 57.348 225.961 57.348C222.477 57.348 219.877 54.982 219.877 51.602C219.877 48.274 222.477 45.908 225.961 45.908ZM227.651 38.706V41.826H232.851V44.556H218.915V41.826H224.219V38.706H227.651ZM241.275 47.65V50.484H237.843V62.236H234.411V38.29H237.843V47.65H241.275ZM244.289 40.76H255.781C255.781 48.092 253.311 54.072 244.809 58.18L243.015 55.476C249.125 52.538 251.777 48.794 252.271 43.49H244.289V40.76ZM259.447 38.264H262.905V62.21H259.447V38.264Z" fill="white"/>
</g>
<defs>
<filter id="filter0_d_71_412" x="-3" y="15" width="398" height="72" filterUnits="userSpaceOnUse" color-interpolation-filters="sRGB">
<feFlood flood-opacity="0" result="BackgroundImageFix"/>
<feColorMatrix in="SourceAlpha" type="matrix" values="0 0 0 0 0 0 0 0 0 0 0 0 0 0 0 0 0 0 127 0" result="hardAlpha"/>
<feOffset dy="4"/>
<feGaussianBlur stdDeviation="2"/>
<feComposite in2="hardAlpha" operator="out"/>
<feColorMatrix type="matrix" values="0 0 0 0 0 0 0 0 0 0 0 0 0 0 0 0 0 0 0.08 0"/>
<feBlend mode="normal" in2="BackgroundImageFix" result="effect1_dropShadow_71_412"/>
<feBlend mode="normal" in="SourceGraphic" in2="effect1_dropShadow_71_412" result="shape"/>
</filter>
<clipPath id="clip0_71_412">
<rect width="390" height="844" fill="white"/>
</clipPath>
</defs>
</svg>
