<svg width="390" height="844" viewBox="0 0 390 844" fill="none" xmlns="http://www.w3.org/2000/svg">
<g clip-path="url(#clip0_62_238)">
<rect width="390" height="844" fill="white"/>
<g filter="url(#filter0_d_62_238)">
<rect x="47" y="298" width="136" height="248" rx="20" fill="white"/>
<rect x="48.5" y="299.5" width="133" height="245" rx="18.5" stroke="#BCC6BF" stroke-width="3"/>
</g>
<path fill-rule="evenodd" clip-rule="evenodd" d="M95.75 366.083C93.562 366.083 91.4635 366.847 89.9164 368.207C88.3692 369.566 87.5 371.41 87.5 373.333V392.667C87.5 394.589 88.3692 396.433 89.9164 397.793C91.4635 399.153 93.562 399.917 95.75 399.917H123.25C125.438 399.917 127.536 399.153 129.084 397.793C130.631 396.433 131.5 394.589 131.5 392.667V388.834L137.806 394.375C138.19 394.713 138.68 394.943 139.214 395.036C139.747 395.13 140.3 395.082 140.802 394.899C141.305 394.716 141.734 394.406 142.036 394.009C142.339 393.612 142.5 393.144 142.5 392.667V373.333C142.5 372.855 142.339 372.388 142.036 371.991C141.734 371.594 141.305 371.284 140.802 371.101C140.3 370.918 139.747 370.87 139.214 370.964C138.68 371.057 138.19 371.287 137.806 371.625L131.5 377.166V373.333C131.5 371.41 130.631 369.566 129.084 368.207C127.536 366.847 125.438 366.083 123.25 366.083H95.75Z" fill="#333333"/>
<g filter="url(#filter1_d_62_238)">
<rect x="207" y="298" width="136" height="248" rx="20" fill="white"/>
<rect x="208.5" y="299.5" width="133" height="245" rx="18.5" stroke="#BCC6BF" stroke-width="3"/>
</g>
<path d="M268.316 401.625L290 379.167L279.701 368.5L258.017 390.958C257.718 391.268 257.506 391.655 257.403 392.08L255 404.75L267.231 402.261C267.642 402.155 268.018 401.935 268.316 401.625ZM297 371.917C297.875 371.011 298.366 369.782 298.366 368.5C298.366 367.218 297.875 365.989 297 365.083L293.299 361.25C292.424 360.344 291.237 359.835 290 359.835C288.763 359.835 287.576 360.344 286.701 361.25L283 365.083L293.299 375.75L297 371.917Z" fill="#333333"/>
<g filter="url(#filter2_d_62_238)">
<rect x="1" y="15" width="390" height="64" fill="white"/>
</g>
<path d="M64.0139 39.978H65.2559V41.634C65.2559 44.766 63.4919 47.358 60.7739 48.42L59.9819 47.214C62.4299 46.314 64.0139 44.118 64.0139 41.634V39.978ZM64.2839 39.978H65.5079V41.742C65.5079 43.938 67.1279 45.972 69.4679 46.782L68.6759 47.952C66.0659 46.98 64.2839 44.568 64.2839 41.742V39.978ZM71.1959 39.132H72.6899V48.996H71.1959V39.132ZM72.2759 43.326H75.1019V44.586H72.2759V43.326ZM67.5059 49.446C70.8359 49.446 72.8519 50.544 72.8519 52.416C72.8519 54.288 70.8359 55.368 67.5059 55.368C64.1759 55.368 62.1599 54.288 62.1599 52.416C62.1599 50.544 64.1759 49.446 67.5059 49.446ZM67.5059 50.634C65.0939 50.634 63.6179 51.282 63.6179 52.416C63.6179 53.55 65.0939 54.198 67.5059 54.198C69.9179 54.198 71.3939 53.55 71.3939 52.416C71.3939 51.282 69.9179 50.634 67.5059 50.634ZM83.2365 47.772H84.7125V50.58H83.2365V47.772ZM76.6125 46.98H91.3185V48.204H76.6125V46.98ZM77.9805 39.636H89.9325V40.86H77.9805V39.636ZM78.0525 44.262H89.8605V45.486H78.0525V44.262ZM80.4465 40.176H81.9405V45.054H80.4465V40.176ZM85.9905 40.176H87.4665V45.054H85.9905V40.176ZM78.4125 50.094H89.5185V55.188H78.4125V50.094ZM88.0605 51.282H79.8885V53.982H88.0605V51.282ZM98.2516 46.872H112.958V48.114H98.2516V46.872ZM100.106 44.118H111.248V45.324H100.106V44.118ZM100.106 39.78H111.122V41.004H101.582V44.694H100.106V39.78ZM105.578 49.518C109.052 49.518 111.158 50.58 111.158 52.452C111.158 54.324 109.052 55.368 105.578 55.368C102.104 55.368 99.9976 54.324 99.9976 52.452C99.9976 50.58 102.104 49.518 105.578 49.518ZM105.578 50.67C103.04 50.67 101.51 51.318 101.51 52.452C101.51 53.568 103.04 54.198 105.578 54.198C108.134 54.198 109.646 53.568 109.646 52.452C109.646 51.318 108.134 50.67 105.578 50.67ZM114.792 48.078H129.552V49.302H114.792V48.078ZM116.664 39.546H127.644V43.488H118.176V45.684H116.7V42.39H126.186V40.716H116.664V39.546ZM116.7 45.198H128.004V46.368H116.7V45.198ZM121.416 45.81H122.91V48.69H121.416V45.81ZM116.43 50.544H127.752V55.26H126.258V51.768H116.43V50.544ZM143.865 49.338C147.177 49.338 149.211 50.454 149.211 52.362C149.211 54.27 147.177 55.386 143.865 55.386C140.553 55.386 138.519 54.27 138.519 52.362C138.519 50.454 140.553 49.338 143.865 49.338ZM143.865 50.544C141.453 50.544 139.977 51.21 139.977 52.362C139.977 53.532 141.453 54.198 143.865 54.198C146.277 54.198 147.753 53.532 147.753 52.362C147.753 51.21 146.277 50.544 143.865 50.544ZM147.555 39.132H149.049V48.906H147.555V39.132ZM148.635 43.218H151.461V44.478H148.635V43.218ZM137.097 40.158H138.573V42.588H143.163V40.158H144.621V47.664H137.097V40.158ZM138.573 43.776V46.458H143.163V43.776H138.573ZM153.782 39.96H155.258V42.462H159.668V39.96H161.126V47.412H153.782V39.96ZM155.258 43.632V46.188H159.668V43.632H155.258ZM160.712 43.128H165.32V44.352H160.712V43.128ZM164.87 39.132H166.364V48.024H164.87V39.132ZM155.942 48.816H157.418V50.778H164.888V48.816H166.364V55.188H155.942V48.816ZM157.418 51.966V53.964H164.888V51.966H157.418ZM182.945 42.966H187.049V44.208H182.945V42.966ZM178.679 40.122H179.885V42.12C179.885 45.27 178.121 47.898 175.403 48.996L174.629 47.808C177.041 46.908 178.679 44.604 178.679 42.12V40.122ZM178.967 40.122H180.173V42.174C180.173 44.442 181.757 46.584 184.115 47.448L183.305 48.6C180.713 47.592 178.967 45.072 178.967 42.174V40.122ZM186.491 39.15H187.985V51.318H186.491V39.15ZM177.527 53.82H188.381V55.044H177.527V53.82ZM177.527 49.968H179.021V54.396H177.527V49.968ZM191.854 46.908H192.898C195.454 46.908 196.966 46.854 198.784 46.494L198.928 47.718C197.056 48.078 195.508 48.15 192.898 48.15H191.854V46.908ZM191.854 40.32H198.154V41.544H193.294V47.574H191.854V40.32ZM192.844 43.56H197.956V44.73H192.844V43.56ZM203.446 39.132H204.868V48.996H203.446V39.132ZM200.818 43.38H203.896V44.604H200.818V43.38ZM199.864 39.438H201.268V48.906H199.864V39.438ZM193.96 49.86H204.868V55.404H203.392V51.084H193.96V49.86Z" fill="black"/>
<circle cx="33" cy="47" r="21.5" fill="white" stroke="#F1F1F5"/>
<path d="M35.75 40.5833C35.6293 40.5826 35.5097 40.6057 35.3981 40.6513C35.2864 40.697 35.1848 40.7642 35.0991 40.8491L29.5991 46.3491C29.4284 46.5209 29.3326 46.7532 29.3326 46.9954C29.3326 47.2376 29.4284 47.4699 29.5991 47.6416L35.0991 53.1416C35.2745 53.2918 35.5001 53.3703 35.7308 53.3614C35.9615 53.3525 36.1803 53.2568 36.3436 53.0936C36.5068 52.9303 36.6025 52.7115 36.6114 52.4808C36.6203 52.2501 36.5418 52.0245 36.3916 51.8491L31.5425 47L36.3916 42.1508C36.5204 42.0231 36.6083 41.8602 36.6444 41.6825C36.6805 41.5049 36.6632 41.3205 36.5945 41.1527C36.5258 40.9849 36.4089 40.8413 36.2586 40.7399C36.1083 40.6386 35.9313 40.5841 35.75 40.5833Z" fill="#06161C"/>
<path d="M78.5808 434.97H91.1508V436.56H78.5808V434.97ZM83.8758 432.885H85.8558V435.585H83.8758V432.885ZM80.0958 432.255H89.7258V433.83H80.0958V432.255ZM80.0958 429.045H89.6508V430.605H82.0758V433.26H80.0958V429.045ZM84.8208 437.25C87.8208 437.25 89.6358 438.165 89.6358 439.8C89.6358 441.435 87.8208 442.35 84.8208 442.35C81.8208 442.35 79.9908 441.435 79.9908 439.8C79.9908 438.165 81.8208 437.25 84.8208 437.25ZM84.8208 438.75C82.9608 438.75 82.0158 439.095 82.0158 439.8C82.0158 440.52 82.9608 440.835 84.8208 440.835C86.6808 440.835 87.6258 440.52 87.6258 439.8C87.6258 439.095 86.6808 438.75 84.8208 438.75ZM98.8146 430.26H102.925V431.85H98.8146V430.26ZM98.8146 433.335H102.925V434.94H98.8146V433.335ZM96.5046 429.18C98.5746 429.18 100.165 430.62 100.165 432.585C100.165 434.55 98.5746 435.99 96.5046 435.99C94.4196 435.99 92.8296 434.55 92.8296 432.585C92.8296 430.62 94.4196 429.18 96.5046 429.18ZM96.5046 430.875C95.4846 430.875 94.7346 431.49 94.7346 432.585C94.7346 433.665 95.4846 434.31 96.5046 434.31C97.5246 434.31 98.2746 433.665 98.2746 432.585C98.2746 431.49 97.5246 430.875 96.5046 430.875ZM102.295 428.445H104.29V436.575H102.295V428.445ZM99.5796 436.86C102.505 436.86 104.335 437.88 104.335 439.605C104.335 441.33 102.505 442.335 99.5796 442.335C96.6546 442.335 94.8246 441.33 94.8246 439.605C94.8246 437.88 96.6546 436.86 99.5796 436.86ZM99.5796 438.405C97.7646 438.405 96.7896 438.795 96.7896 439.605C96.7896 440.415 97.7646 440.805 99.5796 440.805C101.41 440.805 102.37 440.415 102.37 439.605C102.37 438.795 101.41 438.405 99.5796 438.405ZM109.808 429.195H111.443V430.425C111.443 433.185 110.243 435.615 107.603 436.53L106.538 434.955C108.863 434.175 109.808 432.315 109.808 430.425V429.195ZM110.213 429.195H111.833V430.62C111.833 432.285 112.763 433.905 114.938 434.58L113.903 436.125C111.398 435.285 110.213 433.125 110.213 430.62V429.195ZM115.703 428.445H117.698V436.65H115.703V428.445ZM117.143 431.655H119.543V433.305H117.143V431.655ZM113.168 436.965C116.048 436.965 117.863 437.97 117.863 439.65C117.863 441.345 116.048 442.335 113.168 442.335C110.273 442.335 108.458 441.345 108.458 439.65C108.458 437.97 110.273 436.965 113.168 436.965ZM113.168 438.51C111.398 438.51 110.438 438.885 110.438 439.65C110.438 440.43 111.398 440.79 113.168 440.79C114.938 440.79 115.883 440.43 115.883 439.65C115.883 438.885 114.938 438.51 113.168 438.51ZM127.147 429.135C130.072 429.135 132.337 430.74 132.337 433.155C132.337 435.585 130.072 437.175 127.147 437.175C124.222 437.175 121.957 435.585 121.957 433.155C121.957 430.74 124.222 429.135 127.147 429.135ZM127.147 430.755C125.257 430.755 123.907 431.655 123.907 433.155C123.907 434.64 125.257 435.54 127.147 435.54C129.037 435.54 130.387 434.64 130.387 433.155C130.387 431.655 129.037 430.755 127.147 430.755ZM120.877 439.035H133.447V440.67H120.877V439.035ZM134.976 439.185H147.546V440.805H134.976V439.185ZM140.241 436.56H142.236V439.845H140.241V436.56ZM136.386 429.345H146.136V433.965H138.396V436.305H136.416V432.405H144.156V430.92H136.386V429.345ZM136.416 435.51H146.451V437.115H136.416V435.51ZM87.5673 462.79H100.137V464.41H87.5673V462.79ZM89.0823 460.255H98.7123V461.83H89.0823V460.255ZM89.0823 456.82H98.6373V458.41H91.0623V461.035H89.0823V456.82ZM93.8073 465.235C96.8073 465.235 98.6223 466.15 98.6223 467.785C98.6223 469.42 96.8073 470.335 93.8073 470.335C90.8073 470.335 88.9773 469.42 88.9773 467.785C88.9773 466.15 90.8073 465.235 93.8073 465.235ZM93.8073 466.735C91.9473 466.735 91.0023 467.08 91.0023 467.785C91.0023 468.505 91.9473 468.82 93.8073 468.82C95.6673 468.82 96.6123 468.505 96.6123 467.785C96.6123 467.08 95.6673 466.735 93.8073 466.735ZM101.651 463.885H114.236V465.475H101.651V463.885ZM103.196 456.715H112.706V460.48H105.191V461.98H103.211V459.07H110.741V458.23H103.196V456.715ZM103.211 461.38H112.976V462.895H103.211V461.38ZM106.946 462.115H108.941V464.755H106.946V462.115ZM103.046 466.255H112.796V470.29H110.801V467.83H103.046V466.255ZM124.66 456.445H126.64V470.335H124.66V456.445ZM126.19 461.86H128.65V463.525H126.19V461.86ZM115.69 458.5H123.775V460.09H115.69V458.5ZM119.755 460.87C121.78 460.87 123.28 462.25 123.28 464.185C123.28 466.12 121.78 467.5 119.755 467.5C117.73 467.5 116.23 466.12 116.23 464.185C116.23 462.25 117.73 460.87 119.755 460.87ZM119.755 462.49C118.81 462.49 118.135 463.12 118.135 464.185C118.135 465.25 118.81 465.88 119.755 465.88C120.7 465.88 121.375 465.25 121.375 464.185C121.375 463.12 120.7 462.49 119.755 462.49ZM118.75 456.67H120.745V459.1H118.75V456.67ZM139.419 456.445H141.429V470.335H139.419V456.445ZM135.324 457.885H137.304C137.304 462.13 135.864 465.61 130.929 467.995L129.894 466.405C133.884 464.485 135.324 461.965 135.324 458.245V457.885ZM130.629 457.885H136.269V459.46H130.629V457.885Z" fill="black"/>
<path d="M265.526 429.87H267.176V430.74C267.176 433.365 265.901 435.735 263.231 436.59L262.211 435.045C264.521 434.295 265.526 432.48 265.526 430.74V429.87ZM265.931 429.87H267.566V430.74C267.566 432.39 268.556 434.085 270.821 434.805L269.801 436.35C267.191 435.525 265.931 433.245 265.931 430.74V429.87ZM271.691 428.445H273.701V436.815H271.691V428.445ZM264.221 437.43H273.701V442.335H271.691V439.02H264.221V437.43ZM262.736 429.255H270.296V430.83H262.736V429.255ZM283.765 431.55H286.405V433.155H283.765V431.55ZM285.88 428.445H287.875V436.035H285.88V428.445ZM278.65 436.605H280.63V437.865H285.895V436.605H287.875V442.185H278.65V436.605ZM280.63 439.41V440.595H285.895V439.41H280.63ZM279.46 429.51H281.08V430.395C281.08 433.005 279.85 435.42 277.18 436.305L276.175 434.715C278.47 433.965 279.46 432.15 279.46 430.395V429.51ZM279.88 429.51H281.485V430.395C281.485 432.015 282.43 433.74 284.62 434.475L283.645 436.02C281.065 435.165 279.88 432.87 279.88 430.395V429.51ZM276.715 429.075H284.185V430.665H276.715V429.075ZM248.067 462.79H260.637V464.41H248.067V462.79ZM249.582 460.255H259.212V461.83H249.582V460.255ZM249.582 456.82H259.137V458.41H251.562V461.035H249.582V456.82ZM254.307 465.235C257.307 465.235 259.122 466.15 259.122 467.785C259.122 469.42 257.307 470.335 254.307 470.335C251.307 470.335 249.477 469.42 249.477 467.785C249.477 466.15 251.307 465.235 254.307 465.235ZM254.307 466.735C252.447 466.735 251.502 467.08 251.502 467.785C251.502 468.505 252.447 468.82 254.307 468.82C256.167 468.82 257.112 468.505 257.112 467.785C257.112 467.08 256.167 466.735 254.307 466.735ZM262.151 463.885H274.736V465.475H262.151V463.885ZM263.696 456.715H273.206V460.48H265.691V461.98H263.711V459.07H271.241V458.23H263.696V456.715ZM263.711 461.38H273.476V462.895H263.711V461.38ZM267.446 462.115H269.441V464.755H267.446V462.115ZM263.546 466.255H273.296V470.29H271.301V467.83H263.546V466.255ZM285.16 456.445H287.14V470.335H285.16V456.445ZM286.69 461.86H289.15V463.525H286.69V461.86ZM276.19 458.5H284.275V460.09H276.19V458.5ZM280.255 460.87C282.28 460.87 283.78 462.25 283.78 464.185C283.78 466.12 282.28 467.5 280.255 467.5C278.23 467.5 276.73 466.12 276.73 464.185C276.73 462.25 278.23 460.87 280.255 460.87ZM280.255 462.49C279.31 462.49 278.635 463.12 278.635 464.185C278.635 465.25 279.31 465.88 280.255 465.88C281.2 465.88 281.875 465.25 281.875 464.185C281.875 463.12 281.2 462.49 280.255 462.49ZM279.25 456.67H281.245V459.1H279.25V456.67ZM299.919 456.445H301.929V470.335H299.919V456.445ZM295.824 457.885H297.804C297.804 462.13 296.364 465.61 291.429 467.995L290.394 466.405C294.384 464.485 295.824 461.965 295.824 458.245V457.885ZM291.129 457.885H296.769V459.46H291.129V457.885Z" fill="black"/>
<g style="mix-blend-mode:multiply" opacity="0.8">
<rect width="390" height="290" fill="#1E1E1E"/>
<path d="M54.1499 112.752L52.4939 115.2C50.1659 114.432 48.5579 112.944 47.6219 111.072C46.6619 113.232 44.9579 114.936 42.4379 115.824L40.7819 113.328C44.4779 112.104 45.9659 109.152 45.9659 106.152V104.16H49.1819V106.416C49.1819 109.08 50.6699 111.672 54.1499 112.752ZM51.2939 122.616C54.1019 122.616 55.6139 122.04 55.6139 120.792C55.6139 119.568 54.1019 118.992 51.2939 118.992C48.4619 118.992 46.9499 119.568 46.9499 120.792C46.9499 122.04 48.4619 122.616 51.2939 122.616ZM51.2939 116.544C55.8779 116.544 58.7579 118.128 58.7579 120.792C58.7579 123.48 55.8779 125.064 51.2939 125.064C46.6859 125.064 43.8059 123.48 43.8059 120.792C43.8059 118.128 46.6859 116.544 51.2939 116.544ZM58.5179 108.096H61.4459V110.712H58.5179V116.04H55.3499V102.984H58.5179V108.096ZM75.4361 109.416V106.08H70.9001V109.416H75.4361ZM67.7561 109.416V106.08H64.9481V103.56H81.3881V106.08H78.5801V109.416H81.2201V111.936H65.0921V109.416H67.7561ZM77.6681 122.328V120.096H68.6201V122.328H77.6681ZM83.1641 115.824H74.7641V117.624H80.7881V124.8H65.5241V117.624H71.5961V115.824H63.1961V113.304H83.1641V115.824ZM108.565 109.032V111.528H93.2769V103.56H108.445V106.08H96.4209V109.032H108.565ZM100.765 122.664C103.717 122.664 105.229 122.16 105.229 121.008C105.229 119.856 103.717 119.328 100.765 119.328C97.8129 119.328 96.3009 119.856 96.3009 121.008C96.3009 122.16 97.8129 122.664 100.765 122.664ZM100.765 116.928C105.541 116.928 108.445 118.392 108.445 121.008C108.445 123.6 105.541 125.064 100.765 125.064C95.9889 125.064 93.1089 123.6 93.1089 121.008C93.1089 118.392 95.9889 116.928 100.765 116.928ZM90.8529 113.064H110.845V115.656H90.8529V113.064ZM115.115 121.056V118.56H130.619V124.992H127.451V121.056H115.115ZM124.499 114.792H132.923V117.312H112.907V114.792H121.331V113.208H115.403V107.136H127.355V105.792H115.355V103.392H130.475V109.368H118.523V110.808H130.931V113.208H124.499V114.792ZM148.652 112.272V109.536H144.308V112.272H148.652ZM151.772 104.376V114.744H141.188V104.376H144.308V107.112H148.652V104.376H151.772ZM150.692 122.64C153.524 122.64 155.036 122.04 155.036 120.792C155.036 119.544 153.524 118.944 150.692 118.944C147.884 118.944 146.372 119.544 146.372 120.792C146.372 122.04 147.884 122.64 150.692 122.64ZM150.692 116.472C155.3 116.472 158.18 118.08 158.18 120.792C158.18 123.48 155.3 125.088 150.692 125.088C146.108 125.088 143.228 123.48 143.228 120.792C143.228 118.08 146.108 116.472 150.692 116.472ZM157.94 108.12H160.868V110.712H157.94V115.992H154.772V102.984H157.94V108.12ZM177.954 122.256V120.408H169.578V122.256H177.954ZM177.954 117.984V116.016H181.098V124.776H166.458V116.016H169.578V117.984H177.954ZM170.898 111.912V109.296H166.698V111.912H170.898ZM177.93 102.96H181.098V115.08H177.93V110.544H173.994V114.432H163.554V104.088H166.698V106.872H170.898V104.088H173.994V108H177.93V102.96ZM194.68 105.6C191.488 105.6 189.976 106.056 189.976 107.04C189.976 108.072 191.488 108.504 194.68 108.504C197.896 108.504 199.408 108.072 199.408 107.04C199.408 106.056 197.896 105.6 194.68 105.6ZM194.68 110.808C189.64 110.808 186.688 109.488 186.688 107.04C186.688 104.616 189.64 103.272 194.68 103.272C199.744 103.272 202.696 104.616 202.696 107.04C202.696 109.488 199.744 110.808 194.68 110.808ZM190.144 121.272V122.52H202.816V124.896H187V119.088H199.12V117.912H186.976V115.584H202.24V121.272H190.144ZM184.696 111.864H204.664V114.336H184.696V111.864ZM227.641 119.28V110.232H223.585V107.664H227.641V102.96H230.809V119.28H227.641ZM225.529 113.616L223.849 116.064C221.545 115.224 219.961 113.616 219.049 111.576C218.113 113.856 216.409 115.656 213.841 116.592L212.185 114.12C215.833 112.896 217.369 109.824 217.369 106.68V104.304H220.585V106.704C220.585 109.584 222.073 112.392 225.529 113.616ZM219.385 122.16H231.289V124.68H216.217V117.648H219.385V122.16ZM244.343 112.584L244.631 115.104C242.111 115.512 239.975 115.584 236.687 115.584H235.151V104.448H243.839V106.944H238.199V108.768H243.623V111.168H238.199V113.04C240.575 113.016 242.327 112.896 244.343 112.584ZM238.031 119.928V117.408H253.247V125.088H250.079V119.928H238.031ZM250.247 102.96H253.247V116.448H250.247V110.904H248.471V116.304H245.519V103.344H248.471V108.384H250.247V102.96ZM261.789 117.672C262.989 117.672 263.853 116.712 263.853 115.056C263.853 113.4 262.989 112.416 261.789 112.416C260.589 112.416 259.725 113.4 259.725 115.056C259.725 116.712 260.589 117.672 261.789 117.672ZM261.789 109.776C264.621 109.776 266.637 111.96 266.637 115.056C266.637 118.128 264.621 120.312 261.789 120.312C258.957 120.312 256.941 118.128 256.941 115.056C256.941 111.96 258.957 109.776 261.789 109.776ZM263.349 103.56V106.296H267.021V108.816H256.461V106.296H260.229V103.56H263.349ZM272.445 102.936H275.445V125.04H272.445V114.504H270.765V124.128H267.813V103.368H270.765V111.96H272.445V102.936ZM280.675 113.904L279.523 111.432C284.035 110.88 286.387 108.72 286.699 106.608H280.339V104.088H296.731V106.608H290.467C290.779 108.72 293.107 110.88 297.595 111.432L296.467 113.904C292.603 113.376 289.891 111.72 288.571 109.464C287.251 111.72 284.539 113.376 280.675 113.904ZM298.555 115.176V117.696H290.083V125.112H286.915V117.696H278.587V115.176H298.555ZM307.697 104.88V108.48C307.697 112.056 308.657 115.728 311.657 117.72L309.929 120.168C308.057 119.016 306.881 117.144 306.185 114.912C305.417 117.36 304.121 119.472 302.129 120.672L300.233 118.296C303.473 116.328 304.649 112.368 304.649 108.6V104.88H307.697ZM312.113 110.424V103.32H315.065V124.08H312.113V112.992H309.329V110.424H312.113ZM316.601 102.96H319.601V125.064H316.601V102.96ZM330.28 115.704V119.928H335.152V115.704C334.384 115.848 333.568 115.92 332.704 115.92C331.84 115.92 331.048 115.848 330.28 115.704ZM332.704 106.536C329.632 106.536 327.592 107.784 327.592 109.992C327.592 112.176 329.632 113.448 332.704 113.448C335.776 113.448 337.84 112.176 337.84 109.992C337.84 107.784 335.776 106.536 332.704 106.536ZM338.296 119.928H342.736V122.496H322.72V119.928H327.136V114.528C325.456 113.496 324.448 111.912 324.472 109.992C324.472 106.368 327.952 104.04 332.704 104.04C337.48 104.04 340.96 106.368 340.96 109.992C340.96 111.912 339.952 113.496 338.296 114.528V119.928ZM347.337 123.222C346.774 123.222 346.291 123.023 345.888 122.625C345.49 122.222 345.291 121.739 345.291 121.176C345.291 120.619 345.49 120.142 345.888 119.744C346.291 119.347 346.774 119.148 347.337 119.148C347.882 119.148 348.359 119.347 348.768 119.744C349.178 120.142 349.382 120.619 349.382 121.176C349.382 121.551 349.286 121.895 349.092 122.207C348.905 122.514 348.658 122.761 348.351 122.949C348.044 123.131 347.706 123.222 347.337 123.222Z" fill="white"/>
<path d="M39.2651 241.183L38.5341 242.271C36.8851 241.659 35.5761 240.401 34.8961 238.837C34.2671 240.622 32.9071 242.016 31.1221 242.696L30.3911 241.591C32.7031 240.758 34.1821 238.684 34.1821 236.355V234.791H35.5761V236.474C35.5761 238.531 37.0721 240.435 39.2651 241.183ZM37.4461 248.153C39.6901 248.153 41.0671 247.524 41.0671 246.47C41.0671 245.399 39.6901 244.77 37.4461 244.77C35.1851 244.77 33.8081 245.399 33.8081 246.47C33.8081 247.524 35.1851 248.153 37.4461 248.153ZM37.4461 243.682C40.5401 243.682 42.4611 244.685 42.4611 246.47C42.4611 248.238 40.5401 249.241 37.4461 249.241C34.3351 249.241 32.4141 248.238 32.4141 246.47C32.4141 244.685 34.3351 243.682 37.4461 243.682ZM42.2911 237.953H44.5521V239.109H42.2911V243.257H40.8971V234.026H42.2911V237.953ZM54.8698 238.82V235.624H51.0788V238.82H54.8698ZM49.6848 238.82V235.624H47.3898V234.502H58.5758V235.624H56.2638V238.82H58.5078V239.942H47.4408V238.82H49.6848ZM56.8418 247.932V245.399H49.1578V247.932H56.8418ZM59.8848 242.509H53.6968V244.294H58.2018V249.054H47.7978V244.294H52.3028V242.509H46.0978V241.387H59.8848V242.509ZM74.3785 237.97H77.3875V234.026H78.7985V243.104H77.3875V239.109H74.3785V237.97ZM75.2285 241.438L74.5315 242.526C72.8315 241.914 71.5225 240.656 70.8595 239.092C70.2135 240.86 68.8025 242.288 67.0175 242.968L66.2865 241.863C68.5645 241.03 70.1285 238.973 70.1285 236.78V236.253H66.7285V235.131H74.8715V236.253H71.5225V236.78C71.5225 238.735 73.0185 240.656 75.2285 241.438ZM73.7665 248.17C76.0615 248.17 77.4555 247.524 77.4555 246.419C77.4555 245.314 76.0615 244.651 73.7665 244.651C71.4715 244.651 70.0775 245.314 70.0775 246.419C70.0775 247.524 71.4715 248.17 73.7665 248.17ZM73.7665 243.58C76.8945 243.58 78.8495 244.617 78.8495 246.419C78.8495 248.221 76.8945 249.258 73.7665 249.258C70.6385 249.258 68.6835 248.221 68.6835 246.419C68.6835 244.617 70.6385 243.58 73.7665 243.58ZM84.8831 238.956V241.761H92.6691V238.956H84.8831ZM89.4731 246.164H95.6951V247.303H81.8741V246.164H88.0621V242.883H83.5061V235.097H84.8831V237.817H92.6691V235.097H94.0291V242.883H89.4731V246.164ZM108.189 236.678V235.437H99.2468V234.451H109.566V237.63H100.658V238.939H109.838V239.942H99.2808V236.678H108.189ZM100.573 246.64V248.051H110.093V249.054H99.1958V245.671H108.24V244.396H99.1618V243.393H109.617V246.64H100.573ZM97.5128 241.098H111.334V242.152H97.5128V241.098ZM124.553 248.17C126.933 248.17 128.344 247.575 128.344 246.504C128.344 245.433 126.933 244.838 124.553 244.838C122.139 244.838 120.728 245.433 120.728 246.504C120.728 247.575 122.139 248.17 124.553 248.17ZM124.553 243.75C127.783 243.75 129.755 244.736 129.755 246.504C129.755 248.272 127.783 249.258 124.553 249.258C121.289 249.258 119.317 248.272 119.317 246.504C119.317 244.736 121.289 243.75 124.553 243.75ZM125.25 241.54H131.455V242.662H117.651V241.54H123.856V239.772H119.385V234.706H129.738V235.828H120.779V238.65H129.84V239.772H125.25V241.54ZM134.853 238.531C134.853 239.959 135.975 240.979 137.454 240.979C138.95 240.979 140.038 239.959 140.038 238.531C140.038 237.12 138.95 236.1 137.454 236.1C135.975 236.1 134.853 237.12 134.853 238.531ZM144.441 237.341H141.177C141.296 237.698 141.364 238.089 141.364 238.531C141.364 238.956 141.296 239.347 141.16 239.721H144.441V237.341ZM144.441 240.86H140.531C139.834 241.676 138.746 242.169 137.454 242.169C135.193 242.169 133.527 240.673 133.527 238.531C133.527 236.406 135.193 234.927 137.454 234.927C138.746 234.927 139.834 235.42 140.531 236.202H144.441V234.009H145.852V243.036H144.441V240.86ZM140.803 248.136C143.132 248.136 144.526 247.456 144.526 246.317C144.526 245.161 143.132 244.481 140.803 244.481C138.508 244.481 137.114 245.161 137.114 246.317C137.114 247.456 138.508 248.136 140.803 248.136ZM140.803 243.393C143.948 243.393 145.903 244.464 145.903 246.317C145.903 248.17 143.948 249.241 140.803 249.241C137.675 249.241 135.737 248.17 135.737 246.317C135.737 244.464 137.675 243.393 140.803 243.393ZM157.734 241.183L157.003 242.271C155.354 241.659 154.045 240.401 153.365 238.837C152.736 240.622 151.376 242.016 149.591 242.696L148.86 241.591C151.172 240.758 152.651 238.684 152.651 236.355V234.791H154.045V236.474C154.045 238.531 155.541 240.435 157.734 241.183ZM155.915 248.153C158.159 248.153 159.536 247.524 159.536 246.47C159.536 245.399 158.159 244.77 155.915 244.77C153.654 244.77 152.277 245.399 152.277 246.47C152.277 247.524 153.654 248.153 155.915 248.153ZM155.915 243.682C159.009 243.682 160.93 244.685 160.93 246.47C160.93 248.238 159.009 249.241 155.915 249.241C152.804 249.241 150.883 248.238 150.883 246.47C150.883 244.685 152.804 243.682 155.915 243.682ZM160.76 237.953H163.021V239.109H160.76V243.257H159.366V234.026H160.76V237.953ZM171.452 234.961C174.614 234.961 176.994 236.644 176.994 239.177C176.994 241.727 174.614 243.393 171.452 243.393C168.29 243.393 165.91 241.727 165.91 239.177C165.91 236.644 168.29 234.961 171.452 234.961ZM171.452 236.1C169.055 236.1 167.236 237.341 167.236 239.177C167.236 241.03 169.055 242.254 171.452 242.254C173.866 242.254 175.668 241.03 175.668 239.177C175.668 237.341 173.866 236.1 171.452 236.1ZM164.55 246.079H178.405V247.235H164.55V246.079ZM187.804 246.232H194.043V247.371H180.188V246.232H186.393V243.359H181.922V238.65H190.966V236.27H181.888V235.131H192.326V239.772H183.299V242.237H192.683V243.359H187.804V246.232ZM21.1165 261.061L20.6405 260.058C22.7145 259.684 24.2955 258.647 24.3125 257.338H20.9805V256.301H24.2955V254.975H25.6895V256.301H29.0045V257.338H25.6895C25.7065 258.579 27.3045 259.565 29.3275 259.888L28.8685 260.925C27.0665 260.602 25.6725 259.803 25.0095 258.715C24.3805 259.871 22.9525 260.738 21.1165 261.061ZM29.7015 261.639L29.8205 262.625C26.6415 263.152 23.0545 263.186 20.3855 263.186L20.2155 262.098C21.4225 262.098 22.8505 262.098 24.2955 262.047V260.381H25.7065V261.996C27.0665 261.928 28.4435 261.809 29.7015 261.639ZM23.5815 267.623V269.034H32.6255V270.088H22.2215V266.62H30.6705V265.362H22.1705V264.325H32.0475V267.623H23.5815ZM32.0475 258.664H34.2915V259.82H32.0475V263.662H30.6535V255.026H32.0475V258.664ZM37.4352 259.531C37.4352 260.959 38.5572 261.979 40.0362 261.979C41.5322 261.979 42.6202 260.959 42.6202 259.531C42.6202 258.12 41.5322 257.1 40.0362 257.1C38.5572 257.1 37.4352 258.12 37.4352 259.531ZM47.0232 258.341H43.7592C43.8782 258.698 43.9462 259.089 43.9462 259.531C43.9462 259.956 43.8782 260.347 43.7422 260.721H47.0232V258.341ZM47.0232 261.86H43.1132C42.4162 262.676 41.3282 263.169 40.0362 263.169C37.7752 263.169 36.1092 261.673 36.1092 259.531C36.1092 257.406 37.7752 255.927 40.0362 255.927C41.3282 255.927 42.4162 256.42 43.1132 257.202H47.0232V255.009H48.4342V264.036H47.0232V261.86ZM43.3852 269.136C45.7142 269.136 47.1082 268.456 47.1082 267.317C47.1082 266.161 45.7142 265.481 43.3852 265.481C41.0902 265.481 39.6962 266.161 39.6962 267.317C39.6962 268.456 41.0902 269.136 43.3852 269.136ZM43.3852 264.393C46.5302 264.393 48.4852 265.464 48.4852 267.317C48.4852 269.17 46.5302 270.241 43.3852 270.241C40.2572 270.241 38.3192 269.17 38.3192 267.317C38.3192 265.464 40.2572 264.393 43.3852 264.393ZM55.9809 265.702C57.3749 265.702 58.3779 264.716 58.3779 263.356C58.3779 261.979 57.3749 260.993 55.9809 260.993C54.6039 260.993 53.6009 261.979 53.6009 263.356C53.6009 264.716 54.6039 265.702 55.9809 265.702ZM55.9809 259.837C58.1569 259.837 59.7039 261.299 59.7039 263.356C59.7039 265.43 58.1569 266.858 55.9809 266.858C53.8389 266.858 52.2919 265.43 52.2919 263.356C52.2919 261.299 53.8389 259.837 55.9809 259.837ZM56.6609 255.196V257.457H60.4179V258.579H51.4249V257.457H55.2669V255.196H56.6609ZM65.7559 261.282V262.455H63.2569V270.258H61.8629V255.026H63.2569V261.282H65.7559ZM74.8496 263.237H78.3176V259.565H74.7986C74.9346 260.16 75.0196 260.806 75.0196 261.503C75.0196 262.132 74.9516 262.71 74.8496 263.237ZM71.2286 265.583C72.6736 265.583 73.7106 263.985 73.7106 261.503C73.7106 259.038 72.6736 257.44 71.2286 257.44C69.7666 257.44 68.7466 259.038 68.7466 261.503C68.7466 263.985 69.7666 265.583 71.2286 265.583ZM78.3176 255.009H79.7116V270.292H78.3176V264.376H74.5096C73.8806 265.923 72.6906 266.824 71.2286 266.824C69.0016 266.824 67.4206 264.75 67.4206 261.503C67.4206 258.256 69.0016 256.182 71.2286 256.182C72.6396 256.182 73.7616 256.998 74.4076 258.426H78.3176V255.009ZM99.4753 259.684V260.806H89.0203V255.621H99.3733V256.743H90.4143V259.684H99.4753ZM94.1713 269.153C96.5513 269.153 97.9793 268.558 97.9793 267.487C97.9793 266.416 96.5683 265.821 94.1713 265.821C91.7743 265.821 90.3633 266.416 90.3633 267.487C90.3633 268.558 91.7743 269.153 94.1713 269.153ZM94.1713 264.733C97.4183 264.733 99.3903 265.719 99.3903 267.487C99.3903 269.255 97.4183 270.241 94.1713 270.241C90.9243 270.241 88.9523 269.255 88.9523 267.487C88.9523 265.719 90.9243 264.733 94.1713 264.733ZM87.2863 262.268H101.09V263.424H87.2863V262.268ZM104.455 266.841V265.702H115.063V270.122H113.669V266.841H104.455ZM110.541 263.39H116.746V264.529H102.908V263.39H109.13V261.792H104.693V258.069H113.601V256.488H104.659V255.4H114.978V259.106H106.07V260.704H115.301V261.792H110.541V263.39ZM127.608 256.403V257.474H118.615V256.403H122.406V254.856H123.8V256.403H127.608ZM120.791 260.653C120.791 261.554 121.692 262.115 123.103 262.115C124.514 262.115 125.432 261.554 125.432 260.653C125.432 259.735 124.514 259.191 123.103 259.191C121.692 259.191 120.791 259.735 120.791 260.653ZM126.758 260.653C126.758 262.2 125.313 263.152 123.103 263.152C120.91 263.152 119.465 262.2 119.465 260.653C119.465 259.106 120.91 258.154 123.103 258.154C125.313 258.154 126.758 259.106 126.758 260.653ZM122.117 267.555V269.017H130.957V270.088H120.757V266.535H129.019V265.209H120.706V264.172H130.396V267.555H122.117ZM130.396 258.63H132.657V259.786H130.396V263.39H129.002V254.958H130.396V258.63ZM151.825 260.823L151.247 261.945C148.884 261.537 146.589 260.211 145.603 258.375C144.651 260.228 142.356 261.537 139.976 261.945L139.415 260.823C142.186 260.415 144.872 258.579 144.872 256.403V255.553H146.334V256.403C146.334 258.528 149.054 260.415 151.825 260.823ZM152.488 263.594L152.505 264.75H146.266V270.275H144.872V264.75H138.718V263.594H152.488ZM171.351 255.026V263.73H169.957V255.026H171.351ZM163.157 257.066C161.644 257.066 160.556 258.069 160.556 259.463C160.556 260.874 161.644 261.86 163.157 261.86C164.67 261.86 165.792 260.874 165.792 259.463C165.792 258.069 164.67 257.066 163.157 257.066ZM163.157 263.016C160.862 263.016 159.196 261.571 159.196 259.463C159.196 257.355 160.862 255.91 163.157 255.91C165.469 255.91 167.152 257.355 167.152 259.463C167.152 261.571 165.469 263.016 163.157 263.016ZM169.651 264.393V265.209C169.651 266.79 170.773 268.354 172.711 269L172.014 270.054C170.518 269.51 169.464 268.456 168.954 267.181C168.478 268.422 167.543 269.578 166.132 270.19C164.67 269.612 163.752 268.507 163.293 267.232C162.749 268.456 161.712 269.51 160.284 270.054L159.587 269C161.508 268.32 162.647 266.671 162.647 265.209V264.393H163.99V265.209C163.99 266.552 164.687 267.997 166.098 268.83C167.56 267.929 168.291 266.399 168.291 265.209V264.393H169.651ZM178.558 265.583C180.003 265.583 181.023 263.985 181.023 261.503C181.023 259.038 180.003 257.44 178.558 257.44C177.096 257.44 176.076 259.038 176.076 261.503C176.076 263.985 177.096 265.583 178.558 265.583ZM185.647 255.009H187.041V270.292H185.647V261.962H182.332C182.196 264.954 180.683 266.824 178.558 266.824C176.331 266.824 174.75 264.75 174.75 261.503C174.75 258.256 176.331 256.182 178.558 256.182C180.615 256.182 182.111 257.967 182.332 260.823H185.647V255.009ZM194.893 263.56V267.147H199.143V263.56C198.497 263.713 197.766 263.798 197.001 263.798C196.253 263.798 195.522 263.713 194.893 263.56ZM197.001 257.066C194.553 257.066 192.802 258.188 192.802 259.888C192.802 261.588 194.553 262.71 197.001 262.71C199.449 262.71 201.217 261.588 201.217 259.888C201.217 258.188 199.449 257.066 197.001 257.066ZM200.537 267.147H203.954V268.303H190.099V267.147H193.499V263.033C192.224 262.37 191.459 261.265 191.459 259.888C191.459 257.508 193.771 255.978 197.001 255.978C200.248 255.978 202.543 257.508 202.543 259.888C202.543 261.265 201.795 262.353 200.537 263.016V267.147ZM207.257 269.115C206.927 269.115 206.643 268.998 206.405 268.765C206.168 268.527 206.049 268.241 206.049 267.907C206.049 267.577 206.168 267.296 206.405 267.062C206.643 266.825 206.927 266.706 207.257 266.706C207.587 266.706 207.87 266.825 208.108 267.062C208.345 267.296 208.464 267.577 208.464 267.907C208.464 268.129 208.408 268.332 208.295 268.517C208.186 268.698 208.042 268.843 207.86 268.952C207.679 269.06 207.478 269.115 207.257 269.115Z" fill="white"/>
</g>
<g style="mix-blend-mode:multiply" opacity="0.8">
<rect width="390" height="286" transform="translate(1 558)" fill="#1E1E1E"/>
<path d="M242.111 587.183L241.38 588.271C239.731 587.659 238.422 586.401 237.742 584.837C237.113 586.622 235.753 588.016 233.968 588.696L233.237 587.591C235.549 586.758 237.028 584.684 237.028 582.355V580.791H238.422V582.474C238.422 584.531 239.918 586.435 242.111 587.183ZM240.292 594.153C242.536 594.153 243.913 593.524 243.913 592.47C243.913 591.399 242.536 590.77 240.292 590.77C238.031 590.77 236.654 591.399 236.654 592.47C236.654 593.524 238.031 594.153 240.292 594.153ZM240.292 589.682C243.386 589.682 245.307 590.685 245.307 592.47C245.307 594.238 243.386 595.241 240.292 595.241C237.181 595.241 235.26 594.238 235.26 592.47C235.26 590.685 237.181 589.682 240.292 589.682ZM245.137 583.953H247.398V585.109H245.137V589.257H243.743V580.026H245.137V583.953ZM257.716 584.82V581.624H253.925V584.82H257.716ZM252.531 584.82V581.624H250.236V580.502H261.422V581.624H259.11V584.82H261.354V585.942H250.287V584.82H252.531ZM259.688 593.932V591.399H252.004V593.932H259.688ZM262.731 588.509H256.543V590.294H261.048V595.054H250.644V590.294H255.149V588.509H248.944V587.387H262.731V588.509ZM277.225 583.97H280.234V580.026H281.645V589.104H280.234V585.109H277.225V583.97ZM278.075 587.438L277.378 588.526C275.678 587.914 274.369 586.656 273.706 585.092C273.06 586.86 271.649 588.288 269.864 588.968L269.133 587.863C271.411 587.03 272.975 584.973 272.975 582.78V582.253H269.575V581.131H277.718V582.253H274.369V582.78C274.369 584.735 275.865 586.656 278.075 587.438ZM276.613 594.17C278.908 594.17 280.302 593.524 280.302 592.419C280.302 591.314 278.908 590.651 276.613 590.651C274.318 590.651 272.924 591.314 272.924 592.419C272.924 593.524 274.318 594.17 276.613 594.17ZM276.613 589.58C279.741 589.58 281.696 590.617 281.696 592.419C281.696 594.221 279.741 595.258 276.613 595.258C273.485 595.258 271.53 594.221 271.53 592.419C271.53 590.617 273.485 589.58 276.613 589.58ZM287.729 584.956V587.761H295.515V584.956H287.729ZM292.319 592.164H298.541V593.303H284.72V592.164H290.908V588.883H286.352V581.097H287.729V583.817H295.515V581.097H296.875V588.883H292.319V592.164ZM311.035 582.678V581.437H302.093V580.451H312.412V583.63H303.504V584.939H312.684V585.942H302.127V582.678H311.035ZM303.419 592.64V594.051H312.939V595.054H302.042V591.671H311.086V590.396H302.008V589.393H312.463V592.64H303.419ZM300.359 587.098H314.18V588.152H300.359V587.098ZM206.687 608.455L206.007 609.56C204.256 608.948 202.862 607.69 202.165 606.092C201.519 607.826 200.108 609.186 198.306 609.849L197.575 608.761C199.887 607.945 201.434 605.956 201.434 603.814V603.202H197.949V602.08H206.313V603.202H202.862V603.814C202.862 605.854 204.443 607.707 206.687 608.455ZM199.683 612.161V611.039H209.883V616.258H208.489V612.161H199.683ZM208.489 601.009H209.883V610.24H208.489V601.009ZM222.003 608.098L221.306 609.203C219.606 608.574 218.297 607.316 217.617 605.752C216.971 607.503 215.577 608.88 213.792 609.56L213.061 608.455C215.322 607.656 216.903 605.633 216.903 603.457V603.066H213.503V601.927H221.646V603.066H218.297V603.457C218.297 605.412 219.793 607.316 222.003 608.098ZM224.179 614.915V612.994H217.175V614.915H224.179ZM224.179 611.906V610.019H225.556V616.054H215.798V610.019H217.175V611.906H224.179ZM224.162 601.026H225.556V609.288H224.162V605.854H221.153V604.715H224.162V601.026ZM244.266 601.026H245.66V609.203H244.266V601.026ZM235.834 609.951H237.211V611.821H244.283V609.951H245.66V616.054H235.834V609.951ZM237.211 612.909V614.932H244.283V612.909H237.211ZM237.466 601.74C239.778 601.74 241.461 603.168 241.461 605.242C241.461 607.35 239.778 608.761 237.466 608.761C235.171 608.761 233.505 607.35 233.505 605.242C233.505 603.168 235.171 601.74 237.466 601.74ZM237.466 602.896C235.953 602.896 234.865 603.865 234.865 605.242C234.865 606.636 235.953 607.605 237.466 607.605C239.013 607.605 240.101 606.636 240.101 605.242C240.101 603.865 239.013 602.896 237.466 602.896ZM256.844 608.2L256.98 609.322C255.11 609.645 253.563 609.696 250.52 609.696H249.432V605.174H254.6V603.066H249.381V601.927H255.96V606.245H250.792V608.557C253.614 608.557 255.076 608.489 256.844 608.2ZM251.132 612.348V611.209H261.349V616.275H259.938V612.348H251.132ZM259.938 601.026H261.349V610.393H259.938V607.571H256.963V606.449H259.938V604.409H256.963V603.27H259.938V601.026ZM273.469 602.403V603.474H264.476V602.403H268.267V600.856H269.661V602.403H273.469ZM266.652 606.653C266.652 607.554 267.553 608.115 268.964 608.115C270.375 608.115 271.293 607.554 271.293 606.653C271.293 605.735 270.375 605.191 268.964 605.191C267.553 605.191 266.652 605.735 266.652 606.653ZM272.619 606.653C272.619 608.2 271.174 609.152 268.964 609.152C266.771 609.152 265.326 608.2 265.326 606.653C265.326 605.106 266.771 604.154 268.964 604.154C271.174 604.154 272.619 605.106 272.619 606.653ZM267.978 613.555V615.017H276.818V616.088H266.618V612.535H274.88V611.209H266.567V610.172H276.257V613.555H267.978ZM276.257 604.63H278.518V605.786H276.257V609.39H274.863V600.958H276.257V604.63ZM297.687 606.823L297.109 607.945C294.746 607.537 292.451 606.211 291.465 604.375C290.513 606.228 288.218 607.537 285.838 607.945L285.277 606.823C288.048 606.415 290.734 604.579 290.734 602.403V601.553H292.196V602.403C292.196 604.528 294.916 606.415 297.687 606.823ZM298.35 609.594L298.367 610.75H292.128V616.275H290.734V610.75H284.58V609.594H298.35ZM317.212 601.026V609.73H315.818V601.026H317.212ZM309.018 603.066C307.505 603.066 306.417 604.069 306.417 605.463C306.417 606.874 307.505 607.86 309.018 607.86C310.531 607.86 311.653 606.874 311.653 605.463C311.653 604.069 310.531 603.066 309.018 603.066ZM309.018 609.016C306.723 609.016 305.057 607.571 305.057 605.463C305.057 603.355 306.723 601.91 309.018 601.91C311.33 601.91 313.013 603.355 313.013 605.463C313.013 607.571 311.33 609.016 309.018 609.016ZM315.512 610.393V611.209C315.512 612.79 316.634 614.354 318.572 615L317.875 616.054C316.379 615.51 315.325 614.456 314.815 613.181C314.339 614.422 313.404 615.578 311.993 616.19C310.531 615.612 309.613 614.507 309.154 613.232C308.61 614.456 307.573 615.51 306.145 616.054L305.448 615C307.369 614.32 308.508 612.671 308.508 611.209V610.393H309.851V611.209C309.851 612.552 310.548 613.997 311.959 614.83C313.421 613.929 314.152 612.399 314.152 611.209V610.393H315.512ZM324.419 611.583C325.864 611.583 326.884 609.985 326.884 607.503C326.884 605.038 325.864 603.44 324.419 603.44C322.957 603.44 321.937 605.038 321.937 607.503C321.937 609.985 322.957 611.583 324.419 611.583ZM331.508 601.009H332.902V616.292H331.508V607.962H328.193C328.057 610.954 326.544 612.824 324.419 612.824C322.192 612.824 320.611 610.75 320.611 607.503C320.611 604.256 322.192 602.182 324.419 602.182C326.476 602.182 327.972 603.967 328.193 606.823H331.508V601.009ZM340.755 609.56V613.147H345.005V609.56C344.359 609.713 343.628 609.798 342.863 609.798C342.115 609.798 341.384 609.713 340.755 609.56ZM342.863 603.066C340.415 603.066 338.664 604.188 338.664 605.888C338.664 607.588 340.415 608.71 342.863 608.71C345.311 608.71 347.079 607.588 347.079 605.888C347.079 604.188 345.311 603.066 342.863 603.066ZM346.399 613.147H349.816V614.303H335.961V613.147H339.361V609.033C338.086 608.37 337.321 607.265 337.321 605.888C337.321 603.508 339.633 601.978 342.863 601.978C346.11 601.978 348.405 603.508 348.405 605.888C348.405 607.265 347.657 608.353 346.399 609.016V613.147ZM353.118 615.115C352.788 615.115 352.504 614.998 352.267 614.765C352.029 614.527 351.911 614.241 351.911 613.907C351.911 613.577 352.029 613.296 352.267 613.062C352.504 612.825 352.788 612.706 353.118 612.706C353.448 612.706 353.732 612.825 353.969 613.062C354.207 613.296 354.325 613.577 354.325 613.907C354.325 614.129 354.269 614.332 354.156 614.517C354.048 614.698 353.903 614.843 353.722 614.952C353.541 615.06 353.339 615.115 353.118 615.115Z" fill="white"/>
</g>
</g>
<defs>
<filter id="filter0_d_62_238" x="44" y="297" width="148" height="260" filterUnits="userSpaceOnUse" color-interpolation-filters="sRGB">
<feFlood flood-opacity="0" result="BackgroundImageFix"/>
<feColorMatrix in="SourceAlpha" type="matrix" values="0 0 0 0 0 0 0 0 0 0 0 0 0 0 0 0 0 0 127 0" result="hardAlpha"/>
<feOffset dx="3" dy="5"/>
<feGaussianBlur stdDeviation="3"/>
<feComposite in2="hardAlpha" operator="out"/>
<feColorMatrix type="matrix" values="0 0 0 0 0 0 0 0 0 0 0 0 0 0 0 0 0 0 0.3 0"/>
<feBlend mode="normal" in2="BackgroundImageFix" result="effect1_dropShadow_62_238"/>
<feBlend mode="normal" in="SourceGraphic" in2="effect1_dropShadow_62_238" result="shape"/>
</filter>
<filter id="filter1_d_62_238" x="204" y="297" width="148" height="260" filterUnits="userSpaceOnUse" color-interpolation-filters="sRGB">
<feFlood flood-opacity="0" result="BackgroundImageFix"/>
<feColorMatrix in="SourceAlpha" type="matrix" values="0 0 0 0 0 0 0 0 0 0 0 0 0 0 0 0 0 0 127 0" result="hardAlpha"/>
<feOffset dx="3" dy="5"/>
<feGaussianBlur stdDeviation="3"/>
<feComposite in2="hardAlpha" operator="out"/>
<feColorMatrix type="matrix" values="0 0 0 0 0 0 0 0 0 0 0 0 0 0 0 0 0 0 0.3 0"/>
<feBlend mode="normal" in2="BackgroundImageFix" result="effect1_dropShadow_62_238"/>
<feBlend mode="normal" in="SourceGraphic" in2="effect1_dropShadow_62_238" result="shape"/>
</filter>
<filter id="filter2_d_62_238" x="-3" y="15" width="398" height="72" filterUnits="userSpaceOnUse" color-interpolation-filters="sRGB">
<feFlood flood-opacity="0" result="BackgroundImageFix"/>
<feColorMatrix in="SourceAlpha" type="matrix" values="0 0 0 0 0 0 0 0 0 0 0 0 0 0 0 0 0 0 127 0" result="hardAlpha"/>
<feOffset dy="4"/>
<feGaussianBlur stdDeviation="2"/>
<feComposite in2="hardAlpha" operator="out"/>
<feColorMatrix type="matrix" values="0 0 0 0 0 0 0 0 0 0 0 0 0 0 0 0 0 0 0.08 0"/>
<feBlend mode="normal" in2="BackgroundImageFix" result="effect1_dropShadow_62_238"/>
<feBlend mode="normal" in="SourceGraphic" in2="effect1_dropShadow_62_238" result="shape"/>
</filter>
<clipPath id="clip0_62_238">
<rect width="390" height="844" fill="white"/>
</clipPath>
</defs>
</svg>
