<svg width="390" height="844" viewBox="0 0 390 844" fill="none" xmlns="http://www.w3.org/2000/svg">
<g clip-path="url(#clip0_774_180)">
<rect width="390" height="844" fill="white"/>
<path d="M42 113.5H348C355.456 113.5 361.5 119.544 361.5 127V681C361.5 688.456 355.456 694.5 348 694.5H42C34.5442 694.5 28.5 688.456 28.5 681V127C28.5 119.544 34.5442 113.5 42 113.5Z" fill="white" stroke="#1DAB45" stroke-width="3"/>
<g filter="url(#filter0_d_774_180)">
<rect y="13" width="390" height="64" fill="white"/>
</g>
<path d="M75.2072 37.978H76.4492V39.634C76.4492 42.766 74.6852 45.358 71.9672 46.42L71.1752 45.214C73.6232 44.314 75.2072 42.118 75.2072 39.634V37.978ZM75.4772 37.978H76.7012V39.742C76.7012 41.938 78.3212 43.972 80.6612 44.782L79.8692 45.952C77.2592 44.98 75.4772 42.568 75.4772 39.742V37.978ZM82.3892 37.132H83.8832V46.996H82.3892V37.132ZM83.4692 41.326H86.2952V42.586H83.4692V41.326ZM78.6992 47.446C82.0292 47.446 84.0452 48.544 84.0452 50.416C84.0452 52.288 82.0292 53.368 78.6992 53.368C75.3692 53.368 73.3532 52.288 73.3532 50.416C73.3532 48.544 75.3692 47.446 78.6992 47.446ZM78.6992 48.634C76.2872 48.634 74.8112 49.282 74.8112 50.416C74.8112 51.55 76.2872 52.198 78.6992 52.198C81.1112 52.198 82.5872 51.55 82.5872 50.416C82.5872 49.282 81.1112 48.634 78.6992 48.634ZM94.4298 45.772H95.9058V48.58H94.4298V45.772ZM87.8058 44.98H102.512V46.204H87.8058V44.98ZM89.1738 37.636H101.126V38.86H89.1738V37.636ZM89.2458 42.262H101.054V43.486H89.2458V42.262ZM91.6398 38.176H93.1338V43.054H91.6398V38.176ZM97.1838 38.176H98.6598V43.054H97.1838V38.176ZM89.6058 48.094H100.712V53.188H89.6058V48.094ZM99.2538 49.282H91.0818V51.982H99.2538V49.282ZM109.445 45.142H124.151V46.366H109.445V45.142ZM116.051 42.532H117.527V45.646H116.051V42.532ZM111.299 42.064H122.441V43.288H111.299V42.064ZM111.299 37.87H122.315V39.076H112.775V42.784H111.299V37.87ZM116.771 47.536C120.245 47.536 122.351 48.598 122.351 50.452C122.351 52.342 120.245 53.386 116.771 53.386C113.297 53.386 111.191 52.342 111.191 50.452C111.191 48.598 113.297 47.536 116.771 47.536ZM116.771 48.688C114.233 48.688 112.703 49.336 112.703 50.452C112.703 51.586 114.233 52.216 116.771 52.216C119.327 52.216 120.839 51.586 120.839 50.452C120.839 49.336 119.327 48.688 116.771 48.688ZM133.402 39.472H138.37V40.696H133.402V39.472ZM133.402 43.216H138.37V44.458H133.402V43.216ZM130.432 38.086C132.826 38.086 134.626 39.706 134.626 41.956C134.626 44.224 132.826 45.826 130.432 45.826C128.02 45.826 126.238 44.224 126.238 41.956C126.238 39.706 128.02 38.086 130.432 38.086ZM130.432 39.364C128.848 39.364 127.678 40.426 127.678 41.956C127.678 43.486 128.848 44.548 130.432 44.548C132.016 44.548 133.204 43.486 133.204 41.956C133.204 40.426 132.016 39.364 130.432 39.364ZM137.884 37.132H139.378V46.762H137.884V37.132ZM134.032 47.14C137.38 47.14 139.45 48.292 139.45 50.254C139.45 52.234 137.38 53.368 134.032 53.368C130.666 53.368 128.596 52.234 128.596 50.254C128.596 48.292 130.666 47.14 134.032 47.14ZM134.032 48.328C131.566 48.328 130.072 49.048 130.072 50.254C130.072 51.478 131.566 52.198 134.032 52.198C136.48 52.198 137.974 51.478 137.974 50.254C137.974 49.048 136.48 48.328 134.032 48.328ZM146.504 37.978H147.746V39.634C147.746 42.766 145.982 45.358 143.264 46.42L142.472 45.214C144.92 44.314 146.504 42.118 146.504 39.634V37.978ZM146.774 37.978H147.998V39.742C147.998 41.938 149.618 43.972 151.958 44.782L151.166 45.952C148.556 44.98 146.774 42.568 146.774 39.742V37.978ZM153.686 37.132H155.18V46.996H153.686V37.132ZM154.766 41.326H157.592V42.586H154.766V41.326ZM149.996 47.446C153.326 47.446 155.342 48.544 155.342 50.416C155.342 52.288 153.326 53.368 149.996 53.368C146.666 53.368 144.65 52.288 144.65 50.416C144.65 48.544 146.666 47.446 149.996 47.446ZM149.996 48.634C147.584 48.634 146.108 49.282 146.108 50.416C146.108 51.55 147.584 52.198 149.996 52.198C152.408 52.198 153.884 51.55 153.884 50.416C153.884 49.282 152.408 48.634 149.996 48.634ZM166.465 38.158C169.849 38.158 172.369 39.958 172.369 42.658C172.369 45.376 169.849 47.158 166.465 47.158C163.081 47.158 160.543 45.376 160.543 42.658C160.543 39.958 163.081 38.158 166.465 38.158ZM166.465 39.382C163.891 39.382 161.983 40.696 161.983 42.658C161.983 44.602 163.891 45.934 166.465 45.934C169.039 45.934 170.947 44.602 170.947 42.658C170.947 40.696 169.039 39.382 166.465 39.382ZM159.121 50.002H173.863V51.262H159.121V50.002ZM175.679 50.164H190.421V51.406H175.679V50.164ZM182.267 46.672H183.761V50.686H182.267V46.672ZM177.461 38.338H188.603V43.27H178.991V46.528H177.515V42.064H187.127V39.544H177.461V38.338ZM177.515 45.898H188.981V47.122H177.515V45.898ZM197.3 44.872H212.006V46.114H197.3V44.872ZM199.154 42.118H210.296V43.324H199.154V42.118ZM199.154 37.78H210.17V39.004H200.63V42.694H199.154V37.78ZM204.626 47.518C208.1 47.518 210.206 48.58 210.206 50.452C210.206 52.324 208.1 53.368 204.626 53.368C201.152 53.368 199.046 52.324 199.046 50.452C199.046 48.58 201.152 47.518 204.626 47.518ZM204.626 48.67C202.088 48.67 200.558 49.318 200.558 50.452C200.558 51.568 202.088 52.198 204.626 52.198C207.182 52.198 208.694 51.568 208.694 50.452C208.694 49.318 207.182 48.67 204.626 48.67ZM213.841 46.078H228.601V47.302H213.841V46.078ZM215.713 37.546H226.693V41.488H217.225V43.684H215.749V40.39H225.235V38.716H215.713V37.546ZM215.749 43.198H227.053V44.368H215.749V43.198ZM220.465 43.81H221.959V46.69H220.465V43.81ZM215.479 48.544H226.801V53.26H225.307V49.768H215.479V48.544ZM241.434 37.132H242.928V53.404H241.434V37.132ZM242.568 43.81H245.592V45.07H242.568V43.81ZM230.328 39.724H239.922V40.948H230.328V39.724ZM235.188 42.298C237.492 42.298 239.148 43.846 239.148 46.042C239.148 48.238 237.492 49.786 235.188 49.786C232.902 49.786 231.228 48.238 231.228 46.042C231.228 43.846 232.902 42.298 235.188 42.298ZM235.188 43.54C233.712 43.54 232.65 44.566 232.65 46.042C232.65 47.5 233.712 48.544 235.188 48.544C236.664 48.544 237.726 47.5 237.726 46.042C237.726 44.566 236.664 43.54 235.188 43.54ZM234.414 37.33H235.908V40.282H234.414V37.33ZM258.82 37.132H260.314V53.404H258.82V37.132ZM254.05 38.878H255.526C255.526 43.594 253.402 47.716 247.966 50.38L247.174 49.174C251.872 46.906 254.05 43.45 254.05 39.13V38.878ZM247.912 38.878H254.698V40.102H247.912V38.878Z" fill="black"/>
<circle cx="32" cy="45" r="21.5" fill="white" stroke="#F1F1F5"/>
<path d="M34.7499 38.5833C34.6293 38.5826 34.5097 38.6057 34.398 38.6513C34.2863 38.697 34.1847 38.7642 34.0991 38.8491L28.5991 44.3491C28.4283 44.5209 28.3325 44.7532 28.3325 44.9954C28.3325 45.2376 28.4283 45.4699 28.5991 45.6416L34.0991 51.1416C34.2744 51.2918 34.5 51.3703 34.7307 51.3614C34.9614 51.3525 35.1803 51.2568 35.3435 51.0936C35.5068 50.9303 35.6024 50.7115 35.6113 50.4808C35.6202 50.2501 35.5418 50.0245 35.3916 49.8491L30.5424 45L35.3916 40.1508C35.5203 40.0231 35.6083 39.8602 35.6444 39.6825C35.6805 39.5049 35.6631 39.3205 35.5944 39.1527C35.5257 38.9849 35.4088 38.8413 35.2585 38.7399C35.1082 38.6386 34.9312 38.5841 34.7499 38.5833V38.5833Z" fill="#06161C"/>
<path d="M60.064 387.296H66.688V388.928H60.064V387.296ZM60.064 392.288H66.688V393.944H60.064V392.288ZM56.104 385.448C59.296 385.448 61.696 387.608 61.696 390.608C61.696 393.632 59.296 395.768 56.104 395.768C52.888 395.768 50.512 393.632 50.512 390.608C50.512 387.608 52.888 385.448 56.104 385.448ZM56.104 387.152C53.992 387.152 52.432 388.568 52.432 390.608C52.432 392.648 53.992 394.064 56.104 394.064C58.216 394.064 59.8 392.648 59.8 390.608C59.8 388.568 58.216 387.152 56.104 387.152ZM66.04 384.176H68.032V397.016H66.04V384.176ZM60.904 397.52C65.368 397.52 68.128 399.056 68.128 401.672C68.128 404.312 65.368 405.824 60.904 405.824C56.416 405.824 53.656 404.312 53.656 401.672C53.656 399.056 56.416 397.52 60.904 397.52ZM60.904 399.104C57.616 399.104 55.624 400.064 55.624 401.672C55.624 403.304 57.616 404.264 60.904 404.264C64.168 404.264 66.16 403.304 66.16 401.672C66.16 400.064 64.168 399.104 60.904 399.104ZM77.8341 385.304H79.4901V387.512C79.4901 391.688 77.1381 395.144 73.5141 396.56L72.4581 394.952C75.7221 393.752 77.8341 390.824 77.8341 387.512V385.304ZM78.1941 385.304H79.8261V387.656C79.8261 390.584 81.9861 393.296 85.1061 394.376L84.0501 395.936C80.5701 394.64 78.1941 391.424 78.1941 387.656V385.304ZM87.4101 384.176H89.4021V397.328H87.4101V384.176ZM88.8501 389.768H92.6181V391.448H88.8501V389.768ZM82.4901 397.928C86.9301 397.928 89.6181 399.392 89.6181 401.888C89.6181 404.384 86.9301 405.824 82.4901 405.824C78.0501 405.824 75.3621 404.384 75.3621 401.888C75.3621 399.392 78.0501 397.928 82.4901 397.928ZM82.4901 399.512C79.2741 399.512 77.3061 400.376 77.3061 401.888C77.3061 403.4 79.2741 404.264 82.4901 404.264C85.7061 404.264 87.6741 403.4 87.6741 401.888C87.6741 400.376 85.7061 399.512 82.4901 399.512ZM104.748 385.544C109.26 385.544 112.62 387.944 112.62 391.544C112.62 395.168 109.26 397.544 104.748 397.544C100.236 397.544 96.8522 395.168 96.8522 391.544C96.8522 387.944 100.236 385.544 104.748 385.544ZM104.748 387.176C101.316 387.176 98.7722 388.928 98.7722 391.544C98.7722 394.136 101.316 395.912 104.748 395.912C108.18 395.912 110.724 394.136 110.724 391.544C110.724 388.928 108.18 387.176 104.748 387.176ZM94.9562 401.336H114.612V403.016H94.9562V401.336ZM117.334 401.552H136.99V403.208H117.334V401.552ZM126.118 396.896H128.11V402.248H126.118V396.896ZM119.71 385.784H134.566V392.36H121.75V396.704H119.782V390.752H132.598V387.392H119.71V385.784ZM119.782 395.864H135.07V397.496H119.782V395.864ZM161.243 384.176H163.235V395.216H161.243V384.176ZM162.371 388.832H166.427V390.488H162.371V388.832ZM147.299 385.4H157.259V394.088H147.299V385.4ZM155.315 386.984H149.243V392.504H155.315V386.984ZM149.459 396.248H163.235V401.576H151.475V404.816H149.507V400.064H161.291V397.832H149.459V396.248ZM149.507 403.976H164.027V405.584H149.507V403.976ZM168.765 394.424H188.445V396.056H168.765V394.424ZM173.421 384.608H174.957V386C174.957 388.568 173.373 391.448 170.277 392.648L169.293 391.184C171.981 390.176 173.421 387.824 173.421 386V384.608ZM173.877 384.608H175.389V386C175.389 387.8 176.757 390.224 179.349 391.328L178.557 392.912C175.341 391.64 173.877 388.472 173.877 386V384.608ZM181.749 384.608H183.285V386C183.285 388.592 181.797 391.688 178.557 392.912L177.789 391.328C180.381 390.272 181.749 387.896 181.749 386V384.608ZM182.181 384.608H183.717V386C183.717 388.04 185.133 390.248 187.845 391.184L186.861 392.648C183.741 391.52 182.181 388.784 182.181 386V384.608ZM171.165 398.264H185.973V405.584H171.165V398.264ZM184.029 399.872H173.133V403.976H184.029V399.872ZM205.855 384.176H207.847V405.872H205.855V384.176ZM207.367 393.08H211.399V394.76H207.367V393.08ZM191.047 387.632H203.839V389.264H191.047V387.632ZM197.527 391.064C200.599 391.064 202.807 393.128 202.807 396.056C202.807 398.984 200.599 401.048 197.527 401.048C194.479 401.048 192.247 398.984 192.247 396.056C192.247 393.128 194.479 391.064 197.527 391.064ZM197.527 392.72C195.559 392.72 194.143 394.088 194.143 396.056C194.143 398 195.559 399.392 197.527 399.392C199.495 399.392 200.911 398 200.911 396.056C200.911 394.088 199.495 392.72 197.527 392.72ZM196.495 384.44H198.487V388.376H196.495V384.44ZM229.313 384.2H231.329V400.088H229.313V384.2ZM217.385 403.76H231.977V405.392H217.385V403.76ZM217.385 398.624H219.353V404.528H217.385V398.624ZM219.185 385.376H220.841V387.584C220.841 391.808 218.441 395.504 214.793 396.992L213.761 395.384C217.025 394.112 219.185 390.944 219.185 387.584V385.376ZM219.545 385.376H221.177V387.584C221.177 390.848 223.361 393.8 226.601 394.976L225.545 396.584C221.945 395.192 219.545 391.712 219.545 387.584V385.376ZM254.19 389.792H259.086V391.448H254.19V389.792ZM258.462 384.176H260.454V397.112H258.462V384.176ZM253.326 397.76C257.79 397.76 260.55 399.272 260.55 401.816C260.55 404.384 257.79 405.848 253.326 405.848C248.838 405.848 246.078 404.384 246.078 401.816C246.078 399.272 248.838 397.76 253.326 397.76ZM253.326 399.32C250.062 399.32 248.07 400.232 248.07 401.816C248.07 403.376 250.062 404.288 253.326 404.288C256.59 404.288 258.582 403.376 258.582 401.816C258.582 400.232 256.59 399.32 253.326 399.32ZM248.142 386.36H249.774V388.112C249.774 392.12 247.326 395.552 243.726 396.896L242.694 395.312C245.91 394.136 248.142 391.232 248.142 388.112V386.36ZM248.526 386.36H250.134V388.112C250.134 390.92 252.246 393.608 255.39 394.712L254.382 396.296C250.854 395.024 248.526 391.76 248.526 388.112V386.36ZM243.294 385.76H254.886V387.392H243.294V385.76ZM265 401.456H284.656V403.112H265V401.456ZM273.784 396.272H275.776V401.936H273.784V396.272ZM267.304 385.712H269.272V389.576H280.336V385.712H282.304V396.8H267.304V385.712ZM269.272 391.184V395.168H280.336V391.184H269.272ZM287.378 401.552H307.034V403.208H287.378V401.552ZM296.162 396.896H298.154V402.248H296.162V396.896ZM289.754 385.784H304.61V392.36H291.794V396.704H289.826V390.752H302.642V387.392H289.754V385.784ZM289.826 395.864H305.114V397.496H289.826V395.864ZM321.711 385.304H323.367V387.512C323.367 391.688 321.015 395.144 317.391 396.56L316.335 394.952C319.599 393.752 321.711 390.824 321.711 387.512V385.304ZM322.071 385.304H323.703V387.656C323.703 390.584 325.863 393.296 328.983 394.376L327.927 395.936C324.447 394.64 322.071 391.424 322.071 387.656V385.304ZM331.287 384.176H333.279V397.328H331.287V384.176ZM332.727 389.768H336.495V391.448H332.727V389.768ZM326.367 397.928C330.807 397.928 333.495 399.392 333.495 401.888C333.495 404.384 330.807 405.824 326.367 405.824C321.927 405.824 319.239 404.384 319.239 401.888C319.239 399.392 321.927 397.928 326.367 397.928ZM326.367 399.512C323.151 399.512 321.183 400.376 321.183 401.888C321.183 403.4 323.151 404.264 326.367 404.264C329.583 404.264 331.551 403.4 331.551 401.888C331.551 400.376 329.583 399.512 326.367 399.512ZM59.008 423.696H60.976V427.44H59.008V423.696ZM50.176 422.64H69.784V424.272H50.176V422.64ZM52 412.848H67.936V414.48H52V412.848ZM52.096 419.016H67.84V420.648H52.096V419.016ZM55.288 413.568H57.28V420.072H55.288V413.568ZM62.68 413.568H64.648V420.072H62.68V413.568ZM52.576 426.792H67.384V433.584H52.576V426.792ZM65.44 428.376H54.544V431.976H65.44V428.376ZM90.8446 417.792H95.7406V419.448H90.8446V417.792ZM95.1166 412.176H97.1086V425.112H95.1166V412.176ZM89.9806 425.76C94.4446 425.76 97.2046 427.272 97.2046 429.816C97.2046 432.384 94.4446 433.848 89.9806 433.848C85.4926 433.848 82.7326 432.384 82.7326 429.816C82.7326 427.272 85.4926 425.76 89.9806 425.76ZM89.9806 427.32C86.7166 427.32 84.7246 428.232 84.7246 429.816C84.7246 431.376 86.7166 432.288 89.9806 432.288C93.2446 432.288 95.2366 431.376 95.2366 429.816C95.2366 428.232 93.2446 427.32 89.9806 427.32ZM84.7966 414.36H86.4286V416.112C86.4286 420.12 83.9806 423.552 80.3806 424.896L79.3486 423.312C82.5646 422.136 84.7966 419.232 84.7966 416.112V414.36ZM85.1806 414.36H86.7886V416.112C86.7886 418.92 88.9006 421.608 92.0446 422.712L91.0366 424.296C87.5086 423.024 85.1806 419.76 85.1806 416.112V414.36ZM79.9486 413.76H91.5406V415.392H79.9486V413.76ZM101.655 429.456H121.311V431.112H101.655V429.456ZM110.439 424.272H112.431V429.936H110.439V424.272ZM103.959 413.712H105.927V417.576H116.991V413.712H118.959V424.8H103.959V413.712ZM105.927 419.184V423.168H116.991V419.184H105.927ZM124.009 422.256H143.689V423.768H124.009V422.256ZM126.337 425.52H141.217V430.152H128.377V432.696H126.409V428.784H139.273V426.936H126.337V425.52ZM126.409 432.168H141.913V433.608H126.409V432.168ZM126.505 412.8H141.145V417.312H128.521V419.664H126.553V415.968H139.201V414.216H126.505V412.8ZM126.553 419.184H141.553V420.624H126.553V419.184ZM321.746 415.872H332.498V417.504H321.746V415.872ZM327.122 418.944C329.834 418.944 331.802 420.984 331.802 423.912C331.802 426.816 329.834 428.856 327.122 428.856C324.434 428.856 322.466 426.816 322.466 423.912C322.466 420.984 324.434 418.944 327.122 418.944ZM327.122 420.648C325.466 420.648 324.266 421.992 324.266 423.912C324.266 425.832 325.466 427.176 327.122 427.176C328.802 427.176 330.026 425.832 330.026 423.912C330.026 421.992 328.802 420.648 327.122 420.648ZM338.234 412.176H340.154V433.872H338.234V412.176ZM334.778 421.296H338.882V422.952H334.778V421.296ZM333.602 412.656H335.474V432.816H333.602V412.656ZM326.162 412.8H328.13V416.88H326.162V412.8ZM52.672 450.568H67.576V452.2H52.672V450.568ZM50.2 457.288H69.856V458.944H50.2V457.288ZM52.672 442.168H67.36V443.824H54.664V451.288H52.672V442.168ZM88.4181 440.152H90.4101V461.896H88.4181V440.152ZM84.1461 445.12H88.9461V446.752H84.1461V445.12ZM73.3701 455.176H74.9781C78.3381 455.176 81.0981 455.08 84.4101 454.552L84.6021 456.208C81.1941 456.736 78.4101 456.856 74.9781 456.856H73.3701V455.176ZM73.3221 442.12H82.8021V449.896H75.3381V455.56H73.3701V448.264H80.8341V443.776H73.3221V442.12ZM84.0021 451.048H88.8021V452.68H84.0021V451.048ZM99.7562 451.336H101.724V457.84H99.7562V451.336ZM107.772 451.336H109.764V457.84H107.772V451.336ZM94.9562 457.456H114.612V459.112H94.9562V457.456ZM104.748 441.544C109.332 441.544 112.62 443.728 112.62 447.136C112.62 450.52 109.332 452.704 104.748 452.704C100.14 452.704 96.8522 450.52 96.8522 447.136C96.8522 443.728 100.14 441.544 104.748 441.544ZM104.748 443.128C101.268 443.128 98.7722 444.712 98.7722 447.136C98.7722 449.536 101.268 451.12 104.748 451.12C108.228 451.12 110.7 449.536 110.7 447.136C110.7 444.712 108.228 443.128 104.748 443.128ZM120.814 443.272L120.55 455.272H118.726L118.462 443.272H120.814ZM119.734 460.144C119.318 460.144 118.966 460 118.678 459.712C118.39 459.424 118.246 459.072 118.246 458.656C118.246 458.24 118.39 457.888 118.678 457.6C118.966 457.312 119.318 457.168 119.734 457.168C120.134 457.168 120.47 457.312 120.742 457.6C121.03 457.888 121.174 458.24 121.174 458.656C121.174 459.072 121.03 459.424 120.742 459.712C120.47 460 120.134 460.144 119.734 460.144ZM161.475 496.152H163.467V517.896H161.475V496.152ZM152.019 497.832C155.235 497.832 157.539 500.784 157.539 505.392C157.539 510.024 155.235 512.976 152.019 512.976C148.827 512.976 146.523 510.024 146.523 505.392C146.523 500.784 148.827 497.832 152.019 497.832ZM152.019 499.632C149.907 499.632 148.419 501.888 148.419 505.392C148.419 508.92 149.907 511.224 152.019 511.224C154.155 511.224 155.619 508.92 155.619 505.392C155.619 501.888 154.155 499.632 152.019 499.632ZM180.208 509.52H181.744V510.696C181.744 513.528 179.968 516.384 176.848 517.584L175.84 516.096C178.576 515.112 180.208 512.784 180.208 510.696V509.52ZM180.64 509.52H182.128V510.696C182.128 512.88 183.424 515.208 186.016 516.264L185.176 517.776C182.056 516.552 180.64 513.576 180.64 510.696V509.52ZM188.224 509.52H189.712V510.696C189.712 513.24 188.272 516.456 185.176 517.776L184.336 516.264C186.904 515.088 188.224 512.568 188.224 510.696V509.52ZM188.632 509.52H190.168V510.696C190.168 512.928 191.776 515.16 194.536 516.096L193.528 517.584C190.36 516.432 188.632 513.696 188.632 510.696V509.52ZM190.576 496.2H192.592V508.584H190.576V496.2ZM180.952 497.448C184.24 497.448 186.592 499.512 186.592 502.512C186.592 505.512 184.24 507.552 180.952 507.552C177.664 507.552 175.288 505.512 175.288 502.512C175.288 499.512 177.664 497.448 180.952 497.448ZM180.952 499.104C178.792 499.104 177.232 500.496 177.232 502.512C177.232 504.528 178.792 505.896 180.952 505.896C183.112 505.896 184.672 504.528 184.672 502.512C184.672 500.496 183.112 499.104 180.952 499.104ZM199.826 502.68H214.562V504.312H199.826V502.68ZM197.162 507.216H216.842V508.848H197.162V507.216ZM199.826 496.968H201.794V503.496H199.826V496.968ZM199.682 515.712H214.682V517.344H199.682V515.712ZM199.682 511.008H201.65V516.144H199.682V511.008ZM236.631 500.16H242.439V501.792H236.631V500.16ZM236.439 504.672H242.295V506.304H236.439V504.672ZM242.103 496.176H244.095V509.184H242.103V496.176ZM235.311 497.808H237.447C237.447 503.4 233.583 507.312 227.343 509.184L226.527 507.576C232.071 505.968 235.311 502.776 235.311 498.672V497.808ZM227.655 497.808H236.679V499.44H227.655V497.808ZM237.039 509.424C241.431 509.424 244.215 510.984 244.215 513.6C244.215 516.216 241.431 517.776 237.039 517.776C232.647 517.776 229.863 516.216 229.863 513.6C229.863 510.984 232.647 509.424 237.039 509.424ZM237.039 510.984C233.871 510.984 231.831 511.968 231.831 513.6C231.831 515.232 233.871 516.192 237.039 516.192C240.231 516.192 242.271 515.232 242.271 513.6C242.271 511.968 240.231 510.984 237.039 510.984ZM248.617 508.608H268.297V510.24H248.617V508.608ZM257.401 509.616H259.369V517.872H257.401V509.616ZM258.409 497.04C262.945 497.04 265.993 498.888 265.993 501.792C265.993 504.696 262.945 506.544 258.409 506.544C253.897 506.544 250.825 504.696 250.825 501.792C250.825 498.888 253.897 497.04 258.409 497.04ZM258.409 498.648C255.097 498.648 252.841 499.872 252.841 501.792C252.841 503.712 255.097 504.936 258.409 504.936C261.721 504.936 263.953 503.712 263.953 501.792C263.953 499.872 261.721 498.648 258.409 498.648ZM287.581 499.296H294.205V500.928H287.581V499.296ZM287.581 504.288H294.205V505.944H287.581V504.288ZM283.621 497.448C286.813 497.448 289.213 499.608 289.213 502.608C289.213 505.632 286.813 507.768 283.621 507.768C280.405 507.768 278.029 505.632 278.029 502.608C278.029 499.608 280.405 497.448 283.621 497.448ZM283.621 499.152C281.509 499.152 279.949 500.568 279.949 502.608C279.949 504.648 281.509 506.064 283.621 506.064C285.733 506.064 287.317 504.648 287.317 502.608C287.317 500.568 285.733 499.152 283.621 499.152ZM293.557 496.176H295.549V509.016H293.557V496.176ZM288.421 509.52C292.885 509.52 295.645 511.056 295.645 513.672C295.645 516.312 292.885 517.824 288.421 517.824C283.933 517.824 281.173 516.312 281.173 513.672C281.173 511.056 283.933 509.52 288.421 509.52ZM288.421 511.104C285.133 511.104 283.141 512.064 283.141 513.672C283.141 515.304 285.133 516.264 288.421 516.264C291.685 516.264 293.677 515.304 293.677 513.672C293.677 512.064 291.685 511.104 288.421 511.104ZM305.351 497.304H307.007V499.512C307.007 503.688 304.655 507.144 301.031 508.56L299.975 506.952C303.239 505.752 305.351 502.824 305.351 499.512V497.304ZM305.711 497.304H307.343V499.656C307.343 502.584 309.503 505.296 312.623 506.376L311.567 507.936C308.087 506.64 305.711 503.424 305.711 499.656V497.304ZM314.927 496.176H316.919V509.328H314.927V496.176ZM316.367 501.768H320.135V503.448H316.367V501.768ZM310.007 509.928C314.447 509.928 317.135 511.392 317.135 513.888C317.135 516.384 314.447 517.824 310.007 517.824C305.567 517.824 302.879 516.384 302.879 513.888C302.879 511.392 305.567 509.928 310.007 509.928ZM310.007 511.512C306.791 511.512 304.823 512.376 304.823 513.888C304.823 515.4 306.791 516.264 310.007 516.264C313.223 516.264 315.191 515.4 315.191 513.888C315.191 512.376 313.223 511.512 310.007 511.512ZM59.992 524.536C64.768 524.536 67.624 525.88 67.624 528.304C67.624 530.728 64.768 532.072 59.992 532.072C55.192 532.072 52.36 530.728 52.36 528.304C52.36 525.88 55.192 524.536 59.992 524.536ZM59.992 526.048C56.44 526.048 54.4 526.864 54.4 528.304C54.4 529.744 56.44 530.56 59.992 530.56C63.52 530.56 65.56 529.744 65.56 528.304C65.56 526.864 63.52 526.048 59.992 526.048ZM50.176 533.512H69.784V535.12H50.176V533.512ZM52.552 536.968H67.288V541.864H54.568V544.504H52.6V540.424H65.32V538.504H52.552V536.968ZM52.6 544.072H67.936V545.632H52.6V544.072ZM189.64 524.104H191.632V536.08H189.64V524.104ZM190.792 529.312H194.848V530.992H190.792V529.312ZM177.856 537.184H191.632V542.032H179.872V544.672H177.904V540.592H189.688V538.696H177.856V537.184ZM177.904 544.096H192.424V545.632H177.904V544.096ZM174.856 526.12H187.672V527.68H174.856V526.12ZM181.264 528.64C184.384 528.64 186.448 530.008 186.448 532.216C186.448 534.4 184.384 535.744 181.264 535.744C178.096 535.744 176.056 534.4 176.056 532.216C176.056 530.008 178.096 528.64 181.264 528.64ZM181.264 530.104C179.248 530.104 177.952 530.92 177.952 532.216C177.952 533.488 179.248 534.304 181.264 534.304C183.256 534.304 184.552 533.488 184.552 532.216C184.552 530.92 183.256 530.104 181.264 530.104ZM180.256 523.936H182.248V527.2H180.256V523.936ZM212.644 524.944H214.396V526.144C214.396 530.296 210.172 533.272 205.66 534.04L204.868 532.432C208.828 531.832 212.644 529.24 212.644 526.144V524.944ZM213.004 524.944H214.732V526.144C214.732 529.168 218.596 531.832 222.508 532.432L221.716 534.04C217.252 533.272 213.004 530.248 213.004 526.144V524.944ZM212.644 537.616H214.612V545.872H212.644V537.616ZM203.884 536.392H223.492V538.048H203.884V536.392ZM238.361 537.52H239.897V538.696C239.897 541.528 238.121 544.384 235.001 545.584L233.993 544.096C236.729 543.112 238.361 540.784 238.361 538.696V537.52ZM238.793 537.52H240.281V538.696C240.281 540.88 241.577 543.208 244.169 544.264L243.329 545.776C240.209 544.552 238.793 541.576 238.793 538.696V537.52ZM246.377 537.52H247.865V538.696C247.865 541.24 246.425 544.456 243.329 545.776L242.489 544.264C245.057 543.088 246.377 540.568 246.377 538.696V537.52ZM246.785 537.52H248.321V538.696C248.321 540.928 249.929 543.16 252.689 544.096L251.681 545.584C248.513 544.432 246.785 541.696 246.785 538.696V537.52ZM248.729 524.2H250.745V536.584H248.729V524.2ZM239.105 525.448C242.393 525.448 244.745 527.512 244.745 530.512C244.745 533.512 242.393 535.552 239.105 535.552C235.817 535.552 233.441 533.512 233.441 530.512C233.441 527.512 235.817 525.448 239.105 525.448ZM239.105 527.104C236.945 527.104 235.385 528.496 235.385 530.512C235.385 532.528 236.945 533.896 239.105 533.896C241.265 533.896 242.825 532.528 242.825 530.512C242.825 528.496 241.265 527.104 239.105 527.104ZM261.123 525.832C264.267 525.832 266.523 528.784 266.523 533.392C266.523 538.024 264.267 540.976 261.123 540.976C257.955 540.976 255.723 538.024 255.723 533.392C255.723 528.784 257.955 525.832 261.123 525.832ZM261.123 527.632C259.035 527.632 257.619 529.888 257.619 533.392C257.619 536.92 259.035 539.224 261.123 539.224C263.211 539.224 264.627 536.92 264.627 533.392C264.627 529.888 263.211 527.632 261.123 527.632ZM271.227 524.152H273.195V545.896H271.227V524.152ZM265.875 532.432H272.091V534.064H265.875V532.432ZM282.517 535.336H284.485V541.84H282.517V535.336ZM290.533 535.336H292.525V541.84H290.533V535.336ZM277.717 541.456H297.373V543.112H277.717V541.456ZM287.509 525.544C292.093 525.544 295.381 527.728 295.381 531.136C295.381 534.52 292.093 536.704 287.509 536.704C282.901 536.704 279.613 534.52 279.613 531.136C279.613 527.728 282.901 525.544 287.509 525.544ZM287.509 527.128C284.029 527.128 281.533 528.712 281.533 531.136C281.533 533.536 284.029 535.12 287.509 535.12C290.989 535.12 293.461 533.536 293.461 531.136C293.461 528.712 290.989 527.128 287.509 527.128ZM301.439 544.144C301.023 544.144 300.671 544 300.383 543.712C300.095 543.424 299.951 543.072 299.951 542.656C299.951 542.24 300.095 541.888 300.383 541.6C300.671 541.312 301.023 541.168 301.439 541.168C301.839 541.168 302.175 541.312 302.447 541.6C302.735 541.888 302.879 542.24 302.879 542.656C302.879 543.072 302.735 543.424 302.447 543.712C302.175 544 301.839 544.144 301.439 544.144ZM55.864 590.352H57.856V593.136H55.864V590.352ZM65.008 580.2H67V594.744H65.008V580.2ZM66.16 586.752H70.168V588.408H66.16V586.752ZM50.32 594.12L50.056 592.488C53.944 592.488 59.224 592.488 63.712 591.84L63.88 593.256C59.248 594.072 54.112 594.096 50.32 594.12ZM52.744 595.824H67V601.872H65.008V597.408H52.744V595.824ZM50.608 582.144H63.064V583.632H50.608V582.144ZM56.848 584.472C59.896 584.472 61.888 585.696 61.888 587.688C61.888 589.68 59.896 590.904 56.848 590.904C53.776 590.904 51.784 589.68 51.784 587.688C51.784 585.696 53.776 584.472 56.848 584.472ZM56.848 585.84C54.904 585.84 53.656 586.536 53.656 587.688C53.656 588.792 54.904 589.512 56.848 589.512C58.768 589.512 60.016 588.792 60.016 587.688C60.016 586.536 58.768 585.84 56.848 585.84ZM55.864 580.008H57.856V582.864H55.864V580.008ZM88.3461 580.2H90.3621V596.04H88.3461V580.2ZM76.4181 599.76H91.0101V601.392H76.4181V599.76ZM76.4181 594.408H78.3861V600.312H76.4181V594.408ZM78.7221 581.688C81.9621 581.688 84.3621 583.896 84.3621 587.04C84.3621 590.16 81.9621 592.392 78.7221 592.392C75.4821 592.392 73.0581 590.16 73.0581 587.04C73.0581 583.896 75.4821 581.688 78.7221 581.688ZM78.7221 583.416C76.6101 583.416 75.0021 584.904 75.0021 587.04C75.0021 589.152 76.6101 590.64 78.7221 590.64C80.8341 590.64 82.4421 589.152 82.4421 587.04C82.4421 584.904 80.8341 583.416 78.7221 583.416ZM110.7 580.152H112.692V601.896H110.7V580.152ZM101.244 581.832C104.46 581.832 106.764 584.784 106.764 589.392C106.764 594.024 104.46 596.976 101.244 596.976C98.0522 596.976 95.7482 594.024 95.7482 589.392C95.7482 584.784 98.0522 581.832 101.244 581.832ZM101.244 583.632C99.1322 583.632 97.6442 585.888 97.6442 589.392C97.6442 592.92 99.1322 595.224 101.244 595.224C103.38 595.224 104.844 592.92 104.844 589.392C104.844 585.888 103.38 583.632 101.244 583.632ZM129.625 589.176H131.617V592.464H129.625V589.176ZM130.561 581.16C133.705 581.16 135.913 582.888 135.913 585.456C135.913 588.024 133.705 589.728 130.561 589.728C127.441 589.728 125.233 588.024 125.233 585.456C125.233 582.888 127.441 581.16 130.561 581.16ZM130.561 582.696C128.521 582.696 127.105 583.824 127.105 585.456C127.105 587.112 128.521 588.216 130.561 588.216C132.625 588.216 134.041 587.112 134.041 585.456C134.041 583.824 132.625 582.696 130.561 582.696ZM138.841 580.2H140.833V596.784H138.841V580.2ZM139.993 587.52H144.001V589.176H139.993V587.52ZM127.105 599.736H141.601V601.392H127.105V599.736ZM127.105 595.368H129.097V600.456H127.105V595.368ZM124.249 593.568L123.985 591.936C127.801 591.936 133.081 591.888 137.497 591.216L137.641 592.68C133.105 593.52 127.969 593.568 124.249 593.568ZM151.883 592.896H153.851V598.224H151.883V592.896ZM158.819 592.848H160.763V598.2H158.819V592.848ZM146.411 597.552H166.067V599.208H146.411V597.552ZM148.787 581.784H163.643V588.336H150.827V592.704H148.859V586.752H161.675V583.392H148.787V581.784ZM148.859 591.816H164.147V593.448H148.859V591.816ZM170.493 589.512H181.605V591.144H170.493V589.512ZM174.933 590.808H176.949V595.8H174.933V590.808ZM170.493 582.216H181.485V583.848H172.485V590.088H170.493V582.216ZM184.461 580.152H186.453V601.896H184.461V580.152ZM169.173 597.192L168.885 595.536C173.133 595.512 178.461 595.464 183.045 594.912L183.213 596.4C178.461 597.12 173.277 597.216 169.173 597.192ZM201.559 583.992H207.631V585.624H201.559V583.992ZM201.559 588.624H207.679V590.28H201.559V588.624ZM192.151 582.048H202.063V592.224H192.151V582.048ZM200.095 583.656H194.095V590.616H200.095V583.656ZM207.007 580.2H208.999V596.04H207.007V580.2ZM195.055 599.76H209.527V601.392H195.055V599.76ZM195.055 594.6H197.047V600.504H195.055V594.6ZM230.108 583.296H236.732V584.928H230.108V583.296ZM230.108 588.288H236.732V589.944H230.108V588.288ZM226.148 581.448C229.34 581.448 231.74 583.608 231.74 586.608C231.74 589.632 229.34 591.768 226.148 591.768C222.932 591.768 220.556 589.632 220.556 586.608C220.556 583.608 222.932 581.448 226.148 581.448ZM226.148 583.152C224.036 583.152 222.476 584.568 222.476 586.608C222.476 588.648 224.036 590.064 226.148 590.064C228.26 590.064 229.844 588.648 229.844 586.608C229.844 584.568 228.26 583.152 226.148 583.152ZM236.084 580.176H238.076V593.016H236.084V580.176ZM230.948 593.52C235.412 593.52 238.172 595.056 238.172 597.672C238.172 600.312 235.412 601.824 230.948 601.824C226.46 601.824 223.7 600.312 223.7 597.672C223.7 595.056 226.46 593.52 230.948 593.52ZM230.948 595.104C227.66 595.104 225.668 596.064 225.668 597.672C225.668 599.304 227.66 600.264 230.948 600.264C234.212 600.264 236.204 599.304 236.204 597.672C236.204 596.064 234.212 595.104 230.948 595.104ZM247.878 581.304H249.534V583.512C249.534 587.688 247.182 591.144 243.558 592.56L242.502 590.952C245.766 589.752 247.878 586.824 247.878 583.512V581.304ZM248.238 581.304H249.87V583.656C249.87 586.584 252.03 589.296 255.15 590.376L254.094 591.936C250.614 590.64 248.238 587.424 248.238 583.656V581.304ZM257.454 580.176H259.446V593.328H257.454V580.176ZM258.894 585.768H262.662V587.448H258.894V585.768ZM252.534 593.928C256.974 593.928 259.662 595.392 259.662 597.888C259.662 600.384 256.974 601.824 252.534 601.824C248.094 601.824 245.406 600.384 245.406 597.888C245.406 595.392 248.094 593.928 252.534 593.928ZM252.534 595.512C249.318 595.512 247.35 596.376 247.35 597.888C247.35 599.4 249.318 600.264 252.534 600.264C255.75 600.264 257.718 599.4 257.718 597.888C257.718 596.376 255.75 595.512 252.534 595.512ZM264.976 591.576H284.584V593.208H264.976V591.576ZM267.52 599.76H282.424V601.392H267.52V599.76ZM267.52 595.104H269.512V600.264H267.52V595.104ZM274.792 580.896C279.424 580.896 282.424 582.528 282.424 585.24C282.424 587.928 279.424 589.56 274.792 589.56C270.136 589.56 267.16 587.928 267.16 585.24C267.16 582.528 270.136 580.896 274.792 580.896ZM274.792 582.528C271.384 582.528 269.2 583.536 269.2 585.24C269.2 586.944 271.384 587.952 274.792 587.952C278.2 587.952 280.384 586.944 280.384 585.24C280.384 583.536 278.2 582.528 274.792 582.528ZM310.589 580.176H312.509V601.872H310.589V580.176ZM301.181 589.032H306.653V590.64H301.181V589.032ZM306.077 580.728H307.949V600.768H306.077V580.728ZM301.445 582.912H303.365C303.365 588.6 301.085 593.712 295.229 597.192L294.053 595.776C299.165 592.704 301.445 588.384 301.445 583.272V582.912ZM295.013 582.912H302.189V584.544H295.013V582.912ZM322.167 582.048H323.799V585.936C323.799 590.928 321.111 595.56 317.559 597.36L316.335 595.728C319.551 594.192 322.167 590.04 322.167 585.936V582.048ZM322.503 582.048H324.135V585.936C324.135 589.896 326.727 593.88 329.943 595.368L328.743 596.952C325.215 595.224 322.503 590.76 322.503 585.936V582.048ZM332.199 580.152H334.191V601.896H332.199V580.152ZM51.904 617.512H63.016V619.144H51.904V617.512ZM56.344 618.808H58.36V623.8H56.344V618.808ZM51.904 610.216H62.896V611.848H53.896V618.088H51.904V610.216ZM65.872 608.152H67.864V629.896H65.872V608.152ZM50.584 625.192L50.296 623.536C54.544 623.512 59.872 623.464 64.456 622.912L64.624 624.4C59.872 625.12 54.688 625.216 50.584 625.192ZM78.3621 609.832C81.5061 609.832 83.7621 612.784 83.7621 617.392C83.7621 622.024 81.5061 624.976 78.3621 624.976C75.1941 624.976 72.9621 622.024 72.9621 617.392C72.9621 612.784 75.1941 609.832 78.3621 609.832ZM78.3621 611.632C76.2741 611.632 74.8581 613.888 74.8581 617.392C74.8581 620.92 76.2741 623.224 78.3621 623.224C80.4501 623.224 81.8661 620.92 81.8661 617.392C81.8661 613.888 80.4501 611.632 78.3621 611.632ZM88.4661 608.152H90.4341V629.896H88.4661V608.152ZM83.1141 616.432H89.3301V618.064H83.1141V616.432ZM270.488 615.52H272.504V619.12H270.488V615.52ZM280.112 608.176H282.104V620.68H280.112V608.176ZM264.68 620.152L264.392 618.544C268.352 618.544 273.752 618.496 278.336 617.824L278.48 619.24C273.752 620.08 268.544 620.152 264.68 620.152ZM266.336 614.512H276.752V616.12H266.336V614.512ZM266.336 609.256H276.56V610.888H268.328V615.136H266.336V609.256ZM267.872 621.64H269.864V623.92H280.136V621.64H282.104V629.584H267.872V621.64ZM269.864 625.48V627.976H280.136V625.48H269.864ZM302.466 608.176H304.458V629.872H302.466V608.176ZM288.066 610.288H290.034V623.728H288.066V610.288ZM288.066 622.552H289.842C293.13 622.552 296.562 622.312 300.234 621.544L300.474 623.248C296.706 624.016 293.274 624.28 289.842 624.28H288.066V622.552ZM323.741 608.152H325.757V629.896H323.741V608.152ZM325.277 616.72H329.309V618.4H325.277V616.72ZM309.989 622.816H311.693C315.701 622.816 318.509 622.672 321.749 622.072L321.965 623.752C318.629 624.376 315.773 624.496 311.693 624.496H309.989V622.816ZM309.989 610.264H320.069V611.896H311.957V623.56H309.989V610.264ZM332.799 628.144C332.383 628.144 332.031 628 331.743 627.712C331.455 627.424 331.311 627.072 331.311 626.656C331.311 626.24 331.455 625.888 331.743 625.6C332.031 625.312 332.383 625.168 332.799 625.168C333.199 625.168 333.535 625.312 333.807 625.6C334.095 625.888 334.239 626.24 334.239 626.656C334.239 627.072 334.095 627.424 333.807 627.712C333.535 628 333.199 628.144 332.799 628.144Z" fill="black"/>
<path d="M168.325 411.888H171.517V434.184H168.325V411.888ZM164.437 419.664H169.069V422.232H164.437V419.664ZM158.005 415.416H160.525V417.384C160.525 422.808 158.557 427.992 154.405 430.032L152.533 427.512C156.253 425.76 158.005 421.512 158.005 417.384V415.416ZM158.749 415.416H161.245V417.384C161.245 421.296 162.973 425.4 166.693 427.08L164.845 429.576C160.669 427.608 158.749 422.64 158.749 417.384V415.416ZM153.445 414.048H165.805V416.616H153.445V414.048ZM190.607 411.912H193.799V434.136H190.607V411.912ZM175.751 430.344L175.367 427.728C179.423 427.728 184.775 427.776 189.455 427.128L189.671 429.456C184.775 430.344 179.711 430.368 175.751 430.344ZM175.799 414.576H189.167V417.096H175.799V414.576ZM182.471 417.936C185.711 417.936 187.967 419.64 187.967 422.184C187.967 424.68 185.711 426.384 182.471 426.384C179.279 426.384 177.023 424.68 177.023 422.184C177.023 419.64 179.279 417.936 182.471 417.936ZM182.471 420.384C181.031 420.384 180.047 421.008 180.047 422.184C180.047 423.336 181.031 423.984 182.471 423.984C183.935 423.984 184.919 423.336 184.919 422.184C184.919 421.008 183.935 420.384 182.471 420.384ZM180.863 412.152H184.079V416.256H180.863V412.152ZM211.834 411.888H215.05V434.112H211.834V411.888ZM214.21 420.384H218.122V423H214.21V420.384ZM206.002 414.192H209.122C209.122 420.864 206.578 426.576 199.186 430.296L197.41 427.872C203.242 424.848 206.002 420.768 206.002 414.744V414.192ZM198.634 414.192H207.634V416.76H198.634V414.192ZM242.079 411.912H245.103V434.136H242.079V411.912ZM239.103 420.456H242.799V423.024H239.103V420.456ZM237.111 412.296H240.062V433.08H237.111V412.296ZM226.646 426.504H228.207C230.943 426.504 233.223 426.408 235.863 425.928L236.103 428.52C233.415 429.048 231.062 429.12 228.207 429.12H226.646V426.504ZM226.646 414.48H234.855V417.048H229.815V427.752H226.646V414.48ZM263.665 411.936H266.881V428.136H263.665V411.936ZM252.073 431.208H267.433V433.752H252.073V431.208ZM252.073 426.576H255.265V432.528H252.073V426.576ZM253.609 413.136H256.249V415.296C256.249 419.64 254.257 423.648 249.937 425.16L248.329 422.616C252.049 421.344 253.609 418.248 253.609 415.296V413.136ZM254.257 413.136H256.873V415.296C256.873 418.2 258.385 421.056 262.033 422.232L260.401 424.776C256.201 423.36 254.257 419.592 254.257 415.296V413.136ZM281.741 414.192H284.357V415.584C284.357 419.784 282.365 423.552 278.117 424.92L276.461 422.448C280.181 421.248 281.741 418.368 281.741 415.584V414.192ZM282.389 414.192H284.981V415.584C284.981 418.2 286.493 420.912 290.093 422.064L288.461 424.536C284.309 423.192 282.389 419.568 282.389 415.584V414.192ZM277.325 413.208H289.325V415.752H277.325V413.208ZM291.101 411.912H294.293V425.304H291.101V411.912ZM293.405 417.288H297.245V419.904H293.405V417.288ZM279.461 426.264H294.293V434.136H291.101V428.832H279.461V426.264ZM304.336 413.064H307V415.056C307 419.52 305.008 423.432 300.64 424.896L298.984 422.328C302.776 421.104 304.336 418.104 304.336 415.056V413.064ZM305.008 413.064H307.576V414.912C307.576 417.864 309.016 420.6 312.544 421.728L310.888 424.224C306.784 422.808 305.008 419.232 305.008 414.912V413.064ZM314.584 411.912H317.776V424.92H314.584V411.912ZM310.24 425.496C314.944 425.496 317.848 427.104 317.848 429.816C317.848 432.552 314.944 434.136 310.24 434.136C305.536 434.136 302.632 432.552 302.632 429.816C302.632 427.104 305.536 425.496 310.24 425.496ZM310.24 427.968C307.36 427.968 305.824 428.568 305.824 429.816C305.824 431.064 307.36 431.688 310.24 431.688C313.144 431.688 314.68 431.064 314.68 429.816C314.68 428.568 313.144 427.968 310.24 427.968ZM310.528 415.944H315.04V418.536H310.528V415.944ZM62.008 501.288H66.232V503.88H62.008V501.288ZM65.368 495.912H68.56V509.112H65.368V495.912ZM61.024 509.592C65.728 509.592 68.632 511.2 68.632 513.888C68.632 516.6 65.728 518.16 61.024 518.16C56.32 518.16 53.416 516.6 53.416 513.888C53.416 511.2 56.32 509.592 61.024 509.592ZM61.024 512.016C58.144 512.016 56.608 512.616 56.608 513.888C56.608 515.136 58.144 515.736 61.024 515.736C63.928 515.736 65.464 515.136 65.464 513.888C65.464 512.616 63.928 512.016 61.024 512.016ZM55.096 498.144H57.688V499.536C57.688 503.784 55.72 507.672 51.472 509.112L49.84 506.592C53.512 505.344 55.096 502.392 55.096 499.536V498.144ZM55.768 498.144H58.336V499.536C58.336 502.152 59.848 504.864 63.352 506.04L61.792 508.56C57.664 507.192 55.768 503.496 55.768 499.536V498.144ZM50.704 497.256H62.656V499.8H50.704V497.256ZM72.3621 512.976H92.4741V515.568H72.3621V512.976ZM80.7861 508.224H83.9781V513.6H80.7861V508.224ZM74.4741 497.328H77.6421V500.736H87.1221V497.328H90.2901V508.896H74.4741V497.328ZM77.6421 503.232V506.352H87.1221V503.232H77.6421ZM103.231 502.824H118.783V505.368H103.231V502.824ZM100.759 507.888H120.871V510.456H100.759V507.888ZM109.111 509.424H112.303V518.136H109.111V509.424ZM103.231 496.896H106.423V504.024H103.231V496.896ZM123.905 506.064H125.777C130.145 506.064 132.833 505.968 135.905 505.392L136.193 507.936C133.073 508.536 130.265 508.656 125.777 508.656H123.905V506.064ZM123.881 497.136H134.033V503.976H127.073V507.288H123.905V501.6H130.889V499.68H123.881V497.136ZM137.417 495.936H140.609V509.424H137.417V495.936ZM139.697 501.216H143.561V503.832H139.697V501.216ZM125.777 510.432H140.609V518.136H137.417V512.976H125.777V510.432ZM93.2446 523.888H96.4606V546.184H93.2446V523.888ZM95.7406 532.12H99.6766V534.736H95.7406V532.12ZM79.9006 538.192H81.7726C85.5166 538.192 88.4686 538.072 91.7326 537.496L92.0446 540.136C88.6846 540.736 85.6366 540.832 81.7726 540.832H79.9006V538.192ZM79.9006 525.952H90.2686V528.52H83.0686V539.464H79.9006V525.952ZM106.839 525.616H109.431V528.856C109.431 534.568 107.463 539.728 103.047 541.768L101.151 539.128C105.015 537.448 106.839 533.176 106.839 528.856V525.616ZM107.463 525.616H110.055V528.856C110.055 532.96 111.807 537.04 115.599 538.672L113.727 541.24C109.431 539.272 107.463 534.328 107.463 528.856V525.616ZM116.655 523.888H119.871V546.184H116.655V523.888ZM134.252 535.192H137.42V541.432H134.252V535.192ZM142.316 535.192H145.508V541.432H142.316V535.192ZM129.836 540.976H149.948V543.568H129.836V540.976ZM139.868 524.992C144.644 524.992 148.172 527.344 148.172 530.968C148.172 534.592 144.644 536.92 139.868 536.92C135.068 536.92 131.564 534.592 131.564 530.968C131.564 527.344 135.068 524.992 139.868 524.992ZM139.868 527.488C136.772 527.488 134.708 528.76 134.708 530.968C134.708 533.152 136.772 534.448 139.868 534.448C142.964 534.448 145.028 533.152 145.028 530.968C145.028 528.76 142.964 527.488 139.868 527.488ZM154.494 525.208H168.438V527.728H154.494V525.208ZM152.214 534.664H172.302V537.232H152.214V534.664ZM160.542 536.464H163.758V546.16H160.542V536.464ZM166.806 525.208H169.95V527.176C169.95 529.576 169.95 532.264 169.086 536.2L165.942 535.84C166.806 532.12 166.806 529.48 166.806 527.176V525.208ZM101.439 624.928H121.551V627.544H101.439V624.928ZM109.791 619.984H112.959V625.624H109.791V619.984ZM109.671 609.136H112.455V610.744C112.455 615.472 109.023 619.648 103.215 620.704L101.895 618.04C106.959 617.224 109.671 613.816 109.671 610.744V609.136ZM110.295 609.136H113.079V610.744C113.079 613.888 115.791 617.224 120.879 618.04L119.559 620.704C113.727 619.624 110.295 615.544 110.295 610.744V609.136ZM139.033 607.888H142.249V630.184H139.033V607.888ZM124.897 609.664H128.065V615.064H132.649V609.664H135.817V625H124.897V609.664ZM128.065 617.536V622.432H132.649V617.536H128.065ZM151.163 611.416H153.683V613.912C153.683 618.928 151.571 624.04 147.491 625.96L145.691 623.44C149.363 621.712 151.163 617.56 151.163 613.912V611.416ZM151.835 611.416H154.355V613.912C154.355 617.272 156.083 621.208 159.731 622.888L157.979 625.408C153.899 623.512 151.835 618.64 151.835 613.912V611.416ZM146.555 610.048H158.747V612.664H146.555V610.048ZM160.379 607.912H163.595V630.136H160.379V607.912ZM162.875 616.384H166.811V619.024H162.875V616.384ZM177.429 616.096H181.077V618.664H177.429V616.096ZM184.605 607.912H187.653V630.136H184.605V607.912ZM180.069 608.248H183.069V629.128H180.069V608.248ZM173.541 609.472C176.493 609.472 178.389 612.52 178.389 617.536C178.389 622.576 176.493 625.624 173.541 625.624C170.613 625.624 168.741 622.576 168.741 617.536C168.741 612.52 170.613 609.472 173.541 609.472ZM173.541 612.472C172.341 612.472 171.645 614.152 171.645 617.536C171.645 620.944 172.341 622.6 173.541 622.6C174.789 622.6 175.485 620.944 175.485 617.536C175.485 614.152 174.789 612.472 173.541 612.472ZM207.031 607.912H210.079V630.136H207.031V607.912ZM198.223 616.432H202.975V618.952H198.223V616.432ZM202.351 608.392H205.327V629.152H202.351V608.392ZM197.503 610.528H200.575C200.575 616.864 198.679 621.904 192.439 625.528L190.639 623.296C195.703 620.248 197.503 616.552 197.503 611.176V610.528ZM191.887 610.528H198.511V613.072H191.887V610.528ZM235.38 607.912H238.404V630.136H235.38V607.912ZM228.06 615.496H231.732V618.088H228.06V615.496ZM230.892 608.272H233.868V629.128H230.892V608.272ZM223.26 611.536H225.66V613.816C225.66 618.808 224.292 623.776 220.764 625.984L218.868 623.632C222.132 621.592 223.26 617.608 223.26 613.816V611.536ZM223.98 611.536H226.356V613.816C226.356 617.512 227.46 621.256 230.676 623.128L228.804 625.456C225.276 623.368 223.98 618.712 223.98 613.816V611.536ZM219.708 610.144H229.62V612.712H219.708V610.144ZM251.638 621.736C256.438 621.736 259.51 623.32 259.51 625.96C259.51 628.552 256.438 630.136 251.638 630.136C246.838 630.136 243.766 628.552 243.766 625.96C243.766 623.32 246.838 621.736 251.638 621.736ZM251.638 624.136C248.638 624.136 246.934 624.76 246.934 625.96C246.934 627.136 248.638 627.736 251.638 627.736C254.638 627.736 256.342 627.136 256.342 625.96C256.342 624.76 254.638 624.136 251.638 624.136ZM244.006 608.896H258.07V611.416H244.006V608.896ZM241.75 617.824H261.766V620.368H241.75V617.824ZM249.166 613.96H252.334V618.472H249.166V613.96ZM256.222 608.896H259.39V610.72C259.39 612.472 259.39 614.368 258.79 616.672L255.622 616.336C256.222 614.056 256.222 612.448 256.222 610.72V608.896Z" fill="#23AA49"/>
<mask id="mask0_774_180" style="mask-type:luminance" maskUnits="userSpaceOnUse" x="167" y="99" width="55" height="55">
<path d="M194.5 151.083C197.729 151.088 200.927 150.454 203.91 149.218C206.893 147.982 209.603 146.169 211.883 143.883C214.169 141.603 215.982 138.893 217.218 135.91C218.454 132.927 219.088 129.729 219.083 126.5C219.088 123.271 218.454 120.073 217.218 117.09C215.982 114.107 214.169 111.397 211.883 109.117C209.603 106.831 206.893 105.018 203.91 103.782C200.927 102.547 197.729 101.913 194.5 101.917C191.271 101.913 188.073 102.547 185.09 103.782C182.107 105.018 179.397 106.831 177.117 109.117C174.831 111.397 173.018 114.107 171.782 117.09C170.547 120.073 169.913 123.271 169.917 126.5C169.913 129.729 170.547 132.927 171.782 135.91C173.018 138.893 174.831 141.603 177.117 143.883C179.397 146.169 182.107 147.982 185.09 149.218C188.073 150.454 191.271 151.088 194.5 151.083Z" fill="white" stroke="white" stroke-width="4" stroke-linejoin="round"/>
<path d="M184.667 126.5L192.042 133.875L206.792 119.125" stroke="black" stroke-width="4" stroke-linecap="round" stroke-linejoin="round"/>
</mask>
<g mask="url(#mask0_774_180)">
<path d="M165 97H224V156H165V97Z" fill="#23AA49"/>
</g>
<rect x="18" y="732" width="354" height="70" rx="15" fill="#1DAB45"/>
<path d="M115.234 765.352H135.346V767.896H115.234V765.352ZM123.706 762.016H126.874V766.336H123.706V762.016ZM117.658 761.008H133.066V763.528H117.658V761.008ZM117.658 755.872H132.946V758.368H120.826V762.616H117.658V755.872ZM125.218 769C130.018 769 132.922 770.464 132.922 773.08C132.922 775.696 130.018 777.16 125.218 777.16C120.418 777.16 117.49 775.696 117.49 773.08C117.49 770.464 120.418 769 125.218 769ZM125.218 771.4C122.242 771.4 120.73 771.952 120.73 773.08C120.73 774.232 122.242 774.736 125.218 774.736C128.194 774.736 129.706 774.232 129.706 773.08C129.706 771.952 128.194 771.4 125.218 771.4ZM147.128 757.816H153.704V760.36H147.128V757.816ZM147.128 762.736H153.704V765.304H147.128V762.736ZM143.432 756.088C146.744 756.088 149.288 758.392 149.288 761.536C149.288 764.68 146.744 766.984 143.432 766.984C140.096 766.984 137.552 764.68 137.552 761.536C137.552 758.392 140.096 756.088 143.432 756.088ZM143.432 758.8C141.8 758.8 140.6 759.784 140.6 761.536C140.6 763.264 141.8 764.296 143.432 764.296C145.064 764.296 146.264 763.264 146.264 761.536C146.264 759.784 145.064 758.8 143.432 758.8ZM152.696 754.912H155.888V767.92H152.696V754.912ZM148.352 768.376C153.032 768.376 155.96 770.008 155.96 772.768C155.96 775.528 153.032 777.136 148.352 777.136C143.672 777.136 140.744 775.528 140.744 772.768C140.744 770.008 143.672 768.376 148.352 768.376ZM148.352 770.848C145.448 770.848 143.888 771.472 143.888 772.768C143.888 774.064 145.448 774.688 148.352 774.688C151.28 774.688 152.816 774.064 152.816 772.768C152.816 771.472 151.28 770.848 148.352 770.848ZM164.238 756.112H166.854V758.08C166.854 762.496 164.934 766.384 160.71 767.848L159.006 765.328C162.726 764.08 164.238 761.104 164.238 758.08V756.112ZM164.886 756.112H167.478V758.392C167.478 761.056 168.966 763.648 172.446 764.728L170.79 767.2C166.782 765.856 164.886 762.4 164.886 758.392V756.112ZM173.67 754.912H176.862V768.04H173.67V754.912ZM175.974 760.048H179.814V762.688H175.974V760.048ZM169.614 768.544C174.222 768.544 177.126 770.152 177.126 772.84C177.126 775.552 174.222 777.136 169.614 777.136C164.982 777.136 162.078 775.552 162.078 772.84C162.078 770.152 164.982 768.544 169.614 768.544ZM169.614 771.016C166.782 771.016 165.246 771.616 165.246 772.84C165.246 774.088 166.782 774.664 169.614 774.664C172.446 774.664 173.958 774.088 173.958 772.84C173.958 771.616 172.446 771.016 169.614 771.016ZM187.422 765.064H207.534V767.656H187.422V765.064ZM189.846 761.008H205.254V763.528H189.846V761.008ZM189.846 755.512H205.134V758.056H193.014V762.256H189.846V755.512ZM197.406 768.976C202.206 768.976 205.11 770.44 205.11 773.056C205.11 775.672 202.206 777.136 197.406 777.136C192.605 777.136 189.678 775.672 189.678 773.056C189.678 770.44 192.605 768.976 197.406 768.976ZM197.406 771.376C194.43 771.376 192.918 771.928 192.918 773.056C192.918 774.208 194.43 774.712 197.406 774.712C200.382 774.712 201.894 774.208 201.894 773.056C201.894 771.928 200.382 771.376 197.406 771.376ZM209.476 766.816H229.612V769.36H209.476V766.816ZM211.948 755.344H227.164V761.368H215.14V763.768H211.972V759.112H224.02V757.768H211.948V755.344ZM211.972 762.808H227.596V765.232H211.972V762.808ZM217.948 763.984H221.14V768.208H217.948V763.984ZM211.708 770.608H227.308V777.064H224.116V773.128H211.708V770.608ZM245.81 754.912H248.978V777.136H245.81V754.912ZM248.258 763.576H252.194V766.24H248.258V763.576ZM231.458 758.2H244.394V760.744H231.458V758.2ZM237.962 761.992C241.202 761.992 243.602 764.2 243.602 767.296C243.602 770.392 241.202 772.6 237.962 772.6C234.722 772.6 232.322 770.392 232.322 767.296C232.322 764.2 234.722 761.992 237.962 761.992ZM237.962 764.584C236.45 764.584 235.37 765.592 235.37 767.296C235.37 769 236.45 770.008 237.962 770.008C239.474 770.008 240.554 769 240.554 767.296C240.554 765.592 239.474 764.584 237.962 764.584ZM236.354 755.272H239.546V759.16H236.354V755.272ZM268.944 754.912H272.16V777.136H268.944V754.912ZM262.392 757.216H265.56C265.56 764.008 263.256 769.576 255.36 773.392L253.704 770.848C260.088 767.776 262.392 763.744 262.392 757.792V757.216ZM254.88 757.216H263.904V759.736H254.88V757.216Z" fill="white"/>
<rect x="61" y="170" width="264" height="165" fill="#D9D9D9"/>
<g clip-path="url(#clip1_774_180)">
<path d="M195 227C201.63 227 207.989 229.687 212.678 234.469C217.366 239.251 220 245.737 220 252.5C220 259.263 217.366 265.749 212.678 270.531C207.989 275.313 201.63 278 195 278C188.37 278 182.011 275.313 177.322 270.531C172.634 265.749 170 259.263 170 252.5C170 245.737 172.634 239.251 177.322 234.469C182.011 229.687 188.37 227 195 227ZM174.688 252.5C174.688 257.995 176.828 263.265 180.637 267.15C184.446 271.036 189.613 273.219 195 273.219C200.387 273.219 205.554 271.036 209.363 267.15C213.172 263.265 215.312 257.995 215.312 252.5C215.312 247.005 213.172 241.735 209.363 237.85C205.554 233.964 200.387 231.781 195 231.781C189.613 231.781 184.446 233.964 180.637 237.85C176.828 241.735 174.688 247.005 174.688 252.5ZM189.934 243.661L203.259 251.818C203.375 251.889 203.47 251.989 203.536 252.108C203.602 252.228 203.637 252.363 203.637 252.5C203.637 252.637 203.602 252.772 203.536 252.892C203.47 253.011 203.375 253.111 203.259 253.182L189.934 261.339C189.816 261.412 189.681 261.451 189.542 261.453C189.404 261.455 189.268 261.42 189.147 261.35C189.027 261.281 188.926 261.18 188.857 261.058C188.787 260.936 188.75 260.798 188.75 260.657V244.346C188.75 244.205 188.786 244.066 188.855 243.944C188.925 243.821 189.025 243.72 189.146 243.651C189.266 243.581 189.403 243.545 189.541 243.547C189.68 243.549 189.816 243.588 189.934 243.661Z" fill="#333333"/>
</g>
<g style="mix-blend-mode:multiply" opacity="0.9">
<path d="M1 0H391V714H1V0Z" fill="#333333"/>
</g>
<path d="M97.2424 58.662C100.44 58.662 102.078 58.116 102.078 56.868C102.078 55.62 100.44 55.048 97.2424 55.048C94.0444 55.048 92.4064 55.62 92.4064 56.868C92.4064 58.116 94.0444 58.662 97.2424 58.662ZM97.2424 52.448C102.416 52.448 105.562 54.034 105.562 56.868C105.562 59.676 102.416 61.262 97.2424 61.262C92.0684 61.262 88.9484 59.676 88.9484 56.868C88.9484 54.034 92.0684 52.448 97.2424 52.448ZM99.0364 48.548H108.162V51.278H86.5044V48.548H95.6044V46.572H89.1304V38.304H105.562V41.034H92.5364V43.842H105.692V46.572H99.0364V48.548ZM113.958 44.44C113.958 46.286 115.232 47.404 117 47.404C118.768 47.404 120.068 46.286 120.068 44.44C120.068 42.568 118.768 41.476 117 41.476C115.232 41.476 113.958 42.568 113.958 44.44ZM126.984 43.14H123.188C123.266 43.556 123.318 43.972 123.318 44.44C123.318 44.882 123.266 45.298 123.162 45.74H126.984V43.14ZM126.984 48.47H121.654C120.51 49.614 118.872 50.29 117 50.29C113.464 50.29 110.708 47.82 110.708 44.44C110.708 41.034 113.464 38.564 117 38.564C118.924 38.564 120.562 39.266 121.706 40.41H126.984V37.29H130.416V51.33H126.984V48.47ZM122.304 58.61C125.45 58.61 127.14 57.934 127.14 56.53C127.14 55.126 125.45 54.45 122.304 54.45C119.158 54.45 117.494 55.126 117.494 56.53C117.494 57.934 119.158 58.61 122.304 58.61ZM122.304 51.798C127.374 51.798 130.52 53.54 130.52 56.53C130.52 59.494 127.374 61.236 122.304 61.236C117.26 61.236 114.114 59.494 114.114 56.53C114.114 53.54 117.26 51.798 122.304 51.798ZM148.432 47.898L146.638 50.55C144.116 49.718 142.374 48.106 141.36 46.078C140.32 48.418 138.474 50.264 135.744 51.226L133.95 48.522C137.954 47.196 139.566 43.998 139.566 40.748V38.59H143.05V41.034C143.05 43.92 144.662 46.728 148.432 47.898ZM145.338 58.584C148.38 58.584 150.018 57.96 150.018 56.608C150.018 55.282 148.38 54.658 145.338 54.658C142.27 54.658 140.632 55.282 140.632 56.608C140.632 57.96 142.27 58.584 145.338 58.584ZM145.338 52.006C150.304 52.006 153.424 53.722 153.424 56.608C153.424 59.52 150.304 61.236 145.338 61.236C140.346 61.236 137.226 59.52 137.226 56.608C137.226 53.722 140.346 52.006 145.338 52.006ZM153.164 42.854H156.336V45.688H153.164V51.46H149.732V37.316H153.164V42.854ZM169.048 38.486C174.092 38.486 177.992 41.242 177.992 45.428C177.992 49.588 174.092 52.344 169.048 52.344C164.03 52.344 160.13 49.588 160.13 45.428C160.13 41.242 164.03 38.486 169.048 38.486ZM169.048 41.294C165.798 41.294 163.484 42.828 163.484 45.428C163.484 47.976 165.798 49.536 169.048 49.536C172.324 49.536 174.638 47.976 174.638 45.428C174.638 42.828 172.324 41.294 169.048 41.294ZM158.232 55.568H179.916V58.376H158.232V55.568ZM194.682 55.802H203.834V58.61H182.15V55.802H191.25V52.24H184.646V44.128H198.01V41.554H184.62V38.824H201.39V46.806H188.052V49.484H201.936V52.24H194.682V55.802ZM231.3 43.868V46.572H214.738V37.94H231.17V40.67H218.144V43.868H231.3ZM222.85 58.636C226.048 58.636 227.686 58.09 227.686 56.842C227.686 55.594 226.048 55.022 222.85 55.022C219.652 55.022 218.014 55.594 218.014 56.842C218.014 58.09 219.652 58.636 222.85 58.636ZM222.85 52.422C228.024 52.422 231.17 54.008 231.17 56.842C231.17 59.65 228.024 61.236 222.85 61.236C217.676 61.236 214.556 59.65 214.556 56.842C214.556 54.008 217.676 52.422 222.85 52.422ZM212.112 48.236H233.77V51.044H212.112V48.236ZM238.396 56.894V54.19H255.192V61.158H251.76V56.894H238.396ZM248.562 50.108H257.688V52.838H236.004V50.108H245.13V48.392H238.708V41.814H251.656V40.358H238.656V37.758H255.036V44.232H242.088V45.792H255.53V48.392H248.562V50.108ZM266.838 53.54C268.45 53.54 269.62 52.448 269.62 50.602C269.62 48.808 268.45 47.69 266.838 47.69C265.226 47.69 264.03 48.808 264.03 50.628C264.03 52.448 265.226 53.54 266.838 53.54ZM266.838 44.908C270.296 44.908 272.87 47.274 272.87 50.602C272.87 53.982 270.296 56.348 266.838 56.348C263.354 56.348 260.754 53.982 260.754 50.602C260.754 47.274 263.354 44.908 266.838 44.908ZM268.528 37.706V40.826H273.728V43.556H259.792V40.826H265.096V37.706H268.528ZM282.152 46.65V49.484H278.72V61.236H275.288V37.29H278.72V46.65H282.152ZM285.166 39.76H296.658C296.658 47.092 294.188 53.072 285.686 57.18L283.892 54.476C290.002 51.538 292.654 47.794 293.148 42.49H285.166V39.76ZM300.324 37.264H303.782V61.21H300.324V37.264Z" fill="white"/>
<path d="M81.9007 595.798C80.4267 595.798 79.3707 596.502 79.3707 597.778C79.3707 599.01 80.4267 599.714 81.9007 599.714C83.3967 599.714 84.4307 599.01 84.4307 597.778C84.4307 596.502 83.3967 595.798 81.9007 595.798ZM81.9007 602.09C78.8427 602.09 76.5767 600.286 76.5767 597.778C76.5767 595.226 78.8427 593.444 81.9007 593.444C84.9587 593.444 87.2027 595.226 87.2027 597.778C87.2027 600.286 84.9587 602.09 81.9007 602.09ZM88.2367 602.596L88.4127 604.708C86.7847 605.038 85.0907 605.236 83.4407 605.39V612.276H80.5367V605.566C78.7987 605.632 77.1487 605.654 75.7187 605.654L75.3887 603.278C78.9307 603.278 83.9467 603.234 88.2367 602.596ZM89.3807 592.63H92.2847V612.87H89.3807V592.63ZM101.908 593.972C105.076 593.972 107.496 596.062 107.496 598.966C107.496 601.892 105.076 603.96 101.908 603.96C98.74 603.96 96.342 601.892 96.342 598.966C96.342 596.062 98.74 593.972 101.908 593.972ZM101.908 596.458C100.346 596.458 99.158 597.382 99.158 598.966C99.158 600.55 100.346 601.474 101.908 601.474C103.47 601.474 104.658 600.55 104.658 598.966C104.658 597.382 103.47 596.458 101.908 596.458ZM109.388 592.608H112.292V612.936H109.388V592.608ZM95.858 608.822L95.484 606.468C99.048 606.468 104.02 606.446 108.288 605.808L108.464 607.898C104.108 608.778 99.356 608.822 95.858 608.822ZM122.332 602.662L121.276 600.396C125.412 599.89 127.568 597.91 127.854 595.974H122.024V593.664H137.05V595.974H131.308C131.594 597.91 133.728 599.89 137.842 600.396L136.808 602.662C133.266 602.178 130.78 600.66 129.57 598.592C128.36 600.66 125.874 602.178 122.332 602.662ZM138.722 603.828V606.138H130.956V612.936H128.052V606.138H120.418V603.828H138.722ZM146.981 593.972C150.149 593.972 152.569 596.062 152.569 598.966C152.569 601.892 150.149 603.96 146.981 603.96C143.813 603.96 141.415 601.892 141.415 598.966C141.415 596.062 143.813 593.972 146.981 593.972ZM146.981 596.458C145.419 596.458 144.231 597.382 144.231 598.966C144.231 600.55 145.419 601.474 146.981 601.474C148.543 601.474 149.731 600.55 149.731 598.966C149.731 597.382 148.543 596.458 146.981 596.458ZM154.461 592.608H157.365V612.936H154.461V592.608ZM140.931 608.822L140.557 606.468C144.121 606.468 149.093 606.446 153.361 605.808L153.537 607.898C149.181 608.778 144.429 608.822 140.931 608.822ZM168.001 594.192V597.14C168.001 600.792 169.431 604.466 172.687 606.072L170.927 608.36C168.815 607.282 167.385 605.324 166.549 602.904C165.669 605.478 164.151 607.612 161.863 608.734L160.125 606.38C163.535 604.774 165.075 600.902 165.075 597.14V594.192H168.001ZM179.353 600.418V602.838H176.405V612.892H173.501V592.63H176.405V600.418H179.353ZM192.54 594.566V596.832H180.616V594.566H185.104V592.498H188.03V594.566H192.54ZM184.378 601.122C184.378 602.112 185.28 602.64 186.578 602.64C187.876 602.64 188.778 602.112 188.778 601.122C188.778 600.132 187.876 599.604 186.578 599.604C185.28 599.604 184.378 600.132 184.378 601.122ZM191.55 601.122C191.55 603.278 189.504 604.73 186.578 604.73C183.652 604.73 181.606 603.278 181.606 601.122C181.606 598.966 183.652 597.492 186.578 597.492C189.504 597.492 191.55 598.966 191.55 601.122ZM189.966 610.736C192.518 610.736 193.882 610.274 193.882 609.306C193.882 608.316 192.518 607.876 189.966 607.876C187.414 607.876 186.05 608.316 186.05 609.306C186.05 610.274 187.414 610.736 189.966 610.736ZM189.966 605.698C194.146 605.698 196.764 607.04 196.764 609.306C196.764 611.55 194.146 612.892 189.966 612.892C185.786 612.892 183.168 611.55 183.168 609.306C183.168 607.04 185.786 605.698 189.966 605.698ZM196.566 597.8H199.25V600.176H196.566V605.478H193.662V592.652H196.566V597.8ZM209.841 595.05C206.915 595.05 205.529 595.468 205.529 596.37C205.529 597.316 206.915 597.712 209.841 597.712C212.789 597.712 214.175 597.316 214.175 596.37C214.175 595.468 212.789 595.05 209.841 595.05ZM209.841 599.824C205.221 599.824 202.515 598.614 202.515 596.37C202.515 594.148 205.221 592.916 209.841 592.916C214.483 592.916 217.189 594.148 217.189 596.37C217.189 598.614 214.483 599.824 209.841 599.824ZM205.683 609.416V610.56H217.299V612.738H202.801V607.414H213.911V606.336H202.779V604.202H216.771V609.416H205.683ZM200.689 600.792H218.993V603.058H200.689V600.792ZM237.459 594.126V596.194H225.953V594.126H230.265V592.454H233.169V594.126H237.459ZM229.517 599.692C229.517 600.44 230.353 600.836 231.717 600.836C233.081 600.836 233.895 600.44 233.895 599.692C233.895 598.944 233.081 598.57 231.717 598.57C230.353 598.57 229.517 598.944 229.517 599.692ZM237.965 603.278L238.185 605.236C233.939 605.984 229.319 606.028 225.755 606.028L225.447 603.806C226.899 603.806 228.549 603.806 230.265 603.762V602.618C228.109 602.288 226.767 601.232 226.767 599.692C226.767 597.844 228.725 596.7 231.717 596.7C234.709 596.7 236.645 597.844 236.645 599.692C236.645 601.232 235.325 602.288 233.169 602.618V603.652C234.819 603.586 236.425 603.454 237.965 603.278ZM228.021 609.482V607.238H241.749V612.914H238.845V609.482H228.021ZM244.301 598.438V600.814H241.749V606.446H238.845V592.63H241.749V598.438H244.301ZM262.593 592.652V607.194H259.667V592.652H262.593ZM248.887 599.076C248.887 600.704 250.075 601.694 251.571 601.694C253.089 601.694 254.233 600.704 254.233 599.076C254.233 597.404 253.089 596.436 251.571 596.436C250.075 596.436 248.887 597.404 248.887 599.076ZM257.071 599.076C257.071 602.024 254.673 604.202 251.571 604.202C248.469 604.202 246.049 602.024 246.049 599.076C246.049 596.084 248.469 593.928 251.571 593.928C254.673 593.928 257.071 596.084 257.071 599.076ZM252.011 610.23H263.099V612.54H249.107V605.764H252.011V610.23ZM277.782 594.764L277.76 597.03H265.836V594.764H270.324V592.608H273.25V594.764H277.782ZM269.598 601.65C269.598 602.772 270.5 603.366 271.798 603.366C273.074 603.366 273.998 602.772 273.998 601.65C273.998 600.55 273.074 599.956 271.798 599.956C270.5 599.956 269.598 600.55 269.598 601.65ZM276.77 601.65C276.77 603.982 274.702 605.566 271.798 605.566C268.894 605.566 266.826 603.982 266.826 601.65C266.826 599.362 268.894 597.756 271.798 597.756C274.702 597.756 276.77 599.362 276.77 601.65ZM271.622 606.666V610.23H282.512V612.54H268.718V606.666H271.622ZM281.786 598.812H284.47V601.21H281.786V607.788H278.882V592.63H281.786V598.812ZM308.194 594.742V597.008H291.716V594.742H298.536V592.608H301.44V594.742H308.194ZM303.926 601.298C303.926 600.352 302.628 599.956 299.988 599.956C297.348 599.956 296.072 600.352 296.072 601.298C296.072 602.2 297.348 602.618 299.988 602.618C302.628 602.618 303.926 602.2 303.926 601.298ZM293.058 601.298C293.058 599.054 295.654 597.8 299.988 597.8C304.322 597.8 306.94 599.054 306.94 601.298C306.94 603.52 304.322 604.774 299.988 604.774C295.654 604.774 293.058 603.52 293.058 601.298ZM309.184 605.742V608.074H301.44V612.914H298.536V608.074H290.836V605.742H309.184ZM314.908 608.812L314.823 609.672C314.755 610.359 314.625 611.044 314.432 611.727C314.244 612.414 314.046 613.036 313.838 613.594C313.635 614.151 313.471 614.589 313.346 614.906H311.19C311.268 614.599 311.375 614.169 311.51 613.617C311.645 613.07 311.773 612.456 311.893 611.773C312.013 611.091 312.088 610.396 312.119 609.687L312.158 608.812H314.908ZM114.114 641.874C115.61 641.874 116.644 640.268 116.644 637.254C116.644 634.262 115.61 632.656 114.114 632.656C112.596 632.656 111.584 634.262 111.584 637.254C111.584 640.268 112.596 641.874 114.114 641.874ZM114.114 630.038C117.172 630.038 119.438 632.81 119.438 637.254C119.438 641.72 117.172 644.514 114.114 644.514C111.034 644.514 108.79 641.72 108.79 637.254C108.79 632.81 111.034 630.038 114.114 630.038ZM127.49 636.264V638.662H124.542V648.892H121.638V628.63H124.542V636.264H127.49ZM132.119 638.442V642.028C133.967 641.984 135.727 641.874 137.751 641.566L137.971 643.92C135.375 644.338 133.175 644.404 130.733 644.404H129.303V636.154H134.143V632.92H129.281V630.588H136.937V638.442H132.119ZM143.383 628.608H146.133V648.87H143.383V638.596H141.557V647.924H138.851V628.982H141.557V636.264H143.383V628.608ZM161.366 641.852V637.364H157.384V641.852H161.366ZM167.856 628.608H170.76V648.936H167.856V638.068H164.226V644.162H154.502V630.214H157.384V635.098H161.366V630.214H164.226V635.736H167.856V628.608ZM190.195 636.176V638.354H176.093V629.268H190.063V631.468H178.975V632.744H189.579V634.856H178.975V636.176H190.195ZM178.909 642.886V646.23H190.305V648.54H176.005V642.886H178.909ZM173.805 639.564H192.153V641.852H173.805V639.564ZM203.052 631.05C200.126 631.05 198.74 631.468 198.74 632.37C198.74 633.316 200.126 633.712 203.052 633.712C206 633.712 207.386 633.316 207.386 632.37C207.386 631.468 206 631.05 203.052 631.05ZM203.052 635.824C198.432 635.824 195.726 634.614 195.726 632.37C195.726 630.148 198.432 628.916 203.052 628.916C207.694 628.916 210.4 630.148 210.4 632.37C210.4 634.614 207.694 635.824 203.052 635.824ZM198.894 645.416V646.56H210.51V648.738H196.012V643.414H207.122V642.336H195.99V640.202H209.982V645.416H198.894ZM193.9 636.792H212.204V639.058H193.9V636.792ZM235.334 634.944V637.254H221.188V629.532H224.092V634.944H235.334ZM237.248 639.542V641.896H229.438V648.914H226.534V641.896H218.9V639.542H237.248ZM252.393 634.482V632.304H241.063V629.994H255.253V636.748H243.967V639.014H255.715V641.324H241.085V634.482H252.393ZM238.973 644.228H257.321V646.604H238.973V644.228ZM266.593 637.87V632.524H262.743V637.87H266.593ZM273.083 634.13H269.431V636.176H273.083V634.13ZM269.431 638.486V640.158H259.883V630.258H269.431V631.82H273.083V628.63H275.987V643.392H273.083V638.486H269.431ZM265.515 646.23H276.427V648.54H262.611V642.006H265.515V646.23ZM99.8224 673.606L98.3044 675.85C96.1704 675.146 94.6964 673.782 93.8384 672.066C92.9584 674.046 91.3964 675.608 89.0864 676.422L87.5684 674.134C90.9564 673.012 92.3204 670.306 92.3204 667.556V665.73H95.2684V667.798C95.2684 670.24 96.6324 672.616 99.8224 673.606ZM97.2044 682.648C99.7784 682.648 101.164 682.12 101.164 680.976C101.164 679.854 99.7784 679.326 97.2044 679.326C94.6084 679.326 93.2224 679.854 93.2224 680.976C93.2224 682.12 94.6084 682.648 97.2044 682.648ZM97.2044 677.082C101.406 677.082 104.046 678.534 104.046 680.976C104.046 683.44 101.406 684.892 97.2044 684.892C92.9804 684.892 90.3404 683.44 90.3404 680.976C90.3404 678.534 92.9804 677.082 97.2044 677.082ZM103.826 669.338H106.51V671.736H103.826V676.62H100.922V664.652H103.826V669.338ZM119.17 670.548V667.49H115.012V670.548H119.17ZM112.13 670.548V667.49H109.556V665.18H124.626V667.49H122.052V670.548H124.472V672.858H109.688V670.548H112.13ZM121.216 682.384V680.338H112.922V682.384H121.216ZM126.254 676.422H118.554V678.072H124.076V684.65H110.084V678.072H115.65V676.422H107.95V674.112H126.254V676.422ZM149.208 670.196V672.484H135.194V665.18H149.098V667.49H138.076V670.196H149.208ZM142.058 682.692C144.764 682.692 146.15 682.23 146.15 681.174C146.15 680.118 144.764 679.634 142.058 679.634C139.352 679.634 137.966 680.118 137.966 681.174C137.966 682.23 139.352 682.692 142.058 682.692ZM142.058 677.434C146.436 677.434 149.098 678.776 149.098 681.174C149.098 683.55 146.436 684.892 142.058 684.892C137.68 684.892 135.04 683.55 135.04 681.174C135.04 678.776 137.68 677.434 142.058 677.434ZM132.972 673.892H151.298V676.268H132.972V673.892ZM155.047 681.218V678.93H169.259V684.826H166.355V681.218H155.047ZM163.649 675.476H171.371V677.786H153.023V675.476H160.745V674.024H155.311V668.458H166.267V667.226H155.267V665.026H169.127V670.504H158.171V671.824H169.545V674.024H163.649V675.476ZM186.978 664.608H189.882V684.936H186.978V664.608ZM178.992 666.038C182.05 666.038 184.316 668.81 184.316 673.254C184.316 677.72 182.05 680.514 178.992 680.514C175.934 680.514 173.668 677.72 173.668 673.254C173.668 668.81 175.934 666.038 178.992 666.038ZM178.992 668.656C177.496 668.656 176.462 670.262 176.462 673.254C176.462 676.268 177.496 677.874 178.992 677.874C180.488 677.874 181.522 676.268 181.522 673.254C181.522 670.262 180.488 668.656 178.992 668.656ZM201.792 669.558C201.792 670.79 202.738 671.494 204.124 671.494C205.51 671.494 206.5 670.79 206.5 669.558C206.5 668.326 205.51 667.622 204.124 667.622C202.738 667.622 201.792 668.326 201.792 669.558ZM210.196 674.574L210.372 676.62C206.28 677.39 201.726 677.456 198.382 677.456L198.03 675.146C199.416 675.146 201.022 675.146 202.694 675.102V673.54C200.538 673.078 199.086 671.56 199.086 669.558C199.086 667.138 201.198 665.444 204.124 665.444C207.072 665.444 209.184 667.138 209.184 669.558C209.184 671.538 207.754 673.056 205.598 673.54V674.992C207.16 674.904 208.744 674.794 210.196 674.574ZM203.574 678.776V682.23H214.838V684.54H200.67V678.776H203.574ZM214.156 670.988H216.708V673.386H214.156V680.096H211.252V664.63H214.156V670.988ZM225.672 677.192V680.294H229.214V677.192H225.672ZM232.074 680.294H236.518V682.67H218.148V680.294H222.812V677.192H220.282V670.394H231.59V668.238H220.26V665.928H234.45V672.66H223.164V674.882H234.912V677.192H232.074V680.294ZM250.981 673.298L251.201 675.3C246.889 676.07 242.203 676.136 238.683 676.158L238.287 673.914C239.849 673.914 241.631 673.914 243.457 673.848V672.286H239.981V665.554H249.727V667.864H242.885V669.998H249.837V672.286H246.361V673.716C247.945 673.65 249.507 673.518 250.981 673.298ZM252.279 682.384V680.91H244.315V682.384H252.279ZM252.279 678.71V677.192H255.139V684.65H241.433V677.192H244.315V678.71H252.279ZM252.235 664.63H255.139V676.378H252.235V664.63ZM262.254 666.544V677.412C264.916 677.346 267.798 677.126 270.768 676.532L271.076 678.952C267.622 679.678 264.256 679.898 261.176 679.898H259.372V666.544H262.254ZM272.33 664.608H275.234V684.87H272.33V664.608ZM282.064 668.854V677.654C284.946 677.61 287.344 677.456 289.962 677.016L290.248 679.414C287.19 679.964 284.418 680.074 280.898 680.074H279.182V666.5H288.62V668.854H282.064ZM297.2 672.11V674.508H294.252V684.936H291.348V664.63H294.252V672.11H297.2ZM300.79 683.203C300.275 683.203 299.832 683.021 299.462 682.656C299.098 682.286 298.915 681.844 298.915 681.328C298.915 680.818 299.098 680.38 299.462 680.016C299.832 679.651 300.275 679.469 300.79 679.469C301.29 679.469 301.728 679.651 302.103 680.016C302.478 680.38 302.665 680.818 302.665 681.328C302.665 681.672 302.577 681.987 302.4 682.273C302.228 682.555 302.001 682.781 301.72 682.953C301.439 683.12 301.129 683.203 300.79 683.203Z" fill="white"/>
</g>
<defs>
<filter id="filter0_d_774_180" x="-4" y="13" width="398" height="72" filterUnits="userSpaceOnUse" color-interpolation-filters="sRGB">
<feFlood flood-opacity="0" result="BackgroundImageFix"/>
<feColorMatrix in="SourceAlpha" type="matrix" values="0 0 0 0 0 0 0 0 0 0 0 0 0 0 0 0 0 0 127 0" result="hardAlpha"/>
<feOffset dy="4"/>
<feGaussianBlur stdDeviation="2"/>
<feComposite in2="hardAlpha" operator="out"/>
<feColorMatrix type="matrix" values="0 0 0 0 0 0 0 0 0 0 0 0 0 0 0 0 0 0 0.08 0"/>
<feBlend mode="normal" in2="BackgroundImageFix" result="effect1_dropShadow_774_180"/>
<feBlend mode="normal" in="SourceGraphic" in2="effect1_dropShadow_774_180" result="shape"/>
</filter>
<clipPath id="clip0_774_180">
<rect width="390" height="844" fill="white"/>
</clipPath>
<clipPath id="clip1_774_180">
<rect width="50" height="51" fill="white" transform="translate(170 227)"/>
</clipPath>
</defs>
</svg>
