<svg width="44" height="46" viewBox="0 0 44 46" fill="none" xmlns="http://www.w3.org/2000/svg">
<path d="M13.3163 42.6252L35 20.1671L24.7007 9.49997L3.017 31.9581C2.71848 32.2676 2.50643 32.6551 2.40333 33.0794L0 45.75L12.2313 43.2608C12.642 43.1545 13.0177 42.9346 13.3163 42.6252ZM42 12.9171C42.8749 12.0108 43.3663 10.7816 43.3663 9.49997C43.3663 8.21835 42.8749 6.98919 42 6.08281L38.2993 2.24997C37.4242 1.34386 36.2374 0.834839 35 0.834839C33.7626 0.834839 32.5758 1.34386 31.7007 2.24997L28 6.08281L38.2993 16.75L42 12.9171Z" fill="#333333"/>
</svg>
