<svg width="31" height="54" viewBox="0 0 31 54" fill="none" xmlns="http://www.w3.org/2000/svg">
<path d="M26.3385 4.47572C23.3175 2.09192 19.5227 0.900024 14.9541 0.900024C11.48 0.900024 8.54641 1.73812 6.16406 3.41722C2.38251 6.04462 0.373805 10.5077 0.130005 16.8007H8.89356C8.89356 14.965 9.38381 13.2047 10.359 11.4995C11.3369 9.80012 12.9958 8.95042 15.3357 8.95042C17.7154 8.95042 19.3558 9.64062 20.2488 11.0181C21.1472 12.4014 21.595 13.9297 21.595 15.6059C21.595 17.0675 20.9272 18.4044 20.119 19.6166C19.6373 20.3692 19.0455 21.0296 18.3673 21.5712C18.3673 21.5712 13.6159 24.9062 11.5303 27.5858C10.3219 29.1373 10.2133 31.466 10.1046 34.801C10.0993 35.0388 10.1815 35.5318 10.9394 35.5318H17.7525C18.4309 35.5318 18.5714 34.9837 18.5793 34.7372C18.627 33.525 18.7489 32.9015 18.953 32.1997C19.3346 30.8744 20.3787 29.7202 21.5473 28.7226L23.9588 26.9043C26.1371 25.0454 27.8729 23.5229 28.6414 22.3281C29.9505 20.3677 30.8727 17.9491 30.8727 15.0781C30.87 10.3946 29.3595 6.86532 26.3385 4.47572ZM14.8137 41.2796C11.7953 41.1781 9.30431 43.4662 9.20891 47.0506C9.11616 50.6292 11.4826 52.9985 14.5036 53.0942C17.6545 53.1957 20.0792 50.9859 20.1773 47.4015C20.2674 43.8171 17.9672 41.3811 14.8137 41.2796Z" fill="black"/>
</svg>
